<?xml version="1.0" encoding="utf-8"?>
<!-- Generator: Adobe Illustrator 16.0.0, SVG Export Plug-In . SVG Version: 6.00 Build 0)  -->
<!DOCTYPE svg PUBLIC "-//W3C//DTD SVG 1.1//EN" "http://www.w3.org/Graphics/SVG/1.1/DTD/svg11.dtd">
<svg version="1.1" id="Layer_1" xmlns="http://www.w3.org/2000/svg" xmlns:xlink="http://www.w3.org/1999/xlink" x="0px" y="0px"
	 width="64.821px" height="172.964px" viewBox="0 0 64.821 172.964" enable-background="new 0 0 64.821 172.964"
	 xml:space="preserve">
<path fill="#2C8C96" d="M3.471,71.491c-0.722,1.918,0.25,4.06,2.169,4.78l0,0c1.918,0.723,4.061-0.25,4.781-2.169l8.847-23.944
	c0.721-1.919-0.249-4.06-2.169-4.781l0,0c-1.92-0.722-4.06,0.25-4.782,2.169L3.471,71.491z"/>
<path fill="#267B85" d="M17.099,45.376c-0.331-0.124-0.667-0.181-1.001-0.209c1.239,0.974,1.778,2.659,1.194,4.215L8.446,73.327
	c-0.598,1.59-2.168,2.512-3.78,2.377c0.291,0.229,0.61,0.431,0.974,0.567c1.918,0.723,4.061-0.25,4.781-2.169l8.847-23.944
	C19.988,48.239,19.019,46.098,17.099,45.376z"/>
<path fill="#2C8C96" d="M54.347,101.903c-4.584-12.227-0.046-27.679-0.046-27.679l1.408-0.098l1.407,0.098
	c0,0,4.54,15.452-0.045,27.679H54.347z"/>
<path fill="#267B85" d="M55.999,74.567l1.189-0.084c-0.044-0.162-0.072-0.259-0.072-0.259l-1.407-0.098l-1.408,0.098
	c0,0-4.538,15.452,0.046,27.679h1.579C51.55,89.734,55.999,74.567,55.999,74.567z"/>
<path fill="#2C8C96" d="M57.974,71.491c0.722,1.918-0.25,4.06-2.169,4.78l0,0c-1.92,0.723-4.061-0.25-4.781-2.169l-8.847-23.944
	c-0.721-1.919,0.251-4.06,2.17-4.781l0,0c1.92-0.722,4.061,0.25,4.781,2.169L57.974,71.491z"/>
<path fill="#267B85" d="M53.244,73.327l-8.846-23.944c-0.587-1.563-0.04-3.26,1.216-4.23c-0.422,0.004-0.851,0.067-1.268,0.225
	c-1.919,0.722-2.891,2.862-2.17,4.781l8.847,23.944c0.721,1.919,2.861,2.892,4.781,2.169c0.355-0.135,0.668-0.328,0.954-0.551
	C55.242,75.735,53.81,74.829,53.244,73.327z"/>
<path fill="#3CC0CF" d="M39.64,166.028c6.295-17.146,0.063-38.822,0.063-38.822l-1.934-0.139l-1.933,0.139
	c0,0-6.232,21.677,0.063,38.822H39.64z"/>
<path fill="#3CC0CF" d="M39.64,166.028c6.295-17.146,0.063-38.822,0.063-38.822l-1.934-0.139l-1.933,0.139
	c0,0-6.232,21.677,0.063,38.822H39.64z"/>
<path fill="#34A6B3" d="M37.882,165.646c-5.905-16.083-0.787-36.151-0.131-38.576l-1.915,0.136c0,0-6.232,21.677,0.063,38.822h3.741
	c0.046-0.125,0.085-0.255,0.13-0.382H37.882z"/>
<path fill="#3CC0CF" d="M31.836,101.045c0,0-1.121,29.621,5.616,29.621c6.659,0,6.895-21.631-0.688-33.359
	c-0.09-0.14-0.181-0.277-0.274-0.415L31.836,101.045z"/>
<path fill="#3CC0CF" d="M31.836,101.045c0,0-1.121,29.621,5.616,29.621c6.659,0,6.895-21.631-0.688-33.359
	c-0.09-0.14-0.181-0.277-0.274-0.415L31.836,101.045z"/>
<path fill="#34A6B3" d="M33.538,101.047l3.564-3.184c-0.113-0.186-0.222-0.377-0.339-0.557c-0.09-0.14-0.181-0.277-0.274-0.415
	l-4.653,4.155c0,0-1.121,29.619,5.616,29.619c0.322,0,0.623-0.065,0.915-0.162C32.51,128.269,33.538,101.047,33.538,101.047z"/>
<circle fill="#2C8C96" cx="37.452" cy="130.667" r="4.368"/>
<path fill="#3CC0CF" d="M21.805,166.028c-6.293-17.146-0.063-38.822-0.063-38.822l1.934-0.139l1.933,0.139
	c0,0,6.231,21.677-0.063,38.822H21.805z"/>
<path fill="#3CC0CF" d="M21.805,166.028c-6.293-17.146-0.063-38.822-0.063-38.822l1.934-0.139l1.933,0.139
	c0,0,6.231,21.677-0.063,38.822H21.805z"/>
<path fill="#34A6B3" d="M23.563,165.646c5.904-16.083,0.787-36.151,0.129-38.576l1.916,0.136c0,0,6.231,21.677-0.063,38.822h-3.741
	c-0.046-0.125-0.085-0.255-0.13-0.382H23.563z"/>
<path fill="#3CC0CF" d="M29.607,101.045c0,0,1.122,29.621-5.616,29.621c-6.658,0-6.894-21.631,0.69-33.359
	c0.09-0.14,0.181-0.277,0.273-0.415L29.607,101.045z"/>
<path fill="#3CC0CF" d="M29.607,101.045c0,0,1.122,29.621-5.616,29.621c-6.658,0-6.894-21.631,0.69-33.359
	c0.09-0.14,0.181-0.277,0.273-0.415L29.607,101.045z"/>
<path fill="#34A6B3" d="M27.906,101.047l-3.564-3.184c0.113-0.186,0.224-0.377,0.34-0.557c0.09-0.14,0.181-0.277,0.273-0.415
	l4.652,4.155c0,0,1.122,29.619-5.616,29.619c-0.321,0-0.624-0.065-0.914-0.162C28.935,128.269,27.906,101.047,27.906,101.047z"/>
<circle fill="#2C8C96" cx="23.992" cy="130.667" r="4.368"/>
<path fill="#6BE87F" d="M56.206,99.792c0,0-3.907-0.215-6.976,5.89c-3.265,6.497-2.326,9.831-0.67,10.095
	c1.474,0.235,2.288-0.945,1.626-3.827c-0.518-2.26,1.02-5.635,1.947-5.578c0.93,0.057,1.945,3.565,0.877,7.684
	c-0.853,3.273-3.589,6.806-0.714,7.079c2.875,0.277,2.901-5.857,3.004-7.809c0.102-1.95,0.372-5.613,0.91-5.71
	c0.537-0.098,1.972,3.974,1.459,6.544c-0.515,2.572-3.05,6.08-0.306,6.162c1.752,0.053,2.056-1.445,2.144-5.593
	c0.087-4.15,0.047-7.165,0.236-7.368c0.188-0.205,2.965,2.896,1.446,6.646c-1.288,3.179,1.28,3.709,2.166,1.746
	C64.138,114.025,64.298,101.674,56.206,99.792z"/>
<path fill="#3CC0CF" d="M28.986,34.367c0,0,0.868,0.868,1.735,0.868c0.869,0,1.736-0.868,1.736-0.868l2.471,9.449l-4.207,0.953
	l-4.205-0.953L28.986,34.367z"/>
<path fill="#267B85" d="M22.354,75.669l8.368,0.325l8.369-0.325c0,0,6.782,31.001-8.369,31.001
	C15.571,106.67,22.354,75.669,22.354,75.669z"/>
<path fill="#2C8C96" d="M23.468,75.669l7.254,0.283l7.254-0.283c0,0,5.879,27.088-7.254,27.088
	C17.591,102.757,23.468,75.669,23.468,75.669z"/>
<path fill="#3CC0CF" d="M15.538,40.986l15.184,8.726l15.184-8.726c7.731,0.016,4.408,9.716,4.408,9.716
	c-1.026-2.732-12.363-4.35-8.374,6.618c3.987,10.969-2.266,21.79-2.266,21.79s-2.97-3.115-8.952-3.115
	c-5.981,0-8.952,3.115-8.952,3.115s-6.252-10.821-2.265-21.79c3.989-10.968-7.348-9.351-8.374-6.618
	C11.131,50.702,7.809,41.001,15.538,40.986z"/>
<path fill="#3CC0CF" d="M15.538,40.986l15.184,8.726l15.184-8.726c7.731,0.016,4.408,9.716,4.408,9.716
	c-1.026-2.732-12.363-4.35-8.374,6.618c3.987,10.969-2.266,21.79-2.266,21.79s-2.97-3.115-8.952-3.115
	c-5.981,0-8.952,3.115-8.952,3.115s-6.252-10.821-2.265-21.79c3.989-10.968-7.348-9.351-8.374-6.618
	C11.131,50.702,7.809,41.001,15.538,40.986z"/>
<path fill="#3CC0CF" d="M15.538,40.986l15.184,8.726l15.184-8.726c7.731,0.016,4.408,9.716,4.408,9.716
	c-1.026-2.732-12.363-4.35-8.374,6.618c3.987,10.969-2.266,21.79-2.266,21.79s-2.97-3.115-8.952-3.115
	c-5.981,0-8.952,3.115-8.952,3.115s-6.252-10.821-2.265-21.79c3.989-10.968-7.348-9.351-8.374-6.618
	C11.131,50.702,7.809,41.001,15.538,40.986z"/>
<circle fill="#3CC0CF" cx="55.804" cy="76.271" r="4.781"/>
<path fill="#2C8C96" d="M35.521,52.155c0,0.729-0.592,1.32-1.319,1.32h-6.958c-0.729,0-1.319-0.591-1.319-1.32l0,0
	c0-0.728,0.591-1.318,1.319-1.318h6.958C34.929,50.836,35.521,51.427,35.521,52.155L35.521,52.155z"/>
<path fill="#2C8C96" d="M35.521,57.52c0,0.729-0.592,1.32-1.319,1.32h-6.958c-0.729,0-1.319-0.591-1.319-1.32l0,0
	c0-0.729,0.591-1.32,1.319-1.32h6.958C34.929,56.2,35.521,56.791,35.521,57.52L35.521,57.52z"/>
<path fill="#2C8C96" d="M35.521,62.625c0,0.729-0.592,1.32-1.319,1.32h-6.958c-0.729,0-1.319-0.591-1.319-1.32l0,0
	c0-0.729,0.591-1.319,1.319-1.319h6.958C34.929,61.306,35.521,61.897,35.521,62.625L35.521,62.625z"/>
<circle fill="#FF297B" cx="30.723" cy="75.995" r="7.182"/>
<circle fill="#3CC0CF" cx="30.723" cy="75.995" r="3.52"/>
<path fill="#6BE87F" d="M46.51,17.827c0,8.822-7.151,21.024-15.975,21.024c-8.822,0-15.974-12.203-15.974-21.024
	S21.713,1.853,30.535,1.853C39.358,1.853,46.51,9.005,46.51,17.827z"/>
<path fill="#60D172" d="M30.535,37.248c-8.665,0-15.713-11.257-15.964-19.656c0,0.079-0.01,0.156-0.01,0.235
	c0,8.822,7.151,21.024,15.974,21.024c8.823,0,15.975-12.203,15.975-21.024c0-0.079-0.011-0.156-0.013-0.235
	C46.249,25.99,39.2,37.248,30.535,37.248z"/>
<circle fill="#35BF4C" cx="16.684" cy="17.241" r="7.625"/>
<circle fill="#FFFFFF" cx="16.684" cy="17.241" r="5.658"/>
<circle fill="#512C96" cx="16.683" cy="17.241" r="2.569"/>
<path fill="#3D3D3D" d="M30.535,32.644c-5.668,0-8.429-3.413-8.429-3.413c2.645,5.03,8.429,5.554,8.429,5.554
	s5.784-0.523,8.429-5.554C38.964,29.23,36.203,32.644,30.535,32.644z"/>
<circle fill="#FFFFFF" cx="18.562" cy="15.494" r="1.986"/>
<circle fill="#35BF4C" cx="46.51" cy="17.241" r="7.625"/>
<circle fill="#FFFFFF" cx="46.509" cy="17.241" r="5.658"/>
<circle fill="#512C96" cx="46.51" cy="17.241" r="2.568"/>
<circle fill="#FFFFFF" cx="48.389" cy="15.494" r="1.986"/>
<path fill="#3CC0CF" d="M61.251,100.372c0,1.317-1.066,2.386-2.384,2.386h-6.316c-1.317,0-2.384-1.068-2.384-2.386l0,0
	c0-1.316,1.066-2.385,2.384-2.385h6.316C60.185,97.987,61.251,99.055,61.251,100.372L61.251,100.372z"/>
<g opacity="0.4">
	<ellipse fill="#3D3D3D" cx="29.008" cy="25.528" rx="0.703" ry="1.353"/>
	<ellipse fill="#3D3D3D" cx="32.062" cy="25.528" rx="0.703" ry="1.353"/>
</g>
<ellipse transform="matrix(0.9232 -0.3844 0.3844 0.9232 -0.5873 9.1368)" opacity="0.2" fill="#3D3D3D" cx="22.563" cy="6.038" rx="1.066" ry="0.699"/>
<ellipse transform="matrix(0.9233 -0.3842 0.3842 0.9233 -0.2323 10.9131)" opacity="0.2" fill="#3D3D3D" cx="27.201" cy="6.038" rx="3.095" ry="1.175"/>
<ellipse transform="matrix(0.9234 -0.384 0.384 0.9234 -0.0437 15.8298)" opacity="0.2" fill="#3D3D3D" cx="39.626" cy="8.024" rx="1.162" ry="0.644"/>
<ellipse transform="matrix(0.9233 -0.3842 0.3842 0.9233 -1.4321 15.4855)" opacity="0.2" fill="#3D3D3D" cx="38.046" cy="11.327" rx="2.039" ry="1.13"/>
<path opacity="0.2" fill="#FFFFFF" d="M51.023,76.271c0,2.641,2.141,4.782,4.781,4.782v-9.563
	C53.164,71.491,51.023,73.631,51.023,76.271z"/>
<path opacity="0.16" fill="#FFFFFF" d="M19.624,130.667c0,2.412,1.955,4.367,4.367,4.367v-8.736
	C21.579,126.297,19.624,128.253,19.624,130.667z"/>
<path opacity="0.2" fill="#FFFFFF" d="M33.084,130.667c0,2.412,1.956,4.367,4.368,4.367v-8.736
	C35.04,126.297,33.084,128.253,33.084,130.667z"/>
<polygon fill="#FF297B" points="30.722,42.109 53.136,38.618 30.722,51.831 8.31,38.618 "/>
<polygon fill="#FF297B" points="30.722,42.109 53.136,38.618 30.722,51.831 8.31,38.618 "/>
<polygon fill="#DE236B" points="30.722,50.169 12.138,39.214 8.31,38.618 30.722,51.831 53.136,38.618 49.306,39.214 "/>
<path opacity="0.16" fill="#FFFFFF" d="M30.722,5.083c-0.063-0.001-0.123-0.007-0.187-0.007c-5.819,0-10.896,3.123-13.689,7.772
	c-0.055-0.001-0.107-0.008-0.162-0.008c-4.211,0-7.624,3.414-7.624,7.625c0,3.915,2.951,7.137,6.75,7.571
	c2.093,6.193,6.628,12.171,12.099,13.673l-0.799,3.06l-14.972-2.33l-1.587-0.247L8.31,41.841l0,0l4.771,2.813
	c-4.473,1.9-1.95,9.27-1.95,9.27c1.026-2.731,12.363-4.348,8.374,6.62c-3.842,10.569,1.822,20.998,2.238,21.743
	c-1.25,8.037-3.062,27.607,8.979,27.607l0,0V5.083z"/>
<path fill="#FF297B" d="M50.703,165.097H36.079c-1.861,0-3.372,1.51-3.372,3.372h21.368
	C54.075,166.607,52.565,165.097,50.703,165.097z"/>
<path fill="#3CC0CF" d="M55.819,169.712c0,0.686-0.557,1.242-1.243,1.242H33.385c-0.687,0-1.242-0.557-1.242-1.242l0,0
	c0-0.687,0.556-1.243,1.242-1.243h21.191C55.263,168.469,55.819,169.026,55.819,169.712L55.819,169.712z"/>
<path fill="#FF297B" d="M10.741,165.097h14.623c1.862,0,3.372,1.51,3.372,3.372H7.369C7.369,166.607,8.878,165.097,10.741,165.097z"
	/>
<path fill="#3CC0CF" d="M5.626,169.712c0,0.686,0.555,1.242,1.242,1.242h21.193c0.686,0,1.242-0.557,1.242-1.242l0,0
	c0-0.687-0.557-1.243-1.242-1.243H6.868C6.181,168.469,5.626,169.026,5.626,169.712L5.626,169.712z"/>
</svg>
