<?xml version="1.0" encoding="utf-8"?>
<!-- Generator: Adobe Illustrator 16.0.0, SVG Export Plug-In . SVG Version: 6.00 Build 0)  -->
<!DOCTYPE svg PUBLIC "-//W3C//DTD SVG 1.1//EN" "http://www.w3.org/Graphics/SVG/1.1/DTD/svg11.dtd">
<svg version="1.1" id="Layer_1" xmlns="http://www.w3.org/2000/svg" xmlns:xlink="http://www.w3.org/1999/xlink" x="0px" y="0px"
	 width="43.783px" height="79.277px" viewBox="0 0 43.783 79.277" enable-background="new 0 0 43.783 79.277" xml:space="preserve">
<path fill="#2C8C96" d="M22.578,32.068c13.676,16.07,15.25,42.054,15.25,42.054l-2.086,0.923l-2.195,0.622
	c0,0-15.378-21.004-15.111-42.104L22.578,32.068z"/>
<path fill="#267B85" d="M22.578,32.068l-4.143,1.494c-0.001,0.013,0,0.026,0,0.039l1.137-0.411
	c13.677,16.071,15.251,42.055,15.251,42.055l-0.378,0.167l1.297-0.367l2.086-0.923C37.828,74.122,36.254,48.138,22.578,32.068z"/>
<path fill="#6BE87F" d="M20.909,36.298c0,0,6.06-1.817,7.375-12.782c1.401-11.668-1.857-16.223-4.52-15.717
	c-2.369,0.452-2.961,2.693-0.373,6.712c2.027,3.151,1.543,9.126,0.1,9.55c-1.444,0.423-4.915-4.357-5.546-11.202
	c-0.503-5.445,1.722-12.316-2.801-11.157s-1.196,10.5-0.283,13.522c0.916,3.022,2.513,8.739,1.75,9.182
	c-0.764,0.443-5.18-4.959-5.809-9.151c-0.63-4.193,1.301-10.917-2.915-9.537C5.193,6.599,5.554,9.043,7.696,15.4
	c2.142,6.356,3.858,10.919,3.683,11.332c-0.176,0.414-6.101-2.778-5.847-9.312c0.215-5.542-3.982-4.938-4.253-1.467
	C1.041,19.008,7.572,37.873,20.909,36.298z"/>
<circle fill="#3CC0CF" cx="36.058" cy="71.549" r="7.728"/>
<path fill="#3CC0CF" d="M29.791,32.02c0.66,2.024-0.447,4.199-2.471,4.858l-9.708,3.161c-2.023,0.66-4.198-0.447-4.858-2.471l0,0
	c-0.659-2.023,0.447-4.2,2.471-4.858l9.709-3.163C26.957,28.889,29.132,29.995,29.791,32.02L29.791,32.02z"/>
<path opacity="0.2" fill="#FFFFFF" d="M28.33,71.549c0,4.268,3.46,7.728,7.729,7.728V63.82C31.79,63.82,28.33,67.281,28.33,71.549z"
	/>
</svg>
