<?xml version="1.0" encoding="utf-8"?>
<!-- Generator: Adobe Illustrator 16.0.0, SVG Export Plug-In . SVG Version: 6.00 Build 0)  -->
<!DOCTYPE svg PUBLIC "-//W3C//DTD SVG 1.1//EN" "http://www.w3.org/Graphics/SVG/1.1/DTD/svg11.dtd">
<svg version="1.1" id="Layer_1" xmlns="http://www.w3.org/2000/svg" xmlns:xlink="http://www.w3.org/1999/xlink" x="0px" y="0px"
	 width="950px" height="597px" viewBox="0 0 950 597" enable-background="new 0 0 950 597" xml:space="preserve">
<g>
	<g>
		<path fill="#D4F4FF" d="M271.242,144.429c-14.463,35.193-16.295,75.744-1.812,114.26l57.791,153.702l290.223-109.134
			l-57.801-153.695c-14.48-38.516-42.579-67.812-76.646-84.76L271.242,144.429z"/>
		<g>
			<path fill="#505063" d="M487.358,244.903c-10.513-27.958-41.585-42.141-69.405-31.682l0,0
				c-27.816,10.461-41.844,41.602-31.333,69.564l23.835,63.383c10.512,27.958,41.585,42.146,69.404,31.685l0,0
				c27.821-10.463,41.849-41.608,31.333-69.567L487.358,244.903z"/>
			<g>
				<path fill="#63C700" d="M488.444,169.182c5.817,15.486-1.953,32.739-17.36,38.537l-96.721,36.369
					c-15.41,5.796-32.621-2.061-38.446-17.55l0,0c-5.825-15.49,1.946-32.739,17.353-38.536l96.724-36.369
					C465.405,145.839,482.616,153.696,488.444,169.182L488.444,169.182z"/>
				<path fill="#63C700" d="M443.502,160.479c5.842,15.531-7.221,34.819-29.186,43.078c-21.958,8.255-44.492,2.357-50.333-13.177
					c-5.842-15.535,7.225-34.82,29.182-43.078C415.126,139.043,437.664,144.944,443.502,160.479z"/>
				<path fill="#63C700" d="M450.489,192.267c9.354,24.871-9.493,54.973-18.473,58.347c-8.98,3.377-42.992-6.848-52.342-31.719
					c-9.354-24.872-1.086-50.999,18.473-58.351C417.701,153.191,441.138,167.392,450.489,192.267z"/>
				<g>
					<path fill="#63C700" d="M380.199,175.01c0,0-29.307,5.23-42.235,7.536c-12.929,2.305-35.114-11.453-35.114-11.453
						s1.176,22.694,15.372,33.555c0,0,4.875-9.513,28.712-13.765c23.838-4.252,29.874-5.327,29.874-5.327L380.199,175.01z"/>
					<path fill="#63C700" d="M421.182,159.604c0,0,25.49-15.379,36.735-22.165c11.245-6.783,18.871-31.754,18.871-31.754
						s14.069,17.844,10.539,35.374c0,0-9.935-3.941-30.668,8.565c-20.73,12.51-25.978,15.676-25.978,15.676L421.182,159.604z"/>
				</g>
				<g>
					<g>
						<path fill="#181566" d="M379.781,189.826c-14.18-1.818-27.471,11.214-27.941,15.009c-0.474,3.799,9.226,19.776,23.409,21.594
							c14.18,1.819,27.485-11.324,27.941-15.013C403.649,207.729,393.963,191.641,379.781,189.826z"/>
						
							<ellipse transform="matrix(0.936 -0.3521 0.3521 0.936 -48.7004 142.8316)" fill="#EDEDFA" cx="368.314" cy="205.3" rx="5.847" ry="5.874"/>
					</g>
					<g>
						<path fill="#181566" d="M431.255,170.471c9.468-10.712,28.056-9.668,30.911-7.121c2.855,2.548,6.087,20.955-3.38,31.667
							c-9.472,10.709-28.139,9.593-30.914,7.117C425.099,199.664,421.784,181.181,431.255,170.471z"/>
						<path fill="#EDEDFA" d="M444.605,176.611c1.141,3.039,4.518,4.58,7.539,3.443c3.024-1.138,4.549-4.522,3.405-7.557
							c-1.144-3.039-4.518-4.581-7.539-3.443C444.985,170.191,443.461,173.572,444.605,176.611z"/>
					</g>
				</g>
				<g>
					<path opacity="0.4" fill="#181566" d="M418.41,226.869c0.847,2.25,0.85,4.332,0.014,4.646
						c-0.843,0.317-2.209-1.252-3.052-3.502c-0.851-2.25-0.854-4.331-0.014-4.649C416.198,223.049,417.566,224.619,418.41,226.869z"
						/>
					<path opacity="0.4" fill="#181566" d="M429.645,222.645c0.847,2.25,0.851,4.332,0.014,4.646
						c-0.84,0.314-2.206-1.255-3.056-3.502c-0.844-2.25-0.851-4.331-0.011-4.649C427.432,218.825,428.797,220.394,429.645,222.645z"
						/>
				</g>
			</g>
		</g>
		<path fill="#CBD647" d="M601.657,413.504c8.703,23.143-26.756,57.897-79.21,77.618c-52.441,19.72-102.012,16.945-110.712-6.197
			c-8.704-23.148,26.755-57.898,79.198-77.619C543.382,387.589,592.956,390.357,601.657,413.504z"/>
		<path fill="#4F4599" d="M614.46,408.691c2.537,6.755-0.85,14.277-7.573,16.804L415.7,497.392
			c-6.716,2.528-14.225-0.902-16.765-7.659l0,0c-2.541-6.752,0.851-14.277,7.566-16.804l191.188-71.894
			C604.411,398.509,611.92,401.934,614.46,408.691L614.46,408.691z"/>
		<path fill="#C676F5" d="M477.933,372.724L145.218,497.842c0,0,166.961,24.519,361.474-48.63
			c194.525-73.145,303.977-201.603,303.977-201.603L477.933,372.724z"/>
		<path fill="#D193F5" d="M477.933,372.724l-266.49,100.212c0,0,139.453,34.862,295.25-23.724
			c155.804-58.585,237.746-176.7,237.746-176.7L477.933,372.724z"/>
		<path fill="#E3B3FF" d="M477.933,372.724L330.259,428.25c0,0,90.104,53.428,176.434,20.962
			c86.336-32.462,118.916-132.021,118.916-132.021L477.933,372.724z"/>
		<path fill="#C676F5" d="M583.138,245.86l-133.97,50.375l-133.963,50.369C201.263,389.455,105.04,493.451,105.04,493.451
			l366.469-137.811l366.494-137.804C838.003,217.836,697.087,203.014,583.138,245.86z"/>
		<path fill="#D193F5" d="M553.2,257.116l-104.032,39.12L345.14,335.349c-88.476,33.272-158.199,127.304-158.199,127.304
			l284.568-107.012l284.585-107.008C756.095,248.633,641.683,223.844,553.2,257.116z"/>
		<path fill="#E3B3FF" d="M500.024,277.113l-50.856,19.123l-50.852,19.12c-43.255,16.264-65.924,92.601-65.924,92.601
			l139.117-52.315L610.63,303.33C610.63,303.33,543.278,260.846,500.024,277.113z"/>
		<path fill="#4F4599" d="M854.225,222.292c3.547,9.434-1.186,19.942-10.57,23.471L119.192,518.186
			c-9.389,3.528-19.87-1.255-23.417-10.689l0,0c-3.55-9.438,1.186-19.945,10.571-23.474L830.809,211.6
			C840.194,208.075,850.675,212.859,854.225,222.292L854.225,222.292z"/>
		<g>
			
				<ellipse transform="matrix(0.9361 -0.3518 0.3518 0.9361 -166.2995 76.292)" fill="#CBD647" cx="126.775" cy="495.735" rx="8.976" ry="9.02"/>
			<path fill="#CBD647" d="M198.484,468.771c1.752,4.663-0.588,9.858-5.23,11.604c-4.639,1.742-9.824-0.625-11.577-5.289
				c-1.752-4.663,0.587-9.854,5.227-11.604C191.542,461.739,196.728,464.104,198.484,468.771z"/>
			<path fill="#CBD647" d="M261.784,444.96c1.756,4.666-0.584,9.862-5.226,11.608c-4.643,1.746-9.825-0.622-11.574-5.286
				c-1.756-4.663,0.584-9.862,5.224-11.608C254.846,437.93,260.031,440.297,261.784,444.96z"/>
			<path fill="#CBD647" d="M325.087,421.156c1.756,4.664-0.584,9.863-5.227,11.605c-4.639,1.745-9.82-0.623-11.573-5.285
				c-1.752-4.667,0.584-9.86,5.227-11.604C318.15,414.126,323.331,416.494,325.087,421.156z"/>
			<path fill="#CBD647" d="M388.395,397.351c1.756,4.662-0.584,9.858-5.227,11.604c-4.643,1.742-9.824-0.62-11.577-5.29
				c-1.756-4.662,0.584-9.854,5.227-11.601C381.457,390.318,386.639,392.684,388.395,397.351z"/>
			
				<ellipse transform="matrix(0.936 -0.352 0.352 0.936 -104.2382 180.1783)" fill="#CBD647" cx="443.3" cy="376.703" rx="8.977" ry="9.021"/>
			<path fill="#CBD647" d="M515.012,349.739c1.754,4.66-0.59,9.859-5.229,11.604c-4.642,1.746-9.827-0.622-11.58-5.284
				c-1.753-4.664,0.592-9.862,5.227-11.604C508.071,342.709,513.254,345.077,515.012,349.739z"/>
			<path fill="#CBD647" d="M578.319,325.934c1.753,4.662-0.584,9.861-5.227,11.607c-4.642,1.745-9.823-0.623-11.579-5.285
				c-1.753-4.663,0.584-9.862,5.226-11.608C571.383,318.901,576.567,321.27,578.319,325.934z"/>
			<path fill="#CBD647" d="M641.628,302.13c1.752,4.664-0.584,9.858-5.228,11.601c-4.639,1.746-9.824-0.614-11.576-5.284
				c-1.754-4.664,0.584-9.856,5.226-11.602C634.693,295.098,639.874,297.466,641.628,302.13z"/>
			<path fill="#CBD647" d="M704.94,278.323c1.754,4.667-0.59,9.859-5.226,11.604c-4.646,1.745-9.824-0.623-11.584-5.285
				c-1.753-4.664,0.591-9.859,5.227-11.604C698,271.292,703.185,273.66,704.94,278.323z"/>
			
				<ellipse transform="matrix(0.9359 -0.3522 0.3522 0.9359 -42.0676 284.0949)" fill="#CBD647" cx="759.847" cy="257.677" rx="8.976" ry="9.024"/>
			<path fill="#CBD647" d="M831.563,230.712c1.753,4.664-0.592,9.863-5.229,11.608c-4.644,1.743-9.828-0.622-11.58-5.285
				c-1.754-4.667,0.588-9.862,5.226-11.608C824.622,223.682,829.807,226.05,831.563,230.712z"/>
		</g>
		<path fill="#CBD647" d="M527.385,504.229c-79.108,29.746-141.248,59.152-138.793,65.679c2.455,6.53,68.572-12.292,147.681-42.037
			c79.106-29.749,141.246-59.156,138.789-65.686C672.61,455.658,606.489,474.48,527.385,504.229z M534.34,522.727
			c-45.36,17.057-83.253,27.894-84.643,24.205c-1.383-3.688,34.26-20.509,79.617-37.562c45.356-17.056,83.253-27.893,84.642-24.204
			C615.342,488.854,579.696,505.671,534.34,522.727z"/>
		<path fill="#CBD647" d="M538.456,533.686c-53.597,20.152-95.634,40.227-93.902,44.83c1.731,4.611,46.579-7.992,100.181-28.146
			c53.594-20.153,95.635-40.226,93.902-44.833C636.905,500.93,592.054,513.532,538.456,533.686z M543.365,546.741
			c-30.728,11.556-56.436,18.812-57.409,16.209c-0.983-2.604,23.135-14.083,53.865-25.636c30.73-11.557,56.432-18.814,57.411-16.212
			C598.214,523.705,574.099,535.188,543.365,546.741z"/>
		<path fill="#CBD647" d="M547.104,556.683c-38.127,14.336-67.959,28.822-66.632,32.356c1.327,3.532,33.316-5.228,71.444-19.563
			c38.129-14.339,67.96-28.827,66.629-32.359C617.223,533.585,585.232,542.345,547.104,556.683z M550.87,566.689
			c-21.865,8.225-40.196,13.268-40.942,11.272c-0.754-1.993,16.36-10.276,38.226-18.5c21.856-8.22,40.188-13.267,40.941-11.27
			C589.845,550.191,572.729,558.47,550.87,566.689z"/>
		<path fill="#C676F5" d="M482.996,64.802c-37.177-18.501-81.483-22.257-123.303-6.523c-41.82,15.729-72.672,47.745-88.452,86.15
			L482.996,64.802z"/>
		<path fill="#D193F5" d="M444.329,79.341c-27.509-22.131-58.088-31.051-84.635-21.063c-26.548,9.987-43.673,36.842-49.785,71.61
			L444.329,79.341z"/>
		<path fill="#E3B3FF" d="M408.997,92.629c-18.67-25.456-36.711-39.089-49.304-34.35c-12.593,4.736-17.184,26.876-14.457,58.326
			L408.997,92.629z"/>
		<polygon fill="#D193F5" points="345.977,15.075 343.761,15.906 341.548,16.739 352.32,59.655 359.233,57.055 366.147,54.453 		"/>
		<path fill="#4F4599" d="M379.172,52.181c0.86,2.278-0.284,4.819-2.548,5.673l-29.946,11.262c-2.268,0.854-4.798-0.304-5.655-2.583
			l0,0c-0.858-2.278,0.287-4.819,2.551-5.669l29.946-11.27C375.788,48.745,378.318,49.903,379.172,52.181L379.172,52.181z"/>
		<path fill="#4F4599" d="M351.895,12.85c1.697,4.514-0.567,9.541-5.058,11.229c-4.493,1.689-9.506-0.601-11.203-5.114
			c-1.701-4.513,0.567-9.542,5.057-11.231C345.178,6.045,350.198,8.335,351.895,12.85z"/>
		<path fill="#FFFFFF" d="M311.834,145.911c0,0-31.384,28.439-2.865,104.288l32.535,86.523l18.428-6.934
			c0,0-18.207-48.423-31.823-84.633C306.189,186.846,304.143,162.649,311.834,145.911z"/>
		<path fill="#4F4599" d="M500.359,60.644c1.707,4.538-0.566,9.595-5.081,11.293l-228.575,85.953
			c-4.515,1.697-9.559-0.605-11.263-5.144l0,0c-1.708-4.539,0.571-9.592,5.085-11.29L489.101,55.5
			C493.615,53.803,498.651,56.104,500.359,60.644L500.359,60.644z"/>
	</g>
	<path opacity="0.16" fill="#FFFFFF" d="M398.935,489.732c2.541,6.757,10.049,10.188,16.765,7.659l4.764-1.793
		c18.324,12.717,59.186,11.615,101.984-4.477c0.309-0.118,0.603-0.246,0.91-0.363L340.677,7.743
		c-4.48,1.694-6.74,6.713-5.043,11.221c1.283,3.418,4.469,5.554,7.891,5.658l8.317,33.131l-8.269,3.112
		c-2.264,0.85-3.409,3.391-2.551,5.669c0.031,0.08,0.097,0.128,0.127,0.204c-29.569,15.829-52.242,40.413-66.125,69.263
		l-14.501,5.456c-4.514,1.697-6.792,6.75-5.085,11.29c1.667,4.432,6.516,6.706,10.948,5.227
		c-9.81,31.836-9.617,67.054,3.042,100.716l34.707,92.3c-83.415,34.529-155.683,99.564-185.055,128.245l-12.734,4.789
		c-9.385,3.528-14.121,14.036-10.571,23.471c3.546,9.438,14.028,14.221,23.417,10.692l48.208-18.128
		c38.94,2.884,125.629,5.054,231.289-18.671C397.894,484.035,397.884,486.942,398.935,489.732z"/>
</g>
</svg>
