<?xml version="1.0" encoding="utf-8"?>
<!-- Generator: Adobe Illustrator 16.0.0, SVG Export Plug-In . SVG Version: 6.00 Build 0)  -->
<!DOCTYPE svg PUBLIC "-//W3C//DTD SVG 1.1//EN" "http://www.w3.org/Graphics/SVG/1.1/DTD/svg11.dtd">
<svg version="1.1" id="Layer_1" xmlns="http://www.w3.org/2000/svg" xmlns:xlink="http://www.w3.org/1999/xlink" x="0px" y="0px"
	 width="220px" height="200px" viewBox="0 0 220 200" enable-background="new 0 0 220 200" xml:space="preserve">
<rect fill="#FF7BAC" width="220" height="200"/>
<g>
	<g>
		<g>
			<linearGradient id="SVGID_1_" gradientUnits="userSpaceOnUse" x1="78.1997" y1="122.4346" x2="193.5752" y2="122.4346">
				<stop  offset="0" style="stop-color:#1D1C1A"/>
				<stop  offset="0.0896" style="stop-color:#1D1C1A;stop-opacity:0.9104"/>
				<stop  offset="1" style="stop-color:#1D1C1A;stop-opacity:0"/>
			</linearGradient>
			<path opacity="0.1" fill="url(#SVGID_1_)" d="M143.124,72.174c-0.172-0.17-0.354-0.333-0.549-0.484l-0.01-0.007l0,0
				c-3.52-2.72-10.719-2.444-19.398,0.371c-2.686-8.956-6.902-14.726-11.643-14.726c-4.738,0-8.953,5.77-11.638,14.725
				c-9.961-3.229-17.971-3.118-20.71,1.031c-0.724,1.098-1.032,2.41-0.966,3.885c-0.213,4.471,3.389,10.665,9.64,17.02
				c-6.252,6.357-9.853,12.553-9.642,17.026c-0.066,1.476,0.242,2.788,0.967,3.886c0.596,0.901,1.441,1.61,2.501,2.14l82.284,70.378
				l29.615,0.123v-79.505L143.124,72.174z"/>
			<g>
				<g>
					<g>
						<g opacity="0.15">
							<g>
								<path d="M111.523,134.657c-4.204,0-8.103-4.073-10.979-11.469c-2.803-7.206-4.346-16.776-4.346-26.946
									c0-10.167,1.543-19.734,4.346-26.94c2.876-7.396,6.775-11.469,10.979-11.469c4.205,0,8.106,4.073,10.981,11.469
									c2.805,7.206,4.348,16.774,4.348,26.94c0,10.169-1.543,19.74-4.348,26.946C119.63,130.584,115.729,134.657,111.523,134.657z
									 M111.523,59.101c-3.591,0-7.163,3.886-9.798,10.661c-2.746,7.063-4.259,16.469-4.259,26.481
									c0,10.016,1.513,19.423,4.259,26.487c2.636,6.774,6.207,10.66,9.798,10.66c3.595,0,7.167-3.886,9.802-10.66
									c2.746-7.063,4.26-16.471,4.26-26.487c0-10.013-1.514-19.418-4.26-26.481C118.69,62.986,115.118,59.101,111.523,59.101z"/>
							</g>
						</g>
						<g>
							<g>
								<path fill="#083D54" d="M111.523,133.898c-4.204,0-8.103-4.073-10.979-11.47c-2.803-7.206-4.346-16.776-4.346-26.945
									c0-10.167,1.543-19.735,4.346-26.941c2.876-7.396,6.775-11.469,10.979-11.469c4.205,0,8.106,4.073,10.981,11.469
									c2.805,7.207,4.348,16.775,4.348,26.941c0,10.169-1.543,19.739-4.348,26.945
									C119.63,129.825,115.729,133.898,111.523,133.898z M111.523,58.341c-3.591,0-7.163,3.885-9.798,10.661
									c-2.746,7.064-4.259,16.468-4.259,26.481c0,10.016,1.513,19.423,4.259,26.487c2.636,6.773,6.207,10.66,9.798,10.66
									c3.595,0,7.167-3.887,9.802-10.66c2.746-7.064,4.26-16.472,4.26-26.487c0-10.013-1.514-19.417-4.26-26.481
									C118.69,62.227,115.118,58.341,111.523,58.341z"/>
							</g>
						</g>
					</g>
					<g>
						<g>
							<g opacity="0.15">
								<g>
									<path d="M135.376,119.002c-8.301,0-20.586-4.522-32.059-11.803c-6.732-4.273-12.688-9.136-17.227-14.064
										c-4.464-4.848-7.255-9.422-8.069-13.228c-0.504-2.356-0.234-4.347,0.802-5.917c1.507-2.282,4.568-3.489,8.854-3.489
										c8.302,0,20.586,4.521,32.061,11.801c6.73,4.271,12.688,9.133,17.227,14.061c4.463,4.849,7.254,9.425,8.068,13.232
										c0.506,2.356,0.236,4.347-0.803,5.917C142.724,117.795,139.661,119.002,135.376,119.002z M87.676,71.345
										c-3.987,0-6.805,1.075-8.148,3.11c-0.906,1.375-1.136,3.149-0.681,5.275c1.621,7.572,11.637,18.322,24.922,26.753
										c11.346,7.2,23.457,11.673,31.607,11.673c3.988,0,6.807-1.075,8.15-3.11c0.906-1.374,1.137-3.149,0.682-5.275
										c-1.621-7.575-11.639-18.328-24.924-26.756C107.937,75.817,95.827,71.345,87.676,71.345z"/>
								</g>
							</g>
							<g>
								<g>
									<path fill="#083D54" d="M135.376,118.242c-8.301,0-20.587-4.521-32.059-11.803c-6.732-4.273-12.688-9.136-17.227-14.063
										c-4.464-4.848-7.255-9.422-8.069-13.228c-0.504-2.356-0.234-4.347,0.802-5.918c1.507-2.283,4.568-3.489,8.854-3.489
										c8.302,0,20.586,4.522,32.061,11.801c6.73,4.271,12.688,9.133,17.227,14.061c4.463,4.848,7.254,9.424,8.068,13.231
										c0.506,2.356,0.236,4.348-0.803,5.918C142.724,117.036,139.661,118.242,135.376,118.242z M87.676,70.586
										c-3.987,0-6.805,1.075-8.148,3.11c-0.906,1.374-1.136,3.149-0.681,5.275c1.621,7.572,11.637,18.322,24.922,26.754
										c11.346,7.201,23.457,11.673,31.607,11.673c3.988,0,6.807-1.076,8.15-3.111c0.906-1.373,1.137-3.148,0.682-5.274
										c-1.623-7.576-11.639-18.328-24.924-26.757C107.937,75.058,95.827,70.586,87.676,70.586z"/>
								</g>
							</g>
						</g>
					</g>
					<g>
						<g>
							<g opacity="0.15">
								<g>
									<path d="M87.677,119.002L87.677,119.002c-4.287,0-7.349-1.207-8.855-3.49c-1.037-1.57-1.307-3.562-0.803-5.917
										c0.816-3.808,3.605-8.384,8.07-13.232c4.538-4.928,10.495-9.79,17.226-14.061c11.473-7.279,23.76-11.8,32.061-11.8
										c4.285,0,7.348,1.207,8.854,3.489c1.037,1.571,1.307,3.562,0.801,5.918c-0.813,3.806-3.604,8.38-8.068,13.228
										c-4.537,4.928-10.494,9.791-17.227,14.064C108.261,114.479,95.978,119.002,87.677,119.002z M135.376,71.345
										c-8.15,0-20.262,4.472-31.608,11.67c-13.285,8.429-23.301,19.181-24.923,26.756c-0.455,2.126-0.226,3.901,0.682,5.275
										c1.343,2.034,4.161,3.109,8.149,3.11h0.001c8.149,0,20.258-4.473,31.605-11.673c13.287-8.431,23.303-19.182,24.924-26.753
										c0.455-2.126,0.225-3.901-0.682-5.275C142.181,72.42,139.364,71.345,135.376,71.345z"/>
								</g>
							</g>
							<g>
								<g>
									<path fill="#083D54" d="M87.677,118.242L87.677,118.242c-4.287,0-7.349-1.206-8.855-3.489
										c-1.037-1.57-1.307-3.562-0.803-5.918c0.816-3.808,3.605-8.384,8.07-13.231c4.538-4.928,10.495-9.79,17.226-14.061
										c11.473-7.279,23.76-11.801,32.061-11.801c4.285,0,7.348,1.207,8.854,3.49c1.037,1.57,1.307,3.561,0.801,5.917
										c-0.813,3.806-3.604,8.38-8.068,13.228c-4.537,4.928-10.494,9.79-17.227,14.063
										C108.261,113.721,95.978,118.242,87.677,118.242z M135.376,70.586c-8.15,0-20.262,4.472-31.608,11.669
										c-13.285,8.429-23.301,19.181-24.923,26.757c-0.455,2.126-0.226,3.901,0.682,5.274c1.343,2.035,4.161,3.11,8.149,3.111
										h0.001c8.149,0,20.258-4.472,31.605-11.673c13.287-8.432,23.303-19.182,24.924-26.754c0.455-2.126,0.225-3.901-0.682-5.275
										C142.181,71.662,139.364,70.586,135.376,70.586z"/>
								</g>
							</g>
						</g>
					</g>
				</g>
				<g>
					<g>
						<g opacity="0.15">
							<ellipse cx="112.514" cy="93.47" rx="6.264" ry="6.139"/>
						</g>
						<g>
							<ellipse fill="#F27665" cx="111.528" cy="92.71" rx="6.263" ry="6.138"/>
						</g>
					</g>
					<g>
						<g opacity="0.15">
							<ellipse cx="143.553" cy="83.653" rx="2.351" ry="2.305"/>
						</g>
						<g>
							<ellipse fill="#67BDE4" cx="142.565" cy="82.894" rx="2.352" ry="2.305"/>
						</g>
					</g>
					<g>
						<g opacity="0.15">
							<ellipse cx="130.533" cy="116.886" rx="2.196" ry="2.062"/>
						</g>
						<g>
							<ellipse fill="#EFE060" cx="130.954" cy="116.519" rx="2.195" ry="2.063"/>
						</g>
					</g>
					<g>
						<g opacity="0.15">
							<ellipse cx="112.511" cy="57.896" rx="3.772" ry="3.696"/>
						</g>
						<g>
							<ellipse fill="#55BB7A" cx="111.525" cy="57.137" rx="3.771" ry="3.696"/>
						</g>
					</g>
				</g>
			</g>
		</g>
		<g>
			<g>
				<linearGradient id="SVGID_2_" gradientUnits="userSpaceOnUse" x1="141.3545" y1="67.4268" x2="191.6436" y2="67.4268">
					<stop  offset="0" style="stop-color:#1D1C1A"/>
					<stop  offset="0.0896" style="stop-color:#1D1C1A;stop-opacity:0.9104"/>
					<stop  offset="1" style="stop-color:#1D1C1A;stop-opacity:0"/>
				</linearGradient>
				<polyline opacity="0.15" fill="url(#SVGID_2_)" points="141.354,59.544 190.376,92.71 191.644,65.191 158.901,42.143 				"/>
				<g>
					<g>
						<g>
							<g opacity="0.15">
								<path d="M140.583,53.892c-1.699-0.744-2.006-3.571-0.277-4.018l0,0c-1.563-0.529-0.873-4.048,0.572-3.866
									c-0.143-1.44,0.123-3.165,2.355-3.351c-0.066-1.786,2.262-2.864,3.705-1.837c0.063-0.81,0.619-1.437,0.619-1.437
									c0.732-0.669,3.26-0.744,3.26,0.67v19.714c-0.664,1.042-0.799,1.86-2.063,2.381c-0.998,0.372-2.594,0.595-3.525,0
									c0,0-1.32-1.413-1.197-1.889c-0.4,0.447-1.365,0.289-1.764-0.083c-1.131-0.967-0.631-2.715-0.631-2.715
									s-0.934-0.521-1.131-0.894c-0.334-0.446-0.4-0.744-0.4-1.264C140.106,54.784,140.45,54.338,140.583,53.892z"/>
							</g>
							<g>
								<g>
									<g>
										<path fill="#E1CBCE" d="M139.843,53.291c-1.701-0.744-2.008-3.571-0.277-4.017l0,0c-1.563-0.529-0.873-4.049,0.572-3.866
											c-0.145-1.44,0.123-3.165,2.354-3.351c-0.064-1.786,2.264-2.864,3.707-1.837c0.061-0.811,0.619-1.436,0.619-1.436
											c0.73-0.67,3.26-0.744,3.26,0.669v19.715c-0.666,1.042-0.799,1.859-2.063,2.38c-1,0.372-2.596,0.596-3.525,0
											c0,0-1.32-1.413-1.199-1.888c-0.398,0.446-1.363,0.29-1.762-0.083c-1.131-0.967-0.633-2.715-0.633-2.715
											s-0.93-0.521-1.131-0.893c-0.332-0.446-0.4-0.744-0.4-1.265C139.364,54.184,139.708,53.737,139.843,53.291z"/>
									</g>
								</g>
							</g>
						</g>
						<g>
							<g>
								<path fill="#083D54" d="M150.097,59.46c-0.113,0-0.207-0.092-0.207-0.207V39.539c0-0.342-0.184-0.596-0.547-0.757
									c-0.752-0.331-1.949-0.142-2.367,0.24c-0.652,0.621-0.637,1.514-0.402,2.142c0.281,0.755,0.885,1.263,1.537,1.293
									c0.113,0.005,0.203,0.102,0.197,0.215c-0.006,0.114-0.107,0.199-0.217,0.197c-0.818-0.038-1.566-0.651-1.904-1.563
									c-0.357-0.958-0.164-1.95,0.508-2.588c0.58-0.531,1.973-0.686,2.814-0.316c0.512,0.226,0.795,0.629,0.795,1.135v19.715
									C150.304,59.368,150.212,59.46,150.097,59.46z"/>
							</g>
							<g>
								<path fill="#083D54" d="M143.253,49.307c-0.209,0-0.424-0.029-0.643-0.09c-1.162-0.322-2.26-1.5-2.557-2.397
									c-0.492-1.497-0.318-3.129,0.43-4.063c0.453-0.563,1.08-0.85,1.826-0.833c0.053-0.777,0.521-1.47,1.287-1.883
									c0.9-0.485,1.977-0.447,2.74,0.097c0.094,0.066,0.115,0.195,0.051,0.288c-0.068,0.093-0.197,0.115-0.289,0.048
									c-0.639-0.454-1.543-0.481-2.305-0.07c-0.699,0.377-1.102,1.024-1.074,1.731c0.002,0.06-0.021,0.117-0.066,0.159
									c-0.043,0.041-0.104,0.062-0.162,0.055c-0.707-0.071-1.275,0.154-1.686,0.667c-0.666,0.828-0.809,2.305-0.359,3.674
									c0.221,0.673,1.16,1.819,2.275,2.128c0.637,0.176,1.215,0.046,1.719-0.389c0.086-0.074,0.215-0.065,0.291,0.021
									c0.074,0.086,0.064,0.217-0.021,0.292C144.276,49.116,143.78,49.307,143.253,49.307z"/>
							</g>
							<g>
								<path fill="#083D54" d="M145.288,54.327c-0.297,0-0.594-0.033-0.865-0.097c-0.615-0.146-1.053-0.443-1.258-0.841
									c-0.238,0.249-0.563,0.429-0.959,0.529c-1.051,0.266-2.33-0.069-3.002-0.519c-0.773-0.501-1.215-1.616-1.047-2.65
									c0.107-0.656,0.449-1.158,0.963-1.43c-0.525-0.414-0.809-1.121-0.754-1.943c0.055-0.844,0.521-1.815,1.439-2.081
									c0.109-0.031,0.223,0.032,0.256,0.142c0.031,0.109-0.033,0.224-0.143,0.255c-0.725,0.21-1.096,1.011-1.141,1.711
									c-0.043,0.647,0.168,1.452,0.891,1.767c0.08,0.036,0.129,0.118,0.123,0.206c-0.008,0.088-0.068,0.162-0.154,0.184
									c-0.789,0.203-1.01,0.874-1.072,1.256c-0.141,0.866,0.232,1.828,0.867,2.239c0.607,0.408,1.771,0.691,2.672,0.463
									c0.457-0.116,0.779-0.346,0.957-0.684c0.043-0.081,0.135-0.125,0.223-0.106c0.09,0.019,0.156,0.093,0.166,0.184
									c0.053,0.591,0.691,0.828,1.068,0.917c0.943,0.224,2.115-0.014,2.408-0.49c0.061-0.097,0.188-0.127,0.285-0.067
									s0.127,0.188,0.066,0.284C146.958,54.074,146.118,54.327,145.288,54.327z"/>
							</g>
							<g>
								<path fill="#083D54" d="M147.956,54.25c-0.125,0-0.248-0.024-0.363-0.073c-0.541-0.225-0.883-0.92-1.021-1.496
									c-0.027-0.111,0.041-0.223,0.15-0.25c0.109-0.026,0.223,0.041,0.25,0.152c0.111,0.456,0.381,1.047,0.779,1.212
									c0.18,0.075,0.367,0.05,0.576-0.075c0.098-0.06,0.225-0.028,0.283,0.07s0.027,0.225-0.07,0.284
									C148.345,54.191,148.147,54.25,147.956,54.25z"/>
							</g>
							<g>
								<path fill="#083D54" d="M142.573,60.224c-0.438,0-0.896-0.16-1.166-0.41c-1.02-0.871-0.828-2.29-0.727-2.765
									c-0.279-0.167-0.881-0.552-1.068-0.882c-0.367-0.496-0.434-0.84-0.434-1.377c0-0.528,0.066-0.996,0.209-1.473
									c0.033-0.109,0.146-0.171,0.258-0.139c0.109,0.033,0.17,0.147,0.139,0.257c-0.131,0.437-0.191,0.867-0.191,1.354
									c0,0.466,0.049,0.728,0.357,1.141c0.006,0.009,0.012,0.017,0.018,0.026c0.123,0.232,0.709,0.621,1.049,0.811
									c0.084,0.046,0.123,0.145,0.098,0.237c-0.004,0.016-0.447,1.634,0.568,2.501c0.209,0.195,0.609,0.321,0.951,0.304
									c0.23-0.011,0.418-0.082,0.523-0.202c0.076-0.084,0.207-0.092,0.291-0.017c0.086,0.076,0.092,0.207,0.018,0.292
									c-0.186,0.206-0.465,0.323-0.813,0.339C142.626,60.223,142.601,60.224,142.573,60.224z"/>
							</g>
							<g>
								<path fill="#083D54" d="M146.022,62.21c-0.582,0-1.162-0.106-1.625-0.402c-2.254-1.464-1.207-5.001-0.338-6.667
									c0.053-0.101,0.178-0.14,0.277-0.088c0.102,0.053,0.141,0.178,0.088,0.278c-0.809,1.551-1.809,4.828,0.195,6.129
									c0.832,0.532,2.316,0.363,3.342-0.021c0.885-0.364,1.16-0.871,1.543-1.571c0.123-0.23,0.254-0.469,0.418-0.726
									c0.063-0.096,0.189-0.124,0.285-0.063c0.098,0.062,0.125,0.189,0.063,0.285c-0.156,0.246-0.283,0.478-0.404,0.702
									c-0.389,0.716-0.727,1.335-1.754,1.758C147.612,62.012,146.815,62.21,146.022,62.21z"/>
							</g>
							<g>
								<path fill="#083D54" d="M144.56,47.622c-0.047,0-0.096-0.001-0.143-0.005c-0.609-0.044-1.094-0.365-1.297-0.857
									c-0.043-0.105,0.006-0.226,0.111-0.27c0.105-0.043,0.227,0.007,0.271,0.112c0.141,0.345,0.494,0.57,0.943,0.604
									c0.516,0.037,0.992-0.181,1.215-0.556c0.061-0.098,0.186-0.13,0.283-0.071c0.098,0.058,0.131,0.185,0.072,0.283
									C145.735,47.333,145.175,47.622,144.56,47.622z"/>
							</g>
							<g>
								<path fill="#083D54" d="M146.325,49.88c-0.586,0-1.152-0.204-1.535-0.577c-0.471-0.461-0.617-1.127-0.414-1.875
									c0.029-0.11,0.143-0.175,0.254-0.145c0.109,0.03,0.174,0.144,0.145,0.253c-0.164,0.605-0.059,1.114,0.307,1.471
									c0.428,0.42,1.166,0.571,1.83,0.375c1.504-0.438,2.979-2.478,2.979-4.117c0-0.114,0.094-0.207,0.207-0.207
									c0.115,0,0.207,0.092,0.207,0.207c0,1.829-1.592,4.022-3.275,4.513C146.798,49.848,146.56,49.88,146.325,49.88z"/>
							</g>
							<g>
								<path fill="#083D54" d="M144.626,50.862c-0.152,0-0.295-0.012-0.422-0.035c-0.111-0.021-0.186-0.129-0.166-0.241
									c0.021-0.112,0.131-0.186,0.242-0.165c0.719,0.134,2.09-0.202,2.51-0.941c0.057-0.099,0.184-0.134,0.281-0.077
									c0.1,0.057,0.135,0.183,0.078,0.282C146.698,50.478,145.495,50.862,144.626,50.862z"/>
							</g>
						</g>
					</g>
					<g>
						<g>
							<g opacity="0.15">
								<path d="M162.312,53.892c1.701-0.744,2.008-3.571,0.277-4.018l0,0c1.564-0.529,0.875-4.048-0.572-3.866
									c0.145-1.44-0.121-3.165-2.355-3.351c0.066-1.786-2.26-2.864-3.703-1.837c-0.063-0.81-0.619-1.437-0.619-1.437
									c-0.732-0.669-3.262-0.744-3.262,0.67v19.714c0.666,1.042,0.799,1.86,2.063,2.381c0.998,0.372,2.596,0.595,3.525,0
									c0,0,1.32-1.413,1.199-1.889c0.398,0.447,1.363,0.289,1.762-0.083c1.133-0.967,0.633-2.715,0.633-2.715
									s0.932-0.521,1.131-0.894c0.332-0.446,0.4-0.744,0.4-1.264C162.79,54.784,162.446,54.338,162.312,53.892z"/>
							</g>
							<g>
								<g>
									<g>
										<path fill="#E1CBCE" d="M161.571,53.291c1.699-0.744,2.008-3.571,0.277-4.017l0,0c1.563-0.529,0.873-4.049-0.574-3.866
											c0.146-1.44-0.121-3.165-2.352-3.351c0.064-1.786-2.264-2.864-3.707-1.837c-0.063-0.811-0.619-1.436-0.619-1.436
											c-0.73-0.67-3.26-0.744-3.26,0.669v19.715c0.666,1.042,0.799,1.859,2.063,2.38c0.998,0.372,2.594,0.596,3.525,0
											c0,0,1.32-1.413,1.197-1.888c0.4,0.446,1.365,0.29,1.764-0.083c1.131-0.967,0.633-2.715,0.633-2.715
											s0.93-0.521,1.131-0.893c0.332-0.446,0.398-0.744,0.398-1.265C162.048,54.184,161.704,53.737,161.571,53.291z"/>
									</g>
								</g>
							</g>
						</g>
						<g>
							<g>
								<path fill="#083D54" d="M151.317,59.46c-0.115,0-0.207-0.092-0.207-0.207V39.539c0-0.506,0.281-0.909,0.795-1.135
									c0.842-0.37,2.234-0.215,2.811,0.313c0.674,0.64,0.869,1.632,0.512,2.591c-0.34,0.911-1.088,1.524-1.904,1.562
									c-0.115,0.001-0.213-0.083-0.217-0.197c-0.006-0.113,0.082-0.21,0.197-0.215c0.65-0.03,1.256-0.538,1.535-1.293
									c0.236-0.628,0.252-1.521-0.404-2.145c-0.414-0.379-1.611-0.569-2.363-0.237c-0.363,0.16-0.549,0.415-0.549,0.757v19.715
									C151.522,59.368,151.431,59.46,151.317,59.46z"/>
							</g>
							<g>
								<path fill="#083D54" d="M158.159,49.307c-0.527,0-1.021-0.19-1.455-0.565c-0.086-0.074-0.096-0.205-0.021-0.292
									c0.074-0.086,0.205-0.095,0.291-0.021c0.504,0.435,1.082,0.566,1.719,0.389c1.117-0.31,2.053-1.455,2.273-2.128
									c0.451-1.369,0.307-2.846-0.357-3.674c-0.41-0.513-0.977-0.738-1.688-0.667c-0.057,0.006-0.119-0.015-0.162-0.055
									c-0.043-0.042-0.066-0.099-0.064-0.159c0.027-0.707-0.375-1.354-1.074-1.73c-0.762-0.411-1.668-0.384-2.305,0.069
									c-0.092,0.066-0.223,0.045-0.287-0.048c-0.066-0.093-0.045-0.222,0.049-0.288c0.764-0.545,1.84-0.582,2.74-0.097
									c0.766,0.414,1.234,1.106,1.285,1.883c0.75-0.013,1.375,0.27,1.828,0.834c0.748,0.934,0.92,2.565,0.428,4.062
									c-0.295,0.897-1.391,2.074-2.555,2.396C158.585,49.277,158.37,49.307,158.159,49.307z"/>
							</g>
							<g>
								<path fill="#083D54" d="M156.126,54.327c-0.83,0-1.67-0.252-1.992-0.771c-0.059-0.097-0.029-0.224,0.068-0.284
									c0.096-0.06,0.223-0.03,0.283,0.067c0.295,0.476,1.467,0.713,2.41,0.49c0.375-0.089,1.016-0.326,1.068-0.917
									c0.008-0.091,0.076-0.166,0.164-0.184c0.09-0.017,0.182,0.026,0.225,0.106c0.178,0.338,0.498,0.567,0.957,0.684
									c0.9,0.228,2.064-0.056,2.67-0.461c0.637-0.413,1.01-1.375,0.869-2.241c-0.063-0.382-0.283-1.053-1.072-1.256
									c-0.084-0.022-0.146-0.096-0.154-0.184c-0.006-0.087,0.043-0.17,0.123-0.206c0.721-0.315,0.934-1.12,0.891-1.767
									c-0.047-0.701-0.416-1.501-1.143-1.711c-0.109-0.032-0.172-0.146-0.141-0.255c0.031-0.11,0.146-0.172,0.256-0.142
									c0.918,0.266,1.385,1.237,1.439,2.081c0.053,0.822-0.229,1.53-0.754,1.943c0.514,0.272,0.855,0.774,0.963,1.43
									c0.168,1.034-0.273,2.149-1.049,2.652c-0.67,0.448-1.949,0.783-3,0.517c-0.396-0.1-0.721-0.28-0.959-0.529
									c-0.205,0.399-0.643,0.696-1.258,0.842C156.72,54.294,156.423,54.327,156.126,54.327z"/>
							</g>
							<g>
								<path fill="#083D54" d="M153.458,54.25c-0.193,0-0.391-0.059-0.584-0.176c-0.098-0.059-0.131-0.186-0.072-0.284
									c0.061-0.097,0.188-0.129,0.285-0.07c0.209,0.125,0.396,0.15,0.576,0.075c0.398-0.165,0.668-0.756,0.779-1.212
									c0.027-0.111,0.141-0.178,0.25-0.152c0.109,0.027,0.178,0.139,0.15,0.25c-0.139,0.576-0.48,1.271-1.02,1.496
									C153.706,54.226,153.583,54.25,153.458,54.25z"/>
							</g>
							<g>
								<path fill="#083D54" d="M158.841,60.224c-0.027,0-0.053,0-0.078-0.001c-0.35-0.016-0.629-0.133-0.814-0.339
									c-0.076-0.085-0.068-0.215,0.016-0.292c0.086-0.076,0.217-0.069,0.293,0.017c0.107,0.12,0.293,0.191,0.523,0.202
									c0.346,0.017,0.742-0.11,0.943-0.298c1.021-0.874,0.58-2.492,0.576-2.507c-0.027-0.092,0.014-0.19,0.096-0.237
									c0.342-0.19,0.928-0.579,1.051-0.81c0.004-0.009,0.01-0.018,0.016-0.026c0.309-0.414,0.359-0.675,0.359-1.141
									c0-0.487-0.061-0.917-0.191-1.355c-0.031-0.109,0.029-0.224,0.141-0.256c0.109-0.032,0.223,0.03,0.256,0.139
									c0.143,0.477,0.209,0.944,0.209,1.472c0,0.537-0.064,0.881-0.434,1.377c-0.188,0.331-0.789,0.716-1.068,0.882
									c0.1,0.475,0.291,1.895-0.732,2.771C159.737,60.064,159.278,60.224,158.841,60.224z"/>
							</g>
							<g>
								<path fill="#083D54" d="M155.39,62.21c-0.793,0-1.586-0.197-2.082-0.383c-1.035-0.426-1.371-1.045-1.762-1.762
									c-0.121-0.224-0.248-0.456-0.404-0.7c-0.061-0.096-0.031-0.224,0.064-0.285c0.096-0.061,0.225-0.033,0.285,0.063
									c0.164,0.257,0.293,0.495,0.418,0.725c0.381,0.701,0.656,1.208,1.549,1.575c1.02,0.38,2.504,0.549,3.336,0.017
									c2.004-1.301,1.004-4.578,0.193-6.129c-0.053-0.101-0.014-0.226,0.088-0.278s0.227-0.013,0.279,0.088
									c0.869,1.666,1.916,5.203-0.338,6.666C156.554,62.104,155.972,62.21,155.39,62.21z"/>
							</g>
							<g>
								<path fill="#083D54" d="M156.853,47.622c-0.613,0-1.174-0.29-1.455-0.761c-0.059-0.098-0.027-0.225,0.07-0.283
									c0.1-0.059,0.225-0.026,0.283,0.071c0.225,0.375,0.699,0.593,1.217,0.556c0.449-0.033,0.803-0.259,0.943-0.604
									c0.043-0.105,0.166-0.156,0.27-0.112c0.107,0.044,0.156,0.165,0.113,0.27c-0.203,0.492-0.688,0.813-1.297,0.857
									C156.95,47.621,156.901,47.622,156.853,47.622z"/>
							</g>
							<g>
								<path fill="#083D54" d="M155.089,49.88c-0.234,0-0.473-0.033-0.703-0.101c-1.684-0.491-3.275-2.684-3.275-4.513
									c0-0.114,0.092-0.207,0.207-0.207c0.113,0,0.205,0.092,0.205,0.207c0,1.639,1.477,3.678,2.979,4.117
									c0.666,0.196,1.402,0.045,1.832-0.375c0.365-0.357,0.471-0.866,0.307-1.471c-0.029-0.11,0.035-0.223,0.145-0.253
									s0.225,0.035,0.254,0.145c0.203,0.747,0.055,1.413-0.416,1.875C156.241,49.676,155.675,49.88,155.089,49.88z"/>
							</g>
							<g>
								<path fill="#083D54" d="M156.786,50.862c-0.869,0-2.07-0.384-2.521-1.178c-0.057-0.099-0.021-0.225,0.078-0.282
									c0.098-0.057,0.225-0.022,0.281,0.077c0.418,0.739,1.789,1.075,2.51,0.941c0.111-0.021,0.219,0.053,0.24,0.165
									c0.02,0.112-0.053,0.22-0.164,0.241C157.083,50.85,156.938,50.862,156.786,50.862z"/>
							</g>
						</g>
					</g>
				</g>
			</g>
			<g>
				<linearGradient id="SVGID_3_" gradientUnits="userSpaceOnUse" x1="97.2944" y1="48.1289" x2="134.7197" y2="48.1289">
					<stop  offset="0" style="stop-color:#1D1C1A"/>
					<stop  offset="0.0896" style="stop-color:#1D1C1A;stop-opacity:0.9104"/>
					<stop  offset="1" style="stop-color:#1D1C1A;stop-opacity:0"/>
				</linearGradient>
				<polyline opacity="0.15" fill="url(#SVGID_3_)" points="97.294,45.156 121.579,63.507 134.72,49.101 111.987,32.75 				"/>
				<linearGradient id="SVGID_4_" gradientUnits="userSpaceOnUse" x1="107.2896" y1="45.9116" x2="139.3857" y2="45.9116">
					<stop  offset="0" style="stop-color:#1D1C1A"/>
					<stop  offset="0.0896" style="stop-color:#1D1C1A;stop-opacity:0.9104"/>
					<stop  offset="1" style="stop-color:#1D1C1A;stop-opacity:0"/>
				</linearGradient>
				<polyline opacity="0.15" fill="url(#SVGID_4_)" points="107.29,41.812 131.575,60.163 139.386,50.72 112.894,31.661 				"/>
				<g>
					<g>
						<g opacity="0.15">
							<path fill="#4B2310" d="M114.334,33.514l-1.225-1.235c-0.157-0.159-0.422-0.167-0.59-0.014l-0.532,0.486
								c-0.34-0.195-0.697-0.35-1.065-0.465l0.035-0.704c0.009-0.221-0.169-0.408-0.4-0.417l-1.774-0.074
								c-0.23-0.01-0.424,0.161-0.434,0.382l-0.031,0.665c-0.451,0.085-0.894,0.229-1.314,0.429l-0.449-0.452
								c-0.158-0.16-0.423-0.167-0.589-0.015l-1.289,1.171c-0.167,0.151-0.173,0.404-0.015,0.565l0.373,0.377
								c-0.256,0.358-0.456,0.741-0.604,1.14l-0.481-0.021c-0.231-0.01-0.425,0.162-0.436,0.382l-0.077,1.7
								c-0.011,0.221,0.167,0.406,0.396,0.417l0.373,0.016c0.092,0.514,0.268,1.019,0.53,1.492l-0.231,0.211
								c-0.167,0.152-0.173,0.405-0.016,0.564l1.223,1.235c0.159,0.16,0.423,0.166,0.589,0.014l0.199-0.181
								c0.431,0.269,0.894,0.47,1.375,0.604l-0.012,0.261c-0.01,0.22,0.17,0.407,0.399,0.417l1.774,0.074
								c0.229,0.009,0.425-0.162,0.435-0.383l0.015-0.299c0.532-0.116,1.049-0.314,1.529-0.595l0.251,0.253
								c0.158,0.16,0.422,0.166,0.589,0.015l1.29-1.171c0.168-0.152,0.175-0.404,0.016-0.564l-0.324-0.328
								c0.223-0.379,0.394-0.779,0.505-1.192l0.533,0.022c0.23,0.01,0.426-0.161,0.435-0.381l0.077-1.7
								c0.012-0.219-0.166-0.405-0.397-0.416l-0.643-0.026c-0.115-0.428-0.292-0.846-0.529-1.239l0.5-0.454
								C114.484,33.925,114.491,33.673,114.334,33.514z M110.907,35.572c0.832,0.837,0.795,2.163-0.081,2.958
								c-0.877,0.796-2.261,0.761-3.091-0.077c-0.831-0.839-0.794-2.164,0.081-2.96C108.692,34.698,110.075,34.732,110.907,35.572z"
								/>
							<path fill="#4B2310" d="M107.092,39.043l-1.051-1.374c-0.136-0.176-0.396-0.215-0.583-0.084l-0.594,0.418
								c-0.31-0.235-0.644-0.431-0.993-0.59l0.126-0.694c0.039-0.218-0.113-0.425-0.34-0.461l-1.751-0.288
								c-0.228-0.038-0.442,0.108-0.481,0.327l-0.118,0.656c-0.46,0.029-0.918,0.118-1.361,0.266l-0.385-0.502
								c-0.138-0.178-0.397-0.217-0.584-0.086l-1.432,1.006c-0.186,0.131-0.226,0.381-0.09,0.559l0.321,0.419
								c-0.301,0.325-0.55,0.681-0.748,1.058l-0.477-0.079c-0.229-0.038-0.443,0.109-0.482,0.326l-0.3,1.677
								c-0.039,0.218,0.112,0.423,0.339,0.46l0.368,0.061c0.021,0.521,0.131,1.043,0.33,1.544l-0.258,0.181
								c-0.187,0.131-0.227,0.381-0.091,0.558l1.052,1.373c0.135,0.178,0.396,0.215,0.581,0.085l0.222-0.156
								c0.392,0.319,0.826,0.574,1.285,0.765l-0.046,0.257c-0.04,0.217,0.114,0.424,0.34,0.462l1.752,0.288
								c0.226,0.037,0.441-0.109,0.481-0.327l0.054-0.295c0.543-0.051,1.083-0.186,1.596-0.407l0.215,0.282
								c0.137,0.178,0.396,0.216,0.583,0.085l1.433-1.006c0.185-0.131,0.226-0.38,0.089-0.558l-0.278-0.364
								c0.271-0.349,0.492-0.726,0.657-1.122L107,43.85c0.227,0.037,0.441-0.108,0.48-0.326l0.3-1.677
								c0.041-0.216-0.112-0.422-0.339-0.459l-0.634-0.104c-0.059-0.438-0.179-0.874-0.361-1.292l0.556-0.391
								C107.188,39.469,107.228,39.22,107.092,39.043z M103.909,40.331c0.909,1.188,0.642,2.859-0.6,3.731
								c-1.242,0.872-2.986,0.615-3.896-0.573c-0.912-1.19-0.644-2.86,0.6-3.732C101.253,38.884,102.998,39.141,103.909,40.331z"/>
							<path fill="#4B2310" d="M122.659,43.333l-0.301-0.851c-0.037-0.109-0.164-0.168-0.277-0.132l-0.371,0.12
								c-0.115-0.165-0.25-0.314-0.4-0.446l0.18-0.33c0.055-0.106,0.012-0.232-0.096-0.285l-0.832-0.412
								c-0.109-0.054-0.244-0.013-0.299,0.092l-0.166,0.313c-0.238-0.057-0.48-0.08-0.732-0.073l-0.107-0.313
								c-0.039-0.111-0.166-0.169-0.279-0.133l-0.891,0.29c-0.112,0.036-0.176,0.157-0.137,0.267l0.092,0.261
								c-0.204,0.117-0.391,0.259-0.553,0.417l-0.226-0.11c-0.109-0.055-0.241-0.013-0.3,0.089l-0.429,0.798
								c-0.056,0.104-0.012,0.231,0.096,0.285l0.174,0.084c-0.075,0.268-0.105,0.547-0.088,0.83l-0.16,0.051
								c-0.118,0.037-0.179,0.156-0.141,0.267l0.303,0.851c0.038,0.109,0.165,0.17,0.279,0.131l0.139-0.044
								c0.143,0.219,0.319,0.414,0.519,0.581l-0.064,0.12c-0.057,0.105-0.013,0.233,0.095,0.286l0.833,0.412
								c0.107,0.052,0.242,0.012,0.297-0.091l0.078-0.142c0.281,0.057,0.574,0.071,0.869,0.037l0.063,0.176
								c0.037,0.11,0.162,0.168,0.277,0.131l0.891-0.289c0.111-0.037,0.176-0.157,0.137-0.267l-0.082-0.226
								c0.195-0.134,0.371-0.291,0.518-0.465l0.25,0.124c0.109,0.055,0.24,0.013,0.297-0.091l0.43-0.796
								c0.057-0.105,0.014-0.233-0.096-0.287l-0.301-0.147c0.043-0.23,0.055-0.467,0.033-0.707l0.344-0.111
								C122.638,43.562,122.7,43.444,122.659,43.333z M120.845,43.498c0.262,0.734-0.152,1.535-0.922,1.786
								c-0.77,0.25-1.605-0.144-1.867-0.882c-0.259-0.737,0.152-1.537,0.922-1.786C119.749,42.365,120.585,42.76,120.845,43.498z"/>
						</g>
						<g>
							<g>
								<path fill="#E2B04C" d="M114.118,32.896l-1.225-1.235c-0.156-0.159-0.421-0.167-0.588-0.014l-0.534,0.486
									c-0.339-0.195-0.695-0.35-1.063-0.465l0.032-0.704c0.011-0.221-0.167-0.408-0.397-0.417l-1.775-0.074
									c-0.23-0.01-0.424,0.162-0.435,0.382l-0.029,0.665c-0.452,0.084-0.896,0.228-1.316,0.429l-0.448-0.452
									c-0.159-0.16-0.423-0.167-0.59-0.015l-1.288,1.17c-0.167,0.152-0.173,0.405-0.015,0.564l0.373,0.377
									c-0.256,0.358-0.456,0.741-0.604,1.14l-0.481-0.021c-0.231-0.01-0.425,0.162-0.436,0.382l-0.078,1.7
									c-0.01,0.222,0.168,0.406,0.397,0.417l0.372,0.015c0.093,0.515,0.27,1.019,0.533,1.492l-0.233,0.211
									c-0.167,0.152-0.174,0.405-0.017,0.564l1.224,1.235c0.158,0.159,0.422,0.165,0.589,0.013l0.199-0.181
									c0.43,0.269,0.895,0.47,1.376,0.604l-0.013,0.26c-0.011,0.22,0.17,0.407,0.398,0.417l1.775,0.074
									c0.229,0.009,0.425-0.162,0.435-0.382l0.015-0.3c0.53-0.116,1.048-0.314,1.53-0.595l0.251,0.254
									c0.158,0.16,0.421,0.166,0.588,0.014l1.29-1.17c0.167-0.153,0.174-0.404,0.015-0.564l-0.323-0.328
									c0.224-0.379,0.393-0.779,0.504-1.192l0.533,0.021c0.229,0.01,0.426-0.161,0.436-0.381l0.077-1.7
									c0.012-0.219-0.168-0.405-0.397-0.416l-0.644-0.026c-0.114-0.429-0.292-0.846-0.528-1.239l0.5-0.454
									C114.27,33.307,114.276,33.055,114.118,32.896z M110.692,34.954c0.832,0.838,0.794,2.164-0.081,2.959
									c-0.877,0.796-2.261,0.761-3.091-0.077c-0.831-0.84-0.794-2.164,0.081-2.96C108.478,34.08,109.859,34.114,110.692,34.954z"
									/>
								<path fill="#858485" d="M106.877,38.425l-1.052-1.373c-0.136-0.176-0.396-0.216-0.582-0.084l-0.594,0.418
									c-0.31-0.235-0.644-0.431-0.993-0.591l0.126-0.693c0.038-0.218-0.113-0.425-0.34-0.462l-1.752-0.288
									c-0.227-0.038-0.441,0.109-0.481,0.327l-0.117,0.656c-0.46,0.03-0.918,0.119-1.361,0.267l-0.386-0.503
									c-0.136-0.178-0.396-0.217-0.583-0.086l-1.433,1.005c-0.186,0.131-0.225,0.381-0.089,0.559l0.32,0.419
									c-0.3,0.325-0.549,0.68-0.749,1.058l-0.475-0.079c-0.229-0.038-0.443,0.109-0.482,0.326l-0.3,1.677
									c-0.04,0.218,0.111,0.423,0.339,0.461l0.367,0.061c0.022,0.521,0.132,1.043,0.331,1.544l-0.258,0.181
									c-0.187,0.131-0.226,0.381-0.091,0.558l1.051,1.373c0.136,0.177,0.396,0.215,0.582,0.084l0.221-0.156
									c0.392,0.319,0.826,0.574,1.286,0.765l-0.046,0.257c-0.04,0.217,0.114,0.424,0.34,0.462l1.752,0.287
									c0.226,0.038,0.442-0.109,0.48-0.327l0.055-0.295c0.542-0.051,1.082-0.185,1.596-0.406l0.215,0.282
									c0.136,0.177,0.396,0.216,0.582,0.085l1.434-1.006c0.185-0.131,0.226-0.38,0.088-0.558l-0.277-0.364
									c0.271-0.349,0.492-0.726,0.657-1.122l0.526,0.086c0.227,0.037,0.441-0.108,0.48-0.326l0.301-1.677
									c0.04-0.216-0.113-0.422-0.34-0.459l-0.635-0.104c-0.057-0.438-0.178-0.875-0.361-1.293l0.557-0.39
									C106.972,38.851,107.012,38.602,106.877,38.425z M103.694,39.713c0.909,1.188,0.643,2.859-0.6,3.731
									s-2.987,0.615-3.896-0.573c-0.912-1.19-0.642-2.86,0.6-3.733C101.039,38.266,102.782,38.523,103.694,39.713z"/>
								<path fill="#EFE060" d="M122.444,42.714l-0.301-0.851c-0.039-0.108-0.164-0.169-0.279-0.132l-0.369,0.12
									c-0.115-0.164-0.25-0.313-0.4-0.446l0.18-0.33c0.055-0.105,0.012-0.232-0.096-0.285l-0.832-0.412
									c-0.109-0.055-0.244-0.013-0.299,0.091l-0.166,0.313c-0.238-0.057-0.482-0.08-0.732-0.073l-0.107-0.312
									c-0.039-0.111-0.166-0.169-0.279-0.132l-0.891,0.289c-0.112,0.036-0.177,0.157-0.137,0.267l0.091,0.26
									c-0.203,0.117-0.39,0.259-0.55,0.418l-0.228-0.11c-0.11-0.056-0.242-0.013-0.3,0.089l-0.43,0.797
									c-0.055,0.104-0.012,0.231,0.097,0.285l0.175,0.085c-0.076,0.268-0.106,0.547-0.089,0.83l-0.161,0.051
									c-0.116,0.036-0.178,0.156-0.139,0.266l0.302,0.851c0.038,0.109,0.164,0.17,0.279,0.132l0.138-0.045
									c0.143,0.22,0.321,0.415,0.52,0.582l-0.064,0.12c-0.057,0.105-0.013,0.233,0.095,0.286l0.833,0.413
									c0.109,0.052,0.242,0.011,0.297-0.092l0.078-0.141c0.279,0.057,0.572,0.07,0.869,0.037l0.061,0.176
									c0.039,0.109,0.164,0.168,0.279,0.131l0.889-0.289c0.113-0.037,0.178-0.157,0.139-0.267l-0.082-0.227
									c0.195-0.134,0.371-0.29,0.518-0.465l0.25,0.124c0.109,0.056,0.24,0.013,0.297-0.09l0.43-0.797
									c0.055-0.105,0.016-0.233-0.096-0.287l-0.301-0.146c0.043-0.231,0.055-0.467,0.033-0.707l0.344-0.111
									C122.423,42.943,122.485,42.826,122.444,42.714z M120.63,42.879c0.262,0.734-0.152,1.536-0.922,1.786
									s-1.605-0.144-1.865-0.882c-0.262-0.736,0.15-1.537,0.92-1.786C119.534,41.747,120.37,42.142,120.63,42.879z"/>
							</g>
						</g>
					</g>
					<g>
						<g>
							<path fill="#083D54" d="M101.515,44.071c-0.992,0-1.861-0.414-2.385-1.134c-0.441-0.606-0.614-1.331-0.487-2.041
								c0.141-0.789,0.639-1.504,1.402-2.013l6.844-3.965c0.806-0.538,1.611-0.825,2.321-0.825c0.737,0,1.355,0.314,1.787,0.909
								c0.374,0.513,0.516,1.088,0.414,1.663c-0.138,0.772-0.714,1.533-1.625,2.14l-6.192,4.623
								C102.959,43.851,102.243,44.071,101.515,44.071z M109.21,34.486c-0.632,0-1.363,0.264-2.112,0.765l-6.846,3.966
								c-0.662,0.442-1.101,1.066-1.222,1.749c-0.108,0.604,0.041,1.222,0.418,1.74c0.448,0.618,1.201,0.972,2.066,0.972
								c0.65,0,1.291-0.198,1.852-0.572l6.192-4.623c0.828-0.553,1.345-1.221,1.464-1.888c0.085-0.474-0.031-0.932-0.344-1.362
								C110.319,34.738,109.825,34.486,109.21,34.486z"/>
						</g>
						<g>
							<path fill="#083D54" d="M119.337,44.981c-0.564,0-1.191-0.222-1.809-0.643l-9.77-6.059c-1.259-0.963-1.237-2.375-0.575-3.283
								l0.007-0.012c0.004-0.009,0.01-0.017,0.017-0.025c0.36-0.499,1.077-0.808,1.869-0.808c0.572,0,1.112,0.161,1.559,0.464
								l8.978,6.699c1.205,0.818,1.637,1.947,1.117,2.939c-0.006,0.012-0.014,0.022-0.021,0.033l-0.094,0.116
								C120.308,44.781,119.864,44.981,119.337,44.981z M107.533,35.178l-0.006,0.012c-0.006,0.009-0.011,0.019-0.018,0.027
								c-0.54,0.73-0.623,1.899,0.473,2.739l9.759,6.053c0.553,0.375,1.117,0.579,1.596,0.579c0.412,0,0.738-0.146,0.973-0.433
								l0.08-0.1c0.41-0.809,0.035-1.712-1.008-2.42l-8.976-6.699c-0.475-0.323-0.986-0.392-1.33-0.392
								C108.424,34.545,107.821,34.793,107.533,35.178z"/>
						</g>
					</g>
				</g>
			</g>
			<g>
				<linearGradient id="SVGID_5_" gradientUnits="userSpaceOnUse" x1="56.2817" y1="63.5068" x2="98.7993" y2="63.5068">
					<stop  offset="0" style="stop-color:#1D1C1A"/>
					<stop  offset="0.0896" style="stop-color:#1D1C1A;stop-opacity:0.9104"/>
					<stop  offset="1" style="stop-color:#1D1C1A;stop-opacity:0"/>
				</linearGradient>
				<polyline opacity="0.15" fill="url(#SVGID_5_)" points="56.282,64.646 80.643,85.321 98.799,63.507 70.095,41.692 				"/>
				<g>
					<g>
						<g>
							<g>
								<g opacity="0.15">
									<path d="M75.244,65.191l-16.659-0.02c-1.201-0.001-2.072-0.667-2.071-1.583c0-0.85,0.376-1.404,0.438-1.487l6.809-11.266
										l0.009-7.309c-0.618-0.61-0.839-1.012-0.716-1.297c0.043-0.101,0.169-0.269,0.527-0.269c0.028,0,0.054,0.001,0.074,0.002
										c0.088-0.019,0.194-0.026,0.315-0.026c0.196,0,0.382,0.024,0.438,0.032l5.072,0.006c0.057-0.008,0.242-0.031,0.438-0.031
										c0.121,0,0.228,0.009,0.314,0.027c0.022-0.001,0.047-0.002,0.075-0.002c0.358,0,0.484,0.169,0.528,0.271
										c0.121,0.286-0.102,0.687-0.722,1.295l-0.009,7.309l6.78,11.282c0.061,0.084,0.434,0.639,0.434,1.488
										C77.318,64.528,76.444,65.193,75.244,65.191"/>
								</g>
								<g>
									<path fill="#FFFFFF" d="M74.502,64.646l-16.659-0.02c-1.201-0.001-2.072-0.667-2.072-1.584
										c0.001-0.85,0.378-1.403,0.438-1.487l6.81-11.266l0.01-7.309c-0.618-0.61-0.841-1.011-0.718-1.297
										c0.043-0.101,0.17-0.269,0.528-0.269c0.028,0,0.054,0.001,0.075,0.002c0.088-0.019,0.194-0.026,0.314-0.026
										c0.196,0,0.383,0.024,0.438,0.032l5.073,0.006c0.057-0.008,0.241-0.031,0.438-0.031c0.12,0,0.226,0.009,0.314,0.027
										c0.021-0.002,0.046-0.002,0.074-0.002c0.359,0,0.484,0.169,0.528,0.271c0.121,0.285-0.101,0.687-0.721,1.295l-0.01,7.309
										l6.78,11.283c0.06,0.083,0.435,0.639,0.434,1.488C76.577,63.982,75.704,64.647,74.502,64.646"/>
								</g>
							</g>
						</g>
						<g>
							<path fill="#EFE060" d="M63.558,52.28l-5.932,9.113c0,0-0.461,0.82-0.244,1.42c0.216,0.601,0.357,0.981,2.302,0.983
								l13.947,0.017c0,0,1.28,0.039,1.524-0.93c0.244-0.968-0.14-1.434-0.905-2.586c-0.767-1.152-4.904-8.017-4.904-8.017H63.558"
								/>
							<g>
								<ellipse fill="#F8F6EA" cx="64.921" cy="55.235" rx="0.553" ry="0.53"/>
								<ellipse fill="#F8F6EA" cx="70.854" cy="61.663" rx="0.553" ry="0.53"/>
								<ellipse fill="#F8F6EA" cx="60.609" cy="61.663" rx="0.779" ry="0.747"/>
								<ellipse fill="#F8F6EA" cx="64.232" cy="59.266" rx="0.416" ry="0.398"/>
								<ellipse fill="#F8F6EA" cx="68.517" cy="57.204" rx="1.232" ry="1.179"/>
							</g>
						</g>
					</g>
					<g>
						<g>
							<g opacity="0.15">
								<ellipse cx="68.025" cy="38.976" rx="1.11" ry="1.063"/>
							</g>
							<g>
								<ellipse fill="#EFE060" cx="67.285" cy="38.43" rx="1.109" ry="1.063"/>
							</g>
						</g>
						<g>
							<g opacity="0.15">
								<ellipse cx="64.972" cy="35.648" rx="1.458" ry="1.397"/>
							</g>
							<g>
								<ellipse fill="#EFE060" cx="64.231" cy="35.102" rx="1.458" ry="1.397"/>
							</g>
						</g>
						<g>
							<g opacity="0.15">
								<ellipse cx="69.136" cy="34.251" rx="0.855" ry="0.818"/>
							</g>
							<g>
								<ellipse fill="#EFE060" cx="68.395" cy="33.705" rx="0.855" ry="0.818"/>
							</g>
						</g>
					</g>
				</g>
			</g>
			<g>
				<g>
					
						<linearGradient id="SVGID_6_" gradientUnits="userSpaceOnUse" x1="164.002" y1="118.2832" x2="197.4502" y2="118.2832" gradientTransform="matrix(0.9995 0.0303 -0.0303 0.9995 0.3682 -20.6172)">
						<stop  offset="0" style="stop-color:#1D1C1A"/>
						<stop  offset="0.0896" style="stop-color:#1D1C1A;stop-opacity:0.9104"/>
						<stop  offset="1" style="stop-color:#1D1C1A;stop-opacity:0"/>
					</linearGradient>
					<polygon opacity="0.1" fill="url(#SVGID_6_)" points="167.38,105.422 193.575,122.095 193.575,104.164 164.28,84.164 
						161.054,91.068 					"/>
				</g>
				<g>
					<g>
						<g>
							<g>
								<g opacity="0.15">
									<path d="M166.95,86.857c1.615,3.119,0.283,6.901-2.973,8.449c-3.256,1.547-7.207,0.273-8.82-2.845
										c-1.617-3.12-0.287-6.902,2.971-8.449C161.384,82.463,165.333,83.737,166.95,86.857z"/>
								</g>
								<g>
									<path fill="#F27665" d="M166.21,86.311c1.615,3.119,0.283,6.901-2.973,8.449c-3.258,1.547-7.207,0.272-8.822-2.846
										c-1.615-3.119-0.285-6.902,2.973-8.45C160.644,81.917,164.593,83.191,166.21,86.311z"/>
								</g>
							</g>
						</g>
					</g>
					<g>
						<g opacity="0.15">
							<polygon points="167.64,100.604 166.165,101.303 163.241,95.656 164.716,94.955 							"/>
						</g>
						<g>
							<g>
								<polygon fill="#575756" points="166.899,100.057 165.425,100.757 162.499,95.109 163.974,94.409 								"/>
							</g>
						</g>
					</g>
					<g>
						<g opacity="0.15">
							<polygon points="170.329,104.019 167.38,105.422 163.479,97.889 166.429,96.487 							"/>
						</g>
						<g>
							<g>
								<polygon fill="#F27665" points="169.587,103.473 166.638,104.874 162.737,97.343 165.687,95.942 								"/>
							</g>
						</g>
					</g>
					<g>
						<g>
							<path fill="#ABDCEE" d="M158.118,84.877c1.182-0.562,2.52-0.648,3.77-0.245c1.25,0.402,2.262,1.248,2.848,2.379
								c0.586,1.132,0.676,2.414,0.254,3.61c-0.42,1.197-1.303,2.165-2.482,2.727c-1.184,0.562-2.521,0.648-3.771,0.246
								c-1.248-0.404-2.26-1.249-2.846-2.38s-0.678-2.413-0.258-3.61C156.054,86.406,156.937,85.438,158.118,84.877L158.118,84.877z
								"/>
						</g>
						<g>
							<g>
								<path fill="#E7F5FA" d="M158.22,90.985c-0.406,0.193-0.9,0.034-1.102-0.355c-0.424-0.818-0.49-1.744-0.186-2.607
									c0.305-0.865,0.941-1.564,1.795-1.969c0.406-0.193,0.9-0.034,1.102,0.355c0.203,0.39,0.037,0.863-0.371,1.057
									c-0.459,0.218-0.803,0.596-0.967,1.061c-0.162,0.465-0.127,0.964,0.102,1.403C158.794,90.319,158.626,90.792,158.22,90.985z
									"/>
							</g>
						</g>
					</g>
				</g>
			</g>
			<g>
				<g>
					<linearGradient id="SVGID_7_" gradientUnits="userSpaceOnUse" x1="45.3706" y1="96.8848" x2="85.1333" y2="96.8848">
						<stop  offset="0" style="stop-color:#1D1C1A"/>
						<stop  offset="0.0896" style="stop-color:#1D1C1A;stop-opacity:0.9104"/>
						<stop  offset="1" style="stop-color:#1D1C1A;stop-opacity:0"/>
					</linearGradient>
					<polyline opacity="0.1" fill="url(#SVGID_7_)" points="45.371,90.702 79.721,115.563 85.133,104.874 52.606,78.207 					"/>
					<linearGradient id="SVGID_8_" gradientUnits="userSpaceOnUse" x1="46.8716" y1="116.0518" x2="90.3237" y2="116.0518">
						<stop  offset="0" style="stop-color:#1D1C1A"/>
						<stop  offset="0.0896" style="stop-color:#1D1C1A;stop-opacity:0.9104"/>
						<stop  offset="1" style="stop-color:#1D1C1A;stop-opacity:0"/>
					</linearGradient>
					<polyline opacity="0.1" fill="url(#SVGID_8_)" points="46.872,104.851 85.901,132.409 90.324,127.261 52.27,99.694 					"/>
					<g opacity="0.3">
						<linearGradient id="SVGID_9_" gradientUnits="userSpaceOnUse" x1="40.4409" y1="108.0205" x2="103.2202" y2="108.0205">
							<stop  offset="0" style="stop-color:#1D1C1A"/>
							<stop  offset="0.0896" style="stop-color:#1D1C1A;stop-opacity:0.9104"/>
							<stop  offset="1" style="stop-color:#1D1C1A;stop-opacity:0"/>
						</linearGradient>
						<polygon opacity="0.15" fill="url(#SVGID_9_)" points="40.441,107.472 78.818,137.435 103.22,113.948 61.206,78.607 
							61.308,106.563 						"/>
					</g>
				</g>
				<g>
					<g opacity="0.1">
						<path fill="#70706E" d="M47.171,103.389l0.007,1.613c0.002,0.525,0.448,0.949,0.997,0.948l5.318-0.019
							c0.549-0.002,0.992-0.429,0.989-0.955l-0.005-1.612c-0.002-0.527-0.449-0.951-0.998-0.949l-0.877,0.003L52.6,101.46
							c0-0.038-0.007-0.075-0.013-0.114h0.099c0.367-0.001,0.665-0.287,0.663-0.639c-0.001-0.352-0.301-0.635-0.667-0.633
							l-1.54,0.004l-0.003-0.709l0.003,0.709l-2.199,0.008c-0.367,0.001-0.663,0.287-0.663,0.639c0.002,0.352,0.3,0.636,0.668,0.634
							h0.098c-0.004,0.039-0.012,0.076-0.012,0.114l0.004,0.958l-0.876,0.003C47.613,102.435,47.169,102.862,47.171,103.389z"/>
						<path fill="#70706E" d="M51.139,96.946c0,0-1.683,2.423,0,2.423l0,0l0,0c0.034,0,0.066-0.001,0.096-0.004
							C52.752,99.271,51.139,96.946,51.139,96.946z"/>
						<path fill="#70706E" d="M66.402,105.988l-4.681,0.016V82.973c0.625-0.271,1.062-0.892,1.062-1.616s-0.437-1.345-1.062-1.616
							v-2.557h-1.347v2.537c-0.489,0.194-0.872,0.601-1.031,1.108h-5.361c-0.156-0.269-0.425-0.46-0.743-0.511
							c0.293-0.148,0.496-0.439,0.494-0.78c-0.002-0.489-0.416-0.883-0.927-0.881l-3.803,0.013c-0.51,0.001-0.922,0.399-0.921,0.888
							c0.001,0.342,0.207,0.634,0.505,0.78c-0.277,0.07-0.51,0.25-0.649,0.492h-1.655v1.057h1.655
							c0.183,0.314,0.52,0.528,0.909,0.528h0.131l0.008,2.156c-2.042,0.761-3.488,2.66-3.479,4.883
							c0.01,2.884,2.461,5.213,5.473,5.204c3.011-0.01,5.444-2.357,5.433-5.242c-0.007-2.167-1.393-4.021-3.358-4.804l-0.008-2.197
							h0.026c0.391,0,0.727-0.213,0.91-0.528h5.361c0.159,0.507,0.542,0.914,1.031,1.108v23.016l-19.526,0.066l0.006,1.775
							l25.554-0.087L66.402,105.988z"/>
					</g>
					<g>
						<g>
							<path fill="#FFFFFF" d="M53.068,102.036l-0.877,0.003l-0.004-0.956c0-0.04-0.008-0.077-0.012-0.116h0.099
								c0.366-0.001,0.663-0.287,0.662-0.639c-0.002-0.352-0.3-0.636-0.666-0.634l-3.74,0.013c-0.367,0.001-0.663,0.288-0.663,0.638
								c0.002,0.352,0.3,0.636,0.667,0.634h0.1c-0.005,0.038-0.012,0.076-0.012,0.114l0.004,0.958l-0.877,0.003
								c-0.548,0.002-0.991,0.429-0.99,0.955l0.006,1.613c0.003,0.526,0.449,0.949,0.998,0.948l5.317-0.018
								c0.55-0.002,0.992-0.43,0.99-0.956l-0.006-1.613C54.063,102.459,53.617,102.034,53.068,102.036"/>
							<g>
								<path fill="#E2B04C" d="M53.623,103.181l0.005,1.226c0.002,0.398-0.389,0.726-0.871,0.727l-4.674,0.017
									c-0.483,0.001-0.875-0.322-0.877-0.722l-0.005-1.226"/>
								<g>
									<path fill="none" stroke="#999999" stroke-width="0.1515" stroke-miterlimit="10" d="M50.745,103.938
										c0,0,0.825,0.203,0.619-0.785c-0.122-0.581-0.625-0.29-0.628-1.029l-0.01-3.133"/>
									<g>
										<path fill="#F2755C" d="M50.726,96.567c0,0-1.683,2.423,0,2.423S50.726,96.567,50.726,96.567z"/>
										<path fill="#EFE060" d="M50.726,97.422c0,0-1.089,1.568,0,1.568C51.816,98.99,50.726,97.422,50.726,97.422z"/>
									</g>
								</g>
							</g>
						</g>
						<g>
							<path fill="#FFFFFF" d="M52.64,84.232l-0.016-4.215c0.4-0.099,0.696-0.444,0.695-0.857c-0.002-0.489-0.417-0.883-0.927-0.881
								l-3.803,0.013c-0.511,0.002-0.923,0.399-0.921,0.888c0.001,0.476,0.396,0.86,0.888,0.878l0.016,4.134
								c-2.042,0.761-3.487,2.66-3.479,4.883c0.011,2.884,2.46,5.214,5.473,5.204c3.011-0.01,5.444-2.356,5.434-5.242
								C55.992,86.87,54.606,85.015,52.64,84.232"/>
							<g>
								<g>
									<path fill="#F2755C" d="M45.87,89.07c0.01,2.474,2.11,4.473,4.693,4.464c2.582-0.009,4.67-2.022,4.661-4.495L45.87,89.07z"
										/>
								</g>
								<g>
									<circle opacity="0.9" fill="#FFFFFF" cx="50.327" cy="91.908" r="0.352"/>
									<circle opacity="0.9" fill="#FFFFFF" cx="51.734" cy="90.077" r="0.422"/>
									<circle opacity="0.9" fill="#FFFFFF" cx="50.924" cy="90.861" r="0.246"/>
									<circle opacity="0.9" fill="#FFFFFF" cx="51.312" cy="91.908" r="0.142"/>
									<circle opacity="0.9" fill="#FFFFFF" cx="50.924" cy="92.762" r="0.246"/>
									<circle opacity="0.9" fill="#FFFFFF" cx="50.133" cy="90.077" r="0.167"/>
								</g>
							</g>
						</g>
						<g>
							
								<rect x="40.438" y="105.653" transform="matrix(1 -0.0034 0.0034 1 -0.358 0.1796)" fill="#575756" width="25.554" height="1.775"/>
							<g>
								<g>
									<rect x="45.87" y="80.45" fill="#575756" width="14.19" height="1.057"/>
									<path fill="#585857" d="M53.714,80.978c0,0.583-0.473,1.057-1.056,1.057h-4.225c-0.584,0-1.057-0.473-1.057-1.057l0,0
										c0-0.583,0.473-1.056,1.057-1.056h4.225C53.242,79.922,53.714,80.395,53.714,80.978L53.714,80.978z"/>
								</g>
								<g>
									<rect x="59.961" y="76.806" fill="#575756" width="1.347" height="29.757"/>
									<g>
										<circle fill="#575756" cx="60.609" cy="80.978" r="1.76"/>
										<circle fill="#70706E" cx="60.609" cy="80.978" r="1.056"/>
									</g>
								</g>
							</g>
						</g>
					</g>
				</g>
			</g>
			<g>
				<g>
					<linearGradient id="SVGID_10_" gradientUnits="userSpaceOnUse" x1="53.5571" y1="147.9023" x2="108.1128" y2="147.9023">
						<stop  offset="0" style="stop-color:#1D1C1A"/>
						<stop  offset="0.0896" style="stop-color:#1D1C1A;stop-opacity:0.9104"/>
						<stop  offset="1" style="stop-color:#1D1C1A;stop-opacity:0"/>
					</linearGradient>
					<polygon opacity="0.15" fill="url(#SVGID_10_)" points="53.557,142.848 86.375,170.035 108.113,148.916 76.16,125.77 
						67.861,136.395 					"/>
				</g>
				<g>
					<g opacity="0.15">
						<polygon points="61.145,128.39 61.971,127.483 65.866,132.3 64.807,132.983 						"/>
						<polygon points="67.411,148.183 67.27,140.379 68.532,139.874 68.673,148.135 						"/>
						<rect x="71.356" y="136.98" transform="matrix(0.994 0.1093 -0.1093 0.994 15.483 -7.2305)" width="4.673" height="1.253"/>
						<polygon points="70.727,134.627 69.82,133.756 75.711,127.822 76.528,128.785 						"/>
						<polygon points="63.739,139.073 59.882,141.208 59.266,140.116 63.123,137.981 						"/>
						<path d="M59.53,121.475c2.353-0.642,4.786,0.728,5.437,3.061c0.646,2.333-0.733,4.745-3.088,5.389
							c-2.354,0.643-4.788-0.727-5.437-3.06C55.792,124.531,57.174,122.119,59.53,121.475z"/>
						<ellipse cx="76.528" cy="127.806" rx="2.29" ry="2.269"/>
						<path d="M57.281,144.615c-1.633,0.191-3.109-0.967-3.303-2.583c-0.191-1.619,0.975-3.083,2.606-3.273
							c1.632-0.191,3.109,0.966,3.303,2.583C60.079,142.96,58.913,144.425,57.281,144.615z"/>
						<ellipse cx="68.329" cy="149.196" rx="2.309" ry="2.287"/>
						<ellipse cx="78.781" cy="138.24" rx="2.975" ry="2.948"/>
						<ellipse cx="67.509" cy="136.565" rx="5.262" ry="5.215"/>
					</g>
					<g>
						<g>
							<g>
								<polygon fill="#083D54" points="60.405,127.843 61.231,126.938 65.124,131.754 64.066,132.438 								"/>
							</g>
							<g>
								<polygon fill="#083D54" points="66.669,147.637 66.528,139.832 67.791,139.327 67.931,147.589 								"/>
							</g>
							<g>
								
									<rect x="70.614" y="136.434" transform="matrix(0.994 0.1093 -0.1093 0.994 15.4123 -7.1502)" fill="#083D54" width="4.674" height="1.253"/>
							</g>
							<g>
								<polygon fill="#083D54" points="69.987,134.081 69.08,133.209 74.971,127.277 75.788,128.238 								"/>
							</g>
							<g>
								<polygon fill="#083D54" points="62.998,138.527 59.141,140.662 58.526,139.57 62.381,137.435 								"/>
							</g>
							<g>
								<path fill="#EFE060" d="M58.789,120.93c2.354-0.643,4.786,0.728,5.435,3.06c0.649,2.333-0.732,4.745-3.086,5.389
									c-2.354,0.642-4.787-0.727-5.438-3.06C55.052,123.986,56.433,121.573,58.789,120.93z"/>
							</g>
							<g>
								<ellipse fill="#F27665" cx="75.788" cy="127.26" rx="2.29" ry="2.27"/>
							</g>
							<g>
								<path fill="#55BB7A" d="M56.54,144.069c-1.632,0.189-3.11-0.966-3.302-2.584c-0.192-1.617,0.974-3.082,2.606-3.272
									c1.631-0.19,3.109,0.967,3.301,2.583C59.338,142.413,58.171,143.879,56.54,144.069z"/>
							</g>
							<g>
								<ellipse fill="#F2755C" cx="67.587" cy="148.65" rx="2.309" ry="2.288"/>
							</g>
							<g>
								<ellipse fill="#9390C5" cx="78.041" cy="137.694" rx="2.975" ry="2.949"/>
							</g>
							<g>
								<ellipse fill="#67BDE4" cx="66.767" cy="136.02" rx="5.262" ry="5.215"/>
							</g>
						</g>
					</g>
				</g>
			</g>
			<g>
				<g>
					<linearGradient id="SVGID_11_" gradientUnits="userSpaceOnUse" x1="92.4917" y1="165.9385" x2="173.1475" y2="165.9385">
						<stop  offset="0" style="stop-color:#1D1C1A"/>
						<stop  offset="0.0896" style="stop-color:#1D1C1A;stop-opacity:0.9104"/>
						<stop  offset="1" style="stop-color:#1D1C1A;stop-opacity:0"/>
					</linearGradient>
					<polygon opacity="0.15" fill="url(#SVGID_11_)" points="92.492,154.505 133.55,187.418 173.147,187.418 121.261,144.459 
						120.321,153.527 					"/>
				</g>
				<g>
					<g>
						<g>
							<g>
								<path fill="#FFFFFF" d="M112.327,145.178l-4.588,0.017c-0.45,0.001-0.814,0.352-0.813,0.784l0.002,0.41
									c0.002,0.43,0.367,0.778,0.818,0.776h0.014c-0.009,0.081-0.014,0.163-0.014,0.246l0.048,12.733
									c0.004,1.224,1.044,2.213,2.323,2.21c1.279-0.004,2.311-1.002,2.307-2.226l-0.047-12.733
									c-0.001-0.084-0.007-0.167-0.016-0.249c0.437-0.016,0.786-0.357,0.785-0.78l-0.002-0.41
									C113.145,145.525,112.777,145.177,112.327,145.178"/>
								<g>
									<path fill="#575756" d="M112.26,144.277c0.001,0.272-0.229,0.494-0.514,0.494l-3.43,0.012
										c-0.284,0.003-0.516-0.218-0.517-0.49c-0.002-0.272,0.229-0.493,0.512-0.495l3.432-0.011
										C112.027,143.786,112.259,144.006,112.26,144.277"/>
									
										<rect x="108.23" y="144.285" transform="matrix(1 -0.0041 0.0041 1 -0.588 0.4485)" fill="#575756" width="3.603" height="1.15"/>
								</g>
							</g>
							<g>
								<path fill="#EFE060" d="M111.951,148.691l0.042,11.422c0.004,0.996-0.837,1.807-1.876,1.811
									c-1.041,0.004-1.887-0.802-1.891-1.798l-0.044-11.421"/>
								<g>
									<ellipse opacity="0.8" fill="#F8F6EA" cx="110.418" cy="159.709" rx="0.522" ry="0.501"/>
									<ellipse opacity="0.8" fill="#F8F6EA" cx="109.163" cy="157.71" rx="0.371" ry="0.354"/>
									<ellipse opacity="0.8" fill="#F8F6EA" cx="110.659" cy="156.253" rx="0.299" ry="0.286"/>
									<ellipse opacity="0.8" fill="#F8F6EA" cx="110.959" cy="157.996" rx="0.299" ry="0.286"/>
								</g>
							</g>
						</g>
						<g>
							<g>
								<path fill="#FFFFFF" d="M103.009,145.211l-4.587,0.014c-0.451,0.003-0.814,0.354-0.813,0.785l0.001,0.409
									c0.002,0.432,0.368,0.78,0.817,0.777h0.017c-0.011,0.08-0.015,0.163-0.015,0.247l0.046,12.732
									c0.006,1.225,1.045,2.214,2.324,2.21c1.279-0.005,2.312-1.001,2.308-2.226l-0.047-12.732
									c-0.001-0.084-0.007-0.167-0.017-0.25c0.437-0.015,0.786-0.357,0.785-0.78l-0.002-0.41
									C103.826,145.557,103.459,145.208,103.009,145.211"/>
								<g>
									<path fill="#575756" d="M102.942,144.309c0.001,0.273-0.229,0.495-0.512,0.495L99,144.816
										c-0.285,0-0.517-0.221-0.518-0.492s0.229-0.494,0.513-0.494l3.432-0.012C102.71,143.818,102.942,144.037,102.942,144.309"
										/>
									
										<rect x="98.913" y="144.317" transform="matrix(1 -0.0033 0.0033 1 -0.4707 0.3283)" fill="#575756" width="3.604" height="1.149"/>
									<path fill="#575756" d="M102.942,144.309c0.001,0.273-0.229,0.495-0.512,0.495L99,144.816
										c-0.285,0-0.517-0.221-0.518-0.492s0.229-0.494,0.513-0.494l3.432-0.012C102.71,143.818,102.942,144.037,102.942,144.309"
										/>
									
										<rect x="98.913" y="144.317" transform="matrix(1 -0.0033 0.0033 1 -0.4707 0.3283)" fill="#575756" width="3.604" height="1.149"/>
								</g>
							</g>
							<g>
								<path fill="#55BB7A" d="M102.643,151.455l0.031,8.69c0.005,0.995-0.835,1.806-1.874,1.811
									c-1.042,0.003-1.888-0.803-1.892-1.799l-0.031-8.689"/>
								<g>
									<ellipse opacity="0.8" fill="#F8F6EA" cx="100.406" cy="158.687" rx="0.522" ry="0.5"/>
									<ellipse opacity="0.8" fill="#F8F6EA" cx="100.776" cy="156.539" rx="0.371" ry="0.354"/>
									<ellipse opacity="0.8" fill="#F8F6EA" cx="100.711" cy="160.495" rx="0.299" ry="0.286"/>
									<ellipse opacity="0.8" fill="#F8F6EA" cx="101.835" cy="157.71" rx="0.299" ry="0.287"/>
								</g>
							</g>
						</g>
						<g>
							<g>
								<path fill="#FFFFFF" d="M121.647,145.146l-4.588,0.016c-0.452,0.002-0.815,0.353-0.813,0.783l0.001,0.411
									c0.002,0.431,0.368,0.778,0.819,0.777h0.016c-0.01,0.08-0.016,0.163-0.016,0.247l0.048,12.732
									c0.005,1.224,1.045,2.214,2.324,2.209c1.277-0.005,2.311-1.001,2.307-2.225l-0.047-12.732c0-0.085-0.006-0.168-0.016-0.25
									c0.438-0.016,0.785-0.358,0.785-0.779l-0.002-0.411C122.464,145.493,122.099,145.146,121.647,145.146"/>
								<g>
									<path fill="#575756" d="M121.579,144.247c0.002,0.272-0.229,0.493-0.512,0.494l-3.432,0.011
										c-0.284,0.002-0.516-0.219-0.517-0.492c-0.001-0.271,0.228-0.491,0.513-0.492l3.432-0.013
										C121.347,143.754,121.579,143.974,121.579,144.247"/>
									
										<rect x="117.551" y="144.252" transform="matrix(1 -0.0035 0.0035 1 -0.5096 0.4215)" fill="#575756" width="3.603" height="1.15"/>
								</g>
							</g>
							<g>
								<path fill="#67BDE4" d="M121.296,155.481l0.018,4.601c0.002,0.995-0.836,1.807-1.877,1.811
									c-1.039,0.003-1.887-0.802-1.89-1.798l-0.018-4.601"/>
								<g>
									<ellipse opacity="0.8" fill="#F8F6EA" cx="118.827" cy="157.355" rx="0.521" ry="0.5"/>
									<ellipse opacity="0.8" fill="#F8F6EA" cx="120.21" cy="158.687" rx="0.299" ry="0.286"/>
									<ellipse opacity="0.8" fill="#F8F6EA" cx="118.827" cy="160.209" rx="0.299" ry="0.286"/>
								</g>
							</g>
						</g>
					</g>
					<g>
						<g>
							<rect x="92.53" y="153.316" fill="#575756" width="36.469" height="0.964"/>
						</g>
						<g>
							<rect x="105.404" y="153.734" fill="#575756" width="1.005" height="10.539"/>
						</g>
						<g>
							<rect x="114.764" y="153.798" fill="#575756" width="1.006" height="10.476"/>
						</g>
						<g>
							<path fill="#3C3C3B" d="M104.822,164.605L104.822,164.605c0-0.313,0.203-0.568,0.452-0.568h1.199
								c0.25,0,0.453,0.255,0.453,0.568l0,0"/>
							<path fill="#575756" d="M107.026,164.605h-0.201c0-0.26-0.157-0.472-0.352-0.472h-1.199c-0.193,0-0.352,0.212-0.352,0.472
								h-0.201c0-0.366,0.248-0.665,0.553-0.665h1.199C106.778,163.94,107.026,164.239,107.026,164.605z"/>
						</g>
						<g>
							<path fill="#3C3C3B" d="M114.214,164.605L114.214,164.605c0-0.313,0.202-0.568,0.452-0.568h1.201
								c0.249,0,0.452,0.255,0.452,0.568l0,0"/>
							<path fill="#575756" d="M116.42,164.605h-0.202c0-0.26-0.157-0.472-0.351-0.472h-1.201c-0.194,0-0.352,0.212-0.352,0.472
								h-0.201c0-0.366,0.248-0.665,0.553-0.665h1.201C116.172,163.94,116.42,164.239,116.42,164.605z"/>
						</g>
					</g>
				</g>
			</g>
			<g>
				<g>
					<linearGradient id="SVGID_12_" gradientUnits="userSpaceOnUse" x1="143.7041" y1="149.0469" x2="193.5752" y2="149.0469">
						<stop  offset="0" style="stop-color:#1D1C1A"/>
						<stop  offset="0.0896" style="stop-color:#1D1C1A;stop-opacity:0.9104"/>
						<stop  offset="1" style="stop-color:#1D1C1A;stop-opacity:0"/>
					</linearGradient>
					<path opacity="0.15" fill="url(#SVGID_12_)" d="M143.704,151.586l49.871,35.955v-55.132l-31.549-21.855l-3.172,7.39
						c0,0,12.941,8.7,13.377,14.466c0.299,3.966-9.367,12.857-9.367,12.857L143.704,151.586z"/>
				</g>
				<g>
					<path opacity="0.1" fill="#203263" d="M168.331,146.934h-2.59c0.023-0.413,0.035-0.879,0.035-1.404
						c0-0.13-0.008-0.26-0.02-0.386c4.865-2.064,8.273-6.764,8.273-12.22c0-6.256-4.479-11.518-10.5-12.951
						c-0.303-0.664-0.904-1.173-1.643-1.372l2.174-6.896l0.076,0.02c0.354,0.094,0.717-0.104,0.814-0.44l0.213-0.73
						c0.098-0.338-0.109-0.687-0.461-0.78l-6.447-1.713c-0.354-0.094-0.717,0.104-0.814,0.44l-0.213,0.731
						c-0.086,0.299,0.066,0.605,0.348,0.737l-4.002,12.686l-0.16-0.047l-1.066,3.383l0.693,0.2
						c-0.029,0.059-0.057,0.118-0.076,0.182c-0.146,0.464,0.021,0.944,0.387,1.236l-0.793,2.885
						c-0.107,0.387,0.135,0.783,0.541,0.885l2.684,0.676c0.404,0.102,0.818-0.129,0.926-0.517l0.766-2.795
						c0.418-0.088,0.775-0.383,0.906-0.803c0.021-0.065,0.033-0.128,0.041-0.193l0.695,0.2l1.064-3.381l-0.16-0.047l0.395-1.255
						c0.246,0.076,0.508,0.117,0.779,0.117c0.723,0,1.373-0.287,1.836-0.75c4.703,1.204,8.184,5.361,8.184,10.292
						c0,4.382-2.75,8.152-6.664,9.782c-0.752-0.718-1.791-1.163-2.939-1.163c-1.465,0-2.752,0.728-3.494,1.823
						c-2.328-0.44-4.451-1.603-6.049-3.318h9.217v-2.719h-13.074v2.719h0.402c0.039,0.113,0.094,0.225,0.166,0.33
						c2.045,2.929,5.17,4.919,8.672,5.612c0.006,0.34,0.016,0.655,0.033,0.943h-9.781c-1.725,0-3.123,2.313-3.123,5.166h26.871
						C171.452,149.247,170.056,146.934,168.331,146.934z"/>
					<g>
						<g>
							<g>
								<path fill="#203263" d="M159.263,145.749c-4.596,0-8.875-2.2-11.449-5.885c-0.432-0.619-0.258-1.457,0.389-1.871
									s1.52-0.247,1.953,0.371c2.049,2.937,5.453,4.688,9.107,4.688c6.059,0,10.986-4.774,10.986-10.643
									c0-5.869-4.928-10.645-10.986-10.645c-0.777,0-1.408-0.603-1.408-1.348c0-0.743,0.631-1.349,1.408-1.349
									c7.609,0,13.803,5.985,13.803,13.341C173.065,139.767,166.872,145.749,159.263,145.749z"/>
							</g>
							<polygon fill="#E2B04C" points="160.411,139.534 160.411,139.534 147.335,139.534 147.335,139.534 147.335,136.815 
								147.335,136.815 160.411,136.815 160.411,136.815 							"/>
							<g>
								<path fill="#E2B04C" d="M143.704,151.586L143.704,151.586c0-2.853,1.398-5.165,3.123-5.165h20.627
									c1.725,0,3.123,2.313,3.123,5.165l0,0"/>
								<g>
									<path fill="#E2B04C" d="M164.899,145.017c0,6.569-1.863,3.987-4.164,3.987c-2.299,0-4.162,2.582-4.162-3.987
										c0-2.203,1.863-3.987,4.162-3.987C163.036,141.029,164.899,142.813,164.899,145.017z"/>
									<ellipse fill="#203263" cx="160.736" cy="144.357" rx="1.29" ry="1.236"/>
								</g>
							</g>
						</g>
						<g>
							<g>
								<path fill="#203263" d="M155.831,131.024c-0.105,0.388-0.52,0.618-0.924,0.518l-2.684-0.677
									c-0.404-0.103-0.646-0.498-0.541-0.886l1.285-4.675c0.105-0.387,0.52-0.617,0.924-0.516l2.686,0.676
									c0.402,0.103,0.645,0.498,0.537,0.886L155.831,131.024z"/>
								<g>
									<path fill="#203263" d="M157.505,127.427c-0.193,0.618-0.875,0.968-1.52,0.78l-3.082-0.891
										c-0.645-0.188-1.01-0.84-0.814-1.457l0,0c0.193-0.616,0.873-0.966,1.52-0.779l3.082,0.891
										C157.335,126.156,157.7,126.809,157.505,127.427L157.505,127.427z"/>
									<polygon fill="#203263" points="158.104,127.307 151.659,125.443 156.778,109.207 163.224,111.071 									"/>
									<polygon fill="#E2B04C" points="158.241,127.435 151.472,125.478 152.538,122.095 159.306,124.053 									"/>
								</g>
								<path fill="#E2B04C" d="M164.075,110.771c-0.098,0.337-0.463,0.535-0.814,0.441l-6.447-1.713
									c-0.352-0.094-0.559-0.442-0.461-0.781l0.213-0.73c0.098-0.337,0.461-0.534,0.814-0.441l6.447,1.714
									c0.352,0.094,0.559,0.443,0.461,0.779L164.075,110.771z"/>
							</g>
							<ellipse fill="#E2B04C" cx="160.32" cy="120.432" rx="2.544" ry="2.438"/>
						</g>
					</g>
				</g>
			</g>
		</g>
	</g>
</g>
</svg>
