<?xml version="1.0" encoding="utf-8"?>
<!-- Generator: Adobe Illustrator 16.0.0, SVG Export Plug-In . SVG Version: 6.00 Build 0)  -->
<!DOCTYPE svg PUBLIC "-//W3C//DTD SVG 1.1//EN" "http://www.w3.org/Graphics/SVG/1.1/DTD/svg11.dtd">
<svg version="1.1" id="Layer_1" xmlns="http://www.w3.org/2000/svg" xmlns:xlink="http://www.w3.org/1999/xlink" x="0px" y="0px"
	 width="220px" height="200px" viewBox="0 0 220 200" enable-background="new 0 0 220 200" xml:space="preserve">
<rect fill="#29ABE2" width="220" height="200"/>
<g>
	<g>
		<g>
			<path fill="#DBB589" d="M110.217,99.212h-4.464v5.95c0,0.673,1.998,1.217,4.464,1.217s4.464-0.544,4.464-1.217v-5.95H110.217z"/>
			<g>
				<path fill="#F2CE9C" d="M109.093,102.439c0.366,0.086,0.741,0.132,1.124,0.132s0.758-0.046,1.124-0.132
					c1.673-0.51,5.036-5.523,5.039-5.506c0.342-1.114,0.532-2.342,0.532-3.63c0-5.116-2.997-9.264-6.695-9.264
					s-6.696,4.147-6.696,9.264c0,1.288,0.191,2.516,0.533,3.63C104.057,96.917,107.421,101.93,109.093,102.439z"/>
				<g>
					<path fill="#F2CE9C" d="M104.102,92.726c0.176,0.915-0.01,1.736-0.417,1.834c-0.403,0.099-0.876-0.562-1.053-1.476
						c-0.175-0.914,0.01-1.734,0.416-1.834C103.453,91.151,103.925,91.812,104.102,92.726z"/>
					<path fill="#F2CE9C" d="M116.332,92.726c-0.176,0.915,0.01,1.736,0.417,1.834c0.405,0.099,0.877-0.562,1.053-1.476
						c0.175-0.914-0.01-1.734-0.415-1.834C116.98,91.151,116.509,91.812,116.332,92.726z"/>
				</g>
				<path fill="#2D2725" d="M110.217,83.465c-3.924,0-7.104,3.375-7.104,7.535c0,0.082,0.002,0.162,0.004,0.242
					c0.046,0.006,0.491,0.102,0.526,1.178c0.021,0.64,0.02,0.839,0.013,0.891l0.584,0.341c0,0,0.076-4.084,2.94-4.208h3.037h3.037
					c2.864,0.125,2.94,4.208,2.94,4.208l0.584-0.341c-0.005-0.052-0.008-0.251,0.013-0.891c0.035-1.077,0.482-1.172,0.527-1.178
					c0.002-0.081,0.003-0.161,0.003-0.242C117.321,86.839,114.141,83.465,110.217,83.465z"/>
			</g>
		</g>
	</g>
	<path fill="#FBDD57" d="M106.396,83.15c-2.408,1.374-4.033,3.962-4.043,6.931h8.004v-3.243v-4.736V81.43
		C108.795,81.43,107.387,82.092,106.396,83.15z"/>
	<path fill="#F4B711" d="M114.32,83.15c2.407,1.374,4.033,3.962,4.042,6.931h-8.005v-3.243v-4.736V81.43
		C111.921,81.43,113.33,82.092,114.32,83.15z"/>
	<path fill="#FBDD57" d="M106.396,83.15c-2.408,1.374-4.033,3.962-4.043,6.931h8.004v-3.243v-4.736V81.43
		C108.795,81.43,107.387,82.092,106.396,83.15z"/>
	<path fill="#F4B711" d="M114.32,83.15c2.407,1.374,4.033,3.962,4.042,6.931h-8.005v-3.243v-4.736V81.43
		C111.921,81.43,113.33,82.092,114.32,83.15z"/>
	<g>
		<g>
			<rect x="102.071" y="89.74" fill="#FBDD57" width="16.291" height="0.604"/>
			<rect x="102.071" y="90.344" fill="#F4B711" width="16.291" height="0.605"/>
		</g>
		<g>
			<rect x="102.071" y="89.74" fill="#FBDD57" width="16.291" height="0.604"/>
			<rect x="102.071" y="90.344" fill="#F4B711" width="16.291" height="0.605"/>
		</g>
	</g>
</g>
<g>
	<g>
		<g>
			<g>
				<g>
					<g>
						<path fill="#FDD8A5" d="M73.317,117.428c0,0,2.844,0.924,3.555,1.02c0.71,0.094,2.274,0.309,3.127,1.256
							c0.854,0.947,0.568,0.9,0.877,1.137c0.308,0.236,1.327,1.066,1.327,1.066l-3.033,2.867c0,0-1.065-0.664-1.409-0.758
							c-0.344-0.096-5.438-1.115-5.841-1.375c-0.403-0.26-4.17-4.621-4.217-4.764c-0.048-0.141-0.023-0.402,0.141-0.449
							c0.167-0.047,0.83-0.07,1.541,0.758c0.711,0.83,2.369,2.369,2.369,2.369l-2.274-2.678c0,0-0.095-0.463,0-0.467
							c0.095-0.006,0.782-0.053,1.587,0.729c0.807,0.783,2.417,2.818,4.123,2.654c1.705-0.166,0.806-1.113,0.806-1.113
							s-1.422-0.451-1.777-0.451C73.863,119.229,72.867,118.375,73.317,117.428z"/>
						<g>
							<g>
								<g>
									<path fill="#F7BF84" d="M76.974,97.78c0,0-2.425-0.398-2.616-0.942c-0.026-0.077-0.032-0.175-0.02-0.281
										c0,0,1.018-1.955,1.145-2.156c0.194-0.28,0.342-0.606,0.106-0.756c0,0-0.435-0.521-1.009,0.336v0.001
										c-0.024,0.028-0.048,0.06-0.069,0.093c-0.016,0.027-0.031,0.054-0.048,0.08c-0.2,0.295-0.372,0.542-0.507,0.734
										c0.043-0.186,0.32-1.411,0.105-1.634c0,0-0.491-0.664-0.723-0.184c-0.232,0.481-0.734,2.882-0.734,2.882
										s1.146,3.919,2.671,3.536C76.801,99.109,76.974,97.78,76.974,97.78z"/>
									<path fill="#FDD8A5" d="M70.983,94.77l-0.61-2.134c0,0,0.635-0.552,1.084,0.276c0.448,0.829,2.11,4.658,2.599,4.893
										c0.49,0.235,2.206,0.396,2.728-0.569c0.521-0.967,1.066-3.11,2.384-2.677c0,0,0.377,0.248,0.013,1.035
										c-0.366,0.786-1.538,4.389-1.228,4.963c0.312,0.574,0.736,0.847,0.736,0.847l-1.037,4.074c0,0-3.058-0.504-3.813-2.068
										C73.083,101.844,70.983,94.77,70.983,94.77z"/>
								</g>
								<g>
									<path fill="#F7BF84" d="M143.024,97.78c0,0,2.426-0.398,2.617-0.942c0.027-0.077,0.032-0.175,0.02-0.281
										c0,0-1.018-1.955-1.144-2.156c-0.195-0.28-0.343-0.606-0.107-0.756c0,0,0.435-0.521,1.01,0.336v0.001
										c0.024,0.028,0.048,0.06,0.068,0.093c0.016,0.027,0.032,0.054,0.048,0.08c0.2,0.295,0.372,0.542,0.507,0.734
										c-0.043-0.186-0.32-1.411-0.105-1.634c0,0,0.491-0.664,0.723-0.184c0.232,0.481,0.734,2.882,0.734,2.882
										s-1.146,3.919-2.671,3.536C143.199,99.109,143.024,97.78,143.024,97.78z"/>
									<path fill="#FDD8A5" d="M149.015,94.77l0.611-2.134c0,0-0.635-0.552-1.084,0.276c-0.447,0.829-2.109,4.658-2.599,4.893
										c-0.49,0.235-2.206,0.396-2.728-0.569c-0.521-0.967-1.066-3.11-2.384-2.677c0,0-0.377,0.248-0.012,1.035
										c0.365,0.786,1.538,4.389,1.228,4.963c-0.313,0.574-0.737,0.847-0.737,0.847l1.038,4.074c0,0,3.058-0.504,3.813-2.068
										C146.916,101.844,149.015,94.77,149.015,94.77z"/>
								</g>
							</g>
							<g>
								<g>
									<polygon fill="#FDF6FA" points="140.415,102.164 141.323,101.334 145.609,104.09 144.473,105.053 									"/>
									<polygon fill="#FDF6FA" points="79.585,102.164 78.676,101.334 74.39,104.09 75.526,105.053 									"/>
								</g>
								<g>
									<path fill="#626672" d="M105.86,113.752l-6.502-8.002l-11.705,2.277l-8.151-6.35l-4.97,3.174
										c0,0,11.31,10.729,13.348,10.668c0.036-0.002,0.069-0.006,0.1-0.01L105.86,113.752z"/>
									<path fill="#626672" d="M114.139,113.752l6.503-8.002l11.704,2.277l8.151-6.35l4.971,3.174c0,0-11.31,10.729-13.349,10.668
										c-0.036-0.002-0.069-0.006-0.1-0.01L114.139,113.752z"/>
								</g>
							</g>
						</g>
						<g>
							<g>
								<g>
									<g>
										<path fill="#F7BF84" d="M71.388,134.852c0,0-1.645,1.824-2.205,1.693c-0.08-0.02-0.164-0.068-0.247-0.137
											c0,0-1.094-1.91-1.197-2.127c-0.129-0.314-0.323-0.615-0.578-0.498c0,0-0.671,0.084-0.261,1.031l0,0
											c0.012,0.037,0.024,0.074,0.043,0.107c0.013,0.029,0.026,0.057,0.04,0.084c0.14,0.328,0.255,0.605,0.344,0.824
											c-0.133-0.137-1.013-1.031-1.318-0.973c0,0-0.823,0.055-0.545,0.51c0.279,0.455,2.027,2.174,2.027,2.174
											s3.916,1.152,4.418-0.336C72.413,135.715,71.388,134.852,71.388,134.852z"/>
										<path fill="#FDD8A5" d="M65.62,138.268l-2.124-0.639c0,0-0.123-0.834,0.816-0.764s5.06,0.74,5.521,0.455
											s1.526-1.643,0.994-2.602c-0.532-0.961-2.041-2.578-0.965-3.453c0,0,0.413-0.182,0.877,0.549
											c0.464,0.732,2.861,3.664,3.513,3.713c0.651,0.047,1.11-0.162,1.11-0.162l2.868,3.074c0,0-2.075,2.301-3.802,2.092
											C72.705,140.32,65.62,138.268,65.62,138.268z"/>
									</g>
								</g>
								<g>
									<g>
										<polygon fill="#FDF6FA" points="76.487,135.021 75.298,135.338 75.302,140.434 76.726,139.996 										"/>
									</g>
									<g>
										<g>
											<path fill="#626672" d="M105.179,121.787l-8.891-0.697l-6.332,8.125l-13.923,5.613l-0.014,5.898
												c0,0,15.139-3.723,16.188-5.473c0.019-0.029,0.033-0.059,0.046-0.088L105.179,121.787z"/>
										</g>
									</g>
								</g>
							</g>
							<g>
								<g>
									<g>
										<path fill="#F7BF84" d="M148.611,134.852c0,0,1.645,1.824,2.206,1.693c0.079-0.02,0.163-0.068,0.246-0.137
											c0,0,1.094-1.91,1.197-2.127c0.129-0.314,0.324-0.615,0.578-0.498c0,0,0.672,0.084,0.262,1.031c0,0,0,0-0.002,0
											c-0.011,0.037-0.022,0.074-0.04,0.107c-0.015,0.029-0.028,0.057-0.042,0.084c-0.14,0.328-0.255,0.605-0.344,0.824
											c0.133-0.137,1.013-1.031,1.318-0.973c0,0,0.824,0.055,0.545,0.51s-2.027,2.174-2.027,2.174s-3.916,1.152-4.419-0.336
											C147.586,135.715,148.611,134.852,148.611,134.852z"/>
										<path fill="#FDD8A5" d="M154.38,138.268l2.124-0.639c0,0,0.122-0.834-0.817-0.764c-0.938,0.07-5.06,0.74-5.521,0.455
											c-0.461-0.285-1.525-1.643-0.994-2.602c0.533-0.961,2.041-2.578,0.965-3.453c0,0-0.412-0.182-0.876,0.549
											c-0.465,0.732-2.862,3.664-3.514,3.713c-0.65,0.047-1.109-0.162-1.109-0.162l-2.869,3.074c0,0,2.076,2.301,3.802,2.092
											C147.294,140.32,154.38,138.268,154.38,138.268z"/>
									</g>
								</g>
								<g>
									<g>
										<polygon fill="#FDF6FA" points="143.512,135.021 144.701,135.338 144.697,140.434 143.273,139.996 										"/>
									</g>
									<g>
										<g>
											<path fill="#626672" d="M114.82,121.787l8.892-0.697l6.331,8.125l13.923,5.613l0.014,5.898
												c0,0-15.138-3.723-16.188-5.473c-0.019-0.029-0.033-0.059-0.046-0.088L114.82,121.787z"/>
										</g>
									</g>
								</g>
							</g>
						</g>
						<g>
							<g>
								<path fill="#FDD8A5" d="M73.146,117.428c0,0,2.843,0.924,3.554,1.02c0.71,0.094,2.274,0.309,3.127,1.256
									s0.568,0.9,0.877,1.137c0.308,0.236,1.326,1.066,1.326,1.066l-3.032,2.867c0,0-1.067-0.664-1.409-0.758
									c-0.344-0.096-5.438-1.115-5.841-1.375c-0.403-0.26-4.17-4.621-4.218-4.764c-0.047-0.141-0.023-0.402,0.142-0.449
									c0.166-0.047,0.83-0.07,1.541,0.758c0.711,0.83,2.369,2.369,2.369,2.369l-2.274-2.678c0,0-0.095-0.463,0-0.467
									c0.095-0.006,0.782-0.053,1.587,0.729c0.807,0.783,2.417,2.818,4.122,2.654c1.706-0.166,0.807-1.113,0.807-1.113
									s-1.422-0.451-1.777-0.451C73.689,119.229,72.695,118.375,73.146,117.428z"/>
								<path fill="#FDD8A5" d="M146.854,117.428c0,0-2.843,0.924-3.554,1.02c-0.711,0.094-2.275,0.309-3.128,1.256
									s-0.568,0.9-0.877,1.137c-0.308,0.236-1.325,1.066-1.325,1.066l3.032,2.867c0,0,1.065-0.664,1.409-0.758
									c0.344-0.096,5.438-1.115,5.841-1.375c0.402-0.26,4.17-4.621,4.218-4.764c0.046-0.141,0.023-0.402-0.143-0.449
									s-0.83-0.07-1.541,0.758c-0.711,0.83-2.369,2.369-2.369,2.369l2.274-2.678c0,0,0.095-0.463,0-0.467
									c-0.094-0.006-0.781-0.053-1.587,0.729c-0.805,0.783-2.417,2.818-4.123,2.654c-1.705-0.166-0.806-1.113-0.806-1.113
									s1.422-0.451,1.777-0.451C146.31,119.229,147.304,118.375,146.854,117.428z"/>
							</g>
							<polygon fill="#FDF6FA" points="135.904,121.727 138.338,120.332 141.773,125.342 139.483,126.699 							"/>
							<g>
								<polygon fill="#FDF6FA" points="84.196,121.727 81.763,120.332 78.329,125.342 80.618,126.699 								"/>
								<path fill="#4C505D" d="M136.549,120.332l-4.865,2.791l-6.656-15.672l-10.65-4.604L110,120.332l-4.378-17.484l-10.996,4.789
									l-6.208,15.486l-4.866-2.791l-4.008,6.297c0,0,9.089,5.08,9.519,5.08s0.43,0.215,1.718-1.002
									c1.288-1.215,7.013-8.516,7.013-8.516v18.535H110h12.309v-18.535c0,0,5.725,7.301,7.013,8.516
									c1.288,1.217,1.288,1.002,1.718,1.002s9.517-5.08,9.517-5.08L136.549,120.332z"/>
							</g>
						</g>
						<polygon fill="#E7E7E8" points="105.622,102.58 109.876,105.381 110,120.332 105.622,102.848 						"/>
						<polygon fill="#F3F3F3" points="114.377,102.689 109.769,105.311 110,120.332 114.377,102.848 						"/>
						<polygon opacity="0.5" fill="#C9C9C9" points="109.769,105.311 106.647,106.943 110,120.332 113.417,106.682 						"/>
						<polygon fill="#E74134" points="110,120.332 109.769,108.291 109.769,105.311 108.204,106.129 109.179,107.475 
							108.432,114.438 						"/>
						<polygon fill="#EC685F" points="110,120.332 109.769,108.291 109.769,105.311 111.334,106.129 110.359,107.475 
							111.495,114.656 						"/>
						<polygon fill="#E74134" points="110,120.156 110,120.332 108.432,114.438 109.769,105.311 						"/>
						<polygon fill="#626672" points="105.622,102.58 101.308,104.576 103.925,107.328 102.7,109.689 110,120.332 						"/>
						<polygon fill="#4C505D" points="114.377,102.689 118.681,104.525 116.014,107.328 117.238,109.689 109.939,120.332 						"/>
						<g>
							<rect x="99.994" y="131.217" fill="#626672" width="5.426" height="1.313"/>
							<rect x="114.58" y="131.217" fill="#626672" width="5.426" height="1.313"/>
						</g>
					</g>
				</g>
				<polygon fill="#42454F" points="97.902,138.846 122.309,138.846 122.309,142.361 109.769,145.059 97.902,142.605 				"/>
				<g>
					<g>
						<path fill="#4C505D" d="M102.843,156.773c10.897-3.014,21.812-7.264,32.491-12.807c0.95-0.494,1.415-1.646,1.03-2.547
							c-0.758-1.773-1.535-3.533-2.332-5.277c-0.406-0.885-1.483-1.201-2.39-0.725c-10.221,5.395-20.665,9.521-31.084,12.453
							c-0.925,0.26-1.476,1.219-1.235,2.148c0.478,1.83,0.934,3.668,1.366,5.52C100.908,156.479,101.873,157.041,102.843,156.773z"
							/>
						<g>
							<path fill="#563D28" d="M102.441,152.578c-1.163-3.732-3.076-3.504-3.076-3.504l-2.22,0.693l1.27,4.068l1.269,4.066
								l2.219-0.693C101.902,157.209,103.606,156.311,102.441,152.578z"/>
							<path fill="#735438" d="M96.685,159.555l-2.945-9.441l1.379-0.43c2.607-0.813,5.38,0.641,6.193,3.248l0,0
								c0.813,2.607-0.642,5.379-3.249,6.193L96.685,159.555z"/>
							
								<rect x="89.588" y="154.573" transform="matrix(0.2978 0.9546 -0.9546 0.2978 214.5239 18.2506)" fill="#563D28" width="10.537" height="0.743"/>
						</g>
					</g>
					<g>
						<path fill="#383B44" d="M84.401,143.248c9.839,5.572,20.56,10.287,32.032,13.918c1.02,0.324,2.165-0.164,2.528-1.074
							c0.718-1.789,1.413-3.582,2.082-5.379c0.34-0.912-0.197-1.898-1.177-2.201c-11.041-3.414-21.345-7.881-30.785-13.176
							c-0.837-0.469-1.905-0.182-2.393,0.646c-0.955,1.631-1.935,3.254-2.937,4.869C83.242,141.672,83.527,142.752,84.401,143.248z"
							/>
						<g>
							<path fill="#563D28" d="M117.558,152.578c1.164-3.732,3.076-3.504,3.076-3.504l2.22,0.693l-1.27,4.068l-1.268,4.066
								l-2.22-0.693C118.097,157.209,116.393,156.311,117.558,152.578z"/>
							<path fill="#735438" d="M123.315,159.555l2.944-9.441l-1.379-0.43c-2.606-0.813-5.38,0.641-6.192,3.248l0,0
								c-0.814,2.607,0.641,5.379,3.248,6.193L123.315,159.555z"/>
							
								<rect x="119.874" y="154.573" transform="matrix(-0.2978 0.9546 -0.9546 -0.2978 310.3235 81.6201)" fill="#563D28" width="10.537" height="0.743"/>
						</g>
					</g>
				</g>
			</g>
			<rect x="107.671" y="138.846" fill="#B9BCC1" width="4.657" height="1.227"/>
			<g>
				<polygon fill="#4C505D" points="110,138.613 107.024,141.215 98.687,138.846 				"/>
				<polygon fill="#4C505D" points="110,138.613 112.976,141.215 121.313,138.846 				"/>
			</g>
		</g>
		<g>
			<g>
				<path fill="#495359" d="M112.779,56.117h-1.882h-1.795h-1.882c0,0,0.449,7.888-2.313,7.888h4.194h1.795h4.194
					C112.329,64.005,112.779,56.117,112.779,56.117z"/>
				<g>
					<path fill="#56636D" d="M127.658,35.932H92.34c-0.56,0-1.015,0.455-1.015,1.016v20.81v0.209v1.614
						c0,0.488,0.396,0.886,0.886,0.886h35.577c0.49,0,0.887-0.398,0.887-0.886v-1.614v-0.209v-20.81
						C128.675,36.387,128.219,35.932,127.658,35.932z"/>
					<rect x="92.536" y="37.104" fill="#FC7365" width="34.927" height="18.752"/>
				</g>
				<rect x="92.522" y="55.701" fill="#4B575E" width="34.954" height="1.094"/>
				<circle fill="#5E6F77" cx="110" cy="58.584" r="0.918"/>
			</g>
			<g>
				<g>
					<g>
						
							<rect x="168.078" y="104.747" transform="matrix(0.8506 0.5258 -0.5258 0.8506 81.3299 -72.8376)" fill="#626672" width="1.53" height="3.915"/>
						<path fill="#4C505D" d="M175.45,96.016c-2.632-1.627-6.082-0.813-7.71,1.819c-1.627,2.633-0.812,6.084,1.819,7.711
							s6.082,0.813,7.709-1.82C178.895,101.098,178.081,97.643,175.45,96.016z M170.176,104.549
							c-2.08-1.285-2.724-4.015-1.438-6.096c1.286-2.082,4.016-2.725,6.095-1.438c2.081,1.286,2.724,4.017,1.438,6.097
							C174.985,105.191,172.256,105.836,170.176,104.549z"/>
						<path fill="#4C505D" d="M163.742,116.242l-1.151-0.711c-0.281-0.176-0.37-0.547-0.195-0.828l4.71-7.617
							c0.173-0.281,0.546-0.369,0.827-0.195l1.151,0.711c0.281,0.174,0.368,0.547,0.195,0.828l-4.71,7.617
							C164.396,116.328,164.023,116.416,163.742,116.242z"/>
					</g>
					<g>
						<g>
							<g>
								
									<rect x="47.174" y="98.762" transform="matrix(0.8192 -0.5735 0.5735 0.8192 -52.9173 46.8828)" fill="#4C505D" width="1.451" height="17.215"/>
								
									<rect x="48.363" y="97.932" transform="matrix(-0.8196 0.5729 -0.5729 -0.8196 150.3585 165.737)" fill="#626672" width="1.449" height="17.214"/>
								
									<rect x="49.55" y="97.102" transform="matrix(0.8196 -0.5729 0.5729 0.8196 -51.4939 47.8722)" fill="#4C505D" width="1.449" height="17.214"/>
							</g>
							<g>
								
									<rect x="47.174" y="98.762" transform="matrix(0.8192 -0.5735 0.5735 0.8192 -52.9173 46.8828)" fill="#4C505D" width="1.451" height="17.215"/>
								
									<rect x="48.363" y="97.932" transform="matrix(-0.8196 0.5729 -0.5729 -0.8196 150.3585 165.737)" fill="#626672" width="1.449" height="17.214"/>
								
									<rect x="49.55" y="97.102" transform="matrix(0.8196 -0.5729 0.5729 0.8196 -51.4939 47.8722)" fill="#4C505D" width="1.449" height="17.214"/>
							</g>
						</g>
						<polygon fill="#868C9B" points="52.152,114.719 52.237,114.84 55.916,116.307 55.801,112.348 55.716,112.227 						"/>
						<path fill="#FC7365" d="M43.563,97.474L42.47,98.24c-0.683,0.478-0.849,1.416-0.372,2.1l0.521,0.745l3.563-2.493l-0.521-0.745
							C45.185,97.164,44.246,96.998,43.563,97.474z"/>
						<polygon fill="#4C505D" points="55.256,116.043 55.916,116.307 55.896,115.596 						"/>
					</g>
				</g>
				<g>
					<g>
						<circle fill="#FEC634" cx="46.157" cy="129.582" r="9.52"/>
						<circle fill="#E38925" cx="46.157" cy="129.582" r="7.981"/>
						<circle fill="#FFFFFF" cx="46.157" cy="129.582" r="7.468"/>
						<g>
							<circle fill="#375471" cx="46.157" cy="122.955" r="0.47"/>
							<circle fill="#4C505D" cx="46.157" cy="122.955" r="0.299"/>
							<circle fill="#4C505D" cx="41.472" cy="124.896" r="0.299"/>
							<circle fill="#375471" cx="39.53" cy="129.582" r="0.299"/>
							<circle fill="#4C505D" cx="41.472" cy="134.267" r="0.299"/>
							<circle fill="#375471" cx="46.157" cy="136.209" r="0.299"/>
							<circle fill="#4C505D" cx="50.843" cy="134.267" r="0.299"/>
							<circle fill="#375471" cx="52.784" cy="129.582" r="0.299"/>
							<circle fill="#4C505D" cx="50.843" cy="124.896" r="0.299"/>
							<circle fill="#4C505D" cx="39.53" cy="129.582" r="0.471"/>
							<circle fill="#4C505D" cx="46.157" cy="136.209" r="0.47"/>
							<circle fill="#4C505D" cx="52.784" cy="129.582" r="0.471"/>
						</g>
						<path fill="#4C505D" d="M50.005,128.939h-3.378v-4.275c0-0.258-0.211-0.469-0.47-0.469c-0.258,0-0.471,0.211-0.471,0.469
							v4.275v0.48c0,0,0.107,0.633,0.94,0.633h3.378c0.308,0,0.558-0.25,0.558-0.559C50.563,129.189,50.313,128.939,50.005,128.939z
							"/>
					</g>
					<g>
						<circle fill="#4C505D" cx="179.246" cy="125.572" r="1.47"/>
						<path fill="#375471" d="M173.491,135.543l-0.08,0.059c-0.135,0.1-0.325,0.07-0.423-0.064l0,0
							c-0.1-0.135-0.07-0.326,0.063-0.424l0.081-0.059c0.134-0.1,0.324-0.07,0.424,0.064l0,0
							C173.654,135.252,173.625,135.443,173.491,135.543z"/>
						<path fill="#375471" d="M174.183,136.004l-0.081,0.059c-0.134,0.098-0.324,0.07-0.423-0.064h-0.001
							c-0.098-0.135-0.068-0.324,0.065-0.424l0.079-0.059c0.136-0.1,0.326-0.07,0.425,0.064l0,0
							C174.346,135.713,174.316,135.904,174.183,136.004z"/>
						<path fill="#4C505D" d="M176.79,138.523L176.79,138.523c-0.304,0.543-0.997,0.74-1.54,0.436l-4.715-2.633
							c-0.544-0.303-0.74-0.996-0.437-1.541l0,0c0.303-0.541,0.995-0.738,1.539-0.436l4.715,2.633
							C176.896,137.287,177.093,137.979,176.79,138.523z"/>
						<path fill="#FFFFFF" d="M169.449,128.439l2.073,2.816l2.073,2.818c0,0,5.853-4.779,9.27-2.949l-3.923-5.33l-3.923-5.328
							C175.751,124.271,169.449,128.439,169.449,128.439z"/>
						<path fill="#FEC634" d="M183.135,131.492L183.135,131.492c-0.247,0.182-0.597,0.129-0.779-0.117l-7.725-10.498
							c-0.182-0.246-0.129-0.598,0.118-0.779l0,0c0.247-0.18,0.597-0.127,0.778,0.119l7.727,10.498
							C183.436,130.961,183.382,131.313,183.135,131.492z"/>
						<path fill="#626672" d="M169.449,128.439l-3.349,2.652c-0.623,0.459-0.645,1.494-0.05,2.303l1.804,2.451
							c0.595,0.809,1.591,1.096,2.213,0.639l3.528-2.41L169.449,128.439z"/>
						<g>
							<path fill="#383B44" d="M167.387,132.129l-1.471,1.082l0.271,0.369l1.47-1.084c0.102-0.074,0.123-0.219,0.048-0.318
								C167.631,132.076,167.487,132.055,167.387,132.129z"/>
							<path fill="#383B44" d="M167.837,132.742l-1.471,1.082l0.271,0.367l1.47-1.082c0.102-0.076,0.124-0.219,0.049-0.32
								C168.081,132.689,167.938,132.668,167.837,132.742z"/>
							<path fill="#383B44" d="M168.288,133.355l-1.47,1.08l0.27,0.369l1.471-1.084c0.101-0.074,0.123-0.217,0.048-0.318
								C168.533,133.301,168.39,133.279,168.288,133.355z"/>
							<path fill="#383B44" d="M168.739,133.967l-1.471,1.082l0.271,0.367l1.471-1.082c0.101-0.074,0.122-0.217,0.048-0.318
								S168.84,133.893,168.739,133.967z"/>
							<path fill="#383B44" d="M169.189,134.58l-1.47,1.08l0.27,0.369l1.471-1.082c0.102-0.076,0.123-0.219,0.049-0.32
								C169.435,134.527,169.291,134.504,169.189,134.58z"/>
						</g>
					</g>
				</g>
				<g>
					<g>
						<g>
							<path fill="#F89B29" d="M171.993,73.484c-0.078-0.063-0.159-0.125-0.24-0.184l-8.402,11.171l1.835,1.381l1.131-1.391
								c1.315-1.138,5.135-1.598,6.478-3.249C174.708,78.859,174.35,75.4,171.993,73.484z"/>
							<path fill="#FDC93B" d="M171.509,73.12c0.083,0.058,0.164,0.119,0.244,0.18l-8.402,11.171l-1.835-1.379l1.022-1.472
								c0.728-1.58,0.11-5.378,1.324-7.125C165.593,72.002,169.016,71.387,171.509,73.12z"/>
						</g>
						<path fill="#F0EFEF" d="M165.005,86.32l-3.89-2.925c-0.085-0.064-0.101-0.185-0.038-0.269l0.076-0.102
							c0.063-0.084,0.186-0.101,0.27-0.038l3.89,2.925c0.084,0.064,0.102,0.186,0.038,0.27l-0.076,0.101
							C165.21,86.367,165.089,86.384,165.005,86.32z"/>
						<path fill="#BCBCBC" d="M161.197,83.456c-0.063,0.057-0.12,0.119-0.173,0.189l-1.194,1.589
							c-0.451,0.599-0.329,1.457,0.27,1.907l1.588,1.195c0.599,0.45,1.457,0.329,1.907-0.27l1.194-1.588
							c0.053-0.07,0.097-0.144,0.134-0.22L161.197,83.456z"/>
						<path fill="#AEAEAE" d="M160.136,87.168c0.028,0.23,0.249,0.543,0.588,0.797c0.338,0.255,0.698,0.381,0.927,0.344
							L160.136,87.168z"/>
						<path fill="#AEAEAE" d="M164.296,87.295l-4.543-1.861c-0.118-0.048-0.175-0.183-0.127-0.299l0.058-0.14
							c0.048-0.117,0.183-0.173,0.3-0.125l4.543,1.861c0.116,0.048,0.173,0.183,0.125,0.3l-0.057,0.14
							C164.546,87.286,164.412,87.343,164.296,87.295z"/>
						<path fill="#AEAEAE" d="M163.613,88.204l-4.275-1.752c-0.117-0.048-0.174-0.183-0.126-0.299l0.059-0.14
							c0.048-0.116,0.183-0.173,0.299-0.125l4.274,1.752c0.117,0.046,0.173,0.182,0.125,0.298l-0.056,0.14
							C163.863,88.195,163.729,88.251,163.613,88.204z"/>
						<path fill="#AEAEAE" d="M163.309,85.044l-2.573-1.054c-0.155-0.064-0.335,0.011-0.397,0.167
							c-0.063,0.154,0.011,0.334,0.167,0.397l4.403,1.805c0.056,0.022,0.115,0.027,0.171,0.016L163.309,85.044z"/>
					</g>
					<g>
						
							<rect x="45.996" y="78.775" transform="matrix(1 -0.0031 0.0031 1 -0.2598 0.1722)" fill="#626672" width="18.539" height="9.805"/>
						<polygon fill="#4C505D" points="45.98,78.804 55.265,83.677 46.011,88.609 						"/>
						<polygon fill="#4C505D" points="64.519,78.746 55.265,83.677 64.55,88.551 						"/>
						<polygon fill="#4C505D" points="45.98,78.804 55.229,72.597 64.519,78.746 						"/>
						<polygon fill="#FFFFFF" points="45.98,78.804 45.976,77.313 64.514,77.256 64.519,78.746 55.265,83.677 						"/>
						<path fill="#E0E1E0" d="M60.45,79.188l-10.4,0.032c-0.182,0.001-0.333-0.148-0.333-0.332l0,0
							c-0.001-0.183,0.148-0.333,0.331-0.333l10.401-0.033c0.183,0,0.333,0.149,0.333,0.332l0,0
							C60.782,79.037,60.634,79.188,60.45,79.188z"/>
						<path fill="#E0E1E0" d="M60.456,80.561l-10.401,0.033c-0.183,0-0.333-0.148-0.333-0.331l0,0
							c-0.001-0.183,0.147-0.333,0.33-0.334l10.401-0.032c0.183-0.001,0.333,0.148,0.334,0.331l0,0
							C60.787,80.411,60.639,80.561,60.456,80.561z"/>
					</g>
				</g>
				<g>
					<g>
						<g>
							<polygon fill="#FFFFFF" points="156.496,73.705 138.931,70.161 143.106,49.469 158.447,52.565 158.819,54.269 
								160.256,55.075 							"/>
							<polygon fill="#D8D8D8" points="158.447,52.565 158.514,54.405 160.256,55.075 							"/>
						</g>
						<g>
							<path fill="#E5E5E5" d="M149.306,54.397l-5.467-1.104c-0.103-0.021-0.17-0.122-0.149-0.224l0.048-0.239
								c0.021-0.102,0.122-0.168,0.225-0.148l5.467,1.104c0.102,0.021,0.169,0.122,0.148,0.225l-0.048,0.238
								C149.509,54.351,149.408,54.418,149.306,54.397z"/>
							<path fill="#E5E5E5" d="M157.487,58.948l-13.748-2.774c-0.103-0.021-0.168-0.122-0.147-0.224l0.048-0.239
								c0.021-0.102,0.12-0.169,0.224-0.148l13.748,2.775c0.103,0.02,0.17,0.12,0.148,0.224l-0.048,0.238
								C157.691,58.901,157.591,58.969,157.487,58.948z"/>
							<path fill="#E5E5E5" d="M157.026,61.237l-13.749-2.774c-0.102-0.021-0.169-0.122-0.148-0.224L143.177,58
								c0.021-0.102,0.121-0.168,0.224-0.147l13.748,2.774c0.104,0.021,0.17,0.12,0.148,0.223l-0.048,0.24
								C157.229,61.192,157.128,61.258,157.026,61.237z"/>
							<path fill="#E5E5E5" d="M156.564,63.529l-13.749-2.776c-0.103-0.021-0.169-0.12-0.148-0.223l0.048-0.238
								c0.021-0.102,0.122-0.169,0.224-0.148l13.749,2.775c0.102,0.021,0.168,0.122,0.148,0.223l-0.048,0.239
								C156.767,63.482,156.666,63.548,156.564,63.529z"/>
							<path fill="#E5E5E5" d="M156.102,65.818l-13.748-2.774c-0.103-0.021-0.17-0.122-0.149-0.224l0.05-0.239
								c0.02-0.102,0.12-0.168,0.224-0.148l13.748,2.775c0.102,0.02,0.168,0.12,0.147,0.222l-0.048,0.239
								C156.305,65.772,156.203,65.839,156.102,65.818z"/>
							<path fill="#E5E5E5" d="M155.64,68.107l-13.749-2.774c-0.103-0.021-0.169-0.122-0.147-0.223l0.048-0.239
								c0.021-0.102,0.121-0.168,0.224-0.147l13.748,2.774c0.104,0.021,0.17,0.121,0.148,0.223l-0.049,0.238
								C155.843,68.062,155.742,68.128,155.64,68.107z"/>
							<path fill="#E5E5E5" d="M155.178,70.398l-13.749-2.775c-0.102-0.02-0.168-0.12-0.148-0.222l0.049-0.239
								c0.021-0.103,0.12-0.169,0.223-0.149l13.75,2.774c0.102,0.021,0.169,0.122,0.148,0.224l-0.05,0.239
								C155.381,70.352,155.28,70.419,155.178,70.398z"/>
						</g>
					</g>
					<g>
						
							<rect x="68.197" y="60.673" transform="matrix(-0.6569 0.754 -0.754 -0.6569 164.4607 57.4331)" fill="#4B575E" width="1.931" height="10.926"/>
						
							<rect x="62.944" y="51.694" transform="matrix(-0.9977 0.068 -0.068 -0.9977 131.5568 109.8344)" fill="#4B575E" width="1.932" height="10.924"/>
						
							<rect x="67.296" y="68.989" transform="matrix(-0.9161 0.401 -0.401 -0.9161 167.6989 103.967)" fill="#546168" width="11.347" height="1.086"/>
						<path fill="#4B575E" d="M68.302,73.61l10.831-4.739c0.354-0.156,0.518-0.575,0.363-0.929l-0.09-0.202
							c-0.154-0.354-0.571-0.518-0.928-0.363l-10.829,4.741c-0.355,0.156-0.519,0.573-0.362,0.928l0.087,0.201
							C67.53,73.603,67.947,73.767,68.302,73.61z"/>
						<circle fill="#4B575E" cx="64.157" cy="61.794" r="1.871"/>
						<circle fill="#FC7365" cx="64.158" cy="61.793" r="1.119"/>
						<g>
							<circle fill="#F2DD64" cx="70.545" cy="50.612" r="2.469"/>
							<path fill="#4B575E" d="M61.665,50.181l2.586-0.515l6.331-4.293l2.006,10.063l-7.493-1.538l-2.587,0.516
								c0,0-2.303,0.41-2.715-1.66C59.38,50.686,61.665,50.181,61.665,50.181z"/>
						</g>
						<g>
							<defs>
								<path id="SVGID_13_" d="M61.665,50.181l2.586-0.515l6.331-4.293l2.006,10.063l-7.493-1.538l-2.587,0.516
									c0,0-2.303,0.41-2.715-1.66C59.38,50.686,61.665,50.181,61.665,50.181z"/>
							</defs>
							<clipPath id="SVGID_1_">
								<use xlink:href="#SVGID_13_"  overflow="visible"/>
							</clipPath>
							<polygon clip-path="url(#SVGID_1_)" fill="#606E75" points="73.716,49.943 56.813,52.782 59.265,46.514 73.601,43.134 
															"/>
						</g>
					</g>
				</g>
				<g>
					<g>
						<path fill="#4C505D" d="M89.41,87.091l-0.987,0.608c-0.272-0.263-0.578-0.482-0.904-0.654l0.269-1.128
							c0.024-0.103-0.039-0.208-0.143-0.232l-1.544-0.367c-0.104-0.023-0.206,0.041-0.23,0.144l-0.27,1.128
							c-0.368,0.007-0.739,0.063-1.101,0.175l-0.608-0.986c-0.055-0.091-0.174-0.119-0.265-0.063l-1.35,0.832
							c-0.091,0.055-0.12,0.174-0.063,0.265l0.607,0.988c-0.263,0.271-0.479,0.577-0.651,0.903l-1.128-0.269
							c-0.104-0.024-0.208,0.04-0.232,0.144l-0.367,1.543c-0.024,0.103,0.039,0.208,0.143,0.232l1.128,0.268
							c0.008,0.37,0.064,0.74,0.177,1.101l-0.986,0.607c-0.091,0.057-0.119,0.174-0.064,0.265l0.832,1.351
							c0.057,0.091,0.175,0.119,0.266,0.063l0.987-0.607c0.272,0.263,0.576,0.481,0.903,0.652l-0.268,1.129
							c-0.024,0.104,0.039,0.208,0.143,0.232l1.543,0.367c0.104,0.024,0.207-0.041,0.231-0.144l0.27-1.128
							c0.368-0.006,0.738-0.064,1.1-0.176l0.607,0.986c0.057,0.091,0.175,0.119,0.266,0.064l1.35-0.833
							c0.091-0.055,0.119-0.174,0.064-0.265l-0.609-0.987c0.264-0.271,0.481-0.577,0.653-0.903l1.128,0.269
							c0.104,0.024,0.208-0.039,0.232-0.144l0.366-1.543c0.025-0.103-0.039-0.208-0.144-0.232l-1.128-0.268
							c-0.006-0.37-0.063-0.739-0.176-1.101l0.987-0.608c0.091-0.055,0.119-0.174,0.063-0.265l-0.832-1.351
							C89.618,87.063,89.499,87.035,89.41,87.091z M86.936,92.598c-1.132,0.697-2.614,0.345-3.312-0.787
							c-0.695-1.13-0.344-2.612,0.787-3.31c1.132-0.697,2.613-0.345,3.31,0.787C88.418,90.419,88.065,91.902,86.936,92.598z"/>
						<path fill="#4C505D" d="M89.172,79.319l-0.564,0.347c-0.155-0.149-0.329-0.275-0.516-0.373l0.153-0.645
							c0.014-0.059-0.023-0.119-0.082-0.134l-0.882-0.208c-0.059-0.015-0.119,0.022-0.134,0.081l-0.153,0.646
							c-0.21,0.004-0.423,0.037-0.629,0.101l-0.347-0.564c-0.032-0.052-0.1-0.067-0.151-0.036l-0.772,0.475
							c-0.051,0.032-0.067,0.099-0.036,0.152l0.349,0.563c-0.151,0.156-0.275,0.33-0.374,0.517l-0.646-0.153
							c-0.059-0.014-0.117,0.023-0.133,0.082l-0.208,0.881c-0.015,0.059,0.021,0.119,0.081,0.133l0.645,0.153
							c0.004,0.211,0.036,0.423,0.101,0.63l-0.563,0.347c-0.052,0.032-0.069,0.1-0.036,0.151l0.476,0.772
							c0.031,0.051,0.1,0.067,0.15,0.036l0.565-0.346c0.154,0.149,0.33,0.273,0.516,0.372l-0.152,0.646
							c-0.015,0.059,0.021,0.118,0.081,0.132l0.883,0.209c0.059,0.015,0.117-0.022,0.132-0.081l0.153-0.646
							c0.212-0.002,0.423-0.036,0.629-0.101l0.348,0.565c0.031,0.051,0.1,0.067,0.152,0.036l0.771-0.475
							c0.052-0.032,0.067-0.1,0.036-0.152l-0.348-0.563c0.149-0.156,0.275-0.33,0.373-0.517l0.645,0.153
							c0.061,0.015,0.119-0.022,0.133-0.081l0.21-0.883c0.015-0.059-0.022-0.119-0.082-0.132L89.3,81.255
							c-0.004-0.211-0.037-0.422-0.101-0.63l0.563-0.346c0.053-0.032,0.068-0.101,0.036-0.152l-0.477-0.772
							C89.292,79.303,89.224,79.288,89.172,79.319z M87.758,82.467c-0.647,0.399-1.494,0.198-1.894-0.449
							c-0.397-0.647-0.196-1.494,0.451-1.892c0.646-0.399,1.492-0.197,1.892,0.449C88.604,81.222,88.403,82.069,87.758,82.467z"/>
						<path fill="#FC7365" d="M82.057,79.966l-0.78,0.48c-0.215-0.208-0.456-0.379-0.714-0.516l0.212-0.891
							c0.02-0.083-0.031-0.165-0.112-0.183l-1.219-0.291c-0.082-0.018-0.164,0.032-0.185,0.113l-0.211,0.892
							c-0.292,0.005-0.584,0.05-0.87,0.139l-0.479-0.779c-0.045-0.071-0.138-0.093-0.21-0.05l-1.067,0.658
							c-0.071,0.044-0.093,0.138-0.049,0.209l0.479,0.779c-0.207,0.215-0.379,0.457-0.515,0.714l-0.892-0.212
							c-0.082-0.018-0.165,0.032-0.185,0.113l-0.288,1.219c-0.02,0.083,0.03,0.165,0.113,0.184l0.891,0.211
							c0.005,0.292,0.051,0.584,0.139,0.87l-0.779,0.48c-0.071,0.044-0.095,0.138-0.049,0.209l0.656,1.066
							c0.044,0.073,0.138,0.095,0.209,0.05l0.78-0.48c0.215,0.208,0.456,0.379,0.714,0.516l-0.213,0.891
							c-0.019,0.081,0.032,0.164,0.113,0.183l1.219,0.29c0.082,0.02,0.165-0.031,0.185-0.113l0.211-0.891
							c0.292-0.005,0.584-0.05,0.87-0.139l0.48,0.779c0.044,0.071,0.137,0.093,0.208,0.049l1.068-0.657
							c0.071-0.044,0.093-0.138,0.049-0.209l-0.479-0.779c0.207-0.216,0.379-0.457,0.516-0.714l0.891,0.211
							c0.082,0.02,0.163-0.031,0.184-0.113l0.289-1.219c0.02-0.081-0.03-0.163-0.112-0.183l-0.892-0.211
							c-0.005-0.292-0.051-0.584-0.139-0.87l0.779-0.48c0.071-0.044,0.094-0.138,0.049-0.208l-0.656-1.068
							C82.222,79.944,82.128,79.922,82.057,79.966z M80.102,84.317c-0.894,0.55-2.065,0.272-2.615-0.622
							c-0.551-0.894-0.272-2.064,0.621-2.614c0.894-0.551,2.065-0.273,2.615,0.621C81.272,82.596,80.995,83.767,80.102,84.317z"/>
					</g>
					<path fill="#4C505D" d="M144.27,83.174l-10.053-4.745c-0.661-0.312-1.458-0.026-1.771,0.636l-3.051,6.465
						c-0.313,0.662-0.027,1.458,0.634,1.771l6.285,2.966l-1.839,3.896l3.991-2.881l1.615,0.764c0.662,0.312,1.458,0.025,1.771-0.636
						l3.052-6.467C145.217,84.282,144.931,83.486,144.27,83.174z"/>
				</g>
			</g>
		</g>
	</g>
	<text transform="matrix(1 0 0 1 101.5996 48.9033)" fill="#FFFFFF" font-family="'Bebas'" font-size="9.2851">&lt;/&gt;</text>
</g>
</svg>
