<?xml version="1.0" encoding="utf-8"?>
<!-- Generator: Adobe Illustrator 16.0.0, SVG Export Plug-In . SVG Version: 6.00 Build 0)  -->
<!DOCTYPE svg PUBLIC "-//W3C//DTD SVG 1.1//EN" "http://www.w3.org/Graphics/SVG/1.1/DTD/svg11.dtd">
<svg version="1.1" id="Layer_1" xmlns="http://www.w3.org/2000/svg" xmlns:xlink="http://www.w3.org/1999/xlink" x="0px" y="0px"
	 width="220px" height="200px" viewBox="0 0 220 200" enable-background="new 0 0 220 200" xml:space="preserve">
<rect x="-0.013" y="0.001" fill="#8A53C4" width="220" height="199.999"/>
<g>
	<g>
		<g>
			<g>
				<path fill-rule="evenodd" clip-rule="evenodd" fill="#242E40" d="M131.102,122.696l1.171,5.125h11.865
					c-1.46-6.938-2.83-15.11-5.309-17.302c-1.606-1.425-5.525-4.511-19.084-10.455l-12.413-0.08
					c-13.558,5.942-17.624,9.11-19.232,10.535c-2.478,2.191-3.847,10.364-5.309,17.302h11.592l0.846-5.125l0.129,5.125h35.939
					L131.102,122.696z"/>
			</g>
		</g>
		<path fill-rule="evenodd" clip-rule="evenodd" fill="#F6C5A0" d="M106.882,88.135v10.062v4.967c3.621,4.281,9.544,4.435,13.166,0
			v-4.967V88.135C120.048,80.021,106.882,80.021,106.882,88.135z"/>
		
			<ellipse transform="matrix(-0.3127 -0.9498 0.9498 -0.3127 54.3067 203.931)" fill-rule="evenodd" clip-rule="evenodd" fill="#F6C5A0" cx="100.933" cy="82.318" rx="3.822" ry="2.21"/>
		
			<ellipse transform="matrix(0.3129 -0.9498 0.9498 0.3129 8.3435 176.1702)" fill-rule="evenodd" clip-rule="evenodd" fill="#F6C5A0" cx="125.939" cy="82.318" rx="3.823" ry="2.211"/>
		<path fill-rule="evenodd" clip-rule="evenodd" fill="#FFFFFF" d="M113.5,106.433c0,0-9.188,2.188-9.188,2.742
			s3.496,18.599,3.496,18.599h12.472l1.431-18.52L113.5,106.433z"/>
		<polygon fill-rule="evenodd" clip-rule="evenodd" fill="#546B96" points="106.882,100.182 106.882,103.164 109.742,127.821 
			104.824,127.821 99.415,116.839 104.58,113.396 98.269,110.446 104.071,101.441 		"/>
		<polygon fill-rule="evenodd" clip-rule="evenodd" fill="#546B96" points="120.048,100.197 120.048,103.164 117.159,127.821 
			122.078,127.821 127.486,116.839 122.323,113.396 128.634,110.446 123.476,101.719 		"/>
		<path fill-rule="evenodd" clip-rule="evenodd" fill="#242E40" d="M110.634,109.48l1.595,2.472c0.823,0,1.648,0,2.473,0
			l1.595-2.472l-2.796-3.048L110.634,109.48z"/>
		<polygon fill-rule="evenodd" clip-rule="evenodd" fill="#242E40" points="112.229,111.952 109.959,127.821 116.972,127.821 
			114.701,111.952 		"/>
		<path fill-rule="evenodd" clip-rule="evenodd" fill="#FFFFFF" d="M106.882,98.197l-0.575,2.238l1.611,11.658l5.582-5.661
			L106.882,98.197z"/>
		<path opacity="0.2" d="M106.882,95.413v0.475c0,0,3.364,3.992,6.571,4.136s6.595-3.864,6.595-3.864v-0.73"/>
		<g>
			<path fill-rule="evenodd" clip-rule="evenodd" fill="#F6C5A0" d="M113.477,61.153c-20.253,0-12.491,27.742-11.169,29.867
				c1.46,2.344,7.897,7.51,11.169,7.51c3.272,0,9.708-5.166,11.167-7.51C125.967,88.895,133.729,61.153,113.477,61.153z"/>
			<path fill="#C99136" d="M122.561,61.802c-6.84-5.382-17.401-2.173-20.59,2.312c-3.991,5.614-2.58,14.136-1.636,20.54
				c0-0.01,0-0.018,0-0.028c0.011,0.064,0.024,0.13,0.042,0.199c0.013,0.052,0.127,0.2,0.148,0.24
				c0.033,0.061,0.281-0.004,0.363-0.044c0.03-0.014,0.043-0.053,0.045-0.086c0.038-0.565,0.004-1.685,0.003-1.698
				c-0.075-0.881-0.267-1.729-0.396-2.591c0.641-4.037,2.536-4.885,3.528-9.754c0.211-0.326,0.436-0.641,0.67-0.948
				c0.271-0.353,0.554-0.693,0.881-0.996c0.173-0.104,0.339-0.218,0.498-0.343c3.682-1.348,7.477,0.27,10.952,1.688
				c1.328,0.542,2.819,1.183,4.285,1.07c0.624-0.049,1.105-0.461,1.152-0.99c1.664,4.981,3.034,7.292,3.843,10.945
				c-0.11,0.634-0.229,1.269-0.285,1.92c-0.002,0.013-0.035,1.133,0.001,1.698c0.002,0.033,0.017,0.072,0.046,0.086
				c0.082,0.04,0.329,0.105,0.364,0.044c0.021-0.04,0.136-0.188,0.149-0.24c0.062-0.244,0.074-0.449,0.086-0.694
				c0.043-0.319,0.099-0.662,0.142-1.006C127.907,79.17,129.847,63.5,122.561,61.802z M112.193,67.091
				c-0.114-0.035-0.228-0.068-0.341-0.101c0.17,0.041,0.338,0.085,0.508,0.132C112.305,67.111,112.249,67.102,112.193,67.091z"/>
		</g>
		<path fill-rule="evenodd" clip-rule="evenodd" fill="#FFFFFF" d="M120.048,98.197l0.454,2.202l-1.514,11.811l-5.488-5.777
			L120.048,98.197z"/>
		<polyline opacity="0.05" points="106.882,98.197 113.5,106.433 120.048,98.197 120.048,98.001 113.5,106.199 106.882,98.001 
			106.882,98.197 		"/>
		<polygon opacity="0.1" fill-rule="evenodd" clip-rule="evenodd" points="112.229,111.952 114.701,111.952 114.713,112.032 
			112.217,112.032 		"/>
		<g>
			<path fill="#242E40" d="M94.314,127.773l31.625-2.841l1.264,9.972c0,0-27.771,2.97-37.231,3.53
				c-9.461,0.563-7.181-10.613-7.181-10.613"/>
			<g>
				<path fill="#F6C5A0" d="M127.373,125.723c0,0,4.827-0.791,5.423,1.227c0.233,0.79,0.43,2.06,0.025,2.776
					c-0.498,0.881-4.751,3.557-4.751,3.557L127.373,125.723z"/>
				<polygon fill="#FFFFFF" points="128.07,133.282 127.373,124.933 125.813,124.933 126.506,133.645 				"/>
			</g>
			<path fill="#242E40" d="M144.129,127.821c0,0,2.75,11.196-6.711,10.635c-9.462-0.563-36.568-4.781-36.568-4.781l0.065-0.836
				l0.729-9.155l30.961,4.09L144.129,127.821z"/>
			<g>
				<path fill="#F6C5A0" d="M100.048,124.918c0,0-5.015-1.111-5.422,1.227c-0.135,0.772-0.43,1.496-0.025,2.213
					c0.497,0.881,4.75,4.119,4.75,4.119L100.048,124.918z"/>
				<polygon fill="#FFFFFF" points="99.351,132.477 100.048,124.127 101.61,124.127 100.915,132.839 				"/>
			</g>
			<path opacity="0.2" d="M100.918,132.838l-0.045,0.551l-1.524-0.349c0,0-4.248-3.799-4.748-4.682
				c-0.208-0.371-0.23-0.18-0.186-0.563c0.022,0.186,0.078,0.377,0.186,0.563c0.5,0.883,4.748,4.119,4.748,4.119L100.918,132.838z"
				/>
			<path opacity="0.2" d="M116.628,136.003c-0.748,0.078-1.518,0.157-2.31,0.236c-7.397-1.058-13.467-2.002-13.467-2.002
				l0.043-0.556C101.525,133.782,108.613,134.879,116.628,136.003z"/>
		</g>
	</g>
	<g>
		
			<circle fill="none" stroke="#FAFFFF" stroke-width="0.5621" stroke-miterlimit="10" stroke-dasharray="6.8033,6.8033" cx="113.453" cy="99.461" r="60.646"/>
	</g>
	<g>
		<g>
			<path fill="#45B5B5" d="M186.611,101.727c-0.044-0.012-0.087-0.012-0.13-0.016c-0.053-3.651-3.032-7.064-7.314-8.037
				c-1.789-0.405-3.555-0.325-5.125,0.14l-1.524-2.289l-0.942,3.453c-0.896,0.613-1.644,1.386-2.188,2.292
				c-0.003-0.002-0.004-0.005-0.008-0.009c0,0-1.233,1.581-3.346,1.398l0.061,3.187c0,0,1.082,0.081,3.104,2.191l0.001-0.004
				c0.515,1.025,1.263,1.957,2.194,2.742l0.185,2.417c0,0,0.992,0.695,2.092,0.607l0.416-1.404c0.519,0.209,1.06,0.385,1.628,0.514
				c0.737,0.169,1.471,0.245,2.188,0.253l-0.245,1.544c0.955,0.554,2.15,0.353,2.15,0.353l1.381-2.403
				c2.157-0.732,3.894-2.215,4.737-4.189c0.021,0.005,0.039,0.017,0.059,0.021c0.673,0.151,1.354-0.342,1.528-1.105
				C187.687,102.618,187.282,101.878,186.611,101.727z M179.506,104.651c-0.267,0.322-0.566,0.558-0.904,0.705
				c-0.335,0.148-0.785,0.216-1.351,0.203l-0.347,1.522l-1.097-0.248l0.338-1.49c-0.497-0.17-0.903-0.396-1.217-0.67
				c-0.429-0.378-0.805-0.836-1.124-1.372l1.36-0.859c0.544,0.901,1.148,1.429,1.813,1.579c0.34,0.078,0.656,0.029,0.952-0.146
				c0.295-0.175,0.479-0.417,0.548-0.728c0.061-0.264,0.035-0.51-0.075-0.744c-0.116-0.235-0.377-0.508-0.784-0.815
				c-0.834-0.628-1.384-1.104-1.654-1.422s-0.452-0.648-0.546-0.993c-0.093-0.343-0.098-0.687-0.02-1.033
				c0.129-0.573,0.455-1.018,0.976-1.328c0.521-0.313,1.111-0.409,1.772-0.29l0.129-0.572l1.097,0.249l-0.146,0.645
				c0.355,0.173,0.651,0.364,0.878,0.572c0.229,0.208,0.483,0.53,0.762,0.964l-1.371,0.816c-0.395-0.633-0.843-1.009-1.345-1.123
				c-0.298-0.066-0.555-0.043-0.774,0.07c-0.221,0.112-0.352,0.269-0.396,0.47c-0.04,0.171,0.003,0.358,0.129,0.563
				c0.119,0.207,0.401,0.461,0.844,0.767c0.785,0.547,1.308,0.979,1.572,1.299c0.261,0.318,0.439,0.671,0.532,1.057
				c0.093,0.384,0.09,0.792-0.007,1.223C179.952,103.95,179.771,104.326,179.506,104.651z"/>
		</g>
		<g>
			<g>
				<g id="bulb_1_">
					<path fill="#EBC40B" d="M121.417,155.646c0.023-3.208-2.557-5.828-5.764-5.852h-0.002c-0.002,0-0.002,0-0.002,0
						c-3.207-0.024-5.826,2.556-5.85,5.764c-0.013,1.624,0.719,3.022,1.714,4.162c0,0,1.844,2.216,1.633,4.577l2.384,0.019
						l0.027-0.001l2.385,0.019c-0.177-2.364,1.699-4.552,1.699-4.552C120.653,158.658,121.404,157.271,121.417,155.646z"/>
					<path fill="#B3B3B3" d="M118.654,165.257c0.002-0.231-0.185-0.424-0.419-0.425c0.234,0.001,0.422-0.186,0.426-0.419
						c0.001-0.232-0.187-0.422-0.419-0.424l-5.394-0.041c-0.233-0.002-0.423,0.185-0.426,0.418
						c-0.001,0.233,0.186,0.423,0.418,0.425c-0.232-0.002-0.422,0.186-0.424,0.418c-0.001,0.232,0.187,0.423,0.419,0.425
						c-0.232-0.002-0.423,0.186-0.425,0.417c-0.001,0.188,0.12,0.346,0.289,0.402c-0.094,0.076-0.153,0.192-0.153,0.325
						c-0.003,0.233,0.176,0.424,0.399,0.425l0.178,0.002c-0.208-0.002-0.378,0.186-0.379,0.419
						c-0.002,0.232,0.165,0.423,0.373,0.424l1.375,0.01c-0.001,0.014-0.006,0.028-0.006,0.042c-0.003,0.564,0.452,1.029,1.02,1.033
						c0.567,0.005,1.029-0.451,1.033-1.019c0-0.014-0.003-0.027-0.004-0.04l1.403,0.01c0.209,0.002,0.378-0.187,0.38-0.418
						c0.002-0.232-0.166-0.423-0.373-0.425l0.148,0.002c0.223,0.001,0.404-0.186,0.405-0.419c0.001-0.133-0.058-0.249-0.148-0.327
						c0.17-0.053,0.295-0.21,0.297-0.397c0.001-0.232-0.187-0.423-0.419-0.425C118.462,165.677,118.652,165.489,118.654,165.257z"/>
				</g>
			</g>
			
				<line fill="none" stroke="#FFFFFF" stroke-width="0.6423" stroke-linecap="round" stroke-linejoin="round" stroke-miterlimit="10" x1="115.607" y1="147.051" x2="115.607" y2="140.392"/>
			
				<line fill="none" stroke="#FFFFFF" stroke-width="0.7489" stroke-linecap="round" stroke-linejoin="round" stroke-miterlimit="10" x1="121.067" y1="149.048" x2="124.063" y2="145.696"/>
			
				<line fill="none" stroke="#FFFFFF" stroke-width="0.7489" stroke-linecap="round" stroke-linejoin="round" stroke-miterlimit="10" x1="110.208" y1="149.048" x2="107.213" y2="145.696"/>
		</g>
		<g>
			<g>
				<g>
					<path fill="#EBC40B" d="M110.384,41.288c-0.425,0-0.851-0.055-1.267-0.164c-2.661-0.697-4.26-3.429-3.563-6.089
						c0.574-2.194,2.558-3.727,4.823-3.727c0.426,0,0.852,0.055,1.268,0.164c1.289,0.337,2.369,1.157,3.042,2.307
						c0.674,1.15,0.858,2.494,0.521,3.782C114.633,39.756,112.649,41.288,110.384,41.288z"/>
					<path fill="#F49B17" d="M110.378,32.102L110.378,32.102c0.356,0,0.716,0.046,1.065,0.138c1.084,0.284,1.992,0.973,2.559,1.94
						c0.565,0.967,0.721,2.097,0.437,3.181c-0.482,1.845-2.149,3.134-4.055,3.134c-0.356,0-0.716-0.046-1.065-0.138
						c-2.237-0.586-3.582-2.884-2.996-5.121C106.805,33.391,108.473,32.102,110.378,32.102 M110.377,30.514
						c-2.566,0-4.911,1.721-5.591,4.319c-0.809,3.09,1.041,6.249,4.13,7.059c0.491,0.128,0.983,0.19,1.468,0.19
						c2.566,0,4.911-1.721,5.591-4.319c0.81-3.089-1.04-6.25-4.129-7.059C111.354,30.576,110.862,30.514,110.377,30.514
						L110.377,30.514z"/>
				</g>
				<path fill="#F49B17" d="M111.612,36.712c-0.018-0.159-0.061-0.299-0.13-0.421c-0.068-0.123-0.155-0.233-0.261-0.332
					c-0.106-0.098-0.222-0.191-0.347-0.281l-0.311-0.219c-0.088-0.062-0.167-0.134-0.234-0.215c-0.069-0.082-0.089-0.181-0.057-0.3
					c0.017-0.065,0.045-0.114,0.08-0.146c0.038-0.032,0.081-0.054,0.129-0.065c0.05-0.011,0.101-0.013,0.153-0.006
					c0.053,0.007,0.105,0.018,0.159,0.032c0.212,0.056,0.381,0.122,0.506,0.198c0.125,0.076,0.249,0.163,0.372,0.261
					c0.219-0.27,0.379-0.54,0.479-0.806c-0.148-0.1-0.292-0.188-0.427-0.263c-0.136-0.075-0.274-0.14-0.413-0.193l0.14-0.534
					c-0.056-0.038-0.116-0.067-0.182-0.091c-0.066-0.024-0.122-0.042-0.167-0.054s-0.101-0.022-0.167-0.035
					c-0.068-0.01-0.138-0.014-0.208-0.011l-0.145,0.553c-0.36-0.028-0.666,0.039-0.917,0.204c-0.25,0.163-0.424,0.426-0.518,0.786
					c-0.045,0.172-0.06,0.327-0.045,0.464c0.013,0.137,0.049,0.263,0.104,0.376c0.056,0.112,0.13,0.217,0.224,0.311
					c0.093,0.094,0.195,0.184,0.304,0.27l0.289,0.22c0.125,0.094,0.226,0.187,0.305,0.28c0.079,0.092,0.102,0.203,0.068,0.33
					c-0.037,0.144-0.121,0.235-0.248,0.273c-0.13,0.039-0.295,0.031-0.5-0.022c-0.143-0.038-0.288-0.095-0.433-0.175
					c-0.146-0.08-0.305-0.186-0.475-0.318c-0.104,0.157-0.193,0.307-0.272,0.448c-0.078,0.142-0.146,0.284-0.2,0.426
					c0.099,0.074,0.19,0.141,0.276,0.198s0.174,0.108,0.265,0.154c0.091,0.046,0.186,0.087,0.282,0.124
					c0.099,0.037,0.206,0.071,0.325,0.102l-0.169,0.645c0.06,0.038,0.123,0.068,0.186,0.092c0.065,0.023,0.119,0.041,0.164,0.053
					c0.045,0.012,0.102,0.023,0.172,0.035c0.068,0.011,0.137,0.015,0.204,0.011l0.189-0.725c0.36-0.006,0.661-0.105,0.9-0.296
					c0.24-0.19,0.405-0.452,0.492-0.783C111.612,37.053,111.631,36.87,111.612,36.712z"/>
			</g>
			<g>
				<g>
					<path fill="#EBC40B" d="M113.64,48.111c-0.425,0-0.852-0.055-1.267-0.164c-2.661-0.697-4.26-3.429-3.563-6.09
						c0.574-2.194,2.558-3.727,4.823-3.727c0.425,0,0.852,0.056,1.268,0.165c1.289,0.337,2.369,1.156,3.042,2.307
						s0.857,2.494,0.521,3.783C117.888,46.579,115.904,48.111,113.64,48.111z"/>
					<path fill="#F49B17" d="M113.633,38.925L113.633,38.925c0.357,0,0.716,0.046,1.066,0.138c1.084,0.284,1.992,0.973,2.558,1.94
						c0.566,0.967,0.722,2.097,0.438,3.181c-0.483,1.845-2.15,3.134-4.055,3.134c-0.357,0-0.716-0.047-1.065-0.138
						c-2.237-0.586-3.582-2.884-2.996-5.122C110.061,40.213,111.729,38.925,113.633,38.925 M113.633,37.337
						c-2.566,0-4.911,1.721-5.591,4.319c-0.809,3.09,1.04,6.25,4.13,7.059c0.491,0.128,0.983,0.19,1.468,0.19
						c2.565,0,4.91-1.721,5.591-4.319c0.809-3.089-1.04-6.25-4.129-7.059C114.61,37.399,114.118,37.337,113.633,37.337
						L113.633,37.337z"/>
				</g>
				<path fill="#F49B17" d="M114.868,43.535c-0.019-0.158-0.062-0.299-0.13-0.421c-0.068-0.124-0.154-0.233-0.262-0.332
					c-0.105-0.097-0.22-0.191-0.346-0.28l-0.311-0.22c-0.088-0.062-0.168-0.134-0.235-0.215c-0.068-0.082-0.087-0.181-0.056-0.3
					c0.017-0.066,0.044-0.114,0.081-0.146c0.036-0.033,0.079-0.054,0.129-0.065c0.049-0.011,0.1-0.013,0.151-0.006
					c0.054,0.007,0.106,0.018,0.159,0.032c0.213,0.055,0.382,0.121,0.506,0.198c0.125,0.076,0.249,0.164,0.372,0.261
					c0.22-0.27,0.379-0.54,0.48-0.806c-0.149-0.1-0.292-0.188-0.427-0.263c-0.136-0.075-0.273-0.139-0.413-0.193l0.141-0.535
					c-0.056-0.037-0.118-0.067-0.183-0.091c-0.066-0.024-0.123-0.042-0.167-0.054c-0.046-0.012-0.101-0.022-0.168-0.034
					c-0.067-0.011-0.137-0.015-0.208-0.011l-0.145,0.553c-0.359-0.029-0.665,0.039-0.916,0.203
					c-0.251,0.164-0.424,0.426-0.518,0.786c-0.045,0.172-0.061,0.327-0.046,0.464c0.014,0.138,0.049,0.263,0.105,0.375
					c0.056,0.113,0.13,0.217,0.224,0.312c0.093,0.094,0.194,0.185,0.303,0.27l0.291,0.22c0.123,0.094,0.225,0.188,0.304,0.28
					c0.078,0.092,0.102,0.203,0.068,0.33c-0.038,0.144-0.121,0.235-0.249,0.273c-0.129,0.039-0.295,0.031-0.5-0.023
					c-0.143-0.038-0.288-0.095-0.433-0.175c-0.146-0.08-0.304-0.186-0.475-0.318c-0.103,0.157-0.192,0.306-0.271,0.447
					c-0.078,0.142-0.146,0.284-0.2,0.427c0.099,0.073,0.19,0.14,0.276,0.197c0.086,0.058,0.174,0.109,0.266,0.154
					c0.09,0.046,0.184,0.087,0.281,0.124c0.098,0.037,0.206,0.071,0.325,0.102l-0.169,0.644c0.06,0.039,0.123,0.068,0.186,0.092
					c0.064,0.023,0.118,0.041,0.164,0.053c0.044,0.012,0.102,0.023,0.171,0.035s0.138,0.016,0.205,0.011l0.189-0.725
					c0.36-0.006,0.66-0.105,0.9-0.296c0.241-0.19,0.405-0.452,0.491-0.784C114.867,43.876,114.885,43.693,114.868,43.535z"/>
			</g>
			<g>
				<g>
					<path fill="#EBC40B" d="M116.767,42.901c-0.426,0-0.852-0.055-1.268-0.165c-1.289-0.337-2.37-1.156-3.043-2.307
						c-0.673-1.15-0.857-2.494-0.521-3.783c0.574-2.194,2.559-3.727,4.824-3.727c0.425,0,0.851,0.055,1.267,0.164
						c1.288,0.337,2.369,1.157,3.042,2.307c0.673,1.151,0.857,2.494,0.52,3.783C121.014,41.369,119.031,42.901,116.767,42.901z"/>
					<path fill="#F49B17" d="M116.76,33.714L116.76,33.714c0.357,0,0.716,0.047,1.065,0.138c1.083,0.284,1.992,0.973,2.558,1.94
						s0.721,2.097,0.437,3.181c-0.482,1.845-2.149,3.133-4.053,3.133c-0.357,0-0.716-0.046-1.066-0.138
						c-2.238-0.586-3.582-2.883-2.996-5.121C113.187,35.003,114.854,33.715,116.76,33.714 M116.76,32.127
						c-2.567,0-4.912,1.721-5.592,4.319c-0.809,3.09,1.04,6.25,4.13,7.059c0.491,0.128,0.983,0.19,1.469,0.19
						c2.564,0,4.909-1.72,5.589-4.319c0.81-3.089-1.04-6.25-4.128-7.059C117.736,32.188,117.244,32.127,116.76,32.127L116.76,32.127
						z"/>
				</g>
				<path fill="#F49B17" d="M117.994,38.325c-0.018-0.158-0.061-0.298-0.13-0.421c-0.068-0.124-0.156-0.233-0.261-0.331
					c-0.106-0.098-0.222-0.191-0.348-0.281l-0.309-0.219c-0.089-0.062-0.168-0.134-0.235-0.216c-0.069-0.081-0.089-0.181-0.057-0.3
					c0.016-0.066,0.044-0.114,0.081-0.146c0.037-0.032,0.079-0.054,0.128-0.065c0.049-0.012,0.1-0.013,0.153-0.006
					c0.052,0.007,0.105,0.018,0.159,0.032c0.212,0.055,0.381,0.121,0.506,0.198c0.124,0.076,0.247,0.163,0.372,0.261
					c0.218-0.271,0.379-0.54,0.479-0.807c-0.149-0.1-0.291-0.188-0.428-0.262c-0.135-0.075-0.273-0.14-0.412-0.194l0.141-0.534
					c-0.057-0.038-0.117-0.067-0.184-0.091s-0.12-0.042-0.167-0.053c-0.045-0.012-0.101-0.023-0.167-0.035
					c-0.067-0.01-0.137-0.014-0.207-0.011l-0.146,0.553c-0.359-0.029-0.665,0.038-0.916,0.203c-0.251,0.164-0.424,0.426-0.519,0.786
					c-0.044,0.172-0.06,0.327-0.045,0.464c0.014,0.137,0.05,0.262,0.105,0.376c0.056,0.112,0.13,0.217,0.224,0.311
					c0.093,0.095,0.194,0.185,0.304,0.27l0.289,0.22c0.124,0.094,0.226,0.187,0.305,0.279c0.078,0.093,0.101,0.204,0.067,0.33
					c-0.037,0.144-0.12,0.234-0.248,0.273c-0.129,0.039-0.295,0.03-0.5-0.023c-0.143-0.038-0.287-0.096-0.433-0.175
					c-0.146-0.081-0.305-0.186-0.475-0.318c-0.103,0.157-0.192,0.306-0.271,0.448c-0.078,0.142-0.146,0.283-0.201,0.426
					c0.1,0.074,0.191,0.14,0.277,0.197c0.085,0.058,0.174,0.109,0.265,0.154c0.091,0.046,0.185,0.087,0.282,0.124
					c0.098,0.037,0.206,0.071,0.325,0.102l-0.17,0.645c0.061,0.038,0.123,0.068,0.187,0.091c0.065,0.023,0.118,0.041,0.163,0.053
					c0.046,0.012,0.103,0.024,0.173,0.035c0.068,0.011,0.136,0.016,0.204,0.011l0.188-0.725c0.36-0.006,0.66-0.105,0.902-0.296
					c0.239-0.19,0.403-0.452,0.491-0.784C117.994,38.666,118.012,38.483,117.994,38.325z"/>
			</g>
		</g>
		<g>
			
				<rect x="149.698" y="136.799" transform="matrix(-0.9798 -0.1999 0.1999 -0.9798 289.084 306.7544)" fill-rule="evenodd" clip-rule="evenodd" fill="#E8E7E8" width="20.669" height="3.961"/>
			<g>
				<path fill-rule="evenodd" clip-rule="evenodd" fill="#E8E7E8" d="M158.251,131.902l6.577,1.342
					c0.542,0.11,0.891,0.639,0.779,1.182l-0.561,2.748l-0.736-0.15l0.562-2.747c0.027-0.136-0.062-0.268-0.195-0.295l-6.576-1.342
					c-0.134-0.027-0.267,0.06-0.294,0.194l-0.561,2.748l-0.736-0.15l0.561-2.747C157.181,132.141,157.709,131.791,158.251,131.902z"
					/>
				<path fill-rule="evenodd" clip-rule="evenodd" fill="#242E40" d="M153.244,138.584l1.49,0.304
					c0.451,0.092,0.882-0.158,0.972-0.559l8.937,1.823c-0.075,0.404,0.224,0.803,0.677,0.895l1.487,0.305
					c0.453,0.092,0.884-0.157,0.974-0.559l2.357,0.48l-1.822,8.932c-0.221,1.084-1.281,1.784-2.364,1.563l-16.39-3.345
					c-1.083-0.222-1.784-1.279-1.563-2.365l1.822-8.931l2.749,0.561C152.492,138.092,152.792,138.491,153.244,138.584z"/>
				<path fill-rule="evenodd" clip-rule="evenodd" fill="#242E40" d="M152.565,133.702l16.389,3.344
					c1.084,0.222,1.785,1.279,1.564,2.363l-0.2,0.98l-2.354-0.48l0.077-0.379c0.083-0.408-0.222-0.813-0.679-0.905l-1.486-0.304
					c-0.458-0.094-0.896,0.16-0.979,0.567l-0.078,0.38l-8.933-1.823l0.077-0.379c0.083-0.409-0.217-0.813-0.674-0.905l-1.49-0.305
					c-0.456-0.093-0.893,0.16-0.976,0.569l-0.077,0.379l-2.745-0.561l0.2-0.979C150.423,134.18,151.482,133.481,152.565,133.702z"/>
			</g>
		</g>
		<g>
			<g>
				<path fill="#45B5B5" d="M71.313,50.18c1.061,0.751,1.681,2.22,2.025,3.41c0.315,1.088,0.359,1.939,1.171,2.772
					c0.726,0.744,1.786,1.58,1.968,2.632c0.115,0.665-1.387,1.567-1.288,2.591c0.101,1.013,0.517,3.439-0.235,4.375
					c-0.693,0.863-2.791,0.813-3.351,1.6c-0.575,0.809,0.058,1.679-0.018,2.615c0,0-9.643,1.706-9.644,1.706
					c0.167-0.029,0.854-3.088,0.895-4.048c0.041-0.964-0.118-1.767-0.935-2.288c-8.342-4.548-5.455-13.145-3.485-14.7
					C59.523,49.582,65.831,45.648,71.313,50.18z"/>
				<g>
					<path fill="#A7EAEF" d="M60.284,57.113c-0.747,0.148-1.123-1.749-0.375-1.896c0.406-0.081,0.705-0.208,0.38-0.581
						c-0.346-0.391-0.647-0.462-0.47-1.088c0.103-0.361,0.41-0.908,0.85-0.916c0.321-0.006,0.81,0.443,0.799-0.132
						c-0.008-0.456-0.288-0.672,0.081-1.08c0.291-0.319,0.978-0.7,1.4-0.404c0.303,0.212,0.661,1.004,0.855,0.171
						c0.105-0.452,0.309-0.642,0.806-0.661c0.354-0.014,1.213,0.153,1.15,0.675c-0.06,0.498,0.057,0.774,0.554,0.479
						c0.404-0.239,0.611-0.352,1.062-0.05c0.312,0.208,0.736,0.671,0.608,1.09c-0.093,0.307-0.679,0.631-0.12,0.802
						c0.435,0.134,0.728-0.066,1.001,0.412c0.212,0.372,0.309,0.954,0.062,1.334c-0.132,0.204-0.895,0.257-0.784,0.522
						c0.158,0.386,0.638,0.44,0.677,0.884c0.039,0.452-0.203,0.976-0.572,1.239c-0.318,0.225-0.909-0.213-1.078-0.022
						c-0.243,0.276,0.166,0.713,0.076,1.015c-0.146,0.493-0.779,0.842-1.269,0.837c-0.327-0.003-0.815-0.934-1.075-0.566
						c-0.224,0.315-0.062,0.695-0.482,0.874c-0.45,0.191-1.17,0.109-1.493-0.291c-0.163-0.201,0.052-0.95-0.282-0.905
						c-0.4,0.053-0.596,0.467-1.022,0.369c-0.441-0.103-0.865-0.495-1.001-0.928c-0.113-0.365,0.485-0.8,0.353-1.017
						C60.865,57.101,60.453,57.08,60.284,57.113z M64.52,56.472c1.467-0.291,1.017-2.565-0.45-2.275
						C62.602,54.487,63.052,56.763,64.52,56.472z"/>
				</g>
			</g>
		</g>
		<g>
			<path fill="#A7EAEF" d="M56.592,115.968l-3.061-7.865l-0.171-0.441h-0.777h-8.468c0.128,2.455,1.208,4.659,2.876,6.254
				c0.24,0.231,0.493,0.449,0.76,0.655c1.577,1.215,3.555,1.94,5.7,1.94C54.553,116.511,55.61,116.318,56.592,115.968z"/>
			<path fill="#3E9098" d="M53.688,97.379c-0.938,0-1.841,0.139-2.695,0.395c-0.322,0.097-0.638,0.208-0.942,0.338
				c-1.911,0.807-3.49,2.234-4.503,4.023c0,0-0.203,0.331-0.438,0.877h-0.003c-0.007,0.016-0.013,0.034-0.019,0.05
				c-0.092,0.217-0.185,0.462-0.275,0.737c-0.001,0.002-0.002,0.004-0.003,0.006l0,0c-0.088,0.271-0.173,0.561-0.241,0.876
				c-0.112,0.503-0.189,1.018-0.217,1.546h8.856h0.509l0.393-0.441l5.574-6.233C58.059,98.195,55.97,97.376,53.688,97.379z"/>
			<path fill="#F14848" d="M54.865,107.563l3.084,7.921c2.985-1.441,5.087-4.426,5.271-7.921c0.008-0.131,0.01-0.262,0.011-0.394
				h-8.518L54.865,107.563z"/>
			<path fill="#FFFFFF" d="M62.58,99.222l-5.54,5.818l-0.55,0.578l8.485-0.729C64.836,102.723,63.963,100.745,62.58,99.222z"/>
		</g>
		<g>
			<circle fill="#F14848" cx="160.586" cy="60.393" r="9.514"/>
			<circle fill="#FFFFFF" cx="160.586" cy="60.393" r="7.016"/>
			<circle fill="#F14848" cx="160.585" cy="60.393" r="5.173"/>
			<circle fill="#FFFFFF" cx="160.586" cy="60.393" r="3.169"/>
			<circle fill="#F14848" cx="160.586" cy="60.393" r="1.541"/>
			<g>
				<path fill="#242E40" d="M169.236,55.857l1.61-3.895l5.444-2.1l-1.989,4.561l0,0l4.49,1.842l-5.631,2.346l-3.091-1.548
					l-9.045,4.215c0,0-0.484-0.417-0.562-0.609c-0.072-0.179-0.018-0.772-0.018-0.772L169.236,55.857z"/>
				<path fill="#242E40" d="M161.025,61.28c0,0-0.396-0.21-0.562-0.609c-0.075-0.178-0.018-0.772-0.018-0.772"/>
				<path fill="#242E40" d="M161.025,61.28c0,0-0.417-0.202-0.562-0.609c-0.15-0.418-0.018-0.772-0.018-0.772"/>
			</g>
		</g>
		<g>
			<g>
				
					<path fill="#B6B6B6" stroke="#B6B6B6" stroke-width="0.6829" stroke-linecap="round" stroke-linejoin="round" stroke-miterlimit="10" d="
					M79.948,151.24c0.311,0.72,0.312,1.386,0.116,2.039c-0.193,0.648-0.494,1.063-1.048,1.302l-6.235,2.697
					c-0.485,0.211-1.066,0.177-1.674-0.124c-0.6-0.311-1.086-0.767-1.396-1.486l-5.451-12.603c-0.275-0.637-0.275-1.303-0.124-2.029
					c0.194-0.654,0.568-1.1,1.055-1.31l6.234-2.697c0.59-0.158,1.097-0.097,1.668,0.133c0.645,0.383,1.129,0.84,1.404,1.476
					L79.948,151.24z"/>
				<g>
					<defs>
						<filter id="Adobe_OpacityMaskFilter" filterUnits="userSpaceOnUse" x="64.982" y="138.03" width="11.004" height="10.764">
							<feFlood  style="flood-color:white;flood-opacity:1" result="back"/>
							<feBlend  in="SourceGraphic" in2="back" mode="normal"/>
						</filter>
					</defs>
					<mask maskUnits="userSpaceOnUse" x="64.982" y="138.03" width="11.004" height="10.764" id="SVGID_1_">
						<g filter="url(#Adobe_OpacityMaskFilter)">
							<defs>
								
									<filter id="Adobe_OpacityMaskFilter_1_" filterUnits="userSpaceOnUse" x="64.982" y="138.03" width="11.004" height="10.764">
									<feFlood  style="flood-color:white;flood-opacity:1" result="back"/>
									<feBlend  in="SourceGraphic" in2="back" mode="normal"/>
								</filter>
							</defs>
							<mask maskUnits="userSpaceOnUse" x="64.982" y="138.03" width="11.004" height="10.764" id="SVGID_1_">
							</mask>
							<radialGradient id="SVGID_2_" cx="67.7334" cy="140.8799" r="5.4255" gradientUnits="userSpaceOnUse">
								<stop  offset="0" style="stop-color:#FFFFFF"/>
								<stop  offset="0.1276" style="stop-color:#EFEFEF"/>
								<stop  offset="0.3729" style="stop-color:#D5D5D5"/>
								<stop  offset="0.5935" style="stop-color:#C5C5C5"/>
								<stop  offset="0.7669" style="stop-color:#BFBFBF"/>
							</radialGradient>
							<path mask="url(#SVGID_1_)" fill="url(#SVGID_2_)" d="M75.784,143.458c0.539,1.246-0.035,2.707-1.288,3.249l-4.361,1.887
								c-1.243,0.536-2.708-0.041-3.247-1.288l-1.703-3.938c-0.541-1.25,0.043-2.711,1.285-3.249l4.362-1.886
								c1.252-0.542,2.708,0.038,3.249,1.287L75.784,143.458z"/>
						</g>
					</mask>
					<path fill="#3E9098" d="M75.784,143.458c0.539,1.246-0.035,2.707-1.288,3.249l-4.361,1.887
						c-1.243,0.536-2.708-0.041-3.247-1.288l-1.703-3.938c-0.541-1.25,0.043-2.711,1.285-3.249l4.362-1.886
						c1.252-0.542,2.708,0.038,3.249,1.287L75.784,143.458z"/>
					<path fill="#45B5B5" d="M75.784,143.458c0.539,1.246-0.035,2.707-1.288,3.249l-4.361,1.887
						c-1.243,0.536-2.708-0.041-3.247-1.288l-1.703-3.938c-0.541-1.25,0.043-2.711,1.285-3.249l4.362-1.886
						c1.252-0.542,2.708,0.038,3.249,1.287L75.784,143.458z"/>
				</g>
				<g>
					<defs>
						<filter id="Adobe_OpacityMaskFilter_2_" filterUnits="userSpaceOnUse" x="75.173" y="147.575" width="1.335" height="0.961">
							<feFlood  style="flood-color:white;flood-opacity:1" result="back"/>
							<feBlend  in="SourceGraphic" in2="back" mode="normal"/>
						</filter>
					</defs>
					<mask maskUnits="userSpaceOnUse" x="75.173" y="147.575" width="1.335" height="0.961" id="SVGID_3_">
						<g filter="url(#Adobe_OpacityMaskFilter_2_)">
							<defs>
								<filter id="Adobe_OpacityMaskFilter_3_" filterUnits="userSpaceOnUse" x="75.155" y="147.558" width="1.37" height="0.996">
									<feFlood  style="flood-color:white;flood-opacity:1" result="back"/>
									<feBlend  in="SourceGraphic" in2="back" mode="normal"/>
								</filter>
							</defs>
							<mask maskUnits="userSpaceOnUse" x="75.155" y="147.558" width="1.37" height="0.996" id="SVGID_3_">
							</mask>
							<radialGradient id="SVGID_4_" cx="75.5068" cy="147.8291" r="0.5815" gradientUnits="userSpaceOnUse">
								<stop  offset="0" style="stop-color:#FFFFFF"/>
								<stop  offset="0.1276" style="stop-color:#EFEFEF"/>
								<stop  offset="0.3729" style="stop-color:#D5D5D5"/>
								<stop  offset="0.5935" style="stop-color:#C5C5C5"/>
								<stop  offset="0.7669" style="stop-color:#BFBFBF"/>
							</radialGradient>
							<polygon mask="url(#SVGID_3_)" fill="url(#SVGID_4_)" stroke="#FFFFFF" stroke-width="0.0269" points="75.377,148.536 
								76.508,148.047 76.304,147.575 75.173,148.064 							"/>
						</g>
					</mask>
					
						<rect x="75.224" y="147.799" transform="matrix(-0.9178 0.3971 -0.3971 -0.9178 204.2346 253.825)" fill="#3E4651" width="1.232" height="0.514"/>
					<defs>
						<filter id="Adobe_OpacityMaskFilter_4_" filterUnits="userSpaceOnUse" x="72.354" y="148.797" width="1.329" height="0.958">
							<feFlood  style="flood-color:white;flood-opacity:1" result="back"/>
							<feBlend  in="SourceGraphic" in2="back" mode="normal"/>
						</filter>
					</defs>
					<mask maskUnits="userSpaceOnUse" x="72.354" y="148.797" width="1.329" height="0.958" id="SVGID_5_">
						<g filter="url(#Adobe_OpacityMaskFilter_4_)">
							<defs>
								
									<filter id="Adobe_OpacityMaskFilter_5_" filterUnits="userSpaceOnUse" x="72.337" y="148.779" width="1.364" height="0.993">
									<feFlood  style="flood-color:white;flood-opacity:1" result="back"/>
									<feBlend  in="SourceGraphic" in2="back" mode="normal"/>
								</filter>
							</defs>
							<mask maskUnits="userSpaceOnUse" x="72.337" y="148.779" width="1.364" height="0.993" id="SVGID_5_">
							</mask>
							<radialGradient id="SVGID_6_" cx="72.6865" cy="149.0498" r="0.5794" gradientUnits="userSpaceOnUse">
								<stop  offset="0" style="stop-color:#FFFFFF"/>
								<stop  offset="0.1276" style="stop-color:#EFEFEF"/>
								<stop  offset="0.3729" style="stop-color:#D5D5D5"/>
								<stop  offset="0.5935" style="stop-color:#C5C5C5"/>
								<stop  offset="0.7669" style="stop-color:#BFBFBF"/>
							</radialGradient>
							<polygon mask="url(#SVGID_5_)" fill="url(#SVGID_6_)" stroke="#FFFFFF" stroke-width="0.0269" points="72.559,149.755 
								73.684,149.269 73.479,148.797 72.354,149.284 							"/>
						</g>
					</mask>
					
						<rect x="72.406" y="149.019" transform="matrix(-0.9179 0.3968 -0.3968 -0.9179 199.2765 257.3227)" fill="#3E4651" width="1.226" height="0.514"/>
					<defs>
						<filter id="Adobe_OpacityMaskFilter_6_" filterUnits="userSpaceOnUse" x="69.534" y="150.018" width="1.327" height="0.958">
							<feFlood  style="flood-color:white;flood-opacity:1" result="back"/>
							<feBlend  in="SourceGraphic" in2="back" mode="normal"/>
						</filter>
					</defs>
					<mask maskUnits="userSpaceOnUse" x="69.534" y="150.018" width="1.327" height="0.958" id="SVGID_7_">
						<g filter="url(#Adobe_OpacityMaskFilter_6_)">
							<defs>
								<filter id="Adobe_OpacityMaskFilter_7_" filterUnits="userSpaceOnUse" x="69.517" y="150" width="1.363" height="0.993">
									<feFlood  style="flood-color:white;flood-opacity:1" result="back"/>
									<feBlend  in="SourceGraphic" in2="back" mode="normal"/>
								</filter>
							</defs>
							<mask maskUnits="userSpaceOnUse" x="69.517" y="150" width="1.363" height="0.993" id="SVGID_7_">
							</mask>
							<radialGradient id="SVGID_8_" cx="69.8662" cy="150.2705" r="0.5787" gradientUnits="userSpaceOnUse">
								<stop  offset="0" style="stop-color:#FFFFFF"/>
								<stop  offset="0.1276" style="stop-color:#EFEFEF"/>
								<stop  offset="0.3729" style="stop-color:#D5D5D5"/>
								<stop  offset="0.5935" style="stop-color:#C5C5C5"/>
								<stop  offset="0.7669" style="stop-color:#BFBFBF"/>
							</radialGradient>
							<polygon mask="url(#SVGID_7_)" fill="url(#SVGID_8_)" stroke="#FFFFFF" stroke-width="0.0269" points="69.739,150.976 
								70.861,150.488 70.656,150.018 69.534,150.503 							"/>
						</g>
					</mask>
					
						<rect x="69.586" y="150.24" transform="matrix(-0.9172 0.3983 -0.3983 -0.9172 194.5354 260.5742)" fill="#3E4651" width="1.223" height="0.513"/>
					<defs>
						<filter id="Adobe_OpacityMaskFilter_8_" filterUnits="userSpaceOnUse" x="75.841" y="149.118" width="1.335" height="0.962">
							<feFlood  style="flood-color:white;flood-opacity:1" result="back"/>
							<feBlend  in="SourceGraphic" in2="back" mode="normal"/>
						</filter>
					</defs>
					<mask maskUnits="userSpaceOnUse" x="75.841" y="149.118" width="1.335" height="0.962" id="SVGID_9_">
						<g filter="url(#Adobe_OpacityMaskFilter_8_)">
							<defs>
								<filter id="Adobe_OpacityMaskFilter_9_" filterUnits="userSpaceOnUse" x="75.823" y="149.101" width="1.37" height="0.997">
									<feFlood  style="flood-color:white;flood-opacity:1" result="back"/>
									<feBlend  in="SourceGraphic" in2="back" mode="normal"/>
								</filter>
							</defs>
							<mask maskUnits="userSpaceOnUse" x="75.823" y="149.101" width="1.37" height="0.997" id="SVGID_9_">
							</mask>
							<radialGradient id="SVGID_10_" cx="76.1748" cy="149.373" r="0.5815" gradientUnits="userSpaceOnUse">
								<stop  offset="0" style="stop-color:#FFFFFF"/>
								<stop  offset="0.1276" style="stop-color:#EFEFEF"/>
								<stop  offset="0.3729" style="stop-color:#D5D5D5"/>
								<stop  offset="0.5935" style="stop-color:#C5C5C5"/>
								<stop  offset="0.7669" style="stop-color:#BFBFBF"/>
							</radialGradient>
							<polygon mask="url(#SVGID_9_)" fill="url(#SVGID_10_)" stroke="#FFFFFF" stroke-width="0.0269" points="76.046,150.08 
								77.176,149.592 76.972,149.118 75.841,149.608 							"/>
						</g>
					</mask>
					
						<rect x="75.893" y="149.341" transform="matrix(-0.918 0.3967 -0.3967 -0.918 206.0852 256.5732)" fill="#3E4651" width="1.231" height="0.516"/>
					<defs>
						<filter id="Adobe_OpacityMaskFilter_10_" filterUnits="userSpaceOnUse" x="73.046" y="150.396" width="1.329" height="0.959">
							<feFlood  style="flood-color:white;flood-opacity:1" result="back"/>
							<feBlend  in="SourceGraphic" in2="back" mode="normal"/>
						</filter>
					</defs>
					<mask maskUnits="userSpaceOnUse" x="73.046" y="150.396" width="1.329" height="0.959" id="SVGID_11_">
						<g filter="url(#Adobe_OpacityMaskFilter_10_)">
							<defs>
								
									<filter id="Adobe_OpacityMaskFilter_11_" filterUnits="userSpaceOnUse" x="73.028" y="150.378" width="1.364" height="0.994">
									<feFlood  style="flood-color:white;flood-opacity:1" result="back"/>
									<feBlend  in="SourceGraphic" in2="back" mode="normal"/>
								</filter>
							</defs>
							<mask maskUnits="userSpaceOnUse" x="73.028" y="150.378" width="1.364" height="0.994" id="SVGID_11_">
							</mask>
							<radialGradient id="SVGID_12_" cx="73.3779" cy="150.6494" r="0.5794" gradientUnits="userSpaceOnUse">
								<stop  offset="0" style="stop-color:#FFFFFF"/>
								<stop  offset="0.1276" style="stop-color:#EFEFEF"/>
								<stop  offset="0.3729" style="stop-color:#D5D5D5"/>
								<stop  offset="0.5935" style="stop-color:#C5C5C5"/>
								<stop  offset="0.7669" style="stop-color:#BFBFBF"/>
							</radialGradient>
							<polygon mask="url(#SVGID_11_)" fill="url(#SVGID_12_)" stroke="#FFFFFF" stroke-width="0.0269" points="73.251,151.354 
								74.375,150.867 74.171,150.396 73.046,150.882 							"/>
						</g>
					</mask>
					
						<rect x="73.098" y="150.618" transform="matrix(-0.9175 0.3978 -0.3978 -0.9175 201.3525 259.9814)" fill="#3E4651" width="1.225" height="0.514"/>
					<defs>
						<filter id="Adobe_OpacityMaskFilter_12_" filterUnits="userSpaceOnUse" x="70.226" y="151.616" width="1.326" height="0.958">
							<feFlood  style="flood-color:white;flood-opacity:1" result="back"/>
							<feBlend  in="SourceGraphic" in2="back" mode="normal"/>
						</filter>
					</defs>
					<mask maskUnits="userSpaceOnUse" x="70.226" y="151.616" width="1.326" height="0.958" id="SVGID_14_">
						<g filter="url(#Adobe_OpacityMaskFilter_12_)">
							<defs>
								
									<filter id="Adobe_OpacityMaskFilter_13_" filterUnits="userSpaceOnUse" x="70.208" y="151.599" width="1.361" height="0.993">
									<feFlood  style="flood-color:white;flood-opacity:1" result="back"/>
									<feBlend  in="SourceGraphic" in2="back" mode="normal"/>
								</filter>
							</defs>
							<mask maskUnits="userSpaceOnUse" x="70.208" y="151.599" width="1.361" height="0.993" id="SVGID_14_">
							</mask>
							<radialGradient id="SVGID_15_" cx="70.5576" cy="151.8701" r="0.578" gradientUnits="userSpaceOnUse">
								<stop  offset="0" style="stop-color:#FFFFFF"/>
								<stop  offset="0.1276" style="stop-color:#EFEFEF"/>
								<stop  offset="0.3729" style="stop-color:#D5D5D5"/>
								<stop  offset="0.5935" style="stop-color:#C5C5C5"/>
								<stop  offset="0.7669" style="stop-color:#BFBFBF"/>
							</radialGradient>
							<polygon mask="url(#SVGID_14_)" fill="url(#SVGID_15_)" stroke="#FFFFFF" stroke-width="0.0269" points="70.431,152.574 
								71.552,152.088 71.349,151.616 70.226,152.102 							"/>
						</g>
					</mask>
					
						<rect x="70.279" y="151.838" transform="matrix(-0.9174 0.398 -0.398 -0.9174 196.4526 263.4157)" fill="#3E4651" width="1.222" height="0.514"/>
					<defs>
						<filter id="Adobe_OpacityMaskFilter_14_" filterUnits="userSpaceOnUse" x="76.541" y="150.738" width="1.335" height="0.961">
							<feFlood  style="flood-color:white;flood-opacity:1" result="back"/>
							<feBlend  in="SourceGraphic" in2="back" mode="normal"/>
						</filter>
					</defs>
					<mask maskUnits="userSpaceOnUse" x="76.541" y="150.738" width="1.335" height="0.961" id="SVGID_16_">
						<g filter="url(#Adobe_OpacityMaskFilter_14_)">
							<defs>
								
									<filter id="Adobe_OpacityMaskFilter_15_" filterUnits="userSpaceOnUse" x="76.523" y="150.721" width="1.37" height="0.996">
									<feFlood  style="flood-color:white;flood-opacity:1" result="back"/>
									<feBlend  in="SourceGraphic" in2="back" mode="normal"/>
								</filter>
							</defs>
							<mask maskUnits="userSpaceOnUse" x="76.523" y="150.721" width="1.37" height="0.996" id="SVGID_16_">
							</mask>
							<radialGradient id="SVGID_17_" cx="76.874" cy="150.9922" r="0.5819" gradientUnits="userSpaceOnUse">
								<stop  offset="0" style="stop-color:#FFFFFF"/>
								<stop  offset="0.1276" style="stop-color:#EFEFEF"/>
								<stop  offset="0.3729" style="stop-color:#D5D5D5"/>
								<stop  offset="0.5935" style="stop-color:#C5C5C5"/>
								<stop  offset="0.7669" style="stop-color:#BFBFBF"/>
							</radialGradient>
							<polygon mask="url(#SVGID_16_)" fill="url(#SVGID_17_)" stroke="#FFFFFF" stroke-width="0.0269" points="76.745,151.699 
								77.876,151.21 77.672,150.738 76.541,151.228 							"/>
						</g>
					</mask>
					
						<rect x="76.592" y="150.962" transform="matrix(-0.9178 0.3971 -0.3971 -0.9178 208.1144 259.3479)" fill="#3E4651" width="1.232" height="0.514"/>
					<defs>
						<filter id="Adobe_OpacityMaskFilter_16_" filterUnits="userSpaceOnUse" x="73.746" y="152.013" width="1.329" height="0.959">
							<feFlood  style="flood-color:white;flood-opacity:1" result="back"/>
							<feBlend  in="SourceGraphic" in2="back" mode="normal"/>
						</filter>
					</defs>
					<mask maskUnits="userSpaceOnUse" x="73.746" y="152.013" width="1.329" height="0.959" id="SVGID_18_">
						<g filter="url(#Adobe_OpacityMaskFilter_16_)">
							<defs>
								
									<filter id="Adobe_OpacityMaskFilter_17_" filterUnits="userSpaceOnUse" x="73.729" y="151.995" width="1.364" height="0.994">
									<feFlood  style="flood-color:white;flood-opacity:1" result="back"/>
									<feBlend  in="SourceGraphic" in2="back" mode="normal"/>
								</filter>
							</defs>
							<mask maskUnits="userSpaceOnUse" x="73.729" y="151.995" width="1.364" height="0.994" id="SVGID_18_">
							</mask>
							<radialGradient id="SVGID_19_" cx="74.0791" cy="152.2666" r="0.5791" gradientUnits="userSpaceOnUse">
								<stop  offset="0" style="stop-color:#FFFFFF"/>
								<stop  offset="0.1276" style="stop-color:#EFEFEF"/>
								<stop  offset="0.3729" style="stop-color:#D5D5D5"/>
								<stop  offset="0.5935" style="stop-color:#C5C5C5"/>
								<stop  offset="0.7669" style="stop-color:#BFBFBF"/>
							</radialGradient>
							<polygon mask="url(#SVGID_18_)" fill="url(#SVGID_19_)" stroke="#FFFFFF" stroke-width="0.0269" points="73.95,152.972 
								75.075,152.485 74.87,152.013 73.746,152.5 							"/>
						</g>
					</mask>
					
						<rect x="73.797" y="152.235" transform="matrix(-0.9179 0.3968 -0.3968 -0.9179 203.2208 262.9393)" fill="#3E4651" width="1.226" height="0.515"/>
					<defs>
						<filter id="Adobe_OpacityMaskFilter_18_" filterUnits="userSpaceOnUse" x="70.926" y="153.234" width="1.327" height="0.957">
							<feFlood  style="flood-color:white;flood-opacity:1" result="back"/>
							<feBlend  in="SourceGraphic" in2="back" mode="normal"/>
						</filter>
					</defs>
					<mask maskUnits="userSpaceOnUse" x="70.926" y="153.234" width="1.327" height="0.957" id="SVGID_20_">
						<g filter="url(#Adobe_OpacityMaskFilter_18_)">
							<defs>
								
									<filter id="Adobe_OpacityMaskFilter_19_" filterUnits="userSpaceOnUse" x="70.908" y="153.217" width="1.362" height="0.992">
									<feFlood  style="flood-color:white;flood-opacity:1" result="back"/>
									<feBlend  in="SourceGraphic" in2="back" mode="normal"/>
								</filter>
							</defs>
							<mask maskUnits="userSpaceOnUse" x="70.908" y="153.217" width="1.362" height="0.992" id="SVGID_20_">
							</mask>
							<radialGradient id="SVGID_21_" cx="71.2568" cy="153.4873" r="0.5788" gradientUnits="userSpaceOnUse">
								<stop  offset="0" style="stop-color:#FFFFFF"/>
								<stop  offset="0.1276" style="stop-color:#EFEFEF"/>
								<stop  offset="0.3729" style="stop-color:#D5D5D5"/>
								<stop  offset="0.5935" style="stop-color:#C5C5C5"/>
								<stop  offset="0.7669" style="stop-color:#BFBFBF"/>
							</radialGradient>
							<polygon mask="url(#SVGID_20_)" fill="url(#SVGID_21_)" stroke="#FFFFFF" stroke-width="0.0269" points="71.13,154.191 
								72.253,153.706 72.049,153.234 70.926,153.72 							"/>
						</g>
					</mask>
					
						<rect x="70.978" y="153.456" transform="matrix(-0.9179 0.3967 -0.3967 -0.9179 198.284 266.4124)" fill="#3E4651" width="1.223" height="0.514"/>
					<defs>
						<filter id="Adobe_OpacityMaskFilter_20_" filterUnits="userSpaceOnUse" x="77.137" y="152.115" width="1.336" height="0.963">
							<feFlood  style="flood-color:white;flood-opacity:1" result="back"/>
							<feBlend  in="SourceGraphic" in2="back" mode="normal"/>
						</filter>
					</defs>
					<mask maskUnits="userSpaceOnUse" x="77.137" y="152.115" width="1.336" height="0.963" id="SVGID_22_">
						<g filter="url(#Adobe_OpacityMaskFilter_20_)">
							<defs>
								
									<filter id="Adobe_OpacityMaskFilter_21_" filterUnits="userSpaceOnUse" x="77.119" y="152.098" width="1.371" height="0.998">
									<feFlood  style="flood-color:white;flood-opacity:1" result="back"/>
									<feBlend  in="SourceGraphic" in2="back" mode="normal"/>
								</filter>
							</defs>
							<mask maskUnits="userSpaceOnUse" x="77.119" y="152.098" width="1.371" height="0.998" id="SVGID_22_">
							</mask>
							<radialGradient id="SVGID_23_" cx="77.4707" cy="152.3701" r="0.5821" gradientUnits="userSpaceOnUse">
								<stop  offset="0" style="stop-color:#FFFFFF"/>
								<stop  offset="0.1276" style="stop-color:#EFEFEF"/>
								<stop  offset="0.3729" style="stop-color:#D5D5D5"/>
								<stop  offset="0.5935" style="stop-color:#C5C5C5"/>
								<stop  offset="0.7669" style="stop-color:#BFBFBF"/>
							</radialGradient>
							<polygon mask="url(#SVGID_22_)" fill="url(#SVGID_23_)" stroke="#FFFFFF" stroke-width="0.0269" points="77.342,153.078 
								78.473,152.589 78.268,152.115 77.137,152.604 							"/>
						</g>
					</mask>
					
						<rect x="77.189" y="152.339" transform="matrix(-0.9178 0.3971 -0.3971 -0.9178 209.8049 261.7537)" fill="#3E4651" width="1.232" height="0.516"/>
					<defs>
						<filter id="Adobe_OpacityMaskFilter_22_" filterUnits="userSpaceOnUse" x="74.341" y="153.39" width="1.33" height="0.961">
							<feFlood  style="flood-color:white;flood-opacity:1" result="back"/>
							<feBlend  in="SourceGraphic" in2="back" mode="normal"/>
						</filter>
					</defs>
					<mask maskUnits="userSpaceOnUse" x="74.341" y="153.39" width="1.33" height="0.961" id="SVGID_24_">
						<g filter="url(#Adobe_OpacityMaskFilter_22_)">
							<defs>
								
									<filter id="Adobe_OpacityMaskFilter_23_" filterUnits="userSpaceOnUse" x="74.323" y="153.372" width="1.365" height="0.996">
									<feFlood  style="flood-color:white;flood-opacity:1" result="back"/>
									<feBlend  in="SourceGraphic" in2="back" mode="normal"/>
								</filter>
							</defs>
							<mask maskUnits="userSpaceOnUse" x="74.323" y="153.372" width="1.365" height="0.996" id="SVGID_24_">
							</mask>
							<radialGradient id="SVGID_25_" cx="74.6729" cy="153.6436" r="0.5804" gradientUnits="userSpaceOnUse">
								<stop  offset="0" style="stop-color:#FFFFFF"/>
								<stop  offset="0.1276" style="stop-color:#EFEFEF"/>
								<stop  offset="0.3729" style="stop-color:#D5D5D5"/>
								<stop  offset="0.5935" style="stop-color:#C5C5C5"/>
								<stop  offset="0.7669" style="stop-color:#BFBFBF"/>
							</radialGradient>
							<polygon mask="url(#SVGID_24_)" fill="url(#SVGID_25_)" stroke="#FFFFFF" stroke-width="0.0269" points="74.546,154.351 
								75.671,153.863 75.466,153.39 74.341,153.877 							"/>
						</g>
					</mask>
					
						<rect x="74.393" y="153.612" transform="matrix(-0.9176 0.3975 -0.3975 -0.9176 204.9915 265.2506)" fill="#3E4651" width="1.226" height="0.516"/>
					<defs>
						<filter id="Adobe_OpacityMaskFilter_24_" filterUnits="userSpaceOnUse" x="71.521" y="154.61" width="1.327" height="0.96">
							<feFlood  style="flood-color:white;flood-opacity:1" result="back"/>
							<feBlend  in="SourceGraphic" in2="back" mode="normal"/>
						</filter>
					</defs>
					<mask maskUnits="userSpaceOnUse" x="71.521" y="154.61" width="1.327" height="0.96" id="SVGID_26_">
						<g filter="url(#Adobe_OpacityMaskFilter_24_)">
							<defs>
								
									<filter id="Adobe_OpacityMaskFilter_25_" filterUnits="userSpaceOnUse" x="71.504" y="154.593" width="1.362" height="0.995">
									<feFlood  style="flood-color:white;flood-opacity:1" result="back"/>
									<feBlend  in="SourceGraphic" in2="back" mode="normal"/>
								</filter>
							</defs>
							<mask maskUnits="userSpaceOnUse" x="71.504" y="154.593" width="1.362" height="0.995" id="SVGID_26_">
							</mask>
							<radialGradient id="SVGID_27_" cx="71.8525" cy="154.8643" r="0.5793" gradientUnits="userSpaceOnUse">
								<stop  offset="0" style="stop-color:#FFFFFF"/>
								<stop  offset="0.1276" style="stop-color:#EFEFEF"/>
								<stop  offset="0.3729" style="stop-color:#D5D5D5"/>
								<stop  offset="0.5935" style="stop-color:#C5C5C5"/>
								<stop  offset="0.7669" style="stop-color:#BFBFBF"/>
							</radialGradient>
							<polygon mask="url(#SVGID_26_)" fill="url(#SVGID_27_)" stroke="#FFFFFF" stroke-width="0.0269" points="71.727,155.57 
								72.849,155.084 72.644,154.61 71.521,155.096 							"/>
						</g>
					</mask>
					
						<rect x="71.574" y="154.832" transform="matrix(-0.9175 0.3977 -0.3977 -0.9175 200.0922 268.6837)" fill="#3E4651" width="1.223" height="0.516"/>
				</g>
				<g>
					<path fill="#45B5B5" d="M66.731,138.995c-0.014-0.033-0.11-0.258-0.214-0.496c-0.106-0.247-0.377-0.874-0.608-1.407
						c-0.231-0.534-0.772-0.814-1.203-0.63c-0.425,0.186-0.569,0.829-0.311,1.427c0.26,0.601,0.531,1.228,0.597,1.382
						c0.073,0.168,0.146,0.336,0.164,0.379c0.018,0.041,0.39-0.077,0.816-0.262C66.401,139.203,66.744,139.024,66.731,138.995z"/>
				</g>
				<path fill="#306972" d="M74.496,146.707l-4.361,1.887c-0.729,0.314-1.532,0.244-2.182-0.117l4.132-10.43
					c0.853,0.097,1.633,0.632,1.996,1.474l1.703,3.938C76.323,144.704,75.749,146.165,74.496,146.707z"/>
			</g>
		</g>
	</g>
</g>
</svg>
