<?xml version="1.0" encoding="utf-8"?>
<!-- Generator: Adobe Illustrator 16.0.0, SVG Export Plug-In . SVG Version: 6.00 Build 0)  -->
<!DOCTYPE svg PUBLIC "-//W3C//DTD SVG 1.1//EN" "http://www.w3.org/Graphics/SVG/1.1/DTD/svg11.dtd">
<svg version="1.1" id="Layer_1" xmlns="http://www.w3.org/2000/svg" xmlns:xlink="http://www.w3.org/1999/xlink" x="0px" y="0px"
	 width="220px" height="200px" viewBox="0 0 220 200" enable-background="new 0 0 220 200" xml:space="preserve">
<rect x="-0.334" fill="#8CC63F" width="220" height="200"/>
<path fill-rule="evenodd" clip-rule="evenodd" d="M101.284,134.881c-1.277,0-2.478,0-3.68,0c-0.156-1.388-0.243-2.742-0.477-4.071
	c-0.229-1.312-0.607-2.598-0.921-3.895c-0.104,0.019-0.208,0.037-0.312,0.055c0,2.612,0,5.225,0,7.898c-6.238,0-12.388,0-18.734,0
	c0.206-1.67,0.325-3.307,0.631-4.908c0.219-1.146,0.099-2.143-0.621-3.272c0,2.824,0,5.465,0,8.173c-4.394,0-8.722,0-13.147,0
	c0-2.65,0-5.302,0-8.146c-1.811,2.687-0.847,5.452-0.813,8.163c-1.582,0-3.073,0-4.715,0c0.131-1.385,0.397-2.73,0.345-4.064
	c-0.05-1.293-0.426-2.573-0.658-3.859c-0.132,0.015-0.264,0.028-0.396,0.042c0,2.619,0,5.237,0,7.897c-4.45,0-8.751,0-13.155,0
	c0-2.703,0-5.368,0-8.034c-1.359,2.506-1.506,5.246-1.769,8.013c-1.23,0-2.431,0-3.685,0c0.13-4.614,0.481-9.12,3.698-12.803
	c0.944-1.082,2.267-1.437,3.593-1.474c3.098-0.087,6.199-0.063,9.298-0.013c1.73,0.028,3.189,0.718,4.22,2.175
	c0.283,0.4,0.574,0.795,0.889,1.228c0.294-0.403,0.598-0.755,0.83-1.147c1.044-1.761,2.743-2.218,4.598-2.258
	c2.432-0.052,4.868,0.049,7.299-0.029c2.577-0.082,4.86,0.355,6.254,2.97c0.348-0.41,0.619-0.696,0.853-1.011
	c1.059-1.429,2.558-1.918,4.24-1.935c2.896-0.029,5.795-0.05,8.69,0.006c1.756,0.034,3.295,0.537,4.425,2.1
	c1.475,2.042,2.476,4.231,2.754,6.737c0.17,1.524,0.316,3.051,0.464,4.578C101.308,134.273,101.284,134.556,101.284,134.881z
	 M82.656,126.972c-0.083-0.016-0.166-0.032-0.249-0.048c-0.158,0.681-0.497,1.377-0.442,2.04c0.144,1.746,0.459,3.477,0.691,5.107
	C82.656,131.782,82.656,129.377,82.656,126.972z"/>
<path fill-rule="evenodd" clip-rule="evenodd" d="M99.222,100.372c-0.397,0-0.705,0-1.144,0c0,6.852,0,13.684,0,20.705
	c-1.492-1.413-3.124-1.837-4.958-1.757c0.582-0.662,1.277-1.201,1.626-1.909c0.524-1.067,0.863-2.239,1.171-3.396
	c0.201-0.759,0.377-1.597,0.26-2.352c-0.175-1.123-0.503-2.256-0.977-3.289c-0.591-1.289-1.424-2.443-2.771-3.122
	c-0.199-0.101-0.342-0.51-0.344-0.776c-0.018-4.287-0.007-8.573-0.004-12.86c0.001-1.92,0-3.841,0-5.762
	c-0.09-0.021-0.181-0.044-0.271-0.066c-0.224,0.596-0.48,1.182-0.666,1.789c-1.309,4.245-1.367,8.605-1.146,12.987
	c0.037,0.713-0.094,1.313-0.669,1.78c-0.585,0.477-1.231,0.656-1.94,0.365c-0.707-0.289-1.264-0.778-1.303-1.586
	c-0.246-4.958-0.213-9.886,1.334-14.693c0.725-2.253,1.849-4.213,3.839-5.483c0.905-0.578,2.086-0.966,3.155-1
	c3.614-0.114,7.239,0.067,10.854-0.053c3.741-0.125,7.451-0.626,10.855-2.344c1.358-0.687,2.648-1.523,3.917-2.369
	c0.836-0.558,1.857-0.553,2.594,0.177c0.727,0.72,0.837,1.72,0.172,2.493c-0.408,0.475-0.93,0.868-1.45,1.227
	c-4.711,3.231-10.068,4.357-15.642,4.771c-0.113,0.009-0.226,0.028-0.49,0.063c0,0.415,0,0.835,0,1.254
	c0,12.106,0.002,24.214-0.007,36.32c-0.001,0.544-0.023,1.113-0.176,1.629c-0.459,1.554-2.267,2.405-3.782,1.835
	c-0.134-0.051-0.321-0.095-0.375-0.198c-0.616-1.172-1.688-2.093-1.679-3.603c0.037-6.602,0.015-13.202,0.015-19.804
	C99.222,101.034,99.222,100.723,99.222,100.372z M97.743,85.371c-0.072,0.251-0.177,0.492-0.209,0.742
	c-0.362,2.774-0.717,5.552-1.062,8.328c-0.028,0.22-0.06,0.512,0.054,0.664c0.675,0.908,1.392,1.786,2.139,2.729
	c0.614-0.768,1.125-1.509,1.744-2.144c0.438-0.449,0.542-0.893,0.463-1.477c-0.187-1.372-0.311-2.753-0.496-4.126
	c-0.215-1.591-0.469-3.176-0.698-4.717C98.972,85.371,98.375,85.371,97.743,85.371z M98.664,82.289
	c-0.991-0.001-1.21,0.261-1.213,1.478c-0.003,0.867,0.685,0.809,1.229,0.854c0.758,0.063,1.386-0.369,1.363-0.857
	C99.995,82.698,99.611,82.29,98.664,82.289z"/>
<path fill-rule="evenodd" clip-rule="evenodd" d="M61.64,81.78c0.172-0.33,0.396-0.759,0.638-1.224
	c0.621,0.363,1.24,0.726,1.931,1.129c-0.277,0.433-0.519,0.811-0.754,1.179c0.783,0.926,0.783,0.926,2.107,0.212
	c0.357,0.609,0.717,1.221,1.096,1.867c-0.564,0.481-1.692,0.624-0.975,1.85c0.422,0.02,0.927,0.043,1.481,0.068
	c0.036,0.432,0.068,0.824,0.101,1.216c0.071,0.058,0.142,0.115,0.212,0.173c0.249-0.249,0.497-0.499,0.91-0.914
	c0.685-0.118,0.7-0.257,0.218-1.106c-0.156-0.276,0.048-0.758,0.073-1.02c0.57,0,1.02,0.117,1.31-0.047
	c0.152-0.088,0.026-0.665,0.026-1.189c0.179-0.107,0.543-0.328,0.847-0.513c0.352,0.25,0.646,0.459,0.941,0.668
	c0.141-0.318,0.28-0.638,0.463-1.051c0.301,0,0.717,0,0.979,0c0.261,0.416,0.467,0.744,0.673,1.073
	c0.301-0.208,0.603-0.416,0.952-0.656c0.225,0.152,0.531,0.358,0.733,0.497c0,0.475,0,0.855,0,1.236
	c0.359-0.018,0.719-0.036,1.173-0.059c0.137,0.194,0.35,0.495,0.473,0.672c-0.227,0.438-0.518,0.773-0.528,1.118
	c-0.005,0.157,0.548,0.33,0.979,0.567c0.017,0.071,0.072,0.315,0.146,0.638c1.242,0,2.476,0,3.796,0c0,3.224,0,6.364,0,9.565
	c0.615,0.036,1.148,0.067,1.729,0.101c0,0.53,0,1.009,0,1.549c-12.718,0-25.411,0-38.173,0c0-0.51,0-1.005,0-1.571
	c0.715,0,1.4,0,2.173,0c0-3.208,0-6.35,0-9.623c1.361,0,2.64,0,3.947,0c0.04-0.497,0.07-0.865,0.106-1.306
	c0.429-0.028,0.852-0.057,1.36-0.09c0.088-0.323,0.184-0.671,0.273-0.998c-0.388-0.286-0.731-0.541-1.102-0.813
	c0.298-0.649,0.583-1.271,0.907-1.978c0.494,0.256,0.942,0.488,1.369,0.71c1.177-0.578,0.81-1.271,0.096-1.957
	c0.664-0.438,1.235-0.815,1.856-1.226c0.285,0.455,0.555,0.887,0.847,1.354c0.379-0.095,0.736-0.186,1.166-0.293
	c0-0.5,0-0.979,0-1.528c0.728,0,1.376,0,2.112,0C60.512,80.753,59.97,82.063,61.64,81.78z M61.589,88.164
	c-0.001-1.639-1.019-2.616-2.496-2.503c-1.345,0.103-2.215,1.138-2.035,2.457c0.162,0.015,0.332,0.043,0.501,0.043
	C58.883,88.165,60.206,88.164,61.589,88.164z M74.229,88.126c-0.108-1.119-0.72-1.712-1.585-1.62
	c-0.733,0.078-1.101,0.631-1.047,1.62C72.453,88.126,73.312,88.126,74.229,88.126z"/>
<path fill-rule="evenodd" clip-rule="evenodd" d="M110.546,87.659c4.104,0,8.085,0,12.16,0c0,3.362,0,6.678,0,10.077
	c0.562,0.03,1.037,0.056,1.535,0.082c0.039,0.125,0.095,0.229,0.104,0.339c0.101,1.281,0.1,1.281-1.205,1.281
	c-4.863,0-9.728,0.001-14.591,0.001c-0.369,0-0.738,0-1.149,0c0-0.585,0-1.064,0-1.634c1.025,0,2.025,0,3.146,0
	C110.546,94.382,110.546,91.044,110.546,87.659z"/>
<path fill-rule="evenodd" clip-rule="evenodd" d="M68.113,73.659c0,0.593,0,1.105,0,1.724c1.114,0,2.198,0,3.349,0
	c0,1.272,0,2.441,0,3.706c-1.077,0-2.16,0-3.338,0c0,0.829,0,1.564,0,2.373c-0.477,0-0.859,0-1.328,0c0-0.753,0-1.493,0-2.299
	c-1.145,0-2.205,0-3.347,0c0-1.258,0-2.451,0-3.755c1.071,0,2.156,0,3.322,0c0-0.991,0-1.878,0-2.841c4.433,0,8.782,0,13.204,0
	c0,4.321,0,8.64,0,13.004c-0.392,0-0.757,0-1.224,0c0-3.962,0-7.908,0-11.912C75.168,73.659,71.683,73.659,68.113,73.659z"/>
<path fill-rule="evenodd" clip-rule="evenodd" fill="#F7931E" d="M51.207,112.393c-1.795,0.001-3.59,0.025-5.384-0.021
	c-0.343-0.009-0.678-0.295-1.017-0.453c0.19-0.301,0.399-0.594,0.567-0.907c0.126-0.234,0.263-0.488,0.29-0.745
	c0.256-2.395,1.758-3.806,3.853-4.56c2.098-0.755,4.017-0.117,5.58,1.403c0.854,0.83,1.378,1.897,1.582,3.109
	c0.053,0.315,0.325,0.593,0.492,0.892c0.141,0.251,0.444,0.656,0.378,0.733c-0.216,0.247-0.566,0.517-0.871,0.524
	C54.855,112.416,53.031,112.393,51.207,112.393z"/>
<path fill-rule="evenodd" clip-rule="evenodd" fill="#F7931E" d="M89.29,112.393c-1.738,0-3.477,0.03-5.213-0.023
	c-0.398-0.012-0.788-0.313-1.183-0.48c0.208-0.294,0.459-0.565,0.613-0.884c0.167-0.344,0.276-0.724,0.355-1.101
	c0.646-3.048,3.639-5.083,6.646-4.313c2.318,0.595,3.903,2.068,4.27,4.584c0.059,0.405-0.003,0.877,0.604,1.004
	c0.145,0.031,0.357,0.507,0.288,0.61c-0.167,0.252-0.469,0.546-0.741,0.571c-0.802,0.076-1.616,0.031-2.426,0.032
	C91.434,112.395,90.361,112.394,89.29,112.393z"/>
<path fill-rule="evenodd" clip-rule="evenodd" fill="#F7931E" d="M70.545,112.393c-1.795,0.001-3.59,0.027-5.383-0.022
	c-0.333-0.01-0.656-0.326-0.984-0.502c0.185-0.277,0.4-0.541,0.547-0.837c0.168-0.339,0.325-0.698,0.401-1.065
	c0.54-2.591,2.715-4.493,5.283-4.529c2.827-0.04,5.104,1.882,5.649,4.751c0.082,0.434,0.063,0.844,0.618,1.004
	c0.146,0.042,0.335,0.543,0.267,0.618c-0.224,0.247-0.55,0.544-0.848,0.556c-1.474,0.056-2.951,0.026-4.428,0.027
	C71.294,112.393,70.919,112.393,70.545,112.393z"/>
<path fill-rule="evenodd" clip-rule="evenodd" fill="#F7931E" d="M98.025,64.697c0,0.44-0.079,0.806,0.022,1.112
	c0.1,0.301,0.382,0.541,0.584,0.808c0.2-0.257,0.483-0.486,0.578-0.777c0.101-0.31,0.022-0.677,0.022-1.018
	c1.289-0.027,1.403,0.085,1.545,1.164c0.029,0.225,0.271,0.421,0.416,0.63c0.258-0.215,0.517-0.43,0.846-0.704
	c1.273,0.675,1.955,1.896,2.177,3.45c0.044,0.301,0.334,0.562,0.486,0.853c0.139,0.263,0.377,0.572,0.326,0.807
	c-0.053,0.241-0.38,0.458-0.633,0.606c-0.154,0.09-0.396,0.036-0.598,0.036c-3.473,0.001-6.945,0.019-10.418-0.024
	c-0.378-0.004-0.908-0.265-1.088-0.571c-0.245-0.418,0.069-0.78,0.559-0.978c0.159-0.063,0.23-0.414,0.289-0.646
	c0.355-1.425,0.879-2.739,2.06-3.528c0.391,0.263,0.701,0.473,1.012,0.682c0.17-0.322,0.475-0.642,0.482-0.969
	C96.717,64.705,97.438,64.957,98.025,64.697z"/>
<path fill-rule="evenodd" clip-rule="evenodd" d="M45.908,112.926c3.543,0,7.038,0,10.522,0c0.411,1.425-0.399,4.168-1.584,4.897
	c-2.661,1.637-4.251,1.938-7.251,0.07C46.252,117.058,45.508,114.844,45.908,112.926z"/>
<path fill-rule="evenodd" clip-rule="evenodd" d="M75.818,112.891c0.506,2.196-0.666,4.431-2.737,5.604
	c-2.646,1.497-6.12,0.194-7.246-2.028c-0.461-0.909-0.483-2.048-0.645-3.092c-0.02-0.132,0.337-0.462,0.521-0.463
	C69.065,112.883,72.42,112.891,75.818,112.891z"/>
<path fill-rule="evenodd" clip-rule="evenodd" d="M94.646,112.89c0.092,1.684,0.017,3.273-1.202,4.439
	c-1.85,1.771-4.25,2.437-6.821,1.097c-2.052-1.07-2.621-2.847-2.705-4.924c-0.008-0.198,0.311-0.584,0.48-0.586
	C87.798,112.881,91.2,112.89,94.646,112.89z"/>
<path fill-rule="evenodd" clip-rule="evenodd" d="M93.282,72.177c0.58,0,1.064,0,1.55,0c3.059,0,6.119,0,9.198,0
	c0.42,2.234-0.454,3.836-2.124,5.09c-1.832,1.376-4.012,1.524-5.925,0.37C93.988,76.435,93.143,74.628,93.282,72.177z"/>
<path fill-rule="evenodd" clip-rule="evenodd" fill="#C1272D" d="M97.743,85.371c0.632,0,1.229,0,1.935,0
	c0.229,1.541,0.483,3.126,0.698,4.717c0.186,1.373,0.31,2.754,0.496,4.126c0.079,0.584-0.024,1.027-0.463,1.477
	c-0.619,0.635-1.13,1.376-1.744,2.144c-0.747-0.942-1.464-1.82-2.139-2.729c-0.113-0.152-0.082-0.444-0.054-0.664
	c0.345-2.776,0.699-5.554,1.062-8.328C97.566,85.863,97.671,85.622,97.743,85.371z"/>
<path fill-rule="evenodd" clip-rule="evenodd" fill="#C1272D" d="M98.664,82.289c0.947,0.001,1.331,0.409,1.38,1.475
	c0.022,0.488-0.605,0.92-1.363,0.857c-0.545-0.046-1.232,0.013-1.229-0.854C97.454,82.55,97.673,82.288,98.664,82.289z"/>
<g>
	<g>
		<path fill-rule="evenodd" clip-rule="evenodd" fill="#27557D" d="M155.484,77.291c2.014-0.48,4.817-1.621,5.184,0.008
			c0.436,1.937,0.972,6.527,1.535,10.986c0.121,0.961-1.111,1.459-1.418,1.552c-1.371,0.415-2.549,0.544-4.067,0.749l-1.238-13.287
			C155.479,77.295,155.482,77.292,155.484,77.291z"/>
		<path fill-rule="evenodd" clip-rule="evenodd" fill="#27557D" d="M149.369,77.291c-2.542-0.607-4.563-2.021-5.008-0.024
			c-0.464,2.091-0.973,6.671-1.511,10.95c-0.138,1.096,1.005,1.567,1.374,1.663c1.316,0.341,2.451,0.509,3.911,0.706l1.239-13.287
			C149.375,77.295,149.372,77.291,149.369,77.291z"/>
		<path fill-rule="evenodd" clip-rule="evenodd" fill="#27557D" d="M147.388,90.326l-0.066,0.156
			c3.133,0.396,6.986,0.403,10.129,0.021c-0.029-0.063-0.058-0.122-0.085-0.177H147.388z"/>
		<path fill-rule="evenodd" clip-rule="evenodd" fill="#3F73A1" d="M146.129,90.295c0.695-2.004-0.891-11.385-1.768-13.109
			c0.498-1.771,5.138-2.163,6.373-3.169c0.586,0.515,1.003,0.633,1.668,0.633c0.663,0,1.103-0.135,1.688-0.649
			c0.914,0.744,5.703,1.324,6.522,3.096c-0.933,1.977-2.643,11.387-1.902,13.19C155.591,90.898,149.338,90.942,146.129,90.295z"/>
		<polygon fill-rule="evenodd" clip-rule="evenodd" fill="#FFFFFF" points="149.273,74.867 149.125,78.811 152.425,87.188 
			155.679,78.811 155.477,74.759 154.091,73.999 150.734,74.017 		"/>
		<rect x="150.734" y="72.639" fill-rule="evenodd" clip-rule="evenodd" fill="#D1A886" width="3.297" height="3.415"/>
		<path fill-rule="evenodd" clip-rule="evenodd" fill="#FCB024" d="M152.948,78.165l0.229-0.485l-0.775-1.882l-0.765,1.852
			l0.244,0.516C152.237,78.165,152.593,78.165,152.948,78.165z"/>
		<polygon fill-rule="evenodd" clip-rule="evenodd" fill="#CCCCCC" points="150.734,74.017 152.402,75.798 151.215,78.972 
			149.747,74.671 		"/>
		<polygon fill-rule="evenodd" clip-rule="evenodd" fill="#27557D" points="149.759,74.585 152.402,87.232 148.05,80.294 
			148.621,79.083 147.38,78.093 149.065,74.966 		"/>
		<polygon fill-rule="evenodd" clip-rule="evenodd" fill="#CCCCCC" points="154.091,74 152.402,75.798 153.588,78.972 
			155.076,74.654 		"/>
		<polygon fill-rule="evenodd" clip-rule="evenodd" fill="#FCB024" points="151.882,79.345 152.948,79.345 153.503,84.691 
			152.402,87.232 151.342,84.691 		"/>
		<polygon fill-rule="evenodd" clip-rule="evenodd" fill="#FFFFFF" points="150.734,74.016 152.402,75.798 151.189,78.188 
			149.748,74.671 		"/>
		<polygon fill-rule="evenodd" clip-rule="evenodd" fill="#3F73A1" points="149.759,74.585 152.402,87.232 148.474,79.741 
			149.125,78.811 147.868,77.833 149.065,74.966 		"/>
		<polygon fill-rule="evenodd" clip-rule="evenodd" fill="#27557D" points="155.109,74.558 152.402,87.232 156.753,80.294 
			156.182,79.083 157.423,78.093 156.09,75.012 		"/>
		<polygon fill-rule="evenodd" clip-rule="evenodd" fill="#3F73A1" points="155.109,74.558 152.402,87.232 156.33,79.741 
			155.679,78.811 156.935,77.833 156.09,75.012 		"/>
		<polygon fill-rule="evenodd" clip-rule="evenodd" fill="#FFFFFF" points="154.091,73.999 152.402,75.798 153.614,78.188 
			155.076,74.653 		"/>
		<path fill-rule="evenodd" clip-rule="evenodd" fill="#FCB024" d="M151.882,78.076h1.066c0.238,0.495,0.22,0.927,0,1.349h-1.066
			C151.662,79.003,151.644,78.571,151.882,78.076z"/>
		<path fill-rule="evenodd" clip-rule="evenodd" fill="#27557D" d="M152.252,90.784c0.027-0.929,0.098-2.032,0.211-3.687
			c0.113,1.654,0.188,2.759,0.223,3.687C152.541,90.785,152.396,90.785,152.252,90.784z"/>
		<polygon fill-rule="evenodd" clip-rule="evenodd" fill="#FFFFFF" points="148.773,74.969 149.184,78.748 152.467,87.084 
			155.704,78.748 156.113,74.969 154.547,73.961 150.341,73.961 		"/>
		<rect x="150.341" y="72.608" fill-rule="evenodd" clip-rule="evenodd" fill="#D1A886" width="4.169" height="3.397"/>
		<path fill-rule="evenodd" clip-rule="evenodd" fill="#F2CAA9" d="M152.443,74.608c1.644,0,3.165-1.879,3.968-4.182
			c0.047,0.049,0.1,0.079,0.158,0.089c0.327,0.054,0.701-0.561,0.837-1.372c0.135-0.813-0.021-1.515-0.348-1.569
			c-0.023-0.004-0.047-0.004-0.07-0.001c0.16-2.853-1.022-5.489-4.545-5.489c-3.525,0-4.707,2.64-4.544,5.496
			c-0.036-0.01-0.071-0.012-0.106-0.006c-0.327,0.055-0.483,0.757-0.349,1.569c0.135,0.812,0.51,1.426,0.837,1.372
			c0.069-0.012,0.132-0.053,0.185-0.118C149.266,72.713,150.793,74.608,152.443,74.608z"/>
		<path fill-rule="evenodd" clip-rule="evenodd" fill="#57291E" d="M156.988,67.573c0.16-2.853-1.022-5.489-4.545-5.489
			c-3.525,0-4.707,2.64-4.545,5.495c0.285,0.071,0.582,0.594,0.714,1.272c0.229,0.155,0.396,0.064,0.396-0.511
			c0-1.697,0.211-3.202,1.325-3.561c1.062-0.342,1.295,0.407,2.104,0.407s1.065-0.706,2.104-0.407
			c1.078,0.31,1.324,1.863,1.324,3.561c0,0.553,0.153,0.658,0.369,0.529C156.37,68.152,156.69,67.606,156.988,67.573z"/>
		<path fill-rule="evenodd" clip-rule="evenodd" fill="#FC8D25" d="M152.987,78.106l0.229-0.483l-0.772-1.872l-0.76,1.843
			l0.243,0.513C152.28,78.106,152.634,78.106,152.987,78.106z"/>
		<polygon fill-rule="evenodd" clip-rule="evenodd" fill="#CCCCCC" points="150.341,73.961 152.443,75.751 151.263,78.909 
			149.359,74.612 		"/>
		<polygon fill-rule="evenodd" clip-rule="evenodd" fill="#27557D" points="149.359,74.612 152.443,87.129 148.114,80.225 
			148.683,79.02 147.447,78.034 148.773,74.969 		"/>
		<polygon fill-rule="evenodd" clip-rule="evenodd" fill="#CCCCCC" points="154.547,73.961 152.443,75.751 153.624,78.909 
			155.528,74.612 		"/>
		<polygon fill-rule="evenodd" clip-rule="evenodd" fill="#FC8D25" points="151.927,79.28 152.987,79.28 153.539,84.6 
			152.443,87.129 151.39,84.6 		"/>
		<path fill-rule="evenodd" clip-rule="evenodd" fill="#57291E" d="M155.614,63.941c-0.454,0.909-5.035,3.515-6.553,3.634
			S148.98,61.586,155.614,63.941z"/>
		<path fill-rule="evenodd" clip-rule="evenodd" fill="#57291E" d="M153.434,63.941c0.196,0.909,2.171,3.515,2.825,3.634
			C156.912,67.694,156.293,61.586,153.434,63.941z"/>
		<polygon fill-rule="evenodd" clip-rule="evenodd" fill="#FFFFFF" points="150.341,73.961 152.443,75.751 151.237,78.129 
			149.359,74.612 		"/>
		<polygon fill-rule="evenodd" clip-rule="evenodd" fill="#3F73A1" points="149.359,74.612 152.443,87.129 148.535,79.674 
			149.184,78.748 147.933,77.775 148.773,74.969 		"/>
		<polygon fill-rule="evenodd" clip-rule="evenodd" fill="#27557D" points="155.528,74.612 152.443,87.129 156.773,80.225 
			156.204,79.02 157.439,78.034 156.113,74.969 		"/>
		<polygon fill-rule="evenodd" clip-rule="evenodd" fill="#3F73A1" points="155.528,74.612 152.443,87.129 156.353,79.674 
			155.704,78.748 156.954,77.775 156.113,74.969 		"/>
		<polygon fill-rule="evenodd" clip-rule="evenodd" fill="#FFFFFF" points="154.547,73.961 152.443,75.751 153.65,78.129 
			155.528,74.612 		"/>
		<path fill-rule="evenodd" clip-rule="evenodd" fill="#FC8D25" d="M151.927,78.019h1.061c0.237,0.491,0.219,0.922,0,1.342h-1.061
			C151.708,78.94,151.689,78.51,151.927,78.019z"/>
		<path fill-rule="evenodd" clip-rule="evenodd" fill="#27557D" d="M152.177,90.784c0.174,0.001,0.348,0.001,0.521,0
			c0.064-0.897-0.128-3.29-0.261-3.686C152.306,87.415,152.113,89.839,152.177,90.784z"/>
	</g>
	<rect x="133.023" y="118.186" fill-rule="evenodd" clip-rule="evenodd" fill="#C5D0D9" width="40.425" height="4.649"/>
	<rect x="140.188" y="91.271" fill-rule="evenodd" clip-rule="evenodd" fill="#C5D0D9" width="24.674" height="31.564"/>
	<path fill="#FC8D25" d="M134.95,87.663c0.018,0.34-0.244,0.63-0.583,0.646c-0.34,0.018-0.629-0.244-0.646-0.583l-0.42-7.878
		c-0.043-0.812,0.29-1.614,0.818-2.285c0.56-0.711,1.354-1.288,2.143-1.564l7.777-2.728c0.321-0.111,0.672,0.059,0.783,0.379
		c0.112,0.321-0.057,0.672-0.378,0.784l-7.778,2.727c-0.572,0.201-1.157,0.631-1.578,1.165c-0.356,0.453-0.584,0.97-0.558,1.46
		L134.95,87.663z"/>
	<path fill-rule="evenodd" clip-rule="evenodd" fill="#FC8D25" d="M134.335,90.816c1.72,0,3.122-1.402,3.122-3.122
		c0-1.719-1.402-3.121-3.122-3.121c-1.719,0-3.12,1.402-3.12,3.121C131.215,89.414,132.616,90.816,134.335,90.816z"/>
	<polygon fill-rule="evenodd" clip-rule="evenodd" fill="#C5D0D9" points="132.313,94.847 172.738,94.847 177.003,87.694 
		128.048,87.694 	"/>
	<path fill-rule="evenodd" clip-rule="evenodd" fill="#FC8D25" d="M138.971,74.356l4.695-1.646c0.659-0.231,1.388,0.118,1.618,0.777
		v0.001c0.231,0.658-0.119,1.387-0.777,1.617l-4.695,1.646c-0.659,0.23-1.387-0.119-1.618-0.777l0,0
		C137.963,75.315,138.313,74.587,138.971,74.356z"/>
</g>
</svg>
