<?xml version="1.0" encoding="utf-8"?>
<!-- Generator: Adobe Illustrator 16.0.0, SVG Export Plug-In . SVG Version: 6.00 Build 0)  -->
<!DOCTYPE svg PUBLIC "-//W3C//DTD SVG 1.1//EN" "http://www.w3.org/Graphics/SVG/1.1/DTD/svg11.dtd">
<svg version="1.1" id="Layer_1" xmlns="http://www.w3.org/2000/svg" xmlns:xlink="http://www.w3.org/1999/xlink" x="0px" y="0px"
	 width="736px" height="202px" viewBox="0 0 736 202" enable-background="new 0 0 736 202" xml:space="preserve">
<g>
	<linearGradient id="SVGID_1_" gradientUnits="userSpaceOnUse" x1="45.7119" y1="145.6152" x2="45.7119" y2="19.9877">
		<stop  offset="0" style="stop-color:#FF8000"/>
		<stop  offset="0.3086" style="stop-color:#FBA50E"/>
		<stop  offset="1" style="stop-color:#F2F52C"/>
	</linearGradient>
	<path fill="url(#SVGID_1_)" d="M69.442,103.506l-1.894-23.752c0,0,0.296,35.784-12.813,81.907l1.312-33.472
		c0,0-10.337,63.391-10.337,68.333c0-4.942-10.336-68.333-10.336-68.333l1.311,33.472C23.58,115.538,23.875,79.754,23.875,79.754
		l-1.894,23.752C8.587,54.301,27.345,9.759,27.345,9.759h36.733C64.078,9.759,82.835,54.301,69.442,103.506z"/>
	<linearGradient id="SVGID_2_" gradientUnits="userSpaceOnUse" x1="45.7114" y1="75.1299" x2="45.7114" y2="-19.7811">
		<stop  offset="0" style="stop-color:#FF8000"/>
		<stop  offset="0.3086" style="stop-color:#FBA50E"/>
		<stop  offset="1" style="stop-color:#F2F52C"/>
	</linearGradient>
	<path fill="url(#SVGID_2_)" d="M59.395,75.05l-1.091-13.696c0,0,0.17,20.632-7.388,47.23l0.755-19.303c0,0-5.96,36.553-5.96,39.402
		c0-2.85-5.959-39.402-5.959-39.402l0.756,19.303c-7.558-26.599-7.387-47.23-7.387-47.23L32.028,75.05
		c-7.725-28.376,3.092-54.06,3.092-54.06h21.183C56.303,20.99,67.12,46.674,59.395,75.05z"/>
	
		<linearGradient id="SVGID_3_" gradientUnits="userSpaceOnUse" x1="606.7451" y1="42.665" x2="606.7451" y2="64.4474" gradientTransform="matrix(-0.9988 -0.0491 -0.0491 0.9988 643.659 16.6629)">
		<stop  offset="0" style="stop-color:#FF8000"/>
		<stop  offset="0.3086" style="stop-color:#FBA50E"/>
		<stop  offset="1" style="stop-color:#F2F52C"/>
	</linearGradient>
	<path fill="url(#SVGID_3_)" d="M38.161,23.986c-8.582,17.475-5.353,36.261-5.353,36.261C32.595,42.276,36.625,28.12,38.161,23.986z
		"/>
	
		<linearGradient id="SVGID_4_" gradientUnits="userSpaceOnUse" x1="68.0723" y1="16.1846" x2="68.0723" y2="37.9669" gradientTransform="matrix(0.9988 -0.0491 0.0491 0.9988 -12.91 16.6629)">
		<stop  offset="0" style="stop-color:#FF8000"/>
		<stop  offset="0.3086" style="stop-color:#FBA50E"/>
		<stop  offset="1" style="stop-color:#F2F52C"/>
	</linearGradient>
	<path fill="url(#SVGID_4_)" d="M53.262,23.986c8.583,17.475,5.353,36.261,5.353,36.261C58.829,42.276,54.797,28.12,53.262,23.986z"
		/>
	<linearGradient id="SVGID_5_" gradientUnits="userSpaceOnUse" x1="45.7119" y1="60.4189" x2="45.7119" y2="-6.425">
		<stop  offset="0" style="stop-color:#F2F52C"/>
		<stop  offset="0.5" style="stop-color:#F2F57C"/>
		<stop  offset="1" style="stop-color:#F2F6D0"/>
	</linearGradient>
	<path fill="url(#SVGID_5_)" d="M55.014,46.744l-0.742-9.309c0,0,0.115,14.024-5.023,32.105l0.515-13.12
		c0,0-4.053,24.845-4.053,26.783c0-1.938-4.051-26.783-4.051-26.783l0.515,13.12c-5.138-18.081-5.022-32.105-5.022-32.105
		l-0.742,9.309C31.16,27.458,38.512,10,38.512,10h14.399C52.912,10,60.264,27.458,55.014,46.744z"/>
</g>
<g>
	<linearGradient id="SVGID_6_" gradientUnits="userSpaceOnUse" x1="364.5728" y1="142.7285" x2="364.5728" y2="17.1017">
		<stop  offset="0" style="stop-color:#FF8000"/>
		<stop  offset="0.3086" style="stop-color:#FBA50E"/>
		<stop  offset="1" style="stop-color:#F2F52C"/>
	</linearGradient>
	<path fill="url(#SVGID_6_)" d="M388.304,100.62l-1.894-23.751c0,0,0.296,35.782-12.813,81.906l1.312-33.471
		c0,0-10.337,63.391-10.337,68.331c0-4.94-10.335-68.331-10.335-68.331l1.311,33.471c-13.106-46.124-12.811-81.906-12.811-81.906
		l-1.894,23.751c-13.395-49.205,5.364-93.747,5.364-93.747h36.732C382.938,6.873,401.695,51.415,388.304,100.62z"/>
	<linearGradient id="SVGID_7_" gradientUnits="userSpaceOnUse" x1="364.5718" y1="72.2441" x2="364.5718" y2="-22.6669">
		<stop  offset="0" style="stop-color:#FF8000"/>
		<stop  offset="0.3086" style="stop-color:#FBA50E"/>
		<stop  offset="1" style="stop-color:#F2F52C"/>
	</linearGradient>
	<path fill="url(#SVGID_7_)" d="M378.254,72.164l-1.09-13.697c0,0,0.171,20.633-7.388,47.231l0.756-19.303
		c0,0-5.961,36.553-5.961,39.402c0-2.85-5.959-39.402-5.959-39.402l0.756,19.303c-7.558-26.599-7.388-47.231-7.388-47.231
		l-1.092,13.697c-7.725-28.377,3.093-54.06,3.093-54.06h21.183C375.164,18.104,385.98,43.787,378.254,72.164z"/>
	
		<linearGradient id="SVGID_8_" gradientUnits="userSpaceOnUse" x1="288.4121" y1="24.1279" x2="288.4121" y2="45.9097" gradientTransform="matrix(-0.9988 -0.0491 -0.0491 0.9988 643.659 16.6629)">
		<stop  offset="0" style="stop-color:#FF8000"/>
		<stop  offset="0.3086" style="stop-color:#FBA50E"/>
		<stop  offset="1" style="stop-color:#F2F52C"/>
	</linearGradient>
	<path fill="url(#SVGID_8_)" d="M357.021,21.102c-8.582,17.475-5.352,36.26-5.352,36.26
		C351.455,39.392,355.486,25.235,357.021,21.102z"/>
	
		<linearGradient id="SVGID_9_" gradientUnits="userSpaceOnUse" x1="386.6885" y1="28.959" x2="386.6885" y2="50.7408" gradientTransform="matrix(0.9988 -0.0491 0.0491 0.9988 -12.91 16.6629)">
		<stop  offset="0" style="stop-color:#FF8000"/>
		<stop  offset="0.3086" style="stop-color:#FBA50E"/>
		<stop  offset="1" style="stop-color:#F2F52C"/>
	</linearGradient>
	<path fill="url(#SVGID_9_)" d="M372.122,21.102c8.583,17.475,5.354,36.26,5.354,36.26C377.69,39.392,373.658,25.235,372.122,21.102
		z"/>
	<linearGradient id="SVGID_10_" gradientUnits="userSpaceOnUse" x1="364.5732" y1="57.4189" x2="364.5732" y2="-9.425">
		<stop  offset="0" style="stop-color:#F2F52C"/>
		<stop  offset="0.5" style="stop-color:#F2F57C"/>
		<stop  offset="1" style="stop-color:#F2F6D0"/>
	</linearGradient>
	<path fill="url(#SVGID_10_)" d="M373.876,43.742l-0.742-9.309c0,0,0.113,14.025-5.023,32.107l0.515-13.121
		c0,0-4.054,24.846-4.054,26.784c0-1.938-4.051-26.784-4.051-26.784l0.514,13.121c-5.138-18.082-5.021-32.107-5.021-32.107
		l-0.742,9.309C350.02,24.457,357.373,7,357.373,7h14.399C371.771,7,379.125,24.457,373.876,43.742z"/>
</g>
<g>
	<linearGradient id="SVGID_11_" gradientUnits="userSpaceOnUse" x1="677.6621" y1="145.6152" x2="677.6621" y2="19.9877">
		<stop  offset="0" style="stop-color:#FF8000"/>
		<stop  offset="0.3086" style="stop-color:#FBA50E"/>
		<stop  offset="1" style="stop-color:#F2F52C"/>
	</linearGradient>
	<path fill="url(#SVGID_11_)" d="M701.393,103.506L699.5,79.754c0,0,0.295,35.784-12.814,81.907l1.313-33.472
		c0,0-10.338,63.391-10.338,68.333c0-4.942-10.335-68.333-10.335-68.333l1.312,33.472c-13.106-46.123-12.811-81.907-12.811-81.907
		l-1.895,23.752c-13.395-49.205,5.363-93.747,5.363-93.747h36.732C696.027,9.759,714.785,54.301,701.393,103.506z"/>
	<linearGradient id="SVGID_12_" gradientUnits="userSpaceOnUse" x1="677.6621" y1="75.1299" x2="677.6621" y2="-19.7811">
		<stop  offset="0" style="stop-color:#FF8000"/>
		<stop  offset="0.3086" style="stop-color:#FBA50E"/>
		<stop  offset="1" style="stop-color:#F2F52C"/>
	</linearGradient>
	<path fill="url(#SVGID_12_)" d="M691.344,75.05l-1.091-13.696c0,0,0.171,20.632-7.388,47.23l0.756-19.303
		c0,0-5.961,36.553-5.961,39.402c0-2.85-5.959-39.402-5.959-39.402l0.756,19.303c-7.558-26.599-7.389-47.23-7.389-47.23
		l-1.09,13.696c-7.725-28.376,3.092-54.06,3.092-54.06h21.183C688.253,20.99,699.07,46.674,691.344,75.05z"/>
	
		<linearGradient id="SVGID_13_" gradientUnits="userSpaceOnUse" x1="-24.4395" y1="11.6367" x2="-24.4395" y2="33.4191" gradientTransform="matrix(-0.9988 -0.0491 -0.0491 0.9988 643.659 16.6629)">
		<stop  offset="0" style="stop-color:#FF8000"/>
		<stop  offset="0.3086" style="stop-color:#FBA50E"/>
		<stop  offset="1" style="stop-color:#F2F52C"/>
	</linearGradient>
	<path fill="url(#SVGID_13_)" d="M670.11,23.986c-8.582,17.475-5.351,36.261-5.351,36.261
		C664.545,42.276,668.575,28.12,670.11,23.986z"/>
	
		<linearGradient id="SVGID_14_" gradientUnits="userSpaceOnUse" x1="699.2559" y1="47.2129" x2="699.2559" y2="68.9953" gradientTransform="matrix(0.9988 -0.0491 0.0491 0.9988 -12.91 16.6629)">
		<stop  offset="0" style="stop-color:#FF8000"/>
		<stop  offset="0.3086" style="stop-color:#FBA50E"/>
		<stop  offset="1" style="stop-color:#F2F52C"/>
	</linearGradient>
	<path fill="url(#SVGID_14_)" d="M685.212,23.986c8.582,17.475,5.354,36.261,5.354,36.261
		C690.779,42.276,686.748,28.12,685.212,23.986z"/>
	<linearGradient id="SVGID_15_" gradientUnits="userSpaceOnUse" x1="677.6621" y1="60.4189" x2="677.6621" y2="-6.425">
		<stop  offset="0" style="stop-color:#F2F52C"/>
		<stop  offset="0.5" style="stop-color:#F2F57C"/>
		<stop  offset="1" style="stop-color:#F2F6D0"/>
	</linearGradient>
	<path fill="url(#SVGID_15_)" d="M686.965,46.744l-0.742-9.309c0,0,0.113,14.024-5.023,32.105l0.517-13.12
		c0,0-4.056,24.845-4.056,26.783c0-1.938-4.049-26.783-4.049-26.783l0.512,13.12c-5.137-18.081-5.021-32.105-5.021-32.105
		l-0.741,9.309C663.108,27.458,670.463,10,670.463,10h14.398C684.861,10,692.214,27.458,686.965,46.744z"/>
</g>
</svg>
