<?xml version="1.0" encoding="utf-8"?>
<!-- Generator: Adobe Illustrator 16.0.0, SVG Export Plug-In . SVG Version: 6.00 Build 0)  -->
<!DOCTYPE svg PUBLIC "-//W3C//DTD SVG 1.1//EN" "http://www.w3.org/Graphics/SVG/1.1/DTD/svg11.dtd">
<svg version="1.1" id="Layer_1" xmlns="http://www.w3.org/2000/svg" xmlns:xlink="http://www.w3.org/1999/xlink" x="0px" y="0px"
	 width="1437px" height="1048px" viewBox="0 0 1437 1048" enable-background="new 0 0 1437 1048" xml:space="preserve">
<g>
	<rect x="1224" y="668" width="181" height="236"/>
	<rect x="59" y="681" width="180" height="235"/>
	<rect x="84" y="687" fill="#39B54A" width="54" height="99"/>
	
		<rect x="73.733" y="789.321" transform="matrix(0.9279 -0.3728 0.3728 0.9279 -305.7286 104.2202)" fill="#39B54A" width="85.771" height="106.626"/>
	<polyline fill="#39B54A" points="1354.735,875.417 1245.159,876.476 1241.983,681.128 	"/>
	<circle fill="#F7931E" cx="148.138" cy="419.432" r="68.829"/>
	<circle fill="#0071BC" cx="153.284" cy="578.967" r="68.829"/>
	<path fill="#39B54A" d="M1381.738,578.967c0,38.013-30.815,68.828-68.829,68.828c-38.015,0-68.827-30.815-68.827-68.828"/>
	<circle fill="#F15A24" cx="1311.194" cy="421.148" r="68.828"/>
	<path fill-rule="evenodd" clip-rule="evenodd" fill="#FFFFFF" d="M522.867,309c-2.522,0-4.923,0.836-7.205,1.662
		c0.172-0.069,0.326-0.259,0.497-0.31c1.355-0.532,2.745-1.04,4.204-1.4c0.531-0.136,1.08-0.06,1.646-0.182
		c0.24,0,0.463,0.23,0.703,0.23H522.867z"/>
	<path fill-rule="evenodd" clip-rule="evenodd" fill="#FFFFFF" d="M873.757,307.502c-0.033,0-0.053-0.017-0.086-0.017h0.291
		c-0.052,0-0.104,0.017-0.17,0.017C873.772,307.502,873.772,307.502,873.757,307.502z"/>
	<path fill-rule="evenodd" clip-rule="evenodd" fill="#FFFFFF" d="M874.511,307.485h-0.549c0.068-0.017,0.139-0.034,0.19-0.034
		C874.271,307.485,874.392,307.485,874.511,307.485z"/>
	<path fill="none" d="M216.75,772.519c0.103,5.454-3.397,6.399-7.943,6.363c-19.195-0.103-38.408-0.051-57.604-0.051
		c-19.607,0-39.214-0.087-58.838,0.067c-4.547,0.036-8.166-0.838-8.217-6.158c-0.034-5.146,3.311-6.5,7.977-6.482
		c38.819,0.086,77.639,0.068,116.442,0C213.044,766.258,216.664,767.098,216.75,772.519z"/>
	<path fill="none" d="M216.75,740.475c0.137,5.866-3.688,6.604-8.423,6.569c-19.195-0.104-38.391-0.051-57.587-0.035
		c-19.624,0-39.248-0.068-58.873,0.069c-4.46,0.018-7.599-1.354-7.703-6.123c-0.12-5.096,3.054-6.621,7.84-6.621
		c38.82,0.101,77.64,0.085,116.459,0.032C212.839,734.366,216.63,734.951,216.75,740.475z"/>
	<path fill="none" d="M215.257,872.493c-1.595,1.612-4.786,2.178-7.291,2.214c-24.17,0.239-48.34,0.343-72.51,0.343
		c-15.182,0-30.38-0.291-45.579-0.259c-5.215,0.035-6.159-3.843-5.592-7.119c0.361-2.178,3.739-5.385,5.814-5.419
		c19.78-0.429,39.576-0.259,58.805-0.259c2.642,0.122,4.718,0.293,6.81,0.293c18.133-0.019,36.265-0.171,54.396,0.034
		c2.059,0.017,5.043,1.596,5.885,3.312C216.888,867.469,216.562,871.139,215.257,872.493z"/>
	<path fill="none" d="M216.75,804.373c0.154,5.919-3.792,6.571-8.44,6.555c-19.402-0.068-38.786-0.036-58.205-0.036
		c-19.178,0-38.374-0.052-57.587,0.036c-4.426,0.017-8.216-0.824-8.354-6.126c-0.154-5.746,3.809-6.5,8.508-6.5
		c38.597,0.084,77.177,0.068,115.774,0.016C212.805,798.302,216.63,798.815,216.75,804.373z"/>
	<path fill="none" d="M216.75,836.162c0.171,5.779-3.534,6.81-8.32,6.791c-19.195-0.086-38.391-0.034-57.586-0.034
		c-19.419,0-38.837-0.086-58.239,0.053c-4.837,0.016-8.577-1.203-8.457-6.726c0.121-5.25,3.877-6.056,8.371-6.056
		c38.614,0.103,77.229,0.086,115.843,0.036C212.685,830.208,216.578,830.586,216.75,836.162z"/>
	<path fill="none" d="M211.982,419.501c0.103,35.595-27.208,64.484-61.087,64.621c-34.188,0.154-62.15-28.802-62.012-64.431
		c0.138-33.229,24.428-65.152,62.784-64.757C184.723,355.26,211.879,384.027,211.982,419.501z"/>
	<path fill="none" d="M211.998,578.351c-0.119,35.851-27.755,64.705-61.839,64.568c-33.794-0.154-61.396-29.454-61.292-65.101
		c0.085-35.407,27.72-64.192,61.566-64.157C184.74,513.695,212.101,542.446,211.998,578.351z"/>
	<path fill="none" d="M216.75,709.084c-0.155,5.506-3.946,6.105-8.32,6.105c-38.614-0.053-77.245-0.069-115.86,0.034
		c-4.837,0.018-8.56-1.114-8.405-6.708c0.138-5.283,3.86-6.123,8.354-6.107c19.213,0.137,38.425,0.053,57.621,0.068
		c19.419,0,38.837,0.053,58.256-0.05C213.13,702.408,216.904,703.216,216.75,709.084z"/>
	<path fill="none" d="M1376.974,836.246c0.121,5.522-3.618,6.741-8.473,6.726c-19.402-0.139-38.803-0.053-58.223-0.053
		c-19.193,0-38.406-0.052-57.604,0.034c-4.767,0.019-8.474-1.012-8.303-6.791c0.173-5.576,4.066-5.954,8.39-5.936
		c38.614,0.05,77.211,0.066,115.825-0.036C1373.081,830.19,1376.854,830.996,1376.974,836.246z"/>
	<path fill="none" d="M1376.958,772.74c-0.035,5.32-3.654,6.194-8.2,6.158c-19.625-0.154-39.231-0.067-58.856-0.067
		c-19.195,0-38.391-0.052-57.587,0.051c-4.544,0.036-8.061-0.909-7.958-6.363c0.103-5.421,3.723-6.261,8.2-6.261
		c38.803,0.068,77.622,0.086,116.425,0C1373.665,766.24,1377.01,767.595,1376.958,772.74z"/>
	<path fill="none" d="M1376.958,804.802c-0.139,5.302-3.929,6.143-8.371,6.126c-19.195-0.088-38.393-0.036-57.587-0.036
		c-19.402,0-38.802-0.032-58.204,0.036c-4.649,0.017-8.577-0.636-8.439-6.555c0.12-5.558,3.961-6.071,8.302-6.056
		c38.598,0.053,77.193,0.068,115.79-0.016C1373.149,798.302,1377.112,799.056,1376.958,804.802z"/>
	<path fill="none" d="M1376.941,740.955c-0.103,4.769-3.241,6.141-7.703,6.123c-19.608-0.138-39.231-0.069-58.856-0.069
		c-19.196-0.016-38.391-0.068-57.604,0.035c-4.718,0.034-8.544-0.703-8.406-6.569c0.121-5.523,3.896-6.108,8.286-6.108
		c38.82,0.053,77.64,0.068,116.462-0.032C1373.887,734.334,1377.078,735.859,1376.941,740.955z"/>
	<path fill="none" d="M1371.229,874.791c-15.181-0.032-30.38,0.259-45.56,0.259c-24.174,0-48.343-0.104-72.513-0.343
		c-2.506-0.036-5.696-0.602-7.291-2.214c-1.32-1.354-1.631-5.024-0.737-6.86c0.822-1.716,3.824-3.295,5.884-3.312
		c18.133-0.205,36.263-0.053,54.379-0.034c2.092,0,4.167-0.171,6.827-0.293c19.213,0,39.008-0.17,58.787,0.259
		c2.092,0.034,5.455,3.241,5.814,5.419C1377.386,870.948,1376.442,874.826,1371.229,874.791z"/>
	<path fill="none" d="M1376.958,708.516c0.137,5.594-3.568,6.726-8.405,6.708c-38.633-0.104-77.245-0.087-115.878-0.034
		c-4.357,0-8.147-0.6-8.303-6.105c-0.153-5.868,3.62-6.676,8.355-6.657c19.419,0.103,38.835,0.05,58.238,0.05
		c19.213-0.016,38.426,0.068,57.637-0.068C1373.081,702.393,1376.819,703.232,1376.958,708.516z"/>
	<path fill="none" d="M1372.241,419.691c0.137,35.629-27.824,64.585-62.013,64.431c-33.88-0.137-61.208-29.025-61.087-64.621
		c0.103-35.474,27.24-64.242,60.315-64.568C1347.812,354.539,1372.103,386.462,1372.241,419.691z"/>
	<path fill="none" d="M1372.257,577.818c0.105,35.646-27.497,64.946-61.309,65.101c-34.069,0.137-61.722-28.718-61.822-64.568
		c-0.105-35.905,27.24-64.655,61.549-64.689C1344.519,513.626,1372.154,542.412,1372.257,577.818z"/>
	<path fill="#FFFFFF" d="M607.519,971.786c41.015,0,82.033-0.004,123.047-0.004c-50.402-0.003-100.806-0.006-151.209-0.007
		C588.745,971.779,598.132,971.786,607.519,971.786z"/>
	<path fill="#FFFFFF" d="M563.968,972c-9.915,0-19.83,0-29.746,0.017c-0.205,0-0.395-0.017-0.6-0.017H563.968z"/>
	<path fill="#FFFFFF" d="M861.679,307c-13.396,0-26.794,0.259-40.208,0.277c-30.262,0.016-60.52,0.171-90.729,0.19
		c29.214,0.034,58.325,0.129,87.539,0.129c18.629,0.017,37.241-0.005,55.872-0.057c10.737-0.017,21.476-0.288,32.213-0.304
		c6.109,0,12.215-0.235,18.34-0.235h5.061c0.995,0,1.972,0.302,2.914,0.371c7.258-0.016,14.513,0.1,21.769,0.1
		c11.734-0.017,23.467-0.176,35.202-0.158c0.31,0,0.634-0.313,0.943-0.313H861.679z M1029.928,950.768v1.064
		c0.223-0.343,0.413-0.704,0.6-1.064H1029.928z"/>
	<path fill="#FFFFFF" d="M881.783,972c5.127,0,10.258,0,15.383,0C892.041,972,886.91,972,881.783,972z"/>
	<path fill="#FFFFFF" d="M853.618,971.786c9.389,0,18.776-0.007,28.165-0.011c-50.405,0.001-100.813,0.004-151.217,0.007
		C771.586,971.782,812.602,971.786,853.618,971.786z"/>
	<path fill="#FFFFFF" d="M492.161,950.768c0.258,0.497,0.531,0.996,0.841,1.477v-1.477H492.161z"/>
	<path fill="#FFFFFF" d="M553.436,307.485c-0.035,0-0.069,0.017-0.103,0.017c-0.034,0.018-0.069,0.018-0.103,0.018
		c10.396,0,20.792,0.034,31.187,0.051c7.908,0.018,15.833,0.035,23.741,0.052c11.597,0.017,23.192,0.035,34.806,0.035
		c14.135,0,28.27,0,42.404-0.018c12.866-0.017,25.732-0.034,38.58-0.051C667.202,307.554,610.182,307.485,553.436,307.485z
		 M551.754,307c-6.347,0-12.711,0.571-19.076,0.571c-3.431,0-6.707-0.571-9.812,1.429h13.448c3.345,0,6.605-0.003,9.813-0.158
		c2.179-0.103,4.323-0.75,6.433-1.436c0.035-0.017,0.068-0.407,0.103-0.407H551.754z"/>
	<path fill="#FFFFFF" d="M491.903,334.177c-0.034,0.068-0.052,0.137-0.068,0.206c-0.018,0.069-0.052,0.136-0.052,0.206
		c0.034-0.069,0.068-0.121,0.104-0.206c0.016-0.052,0.034-0.12,0.068-0.206H491.903z M552.406,307c-2.058,2-4.15,1.22-6.277,1.34
		c2.179-0.104,4.323-0.499,6.433-1.184c0.035-0.018,0.068-0.156,0.103-0.156H552.406z M883.74,307.259
		c-2.968-0.016-5.919-0.259-8.868-0.259h-13.193c-13.396,0-26.794,0.259-40.208,0.277c-30.262,0.016-60.52,0.171-90.729,0.19
		c29.214,0.034,58.325,0.129,87.539,0.129c18.629,0.017,37.241-0.005,55.872-0.057c10.737-0.017,21.476-0.14,32.213-0.156
		C898.819,307.383,891.271,307.259,883.74,307.259z M932.68,307.251c-2.093,0-4.201-0.251-6.295-0.251h3.381
		c0.995,0,1.972,0.302,2.914,0.371c7.258-0.016,14.513-0.034,21.769-0.034C947.192,307.336,939.938,307.251,932.68,307.251z"/>
	<path fill="#FFFFFF" d="M553.333,307h-0.257c-0.138,0-0.275,0.285-0.412,0.302c10.584,0,21.169,0.125,31.753,0.142
		c7.908,0.018,15.833-0.153,23.741-0.135C589.889,307.274,571.602,307,553.333,307z M552.406,307.485
		c0.052,0,0.103,0.017,0.155,0.035c0.035-0.018,0.068-0.018,0.103-0.035H552.406z M516.159,310.473
		c-0.171,0.051-0.325,0.24-0.497,0.31c2.282-0.823,4.683-1.782,7.205-1.782h-0.155C520.432,309,518.235,309.752,516.159,310.473z
		 M491.835,334.383h0.052c0.016-0.052,0.034-0.12,0.068-0.206h-0.052C491.869,334.246,491.852,334.314,491.835,334.383z"/>
	<path fill="#FFFFFF" d="M493.001,950.768v1.477c-0.31-0.48-0.583-0.979-0.841-1.477H493.001z"/>
	<path fill="#FFFFFF" d="M552.218,951c-2.899,0-5.782,0.139-8.68,0.223c-1.785,0.052-3.5-0.223-5.163-0.223H552.218z"/>
	<path fill="#FFFFFF" d="M922.766,951c-1.681,0-3.38,0.274-5.163,0.223c-2.898-0.084-5.799-0.223-8.68-0.223H922.766z"/>
	<path fill="#FFFFFF" d="M1030.527,950.768c-0.187,0.36-0.377,0.722-0.6,1.064v-1.064H1030.527z"/>
	<path fill="#FFFFFF" d="M994.985,307h-4.392c0.445,0,0.892-0.241,1.337-0.223C992.961,306.811,993.989,307,994.985,307z"/>
	<path fill="#FFFFFF" d="M922.766,951c-1.681,0-3.38,0.274-5.163,0.223c-2.898-0.084-5.799-0.223-8.68-0.223H922.766z"/>
	<path fill="#FFFFFF" d="M552.218,951c-2.899,0-5.782,0.139-8.68,0.223c-1.785,0.052-3.5-0.223-5.163-0.223H552.218z"/>
	<g>
		<g>
			<path fill="#FFFFFF" d="M169.615,402.748l-19.5,14.835c-0.277-0.022-0.555-0.046-0.833-0.046c-4.09,0-7.394,3.304-7.394,7.394
				c0,4.09,3.304,7.395,7.394,7.395c4.089,0,7.395-3.304,7.395-7.395c0-0.277-0.023-0.555-0.046-0.832l14.835-19.502
				L169.615,402.748z"/>
			<path fill="#FFFFFF" d="M110.857,440h-1.596c-2.573-5-4.03-11-4.306-18h0.241C105.865,429,107.787,435,110.857,440z"/>
			<path fill="#FFFFFF" d="M111,415v4h-7v-0.082c0-0.068,0.052-0.171,0-0.257c-0.053-0.087,0-0.155,0-0.223v-0.069
				c0-1.098,0-1.338,0-2.676V415H111z"/>
			<path fill="#FFFFFF" d="M190.608,399.072h-0.018c-0.017-0.052-0.034-0.087-0.051-0.121
				C190.556,398.985,190.573,399.037,190.608,399.072z"/>
			<path fill="#FFFFFF" d="M192.494,404.801c-0.103-0.463-0.205-0.909-0.326-1.355c-0.034-0.154-0.068-0.325-0.12-0.48
				c0.171,0.583,0.326,1.184,0.446,1.784V404.801z"/>
			<path fill="#FFFFFF" d="M192.819,406.5c0,0,0,0,0,0.017v0.137c0-0.018,0-0.035-0.016-0.052v-0.068
				c0-0.052-0.017-0.103-0.017-0.155C192.803,406.414,192.803,406.465,192.819,406.5z"/>
			<path fill="#FFFFFF" d="M193.034,410.359c0.035,0.6-0.034,1.218-0.034,1.835v-2.951C193,409.622,193,409.981,193.034,410.359z"/>
			<path fill="#FFFFFF" d="M193.382,412.194c-0.12-1.046-0.382-2.076-0.382-3.087v-0.583c0,0.6,0.208,1.217,0.242,1.835
				C193.311,410.958,193.346,411.577,193.382,412.194z"/>
			<path fill="#FFFFFF" d="M193.592,419H186v-4h7v0.832C193,416.843,193.558,418,193.592,419z"/>
			<path fill="#FFFFFF" d="M193.644,422c-0.257,7-1.682,13-4.22,18h-1.716c3.001-5,4.941-11,5.627-18H193.644z"/>
			<path fill="#FFFFFF" d="M190.127,398.162c0.052,0.086,0.103,0.155,0.137,0.257h-0.034v-0.017h-0.292v-0.017l0.017-0.121
				c0-0.069,0-0.103,0-0.103s0-0.017,0-0.034c0.017-0.031,0.017-0.062,0.017-0.093c0-0.031,0.001-0.064,0.001-0.095v-0.035
				c0-0.017,0-0.034,0-0.034c0.034,0.069,0.085,0.154,0.12,0.222C190.109,398.11,190.127,398.145,190.127,398.162z"/>
			<path fill="#FFFFFF" d="M196.165,399.175c0.017,0.034,0.017,0.068,0.034,0.102c-0.103-0.205-0.207-0.411-0.31-0.617
				c-0.016-0.034-0.034-0.068-0.034-0.103c0.034,0.052,0.052,0.052,0.086,0.103h0.017v-0.051h0.019v-0.069c0,0,0-0.018,0-0.034
				v-0.018c0-0.034,0-0.085,0-0.085h0.016c0.019,0.085,0.034,0.171,0.053,0.257c0.017,0.052,0.017,0.121,0.034,0.172
				C196.096,398.969,196.13,399.072,196.165,399.175z"/>
			<path fill="#FFFFFF" d="M196.233,399.363c0.103,0.188,0.188,0.376,0.292,0.566c-0.069-0.104-0.155-0.224-0.241-0.413
				c-0.034-0.068-0.067-0.154-0.085-0.241C196.217,399.311,196.217,399.328,196.233,399.363z"/>
			<path fill="#FFFFFF" d="M197.571,402.347c-0.274-0.823-0.491-1.612-0.886-2.417c0.051,0.068,0.314,0.12,0.314,0.171v0.016
				l-0.144,0.017c0.085,0.086,0.075,0.189,0.144,0.344c0.086,0.206,0.131,0.463,0.199,0.686c0.035,0.069,0.031,0.137,0.066,0.206
				c0.086,0.241,0.179,0.48,0.248,0.721c0,0.017,0.012,0.034,0.012,0.052C197.542,402.211,197.554,402.278,197.571,402.347z"/>
			<path fill="#FFFFFF" d="M201.14,423.122c-0.017,0.36-0.034,0.737-0.085,1.098c-0.052,0.189-0.103,0.378-0.154,0.549
				C201.002,424.219,201.071,423.67,201.14,423.122z"/>
			<path fill="#FFFFFF" d="M201,411.919c0,0.018,0,0.018,0,0.018c0,1.835,0.173,3.705,0.173,5.592c0,0.498-0.077,0.995-0.095,1.492
				c-0.104-3.653-0.569-7.222-1.426-10.653c0-0.017,0.006-0.052,0.006-0.068c-0.137-0.377-0.263-0.738-0.384-1.098
				c-0.016-0.017-0.011-0.034-0.029-0.051c-0.171-0.463-0.322-0.926-0.476-1.389c-0.017-0.069-0.135-0.155-0.204-0.24
				c0-0.017-0.018-0.017-0.018-0.017c0-0.034,0.509-0.086,0.492-0.12c-0.069-0.224-0.041-0.446-0.041-0.653v-0.016
				c0,0-0.422,0.016-0.303,0.034c0.053,0-0.141,0.017-0.107,0.017c0.052,0-0.046,0.017-0.046,0.017s0.106-0.017,0.123,0
				c0.052,0.017,0.156,0.051,0.207,0.086c0.034,0.017,0.035,0.051,0.052,0.068c0.292,0.275,0.043,0.532,0.146,0.824
				c0.292,0.908,0.443,1.835,0.682,2.762c0.018,0.052,0.015,0.086,0.032,0.137c0.121,0.48,0.274,0.961,0.48,1.44
				c0.017,0.035,0.015,0.052,0.033,0.087c0.085,0.171-0.019,0.342,0.067,0.498C200.59,411.096,201,411.508,201,411.919z"/>
			<path fill="#FFFFFF" d="M201,419.073v4.014c0-0.823-0.051-1.681-0.051-2.522C200.949,420.068,201,419.57,201,419.073z"/>
		</g>
		<path fill="#FFFFFF" d="M198.772,405.762c-0.017-0.069-0.138-0.155-0.206-0.24c0.189,0.531,0.463,1.08,0.686,1.629
			C199.082,406.688,198.927,406.225,198.772,405.762z M198.635,404.715v0.016c0.034,0.018,0.069,0.018,0.086,0.035
			C198.687,404.75,198.669,404.731,198.635,404.715z M196.199,399.276c0.018,0.087,0.051,0.172,0.085,0.241
			c0.086,0.188,0.171,0.309,0.241,0.413c-0.104-0.19-0.189-0.378-0.292-0.566C196.217,399.328,196.217,399.311,196.199,399.276z
			 M195.874,398.402h0.257v-0.017l-0.274-0.017C195.856,398.385,195.874,398.385,195.874,398.402z M192.803,406.602
			c0.016,0.017,0.016,0.034,0.016,0.052v-0.137l-0.016,0.017V406.602z M192.167,402.982c0,0.017,0,0.034,0.018,0.052
			c0.155,0.479,0.515,0.994,0.601,1.491c-0.121-0.737-0.55-1.423-0.772-2.145C192.082,402.587,192.117,402.776,192.167,402.982z
			 M191.792,402.245c0-0.052-0.018-0.086-0.035-0.137c0-0.017-0.017-0.052-0.034-0.068c-0.034-0.087-0.069-0.155-0.104-0.241
			c-0.018-0.034-0.034-0.085-0.068-0.137c-0.018-0.051-0.035-0.103-0.051-0.172c-0.137-0.394-0.31-0.892-0.481-1.355
			c-0.069-0.154-0.12-0.308-0.172-0.462c0.24,0.497,0.447,1.029,0.653,1.544c-0.206-0.584-0.447-1.149-0.687-1.699
			c-0.016-0.017-0.016-0.034-0.034-0.051c-0.034-0.052,0.62-0.121,0.586-0.172c-0.018-0.034,0.636-0.051,0.636-0.069v0.018
			c0,0.085-0.3,0.188-0.265,0.274c0.239,0.55,0.265,1.115,0.265,1.699v0.017c0,0.292-0.044,0.583,0.042,0.875
			c0.069,0.205,0.012,0.394,0.046,0.6c0.017,0.018-0.081,0.052-0.046,0.069c-0.018-0.137-0.125-0.258-0.16-0.395
			C191.882,402.33,191.808,402.278,191.792,402.245z M190.092,398.093c-0.035-0.068-0.086-0.153-0.12-0.222c0,0,0,0.018,0,0.034
			c0-0.017-0.018-0.017-0.018-0.034h-0.017c0.017,0.018,0.017,0.034,0.034,0.052v0.017c0,0.031,0,0.064-0.001,0.095
			c0,0.031,0,0.062-0.017,0.093c0,0.017,0,0.034,0,0.034s0,0.034,0,0.103l-0.017,0.121v0.017h0.292v0.017h0.034
			c-0.034-0.102-0.085-0.171-0.137-0.257C190.127,398.145,190.109,398.11,190.092,398.093z M104.956,419
			c0.051,2,0.121,2.436,0.241,3.431c-0.12-0.995,0.12-1.431,0.12-3.431H104.956z M105.145,418.386v0.052
			c0,0.068,0.035,0.136,0.086,0.223C105.196,418.559,105.145,418.455,105.145,418.386z M105.041,415.557
			c0.018-0.514,0.018-1.046,0.035-1.562c-0.051,0.515-0.104,1.047-0.121,1.562v0.137h0.085V415.557z"/>
		<path fill="#FFFFFF" d="M201,411.938c0,1.835,0.173,3.705,0.173,5.592c0,0.498-0.077,0.995-0.095,1.492
			c-0.104-3.653-0.569-7.222-1.426-10.653c0-0.017,0.006-0.052,0.006-0.068c-0.137-0.377-0.263-0.738-0.384-1.098
			c-0.016-0.017-0.011-0.034-0.029-0.051c-0.223-0.549-0.493-1.098-0.682-1.629c0-0.017-0.015-0.017-0.015-0.017
			c-0.035-0.052,0.474-0.086,0.491-0.12c-0.069-0.224-0.04-0.446-0.04-0.653v-0.016c0-0.018-0.25-0.018-0.25-0.034
			c0-0.018-0.16-0.018-0.16-0.018c-0.12-0.034,0.256-0.085,0.153-0.137c-0.034-0.017,0.257-0.017,0.257-0.035c0,0,0,0,0-0.016
			c0-0.257-0.542-0.532-0.577-0.789c-0.018-0.172-0.314-0.36-0.366-0.532c-0.018-0.069-0.166-0.155-0.184-0.241
			c0-0.034-0.065-0.069-0.099-0.103c-0.034-0.137-0.102-0.292-0.153-0.429c0-0.016-0.016-0.016-0.033-0.034
			c-0.274-0.823-0.66-1.612-1.055-2.417c-0.069-0.104-0.158-0.224-0.244-0.413c-0.034-0.068-0.07-0.154-0.087-0.241
			c-0.104-0.205-0.207-0.411-0.31-0.617c-0.017-0.034-0.456-0.068-0.456-0.103L195,398.54v-0.018l-0.937,0.018l0.828-0.271
			l0.948-0.269h0.034c0,0-0.583,0.185-0.583,0.167l-0.29,0.218v0.017c0,0.515,1.046,1.029,1.268,1.544
			c0.447,1.029,1.158,2.075,1.536,3.157c0.188,0.531,0.518,1.063,0.689,1.612c0.034,0.016,0.124,0.034,0.158,0.051
			c0.017,0,0.07,0,0.086,0.017c0.051,0.017,0.138,0.051,0.172,0.086c0.395,0.291,0.078,0.583,0.181,0.892
			c0.309,0.96,0.451,1.921,0.707,2.899c0.172,0.48,0.344,0.961,0.482,1.44c0.086,0.19,0.174,0.395,0.276,0.584
			c-3.346-25.337-25.215-44.91-51.479-44.91c-28.578,0-52.33,23.176-52.33,51.754c0,0.498-0.747,0.995-0.747,1.492v0.052
			c0,1.372,0.987,2.709,1.278,4.014c-0.05-0.823,0.117-1.681,0.117-2.522c0-0.497,0.059-1.081,0.076-1.578
			c0.069,2.179,0.304,4.271,0.629,6.313c1.013,4.426,2.082,8.612,3.866,12.986c-1.835-4.374-3.127-8.56-3.831-12.986
			c-0.17-0.721-0.321-1.458-0.493-2.213c1.304,27.429,23.985,49.25,51.725,49.25c27.344,0,49.817-21.219,51.687-48.118
			c-0.052,0.189-0.102,0.378-0.153,0.549c-0.824,5.061-2.676,9.777-4.854,14.804c2.178-5.027,3.378-9.743,4.854-14.804
			c0.103-0.549,0.171-1.098,0.24-1.646c-0.017,0.36-0.225,0.737-0.276,1.098c0.103-0.361,0.137-0.721,0.137-1.098
			c0,0,0-0.018,0-0.034c0-0.823-0.051-1.681-0.051-2.522c0-0.497,0.051-0.995,0.051-1.492V411.938z M189.938,398h0.017
			c0,0-1.955-0.112-1.955-0.095c0-0.017,0-0.034,0-0.034c0,0.069,1.072,0.154,1.107,0.222c0.016,0.018,0.527,0.052,0.527,0.069
			c0.052,0.086,0.349,0.155,0.383,0.257c0.069,0.138,0.278,0.275,0.33,0.413c0.017,0.016,0.096,0.034,0.096,0.051
			s0.047,0.034,0.065,0.068c0.017,0.034,0.049,0.086,0.083,0.121c0,0.034,0.025,0.051,0.042,0.085c0,0.018,0.021,0.034,0.021,0.068
			c0.017,0.018,0.019,0.035,0.036,0.069c0.034,0.051,0.053,0.12,0.087,0.172c0.018,0.017,0.018,0.035,0.034,0.051
			c0.24,0.55,0.481,1.115,0.687,1.699c-0.206-0.515-0.413-1.047-0.653-1.544c0.052,0.154,0.103,0.309,0.172,0.462
			c0.171,0.463,0.344,0.961,0.481,1.355c0.017,0.069,0.034,0.121,0.051,0.172c0.034,0.052,0.05,0.103,0.068,0.137
			c0.051,0.068,0.085,0.137,0.104,0.241c0.017,0.016,0.034,0.051,0.034,0.068c0.017,0.051,0.035,0.085,0.035,0.137
			c0.016,0.033,0.034,0.085,0.034,0.136c0.034,0.137,0.085,0.258,0.103,0.395c0.016,0.018,0.051,0.034,0.067,0.034l0.018,0.018
			c0.068,0.051,0.137,0.103,0.137,0.137l0.017,0.017c-0.051-0.206-0.085-0.395-0.154-0.601c0.223,0.722,0.75,1.408,0.871,2.145
			c0.017,0.068,0.116,0.155,0.116,0.224v0.051c0,0.018,0,0.018,0,0.034c0,0.017,0,0.017,0,0.035c0,0.479,0.112,1.012,0.129,1.509
			c0,0.035-0.129,0.086-0.129,0.121c0,0,0,0,0,0.017v0.137c0-0.018,0-0.035,0-0.052v1.784c0-0.583-0.116-1.166-0.218-1.732
			c-0.018-0.137-0.083-0.291-0.101-0.429c-0.069-0.481-0.145-0.96-0.231-1.424c-0.137-0.686-0.303-1.372-0.507-2.024
			c-0.036-0.017-0.059-0.051-0.076-0.069c-0.034-0.206,0.247-0.395,0.179-0.6c-0.085-0.292-0.044-0.583-0.044-0.875v-0.017
			c0-0.584-0.026-1.149-0.265-1.699c-0.035-0.085,0.265-0.189,0.265-0.274v-0.018c0-0.119-0.79-0.24-0.842-0.342
			c0-0.017-0.352-0.035-0.37-0.051c-0.017-0.035-0.203-0.069-0.219-0.104c-0.018-0.017-0.101-0.017-0.118-0.034
			c-0.018-0.035-0.094-0.271-0.128-0.305c-0.102-0.102-0.23-0.389-0.333-0.389H188v0.385c0-0.068-0.214-0.275-0.214-0.309
			l0.214,0.188c0-0.069,0-0.103,0-0.103s0-0.017,0-0.034c0,0,0-0.103,0-0.188v-0.017C188,397.905,189.955,398,189.938,398z
			 M193.691,418.987c-0.034,1.715-0.169,1.951-0.272,2.947c-0.018,0.086-0.068,0.065-0.084,0.065h0.309
			c-0.257,7-1.682,12.046-4.22,17.364c-0.017,0.05-0.051,0.207-0.068,0.257c-0.223,0.516-0.481,1.065-0.737,1.563l-6.364-3.645
			l-1.854,3.22l6.33,3.661c-1.732,2.692-3.722,5.218-6.021,7.534c-2.368,2.333-4.906,4.393-7.634,6.126l-3.619-6.312l-3.157,1.852
			l3.422,6.296c-5.712,2.985-11.722,4.701-18.722,4.974V457h-3v7.891c-7-0.273-13.228-1.972-18.94-4.974l3.309-6.296l-3.199-1.852
			l-3.625,6.313c-2.727-1.734-5.294-3.792-7.645-6.124c-2.314-2.316-4.354-4.873-6.051-7.548l6.348-3.654l-1.851-3.225l-6.347,3.637
			c-0.257-0.498-0.514-1.804-0.738-1.804c-2.573-5.147-4.03-10.364-4.306-17.364h0.241c-0.12,0-0.189-1-0.241-3H104v-0.082
			c0-0.068,0.052-0.171,0-0.257c-0.053-0.087,0-0.155,0-0.223v-0.069c0-1.132,1.025-0.37,1.041-3.37h0.275l0,0
			c0,0-0.111-0.769-0.061-1.284c-0.016,0.515-0.729,1.187-0.749,1.702c0.02-0.515-0.506-0.908-0.506-1.423v0.223
			c0,0.446,0,0.893,0,1.338v-1.63c0-6.039,2.7-11.784,5.461-17.051l6.555,3.671l2.018-3.208l-6.249-3.653
			c1.699-2.676,3.782-5.215,6.098-7.531c2.351-2.333,4.978-4.392,7.706-6.124l3.698,6.313l3.317-1.854l-3.548-6.313
			c5.713-3.002,11.944-4.683,18.944-4.958V382h3v-8.781c7,0.275,13.01,1.99,18.722,4.958l-3.701,6.313l3.287,1.854l3.694-6.313
			c2.727,1.732,5.303,3.791,7.67,6.124c2.298,2.316,4.315,4.837,6.047,7.531l-6.325,3.653l1.838,3.208l6.447-3.671
			c2.007,3.843,3.319,7.943,4.319,12.232v-0.583c0,0.6,0.16,1.217,0.194,1.835c0.068,0.6,0.202,1.218,0.237,1.835
			c-0.12-1.046-0.431-2.076-0.431-3.087v0.137c0,0.378,0,0.737,0.034,1.115c0.035,0.6-0.034,1.218-0.034,1.835v0.137
			c0,1.029,0.592,1.668,0.644,2.668H193v0.832C193,416.843,193.657,417.271,193.691,418.987z"/>
		<path fill="#FFFFFF" d="M105.076,413.995c-0.017,0.515-0.017,1.047-0.035,1.562v0.137h-0.085v-0.137
			C104.973,415.042,105.025,414.51,105.076,413.995z"/>
		<path fill="#FFFFFF" d="M98.146,425.3c-0.171-0.721-0.326-1.458-0.499-2.213c-0.05-0.823-0.067-1.681-0.067-2.522
			c0-0.497-0.034-1.081-0.018-1.578C97.631,421.167,97.82,423.259,98.146,425.3z"/>
		<rect x="104.956" y="415.557" fill="#FFFFFF" width="0.085" height="0.137"/>
		<path fill="#FFFFFF" d="M105.076,413.995c-0.017,0.515-0.017,1.047-0.035,1.562v0.137h-0.085v-0.137
			C104.973,415.042,105.025,414.51,105.076,413.995z"/>
		<path fill="#FFFFFF" d="M111,419v3h-5.804c-0.12,0-0.189-1-0.241-3H111z"/>
		<path fill="#FFFFFF" d="M98.146,425.3c-0.171-0.721-0.326-1.458-0.499-2.213c-0.05-0.823-0.067-1.681-0.067-2.522
			c0-0.497-0.034-1.081-0.018-1.578C97.631,421.167,97.82,423.259,98.146,425.3z"/>
	</g>
	<g>
		<g>
			<path fill-rule="evenodd" clip-rule="evenodd" fill="#FFFFFF" d="M1365.763,420.438c-8.613,0.005-17.229,0.004-25.84,0.026
				c-0.726,0.002-0.925-0.249-1.006-0.974c-0.307-2.802-0.674-5.6-1.103-8.387c-0.11-0.711,0.007-0.999,0.698-1.215
				c7.195-2.25,14.385-4.517,21.564-6.816c0.779-0.25,0.983,0.118,1.227,0.697c2.03,4.797,3.434,9.772,4.286,14.907
				c0.036,0.214,0.112,0.42,0.173,0.63C1365.763,419.685,1365.763,420.062,1365.763,420.438z"/>
			<path fill-rule="evenodd" clip-rule="evenodd" fill="#FFFFFF" d="M1312.178,367.798c0.993,0.124,1.984,0.242,2.976,0.376
				c0.389,0.055,0.777,0.145,1.258,0.236c-0.24,0.756-0.44,1.411-0.658,2.061c-1.322,3.963-2.664,7.917-3.955,11.89
				c-0.233,0.72-0.513,0.857-1.27,0.72c-2.773-0.505-5.559-0.934-8.353-1.314c-0.706-0.096-0.985-0.286-0.979-1.019
				c0.041-3.833,0.05-7.666,0.044-11.498c-0.003-0.71,0.273-1.019,0.977-1.078c1.059-0.089,2.111-0.246,3.166-0.374
				C1307.649,367.798,1309.913,367.798,1312.178,367.798z"/>
			<path fill-rule="evenodd" clip-rule="evenodd" fill="#FFFFFF" d="M1260.854,408.93c0.105-0.289,0.212-0.577,0.35-0.959
				c0.597,0.195,1.177,0.332,1.703,0.581c0.191,0.093,0.417,0.498,0.362,0.684c-0.936,3.231-1.461,6.522-1.738,9.91
				c-0.225-1.456-0.45-2.912-0.677-4.367C1260.854,412.83,1260.854,410.879,1260.854,408.93z"/>
			<path fill-rule="evenodd" clip-rule="evenodd" fill="#FFFFFF" d="M1328.584,393.969c-1.505,1.596-2.921,3.098-4.336,4.603
				c-3.849,4.099-7.7,8.197-11.549,12.298c-1.848,1.972-3.682,3.958-5.547,5.914c-0.453,0.476-0.597,0.898-0.431,1.58
				c0.905,3.748-1.287,7.271-5.043,8.202c-3.544,0.88-7.165-1.347-8.105-4.984c-1.239-4.797,3.256-9.382,8.067-8.174
				c0.852,0.213,1.386,0.044,1.997-0.525c4.775-4.458,9.578-8.887,14.378-13.321c2.398-2.218,4.806-4.424,7.213-6.633
				c0.347-0.317,0.703-0.62,1.167-1.025c-0.611-0.554-1.077-1.058-1.622-1.45c-0.604-0.436-0.604-0.792-0.171-1.373
				c2.938-3.925,5.848-7.873,8.765-11.814c0.503-0.683,0.966-1.4,1.527-2.032c0.175-0.199,0.708-0.335,0.915-0.218
				c4.487,2.53,8.599,5.562,12.209,9.25c0.04,0.04,0.045,0.115,0.104,0.293c-1.309,0.947-2.638,1.928-3.986,2.884
				c-4.021,2.859-8.049,5.707-12.076,8.559c-1.068,0.757-1.063,0.749-1.914-0.27C1329.668,395.16,1329.159,394.616,1328.584,393.969
				z"/>
			<path fill-rule="evenodd" clip-rule="evenodd" fill="#FFFFFF" d="M1359.466,400.078c-2.361,0.756-4.627,1.489-6.898,2.207
				c-4.819,1.525-9.639,3.042-14.457,4.565c-1.358,0.429-1.304,0.41-1.932-0.876c-1.043-2.139-2.133-4.257-3.264-6.352
				c-0.297-0.554-0.305-0.848,0.229-1.227c4.54-3.205,9.066-6.435,13.596-9.659c0.924-0.654,1.853-1.299,2.755-1.979
				c0.399-0.3,0.686-0.322,1.04,0.074c3.458,3.857,6.373,8.089,8.759,12.685C1359.362,399.652,1359.387,399.812,1359.466,400.078z"
				/>
			<path fill-rule="evenodd" clip-rule="evenodd" fill="#FFFFFF" d="M1313.35,383.824c0.435-1.366,0.845-2.709,1.294-4.041
				c1.12-3.365,2.28-6.718,3.377-10.091c0.256-0.787,0.603-1.025,1.433-0.846c4.499,0.979,8.841,2.408,12.982,4.428
				c0.217,0.108,0.42,0.25,0.704,0.421c-0.17,0.276-0.295,0.519-0.454,0.736c-3.228,4.37-6.474,8.723-9.672,13.114
				c-0.55,0.756-0.931,0.763-1.739,0.317c-2.387-1.316-4.854-2.486-7.285-3.714C1313.797,384.052,1313.605,383.956,1313.35,383.824z
				"/>
			<path fill-rule="evenodd" clip-rule="evenodd" fill="#FFFFFF" d="M1299.552,370.035c0,3.52-0.024,7.042,0.015,10.561
				c0.009,0.849-0.271,1.074-1.113,1.183c-2.795,0.359-5.585,0.801-8.356,1.329c-0.839,0.158-1.172,0.027-1.416-0.787
				c-0.836-2.768-1.719-5.521-2.621-8.268c-0.218-0.658-0.121-1.001,0.549-1.316c3.744-1.766,7.633-3.082,11.685-3.912
				C1299.668,368.544,1299.717,368.597,1299.552,370.035z"/>
			<path fill-rule="evenodd" clip-rule="evenodd" fill="#FFFFFF" d="M1277.993,388.637c-1.448-2.028-2.883-4.013-4.274-6.025
				c-0.123-0.179-0.092-0.657,0.059-0.807c3.143-3.157,6.683-5.782,10.673-7.934c0.145,0.306,0.271,0.516,0.344,0.742
				c0.89,2.784,1.763,5.574,2.659,8.354c0.177,0.537,0.143,0.874-0.458,1.09c-3.063,1.099-5.911,2.63-8.615,4.434
				C1278.308,388.542,1278.208,388.559,1277.993,388.637z"/>
			<path fill-rule="evenodd" clip-rule="evenodd" fill="#FFFFFF" d="M1272.555,383.05c1.502,2.097,2.917,4.052,4.287,6.038
				c0.093,0.132-0.074,0.602-0.253,0.74c-2.561,1.964-4.785,4.259-6.787,6.776c-0.319,0.401-0.584,0.497-1.012,0.174
				c-1.103-0.833-2.237-1.625-3.324-2.479c-0.172-0.135-0.289-0.583-0.199-0.771C1267.133,389.729,1269.523,386.287,1272.555,383.05
				z"/>
			<path fill-rule="evenodd" clip-rule="evenodd" fill="#FFFFFF" d="M1268.693,397.937c-0.903,1.549-1.805,2.949-2.556,4.424
				c-0.782,1.535-1.444,3.135-2.101,4.729c-0.239,0.582-0.491,0.76-1.125,0.561c-1.791-0.565-1.818-0.541-1.507-2.396
				c0.589-3.514,1.563-6.911,3.207-10.312C1266,395.96,1267.317,396.929,1268.693,397.937z"/>
			<path fill-rule="evenodd" clip-rule="evenodd" fill="#FFFFFF" d="M1327.519,412.345c-0.174-0.424-0.402-0.832-0.485-1.268
				c-0.04-0.211,0.14-0.629,0.31-0.689c1.859-0.649,3.733-1.264,5.619-1.827c0.176-0.054,0.612,0.265,0.686,0.488
				c0.119,0.391,0.177,1.172,0.051,1.218C1331.733,410.989,1329.734,411.621,1327.519,412.345z"/>
			<path fill-rule="evenodd" clip-rule="evenodd" fill="#FFFFFF" d="M1272.836,412.345c-2.097-0.674-4.06-1.309-6.024-1.932
				c-0.671-0.212-0.428-0.669-0.279-1.058c0.151-0.39,0.123-1.043,0.87-0.803c1.819,0.586,3.639,1.163,5.44,1.796
				c0.207,0.074,0.421,0.493,0.407,0.739C1273.228,411.472,1273.013,411.847,1272.836,412.345z"/>
			<path fill-rule="evenodd" clip-rule="evenodd" fill="#FFFFFF" d="M1301.08,388.46c0,0.876-0.008,1.752,0.003,2.627
				c0.008,0.461-0.084,0.843-0.646,0.792c-0.49-0.044-1.231,0.167-1.256-0.613c-0.059-1.937-0.043-3.876,0.003-5.813
				c0.021-0.722,0.674-0.482,1.101-0.515c0.433-0.033,0.824,0.018,0.817,0.615c-0.011,0.969-0.002,1.939-0.002,2.908
				C1301.093,388.46,1301.087,388.46,1301.08,388.46z"/>
			<path fill-rule="evenodd" clip-rule="evenodd" fill="#FFFFFF" d="M1282.604,397.755c-1.307-1.799-2.619-3.611-3.973-5.481
				c0.538-0.406,0.978-0.738,1.539-1.163c0.921,1.259,1.796,2.458,2.672,3.662c0.164,0.228,0.313,0.467,0.479,0.695
				C1284.32,396.845,1284.303,396.905,1282.604,397.755z"/>
			<path fill-rule="evenodd" clip-rule="evenodd" fill="#FFFFFF" d="M1316.119,396.623c1.347-1.861,2.633-3.636,3.985-5.509
				c0.527,0.384,0.97,0.708,1.527,1.117c-0.788,1.11-1.541,2.174-2.301,3.235c-0.366,0.51-0.805,0.98-1.099,1.529
				c-0.43,0.797-0.863,0.91-1.474,0.215C1316.597,397.027,1316.398,396.877,1316.119,396.623z"/>
			<path fill-rule="evenodd" clip-rule="evenodd" fill="#FFFFFF" d="M1305.02,385.447c0.417,0.03,0.745,0.054,1.277,0.09
				c-0.229,1.375-0.424,2.681-0.682,3.975c-0.024,0.134-0.47,0.316-0.645,0.257c-0.222-0.075-0.542-0.395-0.522-0.573
				C1304.592,387.965,1304.811,386.744,1305.02,385.447z"/>
			<path fill-rule="evenodd" clip-rule="evenodd" fill="#FFFFFF" d="M1332.012,404.846c-0.2,0.081-0.409,0.147-0.604,0.243
				c-0.977,0.488-1.941,1.006-2.94,1.452c-0.188,0.087-0.702-0.069-0.722-0.168c-0.049-0.307-0.036-0.829,0.145-0.935
				c0.971-0.564,1.982-1.075,3.021-1.491c0.228-0.09,0.638,0.282,0.961,0.442C1331.919,404.542,1331.968,404.694,1332.012,404.846z"
				/>
			<path fill-rule="evenodd" clip-rule="evenodd" fill="#FFFFFF" d="M1309.147,390.584c0.374-1.16,0.728-2.354,1.165-3.517
				c0.063-0.176,0.565-0.34,0.776-0.263c0.193,0.069,0.422,0.51,0.366,0.718c-0.231,0.908-0.556,1.792-0.858,2.681
				C1310.256,391.208,1310.201,391.221,1309.147,390.584z"/>
			<path fill-rule="evenodd" clip-rule="evenodd" fill="#FFFFFF" d="M1295.884,389.418c-0.158,0.101-0.396,0.372-0.635,0.371
				c-0.212-0.002-0.57-0.27-0.613-0.474c-0.227-1.04-0.412-2.093-0.527-3.15c-0.02-0.209,0.301-0.614,0.501-0.645
				c0.224-0.033,0.675,0.226,0.716,0.424C1295.552,387.013,1295.685,388.104,1295.884,389.418z"/>
			<path fill-rule="evenodd" clip-rule="evenodd" fill="#FFFFFF" d="M1275.425,401.523c-0.343,1.023-0.785,1.132-1.491,0.529
				c-0.593-0.509-1.229-0.979-1.896-1.383c-0.778-0.475-0.844-0.919,0.021-1.552
				C1273.146,399.896,1274.274,400.704,1275.425,401.523z"/>
			<path fill-rule="evenodd" clip-rule="evenodd" fill="#FFFFFF" d="M1324.866,401.584c1.126-0.824,2.252-1.648,3.449-2.524
				c0.25,0.335,0.466,0.622,0.744,0.994c-1.086,0.797-2.085,1.594-3.162,2.263c-0.204,0.125-0.723-0.259-1.094-0.407
				C1324.825,401.801,1324.845,401.692,1324.866,401.584z"/>
			<path fill-rule="evenodd" clip-rule="evenodd" fill="#FFFFFF" d="M1313.712,392.355c0.606-1.226,1.213-2.447,1.807-3.644
				c1.22,0.266,1.273,0.366,0.776,1.33c-0.386,0.748-0.8,1.484-1.164,2.242C1314.78,393.005,1314.36,392.995,1313.712,392.355z"/>
			<path fill-rule="evenodd" clip-rule="evenodd" fill="#FFFFFF" d="M1285.529,392.986c-0.64-1.255-1.257-2.47-1.872-3.675
				c0.637-0.696,1.07-0.698,1.449,0.124c0.34,0.735,0.705,1.466,1.143,2.145C1286.77,392.386,1286.488,392.757,1285.529,392.986z"/>
			<path fill-rule="evenodd" clip-rule="evenodd" fill="#FFFFFF" d="M1331.122,416.014c-0.125-0.171-0.411-0.392-0.433-0.635
				c-0.019-0.203,0.243-0.583,0.436-0.624c1.064-0.233,2.141-0.415,3.226-0.54c0.196-0.021,0.604,0.288,0.614,0.461
				c0.012,0.242-0.216,0.674-0.412,0.719C1333.492,415.642,1332.412,415.794,1331.122,416.014z"/>
			<path fill-rule="evenodd" clip-rule="evenodd" fill="#FFFFFF" d="M1289.822,386.665c0.398,1.161,0.777,2.288,1.182,3.407
				c0.187,0.521-0.027,0.836-0.507,0.86c-0.225,0.011-0.591-0.253-0.679-0.478c-0.336-0.845-0.528-1.749-0.875-2.588
				C1288.599,387.031,1288.86,386.703,1289.822,386.665z"/>
			<path fill-rule="evenodd" clip-rule="evenodd" fill="#FFFFFF" d="M1265.294,415.358c-0.112-0.983,0.188-1.313,1.052-1.121
				c0.917,0.202,1.863,0.29,2.774,0.509c0.208,0.05,0.503,0.474,0.461,0.653c-0.054,0.223-0.439,0.546-0.646,0.522
				C1267.729,415.785,1266.529,415.559,1265.294,415.358z"/>
			<path fill-rule="evenodd" clip-rule="evenodd" fill="#FFFFFF" d="M1274.829,395.652c0.198-0.222,0.439-0.494,0.721-0.809
				c1.115,1.132,2.077,2.108,3.036,3.078c-0.559,1-0.699,1.025-1.469,0.256c-0.73-0.733-1.452-1.473-2.175-2.213
				C1274.903,395.924,1274.9,395.853,1274.829,395.652z"/>
			<path fill-rule="evenodd" clip-rule="evenodd" fill="#FFFFFF" d="M1269.117,403.766c1.085,0.55,2.192,1.072,3.254,1.664
				c0.83,0.46,0.138,0.847-0.135,1.349c-1.15-0.596-2.286-1.13-3.346-1.779c-0.204-0.124-0.12-0.709-0.168-1.083
				C1268.854,403.867,1268.986,403.816,1269.117,403.766z"/>
			<path fill-rule="evenodd" clip-rule="evenodd" fill="#FFFFFF" d="M1267.066,420.868c-0.53,0-1.07,0.059-1.588-0.026
				c-0.246-0.041-0.443-0.36-0.663-0.554c0.227-0.219,0.437-0.613,0.675-0.629c1.026-0.071,2.062-0.064,3.09-0.004
				c0.224,0.013,0.429,0.362,0.645,0.555c-0.221,0.219-0.413,0.576-0.665,0.629C1268.082,420.939,1267.564,420.868,1267.066,420.868
				z"/>
			<path fill-rule="evenodd" clip-rule="evenodd" fill="#FFFFFF" d="M1333.263,420.865c-0.534,0.002-1.078,0.063-1.596-0.025
				c-0.236-0.042-0.421-0.382-0.631-0.587c0.209-0.208,0.406-0.581,0.623-0.593c1.066-0.063,2.137-0.063,3.201,0.002
				c0.198,0.011,0.488,0.395,0.523,0.639c0.027,0.158-0.314,0.506-0.522,0.54C1334.339,420.917,1333.797,420.865,1333.263,420.865z"
				/>
		</g>
		<g>
			<path fill-rule="evenodd" clip-rule="evenodd" fill="#FFFFFF" d="M1365.763,418.747c-8.613-0.006-17.229-0.005-25.84-0.026
				c-0.726-0.001-0.925,0.25-1.006,0.974c-0.307,2.802-0.674,5.599-1.103,8.387c-0.11,0.712,0.007,0.999,0.698,1.216
				c7.195,2.25,14.385,4.517,21.564,6.816c0.779,0.25,0.983-0.119,1.227-0.697c2.03-4.797,3.434-9.773,4.286-14.907
				c0.036-0.214,0.112-0.421,0.173-0.632C1365.763,419.5,1365.763,419.123,1365.763,418.747z"/>
			<path fill-rule="evenodd" clip-rule="evenodd" fill="#FFFFFF" d="M1312.178,471.387c0.993-0.123,1.984-0.241,2.976-0.375
				c0.389-0.055,0.777-0.145,1.258-0.236c-0.24-0.758-0.44-1.412-0.658-2.061c-1.322-3.962-2.664-7.918-3.955-11.89
				c-0.233-0.721-0.513-0.858-1.27-0.721c-2.773,0.506-5.559,0.935-8.353,1.314c-0.706,0.096-0.985,0.287-0.979,1.02
				c0.041,3.833,0.05,7.667,0.044,11.498c-0.003,0.71,0.273,1.019,0.977,1.077c1.059,0.089,2.111,0.246,3.166,0.374
				C1307.649,471.387,1309.913,471.387,1312.178,471.387z"/>
			<path fill-rule="evenodd" clip-rule="evenodd" fill="#FFFFFF" d="M1260.854,430.255c0.105,0.289,0.212,0.577,0.35,0.959
				c0.597-0.195,1.177-0.332,1.703-0.581c0.191-0.093,0.417-0.499,0.362-0.684c-0.936-3.231-1.461-6.523-1.738-9.91
				c-0.225,1.456-0.45,2.912-0.677,4.367C1260.854,426.355,1260.854,428.306,1260.854,430.255z"/>
			<path fill-rule="evenodd" clip-rule="evenodd" fill="#FFFFFF" d="M1328.584,445.216c-1.505-1.597-2.921-3.098-4.336-4.603
				c-3.849-4.098-7.7-8.197-11.549-12.297c-1.848-1.972-3.682-3.958-5.547-5.914c-0.453-0.476-0.597-0.898-0.431-1.58
				c0.905-3.748-1.287-7.271-5.043-8.202c-3.544-0.879-7.165,1.348-8.105,4.984c-1.239,4.797,3.256,9.382,8.067,8.174
				c0.852-0.213,1.386-0.043,1.997,0.525c4.775,4.458,9.578,8.888,14.378,13.321c2.398,2.218,4.806,4.424,7.213,6.634
				c0.347,0.317,0.703,0.62,1.167,1.025c-0.611,0.554-1.077,1.059-1.622,1.45c-0.604,0.435-0.604,0.792-0.171,1.373
				c2.938,3.925,5.848,7.872,8.765,11.815c0.503,0.682,0.966,1.4,1.527,2.032c0.175,0.199,0.708,0.335,0.915,0.217
				c4.487-2.53,8.599-5.561,12.209-9.25c0.04-0.04,0.045-0.115,0.104-0.294c-1.309-0.947-2.638-1.928-3.986-2.883
				c-4.021-2.86-8.049-5.707-12.076-8.56c-1.068-0.757-1.063-0.749-1.914,0.27C1329.668,444.025,1329.159,444.569,1328.584,445.216z
				"/>
			<path fill-rule="evenodd" clip-rule="evenodd" fill="#FFFFFF" d="M1359.466,439.106c-2.361-0.757-4.627-1.488-6.898-2.207
				c-4.819-1.525-9.639-3.041-14.457-4.564c-1.358-0.429-1.304-0.41-1.932,0.875c-1.043,2.139-2.133,4.258-3.264,6.352
				c-0.297,0.553-0.305,0.848,0.229,1.227c4.54,3.206,9.066,6.436,13.596,9.659c0.924,0.654,1.853,1.299,2.755,1.979
				c0.399,0.3,0.686,0.322,1.04-0.074c3.458-3.856,6.373-8.089,8.759-12.685C1359.362,439.533,1359.387,439.374,1359.466,439.106z"
				/>
			<path fill-rule="evenodd" clip-rule="evenodd" fill="#FFFFFF" d="M1313.35,455.362c0.435,1.364,0.845,2.709,1.294,4.041
				c1.12,3.364,2.28,6.717,3.377,10.09c0.256,0.788,0.603,1.026,1.433,0.846c4.499-0.979,8.841-2.408,12.982-4.427
				c0.217-0.109,0.42-0.251,0.704-0.422c-0.17-0.276-0.295-0.52-0.454-0.736c-3.228-4.37-6.474-8.723-9.672-13.114
				c-0.55-0.756-0.931-0.764-1.739-0.317c-2.387,1.315-4.854,2.486-7.285,3.713C1313.797,455.133,1313.605,455.229,1313.35,455.362z
				"/>
			<path fill-rule="evenodd" clip-rule="evenodd" fill="#FFFFFF" d="M1299.552,469.15c0-3.521-0.024-7.042,0.015-10.562
				c0.009-0.849-0.271-1.075-1.113-1.184c-2.795-0.359-5.585-0.801-8.356-1.328c-0.839-0.159-1.172-0.027-1.416,0.785
				c-0.836,2.768-1.719,5.521-2.621,8.269c-0.218,0.658-0.121,1.001,0.549,1.316c3.744,1.766,7.633,3.081,11.685,3.912
				C1299.668,470.641,1299.717,470.587,1299.552,469.15z"/>
			<path fill-rule="evenodd" clip-rule="evenodd" fill="#FFFFFF" d="M1277.993,450.548c-1.448,2.028-2.883,4.013-4.274,6.025
				c-0.123,0.178-0.092,0.657,0.059,0.807c3.143,3.157,6.683,5.782,10.673,7.934c0.145-0.307,0.271-0.515,0.344-0.741
				c0.89-2.785,1.763-5.575,2.659-8.355c0.177-0.537,0.143-0.874-0.458-1.09c-3.063-1.099-5.911-2.631-8.615-4.435
				C1278.308,450.642,1278.208,450.626,1277.993,450.548z"/>
			<path fill-rule="evenodd" clip-rule="evenodd" fill="#FFFFFF" d="M1272.555,456.135c1.502-2.097,2.917-4.052,4.287-6.038
				c0.093-0.132-0.074-0.603-0.253-0.741c-2.561-1.964-4.785-4.259-6.787-6.776c-0.319-0.401-0.584-0.498-1.012-0.174
				c-1.103,0.833-2.237,1.625-3.324,2.479c-0.172,0.135-0.289,0.583-0.199,0.771
				C1267.133,449.457,1269.523,452.898,1272.555,456.135z"/>
			<path fill-rule="evenodd" clip-rule="evenodd" fill="#FFFFFF" d="M1268.693,441.247c-0.903-1.548-1.805-2.947-2.556-4.423
				c-0.782-1.536-1.444-3.135-2.101-4.729c-0.239-0.582-0.491-0.76-1.125-0.562c-1.791,0.565-1.818,0.542-1.507,2.396
				c0.589,3.514,1.563,6.91,3.207,10.311C1266,443.226,1267.317,442.256,1268.693,441.247z"/>
			<path fill-rule="evenodd" clip-rule="evenodd" fill="#FFFFFF" d="M1327.519,426.84c-0.174,0.423-0.402,0.832-0.485,1.269
				c-0.04,0.211,0.14,0.629,0.31,0.689c1.859,0.648,3.733,1.264,5.619,1.827c0.176,0.053,0.612-0.265,0.686-0.488
				c0.119-0.391,0.177-1.171,0.051-1.218C1331.733,428.196,1329.734,427.565,1327.519,426.84z"/>
			<path fill-rule="evenodd" clip-rule="evenodd" fill="#FFFFFF" d="M1272.836,426.84c-2.097,0.674-4.06,1.31-6.024,1.933
				c-0.671,0.211-0.428,0.669-0.279,1.058c0.151,0.389,0.123,1.043,0.87,0.803c1.819-0.586,3.639-1.163,5.44-1.796
				c0.207-0.074,0.421-0.493,0.407-0.739C1273.228,427.713,1273.013,427.338,1272.836,426.84z"/>
			<path fill-rule="evenodd" clip-rule="evenodd" fill="#FFFFFF" d="M1301.08,450.726c0-0.876-0.008-1.753,0.003-2.627
				c0.008-0.461-0.084-0.842-0.646-0.792c-0.49,0.044-1.231-0.167-1.256,0.614c-0.059,1.936-0.043,3.876,0.003,5.813
				c0.021,0.721,0.674,0.482,1.101,0.515c0.433,0.033,0.824-0.018,0.817-0.614c-0.011-0.969-0.002-1.939-0.002-2.908
				C1301.093,450.726,1301.087,450.726,1301.08,450.726z"/>
			<path fill-rule="evenodd" clip-rule="evenodd" fill="#FFFFFF" d="M1282.604,441.43c-1.307,1.799-2.619,3.61-3.973,5.482
				c0.538,0.405,0.978,0.737,1.539,1.162c0.921-1.258,1.796-2.458,2.672-3.661c0.164-0.229,0.313-0.467,0.479-0.695
				C1284.32,442.34,1284.303,442.279,1282.604,441.43z"/>
			<path fill-rule="evenodd" clip-rule="evenodd" fill="#FFFFFF" d="M1316.119,442.562c1.347,1.861,2.633,3.636,3.985,5.508
				c0.527-0.384,0.97-0.708,1.527-1.117c-0.788-1.11-1.541-2.173-2.301-3.235c-0.366-0.51-0.805-0.98-1.099-1.528
				c-0.43-0.797-0.863-0.91-1.474-0.215C1316.597,442.157,1316.398,442.308,1316.119,442.562z"/>
			<path fill-rule="evenodd" clip-rule="evenodd" fill="#FFFFFF" d="M1305.02,453.738c0.417-0.03,0.745-0.054,1.277-0.091
				c-0.229-1.375-0.424-2.68-0.682-3.975c-0.024-0.134-0.47-0.316-0.645-0.256c-0.222,0.075-0.542,0.394-0.522,0.573
				C1304.592,451.219,1304.811,452.44,1305.02,453.738z"/>
			<path fill-rule="evenodd" clip-rule="evenodd" fill="#FFFFFF" d="M1332.012,434.338c-0.2-0.081-0.409-0.146-0.604-0.242
				c-0.977-0.487-1.941-1.006-2.94-1.453c-0.188-0.086-0.702,0.07-0.722,0.169c-0.049,0.307-0.036,0.829,0.145,0.934
				c0.971,0.565,1.982,1.076,3.021,1.491c0.228,0.091,0.638-0.281,0.961-0.441C1331.919,434.644,1331.968,434.49,1332.012,434.338z"
				/>
			<path fill-rule="evenodd" clip-rule="evenodd" fill="#FFFFFF" d="M1309.147,448.6c0.374,1.161,0.728,2.354,1.165,3.518
				c0.063,0.176,0.565,0.34,0.776,0.264c0.193-0.07,0.422-0.511,0.366-0.719c-0.231-0.908-0.556-1.792-0.858-2.682
				C1310.256,447.977,1310.201,447.963,1309.147,448.6z"/>
			<path fill-rule="evenodd" clip-rule="evenodd" fill="#FFFFFF" d="M1295.884,449.767c-0.158-0.102-0.396-0.373-0.635-0.372
				c-0.212,0.002-0.57,0.27-0.613,0.475c-0.227,1.039-0.412,2.093-0.527,3.15c-0.02,0.208,0.301,0.614,0.501,0.645
				c0.224,0.033,0.675-0.227,0.716-0.425C1295.552,452.172,1295.685,451.081,1295.884,449.767z"/>
			<path fill-rule="evenodd" clip-rule="evenodd" fill="#FFFFFF" d="M1275.425,437.661c-0.343-1.022-0.785-1.132-1.491-0.529
				c-0.593,0.51-1.229,0.979-1.896,1.384c-0.778,0.474-0.844,0.92,0.021,1.552C1273.146,439.289,1274.274,438.481,1275.425,437.661z
				"/>
			<path fill-rule="evenodd" clip-rule="evenodd" fill="#FFFFFF" d="M1324.866,437.602c1.126,0.823,2.252,1.647,3.449,2.523
				c0.25-0.334,0.466-0.622,0.744-0.995c-1.086-0.796-2.085-1.593-3.162-2.262c-0.204-0.126-0.723,0.259-1.094,0.407
				C1324.825,437.383,1324.845,437.493,1324.866,437.602z"/>
			<path fill-rule="evenodd" clip-rule="evenodd" fill="#FFFFFF" d="M1313.712,446.83c0.606,1.226,1.213,2.447,1.807,3.644
				c1.22-0.267,1.273-0.367,0.776-1.331c-0.386-0.748-0.8-1.484-1.164-2.242C1314.78,446.179,1314.36,446.19,1313.712,446.83z"/>
			<path fill-rule="evenodd" clip-rule="evenodd" fill="#FFFFFF" d="M1285.529,446.198c-0.64,1.256-1.257,2.471-1.872,3.675
				c0.637,0.696,1.07,0.698,1.449-0.124c0.34-0.734,0.705-1.466,1.143-2.145C1286.77,446.799,1286.488,446.427,1285.529,446.198z"/>
			<path fill-rule="evenodd" clip-rule="evenodd" fill="#FFFFFF" d="M1331.122,423.171c-0.125,0.171-0.411,0.392-0.433,0.635
				c-0.019,0.203,0.243,0.582,0.436,0.624c1.064,0.233,2.141,0.415,3.226,0.539c0.196,0.022,0.604-0.286,0.614-0.46
				c0.012-0.242-0.216-0.674-0.412-0.72C1333.492,423.543,1332.412,423.391,1331.122,423.171z"/>
			<path fill-rule="evenodd" clip-rule="evenodd" fill="#FFFFFF" d="M1289.822,452.52c0.398-1.161,0.777-2.287,1.182-3.407
				c0.187-0.521-0.027-0.837-0.507-0.861c-0.225-0.01-0.591,0.254-0.679,0.478c-0.336,0.845-0.528,1.749-0.875,2.589
				C1288.599,452.154,1288.86,452.481,1289.822,452.52z"/>
			<path fill-rule="evenodd" clip-rule="evenodd" fill="#FFFFFF" d="M1265.294,423.827c-0.112,0.982,0.188,1.312,1.052,1.122
				c0.917-0.203,1.863-0.291,2.774-0.509c0.208-0.051,0.503-0.474,0.461-0.653c-0.054-0.223-0.439-0.546-0.646-0.522
				C1267.729,423.4,1266.529,423.625,1265.294,423.827z"/>
			<path fill-rule="evenodd" clip-rule="evenodd" fill="#FFFFFF" d="M1274.829,443.533c0.198,0.223,0.439,0.493,0.721,0.808
				c1.115-1.131,2.077-2.107,3.036-3.077c-0.559-1-0.699-1.025-1.469-0.257c-0.73,0.733-1.452,1.473-2.175,2.213
				C1274.903,443.26,1274.9,443.333,1274.829,443.533z"/>
			<path fill-rule="evenodd" clip-rule="evenodd" fill="#FFFFFF" d="M1269.117,435.419c1.085-0.55,2.192-1.072,3.254-1.664
				c0.83-0.461,0.138-0.847-0.135-1.349c-1.15,0.596-2.286,1.131-3.346,1.779c-0.204,0.123-0.12,0.71-0.168,1.082
				C1268.854,435.318,1268.986,435.369,1269.117,435.419z"/>
			<path fill-rule="evenodd" clip-rule="evenodd" fill="#FFFFFF" d="M1267.066,418.317c-0.53,0-1.07-0.06-1.588,0.026
				c-0.246,0.041-0.443,0.359-0.663,0.553c0.227,0.22,0.437,0.614,0.675,0.629c1.026,0.072,2.062,0.065,3.09,0.004
				c0.224-0.012,0.429-0.361,0.645-0.554c-0.221-0.219-0.413-0.576-0.665-0.628C1268.082,418.245,1267.564,418.317,1267.066,418.317
				z"/>
			<path fill-rule="evenodd" clip-rule="evenodd" fill="#FFFFFF" d="M1333.263,418.319c-0.534-0.001-1.078-0.063-1.596,0.026
				c-0.236,0.043-0.421,0.382-0.631,0.587c0.209,0.208,0.406,0.582,0.623,0.593c1.066,0.064,2.137,0.064,3.201-0.001
				c0.198-0.011,0.488-0.395,0.523-0.64c0.027-0.158-0.314-0.506-0.522-0.54C1334.339,418.268,1333.797,418.319,1333.263,418.319z"
				/>
		</g>
	</g>
	<g>
		<path fill-rule="evenodd" clip-rule="evenodd" fill="#FFFFFF" d="M147.975,522.334c2.078,0,4.159,0,6.239,0
			c0.301,0.068,0.594,0.157,0.895,0.198c2.229,0.301,4.483,0.469,6.682,0.914c22.852,4.619,40.14,24.001,42.184,47.304
			c1.194,13.615-2.267,25.975-10.502,36.879c-2.263,2.994-5.073,5.57-7.63,8.332c-23.166,0-46.33,0-69.495,0
			c-0.168-0.172-0.327-0.351-0.502-0.514c-16.091-15.268-21.806-33.82-15.526-55.037c6.104-20.621,20.562-32.949,41.707-37.249
			C143.983,522.763,145.99,522.604,147.975,522.334z M151.095,612.097c0-0.006,0-0.006,0-0.007c10.576,0,21.153-0.016,31.728,0.027
			c1.142,0.002,1.94-0.322,2.713-1.138c14.039-14.728,18.422-31.885,12.156-51.263c-7.605-23.523-32.139-37.468-56.417-32.555
			c-22.047,4.46-38.66,23.864-39.442,46.274c-0.515,14.825,4.636,27.469,15.194,37.906c0.565,0.557,1.136,0.77,1.922,0.77
			C129.664,612.085,140.379,612.097,151.095,612.097z"/>
		<path fill-rule="evenodd" clip-rule="evenodd" fill="#FFFFFF" d="M180.918,603.293c6.402-7.576,9.849-16.004,10.443-25.757
			c-1.982,0-3.803,0-5.695,0c0-1.307,0-2.499,0-3.819c1.887,0,3.739,0,5.703,0c-0.465-9.811-3.841-18.309-10.117-25.872
			c-1.273,1.397-2.482,2.716-3.658,4.003c-1.043-1.078-1.899-1.961-2.745-2.837c2.057-2.087,4.24-4.3,6.418-6.51
			c17.932,16.385,19.317,47.7-0.248,66.054c-2.209-2.327-4.42-4.656-6.594-6.943c0.725-0.69,1.615-1.539,2.539-2.421
			C178.133,600.403,179.471,601.789,180.918,603.293z"/>
		<path fill-rule="evenodd" clip-rule="evenodd" fill="#FFFFFF" d="M165.52,542.073c-0.613,2.588-1.221,5.178-1.838,7.765
			c-1.524,6.431-3.066,12.859-4.558,19.299c-0.102,0.436,0.021,1.029,0.253,1.424c2.179,3.701,1.858,8.105-0.876,11.336
			c-2.64,3.121-7.069,4.227-10.858,2.713c-3.904-1.559-6.313-5.361-6.09-9.609c0.229-4.385,3.556-8.054,8.128-8.854
			c0.742-0.131,1.122-0.459,1.484-1.058c4.493-7.402,9.011-14.791,13.521-22.183c0.194-0.316,0.41-0.617,0.618-0.926
			C165.375,542.012,165.447,542.042,165.52,542.073z M156.964,575.58c-0.011-3.166-2.596-5.781-5.725-5.795
			c-3.244-0.016-5.875,2.622-5.871,5.883c0.008,3.201,2.627,5.785,5.851,5.768C154.437,581.42,156.977,578.826,156.964,575.58z"/>
		<path fill-rule="evenodd" clip-rule="evenodd" fill="#FFFFFF" d="M120.966,603.328c2.051-2.059,4.093-4.111,6.149-6.175
			c0.778,0.797,1.617,1.658,2.383,2.437c-2.042,2.019-4.117,4.07-6.215,6.145C122.632,605.059,121.798,604.193,120.966,603.328z"/>
		<path fill-rule="evenodd" clip-rule="evenodd" fill="#FFFFFF" d="M152.976,533.068c0,2.545,0,5.029,0,7.607
			c-1.221,0-2.408,0-3.675,0c0-2.502,0-5.011,0-7.607C150.461,533.068,151.652,533.068,152.976,533.068z"/>
		<path fill-rule="evenodd" clip-rule="evenodd" fill="#FFFFFF" d="M109.007,577.525c0-1.355,0-2.519,0-3.805
			c1.321,0,2.59,0,3.858,0c1.238,0,2.476,0,3.782,0c0,1.281,0,2.471,0,3.71c-0.269,0.033-0.502,0.089-0.731,0.089
			C113.639,577.526,111.363,577.525,109.007,577.525z"/>
		<path fill-rule="evenodd" clip-rule="evenodd" fill="#FFFFFF" d="M124.11,551.638c-1.382-1.362-2.782-2.743-4.162-4.104
			c0.878-0.827,1.773-1.673,2.617-2.47c1.269,1.274,2.68,2.688,4.099,4.11C125.838,549.972,124.971,550.809,124.11,551.638z"/>
	</g>
	<rect x="307" y="969" fill="#FFFFFF" width="83" height="21"/>
	<ellipse fill="#333333" cx="348.753" cy="987.599" rx="42.066" ry="13.615"/>
	<rect x="687" y="966" fill="#FFFFFF" width="81" height="21"/>
	<ellipse fill="#333333" cx="727.862" cy="984.168" rx="42.066" ry="13.615"/>
	<rect x="1059" y="969" fill="#FFFFFF" width="82" height="21"/>
	<ellipse fill="#333333" cx="1100.108" cy="987.599" rx="42.066" ry="13.615"/>
	<g>
		<path fill-rule="evenodd" clip-rule="evenodd" fill="#FFFFFF" d="M1413.291,603.447c0-85.84-0.019-171.679-0.034-257.52
			c0-23.553-14.513-38.392-37.793-38.408c-40.74-0.018-81.121-0.208-121.845-0.208c-86.287,0.051-172.572-0.311-258.634-0.311
			h-4.392c-0.31,0-0.634,0.378-0.943,0.378c-11.735-0.016-23.468,0.088-35.202,0.105c-7.256,0-14.511-0.182-21.769-0.165
			c-0.942-0.068-1.919-0.319-2.914-0.319h-23.4c-10.737,0-21.476,0.293-32.213,0.311c-1.186,0-2.351,0.122-3.535,0.137
			c-46.06-30.122-101.089-47.818-160.203-47.818c-59.063,0-114.059,18.37-160.083,47.37h-0.018c-0.583,0-1.167,0.98-1.732,1.392
			c1.338-0.274,2.659-0.565,3.98-0.993c0.035,0,0.068,0.026,0.103,0.026c-0.034,0-0.068,0.256-0.103,0.256
			c-1.321,0.429-2.642,1.319-3.98,1.319h-0.017c-0.806,0-1.613,0-2.436,0.034c-3.208,0.137-6.468-0.034-9.813-0.034h-13.448
			c-2.522,0-4.923,0.839-7.205,1.662c0.172-0.069,0.326-0.259,0.497-0.31c-0.171,0.051-0.325,0.059-0.497,0.11
			c1.51-0.601,3.07-1.137,4.701-1.549c0.531-0.12,1.08-0.285,1.646-0.405c2.95-0.617,6.09-1.201,9.4-1.218
			c6.296-0.017,12.591-0.29,18.904-0.29H506v0.673c-99,0-199.003,0.018-298.841-0.017c-40.725,0-81.113-0.155-121.837-0.137
			c-23.277,0.017-37.631,14.855-37.631,38.408c-0.016,85.84,0.064,171.68,0.064,257.52c-0.018,84.141,0.04,168.282,0.04,252.44
			c0,26.315-0.006,52.646,0.062,78.96c0.052,20.262,12.528,34.24,32.512,36.454c3.929,0.446,7.93,0.446,11.893,0.446
			c147.114,0.017,294.247,0.017,441.362,0.034c-4.323-0.034-8.542-0.122-12.574-1.136c4.048,0.736,8.218,1.354,12.506,1.354h35.098
			c5.935,0,11.871-0.152,17.806-0.135c58.29,0,116.58-0.091,174.886-0.091c52.219,0,104.402,0.035,156.602,0
			c-6.93-0.018-13.842,0.226-20.773,0.226h37.242c-0.497,0-0.979-0.223-1.476-0.17c-1.784,0.174-3.586,0.097-5.422,0.112
			c147.114-0.016,294.212-0.098,441.328-0.114c3.961,0,7.959-0.04,11.888-0.487c19.983-2.212,32.454-16.211,32.506-36.472
			c0.087-26.314,0.034-52.656,0.034-78.971C1413.291,771.74,1413.291,687.588,1413.291,603.447z M1309.457,354.934
			c38.354-0.395,62.646,31.529,62.784,64.757c0.137,35.629-27.824,64.585-62.013,64.431c-33.88-0.137-61.208-29.025-61.087-64.621
			C1249.244,384.027,1276.382,355.26,1309.457,354.934z M1310.675,513.662c33.844-0.035,61.479,28.75,61.582,64.157
			c0.105,35.646-27.497,64.946-61.309,65.101c-34.069,0.137-61.722-28.718-61.822-64.568
			C1249.021,542.446,1276.366,513.695,1310.675,513.662z M1252.728,702.427c19.419,0.103,38.835,0.05,58.238,0.05
			c19.213-0.016,38.426,0.068,57.637-0.068c4.479-0.016,8.217,0.824,8.355,6.107c0.137,5.594-3.568,6.726-8.405,6.708
			c-38.633-0.104-77.245-0.087-115.878-0.034c-4.357,0-8.147-0.6-8.303-6.105C1244.219,703.216,1247.992,702.408,1252.728,702.427z
			 M1252.658,734.366c38.82,0.053,77.64,0.068,116.462-0.032c4.767,0,7.958,1.525,7.821,6.621c-0.103,4.769-3.241,6.141-7.703,6.123
			c-19.608-0.138-39.231-0.069-58.856-0.069c-19.196-0.016-38.391-0.068-57.604,0.035c-4.718,0.034-8.544-0.703-8.406-6.569
			C1244.493,734.951,1248.268,734.366,1252.658,734.366z M1252.557,766.258c38.803,0.068,77.622,0.086,116.425,0
			c4.684-0.018,8.028,1.337,7.977,6.482c-0.035,5.32-3.654,6.194-8.2,6.158c-19.625-0.154-39.231-0.067-58.856-0.067
			c-19.195,0-38.391-0.052-57.587,0.051c-4.544,0.036-8.061-0.909-7.958-6.363C1244.459,767.098,1248.079,766.258,1252.557,766.258z
			 M151.667,354.934c33.057,0.326,60.212,29.094,60.315,64.568c0.103,35.595-27.208,64.484-61.087,64.621
			c-34.188,0.154-62.15-28.802-62.012-64.431C89.021,386.462,113.311,354.539,151.667,354.934z M150.432,513.662
			c34.308,0.034,61.669,28.784,61.566,64.689c-0.119,35.851-27.755,64.705-61.839,64.568c-33.794-0.154-61.396-29.454-61.292-65.101
			C88.951,542.412,116.586,513.626,150.432,513.662z M215.257,872.493c-1.595,1.612-4.786,2.178-7.291,2.214
			c-24.17,0.239-48.34,0.343-72.51,0.343c-15.182,0-30.38-0.291-45.579-0.259c-5.215,0.035-6.159-3.843-5.592-7.119
			c0.361-2.178,3.739-5.385,5.814-5.419c19.78-0.429,39.576-0.259,58.805-0.259c2.642,0.122,4.718,0.293,6.81,0.293
			c18.133-0.019,36.265-0.171,54.396,0.034c2.059,0.017,5.043,1.596,5.885,3.312C216.888,867.469,216.562,871.139,215.257,872.493z
			 M208.43,842.953c-19.195-0.086-38.391-0.034-57.586-0.034c-19.419,0-38.837-0.086-58.239,0.053
			c-4.837,0.016-8.577-1.203-8.457-6.726c0.121-5.25,3.877-6.056,8.371-6.056c38.614,0.103,77.229,0.086,115.843,0.036
			c4.323-0.019,8.216,0.359,8.389,5.936C216.922,841.941,213.216,842.972,208.43,842.953z M208.311,810.928
			c-19.402-0.068-38.786-0.036-58.205-0.036c-19.178,0-38.374-0.052-57.587,0.036c-4.426,0.017-8.216-0.824-8.354-6.126
			c-0.154-5.746,3.809-6.5,8.508-6.5c38.597,0.084,77.177,0.068,115.774,0.016c4.357-0.016,8.182,0.498,8.303,6.056
			C216.904,810.292,212.959,810.944,208.311,810.928z M208.808,778.882c-19.195-0.103-38.408-0.051-57.604-0.051
			c-19.607,0-39.214-0.087-58.838,0.067c-4.547,0.036-8.166-0.838-8.217-6.158c-0.034-5.146,3.311-6.5,7.977-6.482
			c38.819,0.086,77.639,0.068,116.442,0c4.477,0,8.097,0.84,8.183,6.261C216.853,777.973,213.354,778.918,208.808,778.882z
			 M208.327,747.044c-19.195-0.104-38.391-0.051-57.587-0.035c-19.624,0-39.248-0.068-58.873,0.069
			c-4.46,0.018-7.599-1.354-7.703-6.123c-0.12-5.096,3.054-6.621,7.84-6.621c38.82,0.101,77.64,0.085,116.459,0.032
			c4.375,0,8.166,0.585,8.286,6.108C216.888,746.341,213.062,747.078,208.327,747.044z M208.43,715.189
			c-38.614-0.053-77.245-0.069-115.86,0.034c-4.837,0.018-8.56-1.114-8.405-6.708c0.138-5.283,3.86-6.123,8.354-6.107
			c19.213,0.137,38.425,0.053,57.621,0.068c19.419,0,38.837,0.053,58.256-0.05c4.734-0.019,8.508,0.789,8.354,6.657
			C216.596,714.59,212.805,715.189,208.43,715.189z M1215.674,879.869c0,13.088,0.068,26.055-0.018,39.143
			c-0.119,19.537-12.556,31.988-31.718,31.988h-153.411c-0.187,0,0.473,0.489-1.527,0.832V952h0.551
			c0.138,0-0.551,0.055-0.551-0.168V951H922.766c-1.681,0-3.38,0.274-5.163,0.223c-2.898-0.084-5.799-0.223-8.68-0.223H552.218
			c-2.899,0-5.782,0.139-8.68,0.223c-1.785,0.052-3.5-0.223-5.163-0.223H493v1.244c0,0.085,0.087-0.244,0.139-0.244H493v0.244
			c-1-0.48-0.582-1.244-0.839-1.244H277.167c-19.145,0-31.599-12.398-31.719-31.938c-0.085-13.088-0.016-26.081-0.016-39.169
			c0-170.307,0.154-340.592-0.207-510.917c-0.034-18.372,11.047-35.489,34.72-35.351c53.847,0.342,107.677,0.42,161.507,0.404
			c16.811,0,33.571,0.784,50.382,0.767c0.017,0.052,0.034,0.203,0.068,0.203h538.763c-0.087-1-0.188-0.034-0.292-1.75
			c50.262,0,100.542,0.309,150.803,0c23.673-0.137,34.755,17.215,34.703,35.57C1215.537,539.145,1215.674,709.562,1215.674,879.869z
			 M1252.658,798.317c38.598,0.053,77.193,0.068,115.79-0.016c4.701,0,8.664,0.754,8.51,6.5c-0.139,5.302-3.929,6.143-8.371,6.126
			c-19.195-0.088-38.393-0.036-57.587-0.036c-19.402,0-38.802-0.032-58.204,0.036c-4.649,0.017-8.577-0.636-8.439-6.555
			C1244.477,798.815,1248.317,798.302,1252.658,798.317z M1371.229,874.791c-15.181-0.032-30.38,0.259-45.56,0.259
			c-24.174,0-48.343-0.104-72.513-0.343c-2.506-0.036-5.696-0.602-7.291-2.214c-1.32-1.354-1.631-5.024-0.737-6.86
			c0.822-1.716,3.824-3.295,5.884-3.312c18.133-0.205,36.263-0.053,54.379-0.034c2.092,0,4.167-0.171,6.827-0.293
			c19.213,0,39.008-0.17,58.787,0.259c2.092,0.034,5.455,3.241,5.814,5.419C1377.386,870.948,1376.442,874.826,1371.229,874.791z
			 M1368.501,842.972c-19.402-0.139-38.803-0.053-58.223-0.053c-19.193,0-38.406-0.052-57.604,0.034
			c-4.767,0.019-8.474-1.012-8.303-6.791c0.173-5.576,4.066-5.954,8.39-5.936c38.614,0.05,77.211,0.066,115.825-0.036
			c4.494,0,8.268,0.806,8.387,6.056C1377.095,841.769,1373.355,842.987,1368.501,842.972z"/>
		<g>
			<polygon fill="#FFFFFF" points="550.678,70.03 677.208,297.722 543.25,74.319 			"/>
		</g>
		<g>
			<polygon fill="#FFFFFF" points="910.851,37.808 734.876,304.054 904.847,33.936 			"/>
		</g>
		
			<ellipse fill="#FFFFFF" stroke="#FFFFFF" stroke-width="1.7154" stroke-miterlimit="10" cx="539.932" cy="62.138" rx="15.884" ry="14.825"/>
		
			<ellipse fill="#FFFFFF" stroke="#FFFFFF" stroke-width="1.4288" stroke-miterlimit="10" cx="913.44" cy="25.283" rx="15.235" ry="13.885"/>
	</g>
</g>
</svg>
