<?xml version="1.0" encoding="utf-8"?>
<!-- Generator: Adobe Illustrator 16.0.0, SVG Export Plug-In . SVG Version: 6.00 Build 0)  -->
<!DOCTYPE svg PUBLIC "-//W3C//DTD SVG 1.1//EN" "http://www.w3.org/Graphics/SVG/1.1/DTD/svg11.dtd">
<svg version="1.1" id="Layer_1" xmlns="http://www.w3.org/2000/svg" xmlns:xlink="http://www.w3.org/1999/xlink" x="0px" y="0px"
	 width="1123px" height="742px" viewBox="0 0 1123 742" enable-background="new 0 0 1123 742" xml:space="preserve">
<rect x="989" y="463" width="123" height="197"/>
<rect x="13" y="473" width="123" height="198"/>
<rect x="21" y="478" fill="#39B54A" width="45" height="83"/>
<rect x="14.286" y="564.889" transform="matrix(0.9931 -0.1173 0.1173 0.9931 -71.1435 10.2468)" fill="#39B54A" width="74.427" height="89.548"/>
<polyline fill="#39B54A" points="1089.237,636.877 997.075,637.768 994.404,473.464 "/>
<circle fill="#F7931E" cx="74.392" cy="253.357" r="57.89"/>
<circle fill="#0071BC" cx="78.72" cy="387.538" r="57.891"/>
<path fill="#39B54A" d="M1111.948,387.538c0,31.973-25.917,57.89-57.89,57.89c-31.974,0-57.89-25.917-57.89-57.89"/>
<circle fill="#F15A24" cx="1052.616" cy="254.801" r="57.89"/>
<path fill-rule="evenodd" clip-rule="evenodd" fill="#FFFFFF" d="M389.569,160c-2.122,0-4.141,0.941-6.06,1.635
	c0.144-0.059,0.274-0.1,0.418-0.142c1.14-0.448,2.309-0.815,3.535-1.118c0.446-0.114,0.909-0.258,1.385-0.36
	c0.202,0,0.39-0.015,0.591-0.015H389.569z"/>
<path fill-rule="evenodd" clip-rule="evenodd" fill="#FFFFFF" d="M684.695,159.214c-0.027,0-0.044-0.014-0.071-0.014h0.244
	c-0.043,0-0.087,0.014-0.144,0.014C684.709,159.214,684.709,159.214,684.695,159.214z"/>
<path fill-rule="evenodd" clip-rule="evenodd" fill="#FFFFFF" d="M685.33,159.2h-0.462c0.058-0.014,0.116-0.029,0.16-0.029
	C685.128,159.2,685.229,159.2,685.33,159.2z"/>
<path fill="none" d="M132.1,550.331c0.086,4.587-2.857,5.383-6.68,5.353c-16.145-0.086-32.305-0.044-48.45-0.044
	c-16.491,0-32.982-0.072-49.488,0.058c-3.824,0.03-6.868-0.705-6.911-5.18c-0.029-4.327,2.784-5.467,6.709-5.452
	c32.65,0.072,65.301,0.058,97.938,0C128.983,545.065,132.028,545.771,132.1,550.331z"/>
<path fill="none" d="M132.1,523.379c0.116,4.935-3.102,5.556-7.085,5.526c-16.145-0.087-32.289-0.043-48.435-0.029
	c-16.505,0-33.011-0.058-49.517,0.059c-3.751,0.014-6.391-1.14-6.478-5.151c-0.101-4.285,2.568-5.568,6.594-5.568
	c32.651,0.085,65.301,0.071,97.952,0.027C128.811,518.242,131.999,518.734,132.1,523.379z"/>
<path fill="none" d="M130.844,634.418c-1.341,1.356-4.025,1.832-6.132,1.861c-20.329,0.201-40.657,0.289-60.987,0.289
	c-12.769,0-25.552-0.245-38.335-0.218c-4.386,0.03-5.179-3.231-4.703-5.988c0.303-1.831,3.145-4.528,4.891-4.558
	c16.636-0.36,33.286-0.217,49.459-0.217c2.222,0.103,3.968,0.246,5.728,0.246c15.251-0.016,30.501-0.144,45.751,0.028
	c1.732,0.015,4.242,1.342,4.95,2.785C132.216,630.191,131.941,633.278,130.844,634.418z"/>
<path fill="none" d="M132.1,577.124c0.129,4.978-3.189,5.526-7.099,5.513c-16.318-0.058-32.622-0.03-48.955-0.03
	c-16.13,0-32.275-0.044-48.435,0.03c-3.723,0.014-6.911-0.693-7.026-5.152c-0.13-4.833,3.203-5.468,7.156-5.468
	c32.463,0.071,64.912,0.058,97.375,0.014C128.782,572.017,131.999,572.449,132.1,577.124z"/>
<path fill="none" d="M132.1,603.86c0.144,4.861-2.972,5.728-6.998,5.713c-16.145-0.073-32.29-0.029-48.435-0.029
	c-16.333,0-32.665-0.072-48.984,0.044c-4.068,0.014-7.214-1.011-7.112-5.656c0.101-4.415,3.26-5.093,7.041-5.093
	c32.477,0.086,64.956,0.071,97.433,0.029C128.681,598.853,131.956,599.171,132.1,603.86z"/>
<path fill="none" d="M128.089,253.416c0.087,29.938-22.884,54.236-51.379,54.351c-28.755,0.13-52.273-24.225-52.157-54.192
	c0.116-27.948,20.546-54.798,52.806-54.466C105.163,199.383,128.002,223.579,128.089,253.416z"/>
<path fill="none" d="M128.103,387.021c-0.101,30.153-23.344,54.422-52.012,54.307c-28.424-0.13-51.639-24.772-51.552-54.755
	c0.072-29.779,23.315-53.99,51.782-53.961C105.177,332.641,128.19,356.822,128.103,387.021z"/>
<path fill="none" d="M132.1,496.977c-0.13,4.632-3.318,5.136-6.998,5.136c-32.477-0.043-64.969-0.059-97.447,0.029
	c-4.068,0.015-7.199-0.938-7.069-5.642c0.115-4.444,3.246-5.15,7.026-5.137c16.16,0.115,32.318,0.044,48.464,0.058
	c16.333,0,32.665,0.044,48.998-0.043C129.056,491.363,132.229,492.042,132.1,496.977z"/>
<path fill="none" d="M1107.942,603.932c0.101,4.646-3.044,5.67-7.127,5.656c-16.318-0.116-32.637-0.044-48.97-0.044
	c-16.144,0-32.303-0.044-48.449,0.029c-4.01,0.015-7.127-0.852-6.982-5.713c0.145-4.689,3.419-5.008,7.055-4.992
	c32.479,0.042,64.941,0.057,97.419-0.029C1104.668,598.839,1107.842,599.517,1107.942,603.932z"/>
<path fill="none" d="M1107.929,550.518c-0.029,4.475-3.073,5.21-6.897,5.18c-16.506-0.13-32.996-0.058-49.502-0.058
	c-16.146,0-32.29-0.042-48.436,0.044c-3.822,0.03-6.78-0.766-6.694-5.353c0.087-4.56,3.131-5.266,6.897-5.266
	c32.637,0.058,65.287,0.072,97.923,0C1105.158,545.051,1107.972,546.19,1107.929,550.518z"/>
<path fill="none" d="M1107.929,577.484c-0.116,4.459-3.305,5.166-7.041,5.152c-16.145-0.074-32.29-0.03-48.436-0.03
	c-16.317,0-32.635-0.027-48.954,0.03c-3.91,0.014-7.214-0.535-7.099-5.513c0.102-4.675,3.332-5.107,6.982-5.094
	c32.464,0.044,64.927,0.058,97.39-0.014C1104.726,572.017,1108.059,572.651,1107.929,577.484z"/>
<path fill="none" d="M1107.915,523.783c-0.087,4.012-2.727,5.165-6.479,5.151c-16.491-0.116-32.997-0.059-49.502-0.059
	c-16.146-0.014-32.29-0.058-48.449,0.029c-3.969,0.029-7.187-0.592-7.07-5.526c0.101-4.645,3.275-5.137,6.968-5.137
	c32.651,0.044,65.302,0.058,97.954-0.027C1105.346,518.215,1108.029,519.498,1107.915,523.783z"/>
<path fill="none" d="M1103.109,636.351c-12.768-0.027-25.552,0.218-38.319,0.218c-20.332,0-40.659-0.088-60.989-0.289
	c-2.106-0.029-4.791-0.505-6.131-1.861c-1.111-1.14-1.372-4.227-0.621-5.771c0.691-1.443,3.217-2.771,4.948-2.785
	c15.251-0.172,30.501-0.044,45.738-0.028c1.759,0,3.505-0.144,5.741-0.246c16.159,0,32.81-0.144,49.446,0.217
	c1.759,0.029,4.587,2.727,4.89,4.558C1108.289,633.119,1107.495,636.381,1103.109,636.351z"/>
<path fill="none" d="M1107.929,496.5c0.114,4.704-3.001,5.656-7.069,5.642c-32.493-0.088-64.97-0.072-97.463-0.029
	c-3.665,0-6.854-0.504-6.982-5.136c-0.13-4.935,3.044-5.613,7.026-5.599c16.333,0.087,32.664,0.043,48.983,0.043
	c16.16-0.014,32.319,0.058,48.478-0.058C1104.668,491.35,1107.813,492.056,1107.929,496.5z"/>
<path fill="none" d="M1103.961,253.575c0.115,29.967-23.402,54.322-52.157,54.192c-28.495-0.115-51.48-24.413-51.379-54.351
	c0.086-29.837,22.911-54.033,50.729-54.307C1083.415,198.777,1103.845,225.627,1103.961,253.575z"/>
<path fill="none" d="M1103.975,386.572c0.088,29.982-23.128,54.625-51.564,54.755c-28.655,0.115-51.913-24.153-51.999-54.307
	c-0.088-30.198,22.911-54.38,51.768-54.409C1080.645,332.582,1103.889,356.793,1103.975,386.572z"/>
<path fill="#FFFFFF" d="M460.768,717.932c34.497,0,68.997-0.004,103.494-0.004c-42.393-0.002-84.787-0.004-127.18-0.006
	C444.978,717.926,452.873,717.932,460.768,717.932z"/>
<path fill="#FFFFFF" d="M424.139,718c-8.339,0-16.679,0-25.019,0.014c-0.173,0-0.332-0.014-0.505-0.014H424.139z"/>
<path fill="#FFFFFF" d="M691.446,718c4.313,0,8.627,0,12.939,0C700.073,718,695.76,718,691.446,718z"/>
<path fill="#FFFFFF" d="M667.758,717.932c7.896,0,15.792-0.006,23.688-0.01c-42.395,0.002-84.791,0.004-127.185,0.006
	C598.761,717.928,633.259,717.932,667.758,717.932z"/>
<path fill="#FFFFFF" d="M415.28,159.2c-0.029,0-0.058,0.014-0.086,0.014c-0.029,0.015-0.058,0.015-0.087,0.015
	c8.743,0,17.487,0.029,26.23,0.042c6.651,0.015,13.317,0.029,19.968,0.043c9.754,0.015,19.507,0.029,29.275,0.029
	c11.889,0,23.777,0,35.666-0.015c10.821-0.015,21.643-0.029,32.449-0.043C510.967,159.258,463.008,159.2,415.28,159.2z M413.866,159
	c-5.338,0-10.691,0.14-16.044,0.14c-2.885,0-5.641-0.14-8.252,0.86h11.311c2.814,0,5.555,0.234,8.253,0.104
	c1.833-0.086,3.636-0.408,5.41-0.985c0.029-0.014,0.058-0.12,0.086-0.12H413.866z"/>
<path fill="#FFFFFF" d="M363.526,181.651c-0.028,0.057-0.043,0.115-0.057,0.173c-0.015,0.058-0.043,0.115-0.043,0.173
	c0.028-0.058,0.057-0.101,0.086-0.173c0.014-0.043,0.029-0.101,0.058-0.173H363.526z M414.414,159c-1.731,1-3.491,0.922-5.28,1.024
	c1.833-0.087,3.636-0.368,5.41-0.945c0.029-0.015,0.058-0.079,0.086-0.079H414.414z M693.093,159.114
	c-2.497-0.014-4.979-0.114-7.459-0.114h-11.097c-11.268,0-22.536,0.114-33.818,0.129c-25.452,0.014-50.902,0.093-76.311,0.107
	c24.571,0.029,49.056,0.083,73.627,0.083c15.669,0.014,31.323-0.017,46.993-0.061c9.03-0.014,18.063-0.072,27.094-0.086
	C705.775,159.173,699.427,159.114,693.093,159.114z M734.255,159.107c-1.76,0-3.534-0.107-5.295-0.107h2.844
	c0.837,0,1.659,0.151,2.451,0.208c6.104-0.014,12.206-0.029,18.31-0.029C746.461,159.18,740.359,159.107,734.255,159.107z"/>
<path fill="#FFFFFF" d="M415.193,159h-0.217c-0.115,0-0.231,0.136-0.346,0.151c8.902,0,17.805,0.053,26.707,0.068
	c6.651,0.015,13.317-0.051,19.968-0.036C445.939,159.153,430.559,159,415.193,159z M414.414,159.2c0.044,0,0.087,0.014,0.13,0.029
	c0.029-0.015,0.058-0.015,0.086-0.029H414.414z M383.928,161.476c-0.145,0.044-0.274,0.084-0.418,0.143
	c1.919-0.692,3.938-1.618,6.06-1.618h-0.13C387.521,160,385.673,160.87,383.928,161.476z M363.469,181.824h0.043
	c0.014-0.043,0.029-0.101,0.058-0.173h-0.044C363.498,181.708,363.483,181.766,363.469,181.824z"/>
<path fill="#FFFFFF" d="M786.659,159h-3.694c0.375,0,0.75-0.202,1.125-0.188C784.956,158.841,785.821,159,786.659,159z"/>
<g>
	<g>
		<path fill="#FFFFFF" d="M92.456,239.324l-16.402,12.477c-0.233-0.019-0.467-0.039-0.7-0.039c-3.44,0-6.219,2.779-6.219,6.219
			c0,3.44,2.779,6.219,6.219,6.219c3.439,0,6.219-2.779,6.219-6.219c0-0.233-0.02-0.466-0.039-0.7l12.478-16.403L92.456,239.324z"/>
		<path fill="#FFFFFF" d="M43.036,271h-1.342c-2.165-5-3.39-10-3.621-15h0.202C38.837,261,40.453,266,43.036,271z"/>
		<path fill="#FFFFFF" d="M44,250v3h-6v-0.075c0-0.057,0.044-0.144,0-0.216c-0.043-0.073,0-0.13,0-0.188v-0.058
			c0-0.924,0-1.126,0-2.251V250H44z"/>
		<path fill="#FFFFFF" d="M110.112,236.232h-0.015c-0.015-0.044-0.029-0.073-0.043-0.102
			C110.068,236.159,110.083,236.203,110.112,236.232z"/>
		<path fill="#FFFFFF" d="M111.698,241.051c-0.086-0.39-0.172-0.765-0.274-1.14c-0.029-0.13-0.058-0.274-0.101-0.404
			c0.144,0.491,0.274,0.996,0.375,1.5V241.051z"/>
		<path fill="#FFFFFF" d="M111.973,242.479c0,0,0,0,0,0.014v0.116c0-0.015,0-0.029-0.014-0.044v-0.057
			c0-0.044-0.015-0.086-0.015-0.13C111.958,242.407,111.958,242.451,111.973,242.479z"/>
		<path fill="#FFFFFF" d="M112.029,245.726c0.029,0.504-0.029,1.024-0.029,1.544v-2.482C112,245.105,112,245.408,112.029,245.726z"
			/>
		<path fill="#FFFFFF" d="M112.384,247.27c-0.102-0.88-0.384-1.746-0.384-2.597v-0.491c0,0.505,0.206,1.024,0.235,1.544
			C112.292,246.23,112.354,246.75,112.384,247.27z"/>
		<path fill="#FFFFFF" d="M112.622,253H106v-3h6v0.329C112,251.179,112.593,252,112.622,253z"/>
		<path fill="#FFFFFF" d="M112.666,256c-0.217,5-1.415,10-3.55,15h-1.443c2.525-5,4.156-10,4.733-15H112.666z"/>
		<path fill="#FFFFFF" d="M109.708,235.467c0.044,0.073,0.087,0.131,0.116,0.216h-0.029v-0.014h-0.246v-0.015l0.014-0.101
			c0-0.058,0-0.087,0-0.087s0-0.014,0-0.028c0.014-0.026,0.014-0.052,0.014-0.078c0-0.026,0.001-0.054,0.001-0.081v-0.029
			c0-0.014,0-0.029,0-0.029c0.029,0.058,0.072,0.13,0.101,0.188C109.693,235.424,109.708,235.453,109.708,235.467z"/>
		<path fill="#FFFFFF" d="M114.787,236.319c0.014,0.029,0.014,0.058,0.028,0.086c-0.086-0.172-0.173-0.346-0.26-0.52
			c-0.014-0.029-0.029-0.058-0.029-0.086c0.029,0.044,0.043,0.044,0.072,0.086h0.014v-0.042h0.015v-0.058c0,0,0-0.015,0-0.029
			v-0.015c0-0.029,0-0.072,0-0.072h0.014c0.015,0.072,0.029,0.144,0.044,0.216c0.014,0.043,0.014,0.102,0.028,0.145
			C114.729,236.146,114.757,236.232,114.787,236.319z"/>
		<path fill="#FFFFFF" d="M114.844,236.478c0.087,0.158,0.159,0.316,0.246,0.476c-0.058-0.086-0.13-0.188-0.202-0.347
			c-0.029-0.058-0.057-0.129-0.072-0.202C114.83,236.434,114.83,236.448,114.844,236.478z"/>
		<path fill="#FFFFFF" d="M115.969,238.987c-0.23-0.692-0.658-1.356-0.99-2.034c0.044,0.058,0.021,0.101,0.021,0.145v0.014
			l0.124,0.014c0.071,0.072,0.185,0.159,0.243,0.289c0.072,0.173,0.171,0.39,0.229,0.577c0.029,0.058,0.057,0.116,0.086,0.173
			c0.072,0.203,0.166,0.404,0.223,0.606c0,0.014,0.018,0.029,0.018,0.043C115.937,238.873,115.955,238.929,115.969,238.987z"/>
		<path fill="#FFFFFF" d="M118.97,256.46c-0.014,0.303-0.029,0.62-0.072,0.923c-0.043,0.159-0.087,0.318-0.13,0.462
			C118.855,257.383,118.912,256.921,118.97,256.46z"/>
		<path fill="#FFFFFF" d="M119,247.039c0,0.015,0,0.015,0,0.015c0,1.544,0.072,3.116,0.072,4.703c0,0.418-0.101,0.837-0.116,1.255
			c-0.087-3.073-0.498-6.074-1.219-8.96c0-0.014-0.004-0.043-0.004-0.058c-0.115-0.317-0.225-0.621-0.327-0.923
			c-0.014-0.015-0.011-0.029-0.026-0.043c-0.144-0.389-0.273-0.779-0.403-1.168c-0.014-0.058-0.114-0.129-0.172-0.202
			c0-0.014-0.014-0.014-0.014-0.014c0-0.029,0.341-0.072,0.328-0.101c-0.058-0.188-0.12-0.375-0.12-0.549v-0.014
			c0,0-0.27,0.014-0.169,0.029c0.043,0-0.077,0.014-0.048,0.014c0.043,0-0.017,0.015-0.017,0.015s0.1-0.015,0.114,0
			c0.043,0.014,0.136,0.043,0.18,0.072c0.028,0.014,0.032,0.042,0.046,0.058c0.246,0.231,0.037,0.447,0.124,0.692
			c0.245,0.764,0.373,1.544,0.574,2.323c0.015,0.043,0.014,0.072,0.028,0.115c0.101,0.404,0.23,0.809,0.403,1.212
			c0.014,0.029,0.013,0.043,0.028,0.073c0.072,0.144,0.058,0.288,0.13,0.418C118.582,246.346,119,246.692,119,247.039z"/>
		<path fill="#FFFFFF" d="M119,253.055v3.377c0-0.693-0.043-1.414-0.043-2.122C118.957,253.892,119,253.473,119,253.055z"/>
	</g>
	<path fill="#FFFFFF" d="M116.979,241.859c-0.014-0.058-0.115-0.129-0.173-0.202c0.159,0.447,0.39,0.909,0.577,1.371
		C117.239,242.638,117.109,242.249,116.979,241.859z M116.864,240.979v0.014c0.029,0.015,0.058,0.015,0.072,0.029
		C116.907,241.008,116.893,240.993,116.864,240.979z M114.815,236.405c0.015,0.073,0.043,0.145,0.072,0.202
		c0.072,0.158,0.144,0.26,0.202,0.347c-0.087-0.16-0.159-0.318-0.246-0.476C114.83,236.448,114.83,236.434,114.815,236.405z
		 M114.541,235.669h0.216v-0.015l-0.231-0.014C114.526,235.655,114.541,235.655,114.541,235.669z M111.958,242.565
		c0.014,0.015,0.014,0.029,0.014,0.044v-0.116l-0.014,0.015V242.565z M111.424,239.521c0,0.015,0,0.029,0.015,0.044
		c0.13,0.403,0.433,0.835,0.505,1.254c-0.101-0.62-0.462-1.197-0.649-1.804C111.353,239.189,111.382,239.348,111.424,239.521z
		 M111.107,238.901c0-0.044-0.015-0.073-0.029-0.116c0-0.014-0.014-0.043-0.028-0.058c-0.029-0.073-0.058-0.13-0.087-0.202
		c-0.015-0.028-0.029-0.072-0.058-0.115c-0.015-0.043-0.029-0.087-0.043-0.145c-0.115-0.331-0.26-0.75-0.404-1.14
		c-0.058-0.13-0.101-0.259-0.145-0.389c0.202,0.417,0.376,0.865,0.549,1.298c-0.173-0.491-0.375-0.966-0.578-1.429
		c-0.014-0.014-0.014-0.029-0.028-0.043c-0.029-0.043,0.38-0.101,0.351-0.144c-0.015-0.029,0.393-0.043,0.393-0.058v0.015
		c0,0.072-0.252,0.159-0.223,0.23c0.201,0.462,0.223,0.938,0.223,1.429v0.014c0,0.245,0.104,0.491,0.177,0.736
		c0.057,0.173,0.081,0.332,0.109,0.504c0.015,0.015-0.032,0.044-0.003,0.058c-0.015-0.115-0.088-0.217-0.116-0.332
		C111.167,238.973,111.122,238.929,111.107,238.901z M109.679,235.409c-0.029-0.058-0.072-0.129-0.101-0.188c0,0,0,0.015,0,0.029
		c0-0.014-0.015-0.014-0.015-0.029h-0.014c0.014,0.015,0.014,0.029,0.029,0.044v0.014c0,0.026,0,0.054-0.001,0.081
		c0,0.026,0,0.052-0.014,0.078c0,0.014,0,0.028,0,0.028s0,0.029,0,0.087l-0.014,0.101v0.015h0.246v0.014h0.029
		c-0.029-0.085-0.072-0.144-0.116-0.216C109.708,235.453,109.693,235.424,109.679,235.409z M38.072,253
		c0.043,1,0.101,2.048,0.202,2.885c-0.101-0.837,0.101-1.885,0.101-2.885H38.072z M38.23,252.478v0.044
		c0,0.058,0.029,0.115,0.073,0.188C38.274,252.622,38.23,252.536,38.23,252.478z M38.144,250.098
		c0.015-0.433,0.015-0.88,0.029-1.313c-0.043,0.433-0.087,0.881-0.101,1.313v0.115h0.072V250.098z"/>
	<path fill="#FFFFFF" d="M119,247.053c0,1.544,0.072,3.116,0.072,4.703c0,0.418-0.101,0.837-0.116,1.255
		c-0.087-3.073-0.498-6.074-1.219-8.96c0-0.014-0.004-0.043-0.004-0.058c-0.115-0.317-0.225-0.621-0.327-0.923
		c-0.014-0.015-0.011-0.029-0.026-0.043c-0.187-0.462-0.417-0.923-0.576-1.371c0-0.014-0.013-0.014-0.013-0.014
		c-0.029-0.044,0.313-0.072,0.328-0.101c-0.058-0.188-0.12-0.375-0.12-0.549v-0.014c0-0.015-0.126-0.015-0.126-0.029
		c0-0.015-0.091-0.015-0.091-0.015c-0.102-0.029,0.152-0.072,0.065-0.116c-0.029-0.014,0.152-0.014,0.152-0.029c0,0,0,0,0-0.014
		c0-0.217-0.371-0.448-0.399-0.664c-0.016-0.145-0.222-0.303-0.265-0.447c-0.015-0.058-0.118-0.13-0.133-0.203
		c0-0.028-0.044-0.058-0.073-0.086c-0.029-0.115-0.081-0.246-0.124-0.361c0-0.014-0.011-0.014-0.025-0.029
		c-0.23-0.692-0.554-1.356-0.886-2.034c-0.058-0.086-0.133-0.188-0.205-0.347c-0.029-0.058-0.058-0.129-0.073-0.202
		c-0.087-0.172-0.175-0.346-0.261-0.52c-0.014-0.029-0.286-0.058-0.286-0.086l-0.27-0.014v-0.015l-0.884,0.015l0.648,0.107
		l0.749,0.108h0.029c0,0-0.394-0.18-0.394-0.194L114,235.655v0.015c0,0.433,0.783,0.866,0.97,1.298
		c0.375,0.865,0.925,1.746,1.243,2.655c0.158,0.447,0.411,0.894,0.555,1.356c0.029,0.014,0.092,0.029,0.121,0.043
		c0.015,0,0.053,0,0.066,0.015c0.043,0.014,0.113,0.043,0.141,0.072c0.333,0.245,0.064,0.49,0.151,0.75
		c0.26,0.808,0.378,1.616,0.594,2.438c0.145,0.404,0.29,0.809,0.405,1.212c0.072,0.16,0.146,0.332,0.231,0.491
		c-2.813-21.311-21.208-37.773-43.298-37.773c-24.037,0-43.783,19.493-43.783,43.529c0,0.418-0.398,0.837-0.398,1.255v0.043
		c0,1.155,0.6,2.28,0.844,3.377c-0.042-0.693-0.016-1.414-0.016-2.122c0-0.418-0.009-0.909,0.005-1.327
		c0.059,1.833,0.227,3.593,0.501,5.31c0.852,3.722,1.736,7.243,3.237,10.921c-1.543-3.679-2.638-7.2-3.229-10.921
		c-0.144-0.607-0.272-1.227-0.417-1.861c1.098,23.07,20.171,41.423,43.502,41.423c22.999,0,41.9-17.848,43.473-40.471
		c-0.044,0.159-0.087,0.318-0.13,0.462c-0.693,4.256-2.25,8.224-4.083,12.452c1.833-4.228,2.842-8.195,4.083-12.452
		c0.086-0.462,0.144-0.924,0.202-1.385c-0.014,0.303-0.115,0.62-0.158,0.923c0.086-0.303,0.188-0.606,0.188-0.923
		c0,0,0-0.015,0-0.029c0-0.693-0.043-1.414-0.043-2.122c0-0.418,0.043-0.837,0.043-1.255V247.053z M109.549,236h0.014
		c0,0-0.563-0.763-0.563-0.75c0-0.014,0-0.029,0-0.029c0,0.058,0.36,0.13,0.391,0.188c0.014,0.015,0.173,0.043,0.173,0.058
		c0.043,0.073,0.158,0.131,0.187,0.216c0.058,0.116,0.166,0.231,0.21,0.347c0.014,0.014,0.047,0.029,0.047,0.043
		c0,0.014,0.022,0.029,0.038,0.057c0.014,0.029,0.033,0.073,0.062,0.102c0,0.028,0.017,0.043,0.031,0.072
		c0,0.015,0.016,0.028,0.016,0.057c0.014,0.015,0.015,0.029,0.029,0.058c0.029,0.043,0.044,0.101,0.073,0.144
		c0.015,0.015,0.015,0.029,0.028,0.043c0.203,0.462,0.405,0.938,0.578,1.429c-0.173-0.433-0.347-0.881-0.549-1.298
		c0.044,0.13,0.087,0.259,0.145,0.389c0.144,0.39,0.289,0.809,0.404,1.14c0.014,0.058,0.028,0.102,0.043,0.145
		c0.029,0.043,0.042,0.087,0.058,0.115c0.043,0.058,0.072,0.116,0.087,0.202c0.014,0.014,0.028,0.043,0.028,0.058
		c0.015,0.043,0.029,0.072,0.029,0.116c0.014,0.028,0.029,0.072,0.029,0.115c0.029,0.115,0.072,0.217,0.087,0.332
		c0.014,0.015,0.043,0.029,0.057,0.029l0.015,0.015c0.058,0.043,0.115,0.087,0.115,0.116l0.014,0.014
		c-0.042-0.173-0.072-0.332-0.129-0.505c0.187,0.606,0.569,1.184,0.67,1.804c0.014,0.058,0.035,0.13,0.035,0.188v0.043
		c0,0.015,0,0.015,0,0.029c0,0.014,0,0.014,0,0.029c0,0.403,0.094,0.851,0.108,1.269c0,0.029-0.108,0.073-0.108,0.102
		c0,0,0,0,0,0.014v0.116c0-0.015,0-0.029,0-0.044v1.501c0-0.491-0.035-0.981-0.121-1.457c-0.015-0.116-0.04-0.245-0.054-0.361
		c-0.058-0.404-0.106-0.808-0.179-1.198c-0.115-0.577-0.247-1.154-0.419-1.703c-0.029-0.014-0.045-0.043-0.06-0.058
		c-0.029-0.172,0.068-0.332,0.01-0.504c-0.072-0.245-0.177-0.491-0.177-0.736v-0.014c0-0.491-0.022-0.966-0.223-1.429
		c-0.029-0.072,0.223-0.159,0.223-0.23v-0.015c0-0.101-0.523-0.202-0.567-0.288c0-0.015-0.225-0.029-0.24-0.043
		c-0.014-0.029-0.135-0.058-0.148-0.086c-0.015-0.015-0.067-0.015-0.082-0.029c-0.015-0.029-0.071,0.107-0.1,0.079
		c-0.086-0.086-0.185,0.007-0.271,0.007H109v-0.345c0-0.057-0.181-0.231-0.181-0.26l0.181,0.159c0-0.058,0-0.087,0-0.087
		s0-0.014,0-0.028c0,0,0-0.087,0-0.159v-0.014C109,235.25,109.563,236,109.549,236z M112.643,252.983
		c-0.028,1.442-0.11,1.883-0.197,2.721c-0.015,0.072-0.026,0.296-0.04,0.296h0.26c-0.217,5-1.415,9.89-3.55,14.363
		c-0.014,0.042-0.043,0.053-0.057,0.096c-0.188,0.434-0.404,0.836-0.621,1.254l-5.353-3.097l-1.559,2.694l5.324,3.071
		c-1.457,2.265-3.13,4.385-5.063,6.333c-1.992,1.961-4.127,3.692-6.421,5.149l-3.044-5.31l-2.655,1.558l2.979,5.295
		c-4.804,2.51-9.646,3.954-15.646,4.184V285h-3v6.592c-5-0.23-10.988-1.659-15.793-4.184l2.853-5.295l-2.656-1.558l-3.031,5.31
		c-2.294-1.458-4.445-3.189-6.422-5.151c-1.946-1.948-3.657-4.098-5.085-6.349l5.341-3.073l-1.556-2.713l-5.338,3.059
		c-0.216-0.419-0.432-1.276-0.62-1.276C39.528,266.034,38.304,261,38.072,256h0.202c-0.101,0-0.159-2-0.202-3H38v-0.075
		c0-0.057,0.044-0.144,0-0.216c-0.043-0.073,0-0.13,0-0.188v-0.058c0-0.953,0.13-0.464,0.144-2.464h0.231l0,0
		c0,0-0.094-0.832-0.051-1.265c-0.014,0.433-0.248,0.905-0.264,1.338c0.016-0.433-0.061-0.856-0.061-1.289v0.188
		c0,0.375,0,0.75,0,1.125v-1.372c0-5.079,1.905-9.911,4.228-14.341l5.331,3.088l1.605-2.698l-5.302-3.073
		c1.429-2.251,3.158-4.386,5.106-6.334c1.977-1.962,4.175-3.693,6.469-5.15l3.104,5.31l2.787-1.559l-3.123-5.31
		C63.011,216.133,69,214.72,74,214.488V221h3v-6.512c6,0.231,10.843,1.674,15.646,4.17l-3.164,5.31l2.74,1.559l3.094-5.31
		c2.294,1.457,4.454,3.188,6.445,5.15c1.933,1.948,3.626,4.069,5.083,6.334l-5.322,3.073l1.545,2.698l5.361-3.088
		c1.688,3.232,2.57,6.681,3.57,10.288v-0.491c0,0.505,0.196,1.024,0.225,1.544c0.058,0.504,0.139,1.024,0.168,1.544
		c-0.101-0.88-0.393-1.746-0.393-2.597v0.115c0,0.318,0,0.621,0.029,0.938c0.029,0.504-0.029,1.024-0.029,1.544v0.115
		c0,0.866,0.622,1.615,0.666,2.615H112v0.329C112,251.179,112.614,251.54,112.643,252.983z"/>
	<path fill="#FFFFFF" d="M38.173,248.784c-0.015,0.433-0.015,0.881-0.029,1.313v0.115h-0.072v-0.115
		C38.086,249.665,38.13,249.217,38.173,248.784z"/>
	<path fill="#FFFFFF" d="M32.344,258.293c-0.144-0.607-0.274-1.227-0.419-1.861c-0.042-0.693-0.057-1.414-0.057-2.122
		c0-0.418-0.029-0.909-0.015-1.327C31.912,254.815,32.07,256.576,32.344,258.293z"/>
	<rect x="38.072" y="250.098" fill="#FFFFFF" width="0.072" height="0.115"/>
	<path fill="#FFFFFF" d="M38.173,248.784c-0.015,0.433-0.015,0.881-0.029,1.313v0.115h-0.072v-0.115
		C38.086,249.665,38.13,249.217,38.173,248.784z"/>
	<path fill="#FFFFFF" d="M44,253v3h-5.726c-0.101,0-0.159-2-0.202-3H44z"/>
	<path fill="#FFFFFF" d="M32.344,258.293c-0.144-0.607-0.274-1.227-0.419-1.861c-0.042-0.693-0.057-1.414-0.057-2.122
		c0-0.418-0.029-0.909-0.015-1.327C31.912,254.815,32.07,256.576,32.344,258.293z"/>
</g>
<g>
	<g>
		<path fill-rule="evenodd" clip-rule="evenodd" fill="#FFFFFF" d="M1098.512,254.204c-7.244,0.004-14.489,0.003-21.731,0.022
			c-0.611,0.001-0.779-0.21-0.847-0.819c-0.259-2.356-0.566-4.709-0.928-7.054c-0.093-0.598,0.006-0.84,0.587-1.022
			c6.052-1.893,12.1-3.8,18.139-5.733c0.654-0.21,0.826,0.1,1.031,0.587c1.708,4.035,2.888,8.219,3.604,12.538
			c0.031,0.18,0.094,0.353,0.145,0.53C1098.512,253.569,1098.512,253.887,1098.512,254.204z"/>
		<path fill-rule="evenodd" clip-rule="evenodd" fill="#FFFFFF" d="M1053.443,209.928c0.835,0.104,1.669,0.203,2.503,0.316
			c0.326,0.046,0.653,0.122,1.058,0.199c-0.203,0.637-0.37,1.187-0.553,1.733c-1.112,3.333-2.241,6.659-3.328,10
			c-0.196,0.605-0.431,0.722-1.066,0.605c-2.333-0.425-4.677-0.785-7.026-1.105c-0.593-0.081-0.828-0.241-0.822-0.857
			c0.034-3.224,0.041-6.448,0.036-9.67c-0.002-0.598,0.23-0.857,0.822-0.906c0.891-0.076,1.774-0.207,2.663-0.315
			C1049.634,209.928,1051.538,209.928,1053.443,209.928z"/>
		<path fill-rule="evenodd" clip-rule="evenodd" fill="#FFFFFF" d="M1010.276,244.524c0.089-0.243,0.179-0.485,0.294-0.807
			c0.501,0.165,0.989,0.279,1.432,0.489c0.162,0.078,0.352,0.418,0.306,0.575c-0.787,2.718-1.229,5.486-1.462,8.335
			c-0.188-1.225-0.379-2.449-0.569-3.673C1010.276,247.804,1010.276,246.164,1010.276,244.524z"/>
		<path fill-rule="evenodd" clip-rule="evenodd" fill="#FFFFFF" d="M1067.242,231.94c-1.266,1.342-2.457,2.605-3.646,3.871
			c-3.237,3.447-6.478,6.895-9.714,10.343c-1.554,1.659-3.097,3.33-4.666,4.974c-0.38,0.4-0.501,0.755-0.36,1.329
			c0.761,3.152-1.084,6.116-4.243,6.898c-2.98,0.74-6.026-1.133-6.816-4.192c-1.042-4.035,2.737-7.891,6.785-6.875
			c0.716,0.179,1.165,0.037,1.68-0.442c4.016-3.749,8.056-7.475,12.093-11.205c2.018-1.865,4.042-3.721,6.066-5.579
			c0.292-0.267,0.592-0.521,0.982-0.862c-0.515-0.466-0.906-0.89-1.365-1.219c-0.508-0.366-0.509-0.667-0.144-1.155
			c2.472-3.301,4.919-6.622,7.371-9.937c0.423-0.574,0.813-1.178,1.285-1.709c0.147-0.168,0.595-0.283,0.77-0.184
			c3.774,2.128,7.232,4.677,10.269,7.781c0.034,0.033,0.038,0.097,0.088,0.247c-1.101,0.796-2.219,1.622-3.353,2.426
			c-3.383,2.405-6.771,4.8-10.157,7.199c-0.898,0.636-0.895,0.629-1.61-0.227C1068.153,232.942,1067.726,232.484,1067.242,231.94z"
			/>
		<path fill-rule="evenodd" clip-rule="evenodd" fill="#FFFFFF" d="M1093.217,237.079c-1.987,0.636-3.892,1.251-5.803,1.856
			c-4.053,1.283-8.106,2.558-12.16,3.84c-1.142,0.361-1.096,0.345-1.623-0.737c-0.878-1.799-1.795-3.581-2.746-5.342
			c-0.249-0.465-0.256-0.713,0.193-1.032c3.818-2.696,7.625-5.413,11.435-8.124c0.777-0.55,1.559-1.093,2.317-1.664
			c0.336-0.252,0.577-0.271,0.875,0.062c2.908,3.245,5.359,6.804,7.366,10.669C1093.129,236.721,1093.149,236.854,1093.217,237.079z
			"/>
		<path fill-rule="evenodd" clip-rule="evenodd" fill="#FFFFFF" d="M1054.429,223.407c0.366-1.148,0.71-2.278,1.088-3.398
			c0.942-2.83,1.919-5.65,2.84-8.487c0.217-0.662,0.508-0.863,1.206-0.711c3.784,0.823,7.436,2.025,10.919,3.724
			c0.183,0.091,0.353,0.211,0.593,0.354c-0.143,0.232-0.248,0.437-0.383,0.619c-2.714,3.675-5.444,7.336-8.134,11.03
			c-0.463,0.635-0.784,0.642-1.463,0.267c-2.009-1.107-4.082-2.091-6.127-3.124C1054.806,223.6,1054.645,223.518,1054.429,223.407z"
			/>
		<path fill-rule="evenodd" clip-rule="evenodd" fill="#FFFFFF" d="M1042.823,211.81c0,2.961-0.02,5.923,0.013,8.883
			c0.008,0.713-0.228,0.904-0.937,0.995c-2.351,0.302-4.698,0.674-7.027,1.117c-0.706,0.133-0.986,0.023-1.192-0.661
			c-0.703-2.328-1.445-4.644-2.204-6.955c-0.183-0.553-0.102-0.842,0.462-1.107c3.149-1.485,6.42-2.592,9.828-3.29
			C1042.921,210.556,1042.963,210.601,1042.823,211.81z"/>
		<path fill-rule="evenodd" clip-rule="evenodd" fill="#FFFFFF" d="M1024.691,227.456c-1.219-1.706-2.425-3.375-3.596-5.068
			c-0.104-0.15-0.076-0.553,0.05-0.678c2.644-2.655,5.62-4.864,8.977-6.673c0.122,0.257,0.229,0.434,0.289,0.624
			c0.748,2.341,1.482,4.688,2.237,7.027c0.148,0.452,0.119,0.735-0.386,0.917c-2.577,0.924-4.972,2.212-7.245,3.73
			C1024.955,227.376,1024.873,227.39,1024.691,227.456z"/>
		<path fill-rule="evenodd" clip-rule="evenodd" fill="#FFFFFF" d="M1020.117,222.756c1.264,1.764,2.453,3.408,3.605,5.079
			c0.078,0.111-0.063,0.506-0.213,0.623c-2.153,1.651-4.024,3.583-5.708,5.699c-0.269,0.337-0.491,0.418-0.851,0.146
			c-0.928-0.701-1.883-1.367-2.796-2.086c-0.145-0.114-0.243-0.491-0.168-0.648C1015.557,228.374,1017.567,225.479,1020.117,222.756
			z"/>
		<path fill-rule="evenodd" clip-rule="evenodd" fill="#FFFFFF" d="M1016.869,235.278c-0.76,1.303-1.518,2.48-2.149,3.721
			c-0.657,1.291-1.215,2.637-1.768,3.978c-0.201,0.489-0.412,0.639-0.945,0.472c-1.506-0.475-1.529-0.455-1.268-2.016
			c0.495-2.956,1.314-5.812,2.698-8.672C1014.604,233.615,1015.712,234.43,1016.869,235.278z"/>
		<path fill-rule="evenodd" clip-rule="evenodd" fill="#FFFFFF" d="M1066.347,247.396c-0.146-0.357-0.339-0.7-0.409-1.067
			c-0.033-0.178,0.118-0.529,0.261-0.58c1.563-0.546,3.14-1.063,4.727-1.537c0.147-0.045,0.515,0.223,0.576,0.411
			c0.101,0.329,0.149,0.985,0.043,1.024C1069.891,246.255,1068.21,246.787,1066.347,247.396z"/>
		<path fill-rule="evenodd" clip-rule="evenodd" fill="#FFFFFF" d="M1020.354,247.396c-1.764-0.566-3.414-1.102-5.067-1.625
			c-0.563-0.178-0.36-0.563-0.234-0.89c0.127-0.328,0.104-0.877,0.731-0.675c1.53,0.493,3.061,0.978,4.576,1.51
			c0.174,0.062,0.354,0.414,0.343,0.622C1020.683,246.662,1020.502,246.977,1020.354,247.396z"/>
		<path fill-rule="evenodd" clip-rule="evenodd" fill="#FFFFFF" d="M1044.109,227.307c0,0.737-0.007,1.474,0.002,2.209
			c0.007,0.388-0.07,0.709-0.543,0.666c-0.413-0.037-1.035,0.141-1.057-0.516c-0.049-1.628-0.036-3.26,0.003-4.889
			c0.017-0.606,0.566-0.406,0.926-0.433c0.363-0.028,0.692,0.016,0.687,0.517c-0.009,0.815-0.002,1.631-0.002,2.446
			C1044.119,227.307,1044.115,227.307,1044.109,227.307z"/>
		<path fill-rule="evenodd" clip-rule="evenodd" fill="#FFFFFF" d="M1028.568,235.125c-1.098-1.513-2.202-3.037-3.341-4.61
			c0.453-0.341,0.821-0.621,1.295-0.979c0.774,1.06,1.511,2.068,2.247,3.08c0.138,0.191,0.264,0.393,0.403,0.584
			C1030.013,234.359,1029.998,234.41,1028.568,235.125z"/>
		<path fill-rule="evenodd" clip-rule="evenodd" fill="#FFFFFF" d="M1056.759,234.173c1.133-1.565,2.214-3.059,3.352-4.634
			c0.443,0.324,0.815,0.596,1.285,0.94c-0.664,0.934-1.297,1.829-1.936,2.721c-0.308,0.429-0.677,0.824-0.924,1.286
			c-0.362,0.67-0.727,0.765-1.239,0.181C1057.16,234.513,1056.993,234.387,1056.759,234.173z"/>
		<path fill-rule="evenodd" clip-rule="evenodd" fill="#FFFFFF" d="M1047.423,224.773c0.351,0.025,0.627,0.045,1.074,0.076
			c-0.192,1.157-0.356,2.255-0.573,3.343c-0.021,0.113-0.395,0.266-0.543,0.216c-0.186-0.063-0.455-0.331-0.438-0.482
			C1047.063,226.891,1047.247,225.864,1047.423,224.773z"/>
		<path fill-rule="evenodd" clip-rule="evenodd" fill="#FFFFFF" d="M1070.125,241.089c-0.169,0.068-0.345,0.124-0.508,0.204
			c-0.821,0.41-1.634,0.846-2.474,1.221c-0.158,0.073-0.59-0.058-0.606-0.142c-0.041-0.258-0.031-0.697,0.122-0.786
			c0.815-0.475,1.667-0.904,2.54-1.254c0.191-0.076,0.537,0.237,0.809,0.372C1070.047,240.833,1070.088,240.961,1070.125,241.089z"
			/>
		<path fill-rule="evenodd" clip-rule="evenodd" fill="#FFFFFF" d="M1050.895,229.094c0.314-0.975,0.612-1.979,0.98-2.958
			c0.053-0.148,0.476-0.285,0.652-0.221c0.163,0.058,0.354,0.429,0.308,0.604c-0.194,0.764-0.466,1.507-0.722,2.255
			C1051.826,229.619,1051.78,229.629,1050.895,229.094z"/>
		<path fill-rule="evenodd" clip-rule="evenodd" fill="#FFFFFF" d="M1039.738,228.113c-0.133,0.085-0.333,0.313-0.534,0.312
			c-0.178-0.001-0.479-0.227-0.516-0.399c-0.19-0.874-0.346-1.76-0.442-2.649c-0.018-0.176,0.252-0.516,0.42-0.542
			c0.189-0.028,0.568,0.19,0.603,0.356C1039.459,226.09,1039.57,227.007,1039.738,228.113z"/>
		<path fill-rule="evenodd" clip-rule="evenodd" fill="#FFFFFF" d="M1022.531,238.294c-0.289,0.86-0.661,0.953-1.254,0.445
			c-0.498-0.428-1.035-0.823-1.596-1.164c-0.655-0.398-0.709-0.772,0.018-1.305C1020.614,236.926,1021.563,237.605,1022.531,238.294
			z"/>
		<path fill-rule="evenodd" clip-rule="evenodd" fill="#FFFFFF" d="M1064.115,238.345c0.947-0.693,1.895-1.386,2.901-2.123
			c0.21,0.281,0.392,0.523,0.626,0.836c-0.913,0.67-1.754,1.34-2.66,1.903c-0.171,0.106-0.607-0.218-0.92-0.342
			C1064.081,238.528,1064.097,238.437,1064.115,238.345z"/>
		<path fill-rule="evenodd" clip-rule="evenodd" fill="#FFFFFF" d="M1054.733,230.583c0.51-1.031,1.021-2.059,1.52-3.065
			c1.026,0.224,1.071,0.309,0.653,1.119c-0.324,0.629-0.673,1.248-0.979,1.886C1055.632,231.13,1055.279,231.121,1054.733,230.583z"
			/>
		<path fill-rule="evenodd" clip-rule="evenodd" fill="#FFFFFF" d="M1031.029,231.114c-0.537-1.056-1.057-2.077-1.574-3.091
			c0.536-0.585,0.901-0.586,1.22,0.105c0.285,0.617,0.592,1.233,0.96,1.804C1032.073,230.609,1031.836,230.921,1031.029,231.114z"/>
		<path fill-rule="evenodd" clip-rule="evenodd" fill="#FFFFFF" d="M1069.377,250.482c-0.105-0.144-0.346-0.33-0.363-0.534
			c-0.016-0.171,0.204-0.49,0.366-0.525c0.895-0.196,1.8-0.349,2.712-0.454c0.166-0.019,0.508,0.241,0.518,0.388
			c0.009,0.204-0.182,0.567-0.347,0.605C1071.371,250.169,1070.462,250.297,1069.377,250.482z"/>
		<path fill-rule="evenodd" clip-rule="evenodd" fill="#FFFFFF" d="M1034.641,225.797c0.336,0.977,0.654,1.924,0.994,2.866
			c0.157,0.438-0.023,0.704-0.427,0.724c-0.189,0.009-0.497-0.213-0.57-0.401c-0.283-0.71-0.445-1.471-0.737-2.177
			C1033.611,226.105,1033.831,225.829,1034.641,225.797z"/>
		<path fill-rule="evenodd" clip-rule="evenodd" fill="#FFFFFF" d="M1014.011,249.93c-0.096-0.827,0.157-1.104,0.885-0.943
			c0.771,0.171,1.565,0.244,2.333,0.429c0.175,0.042,0.423,0.399,0.388,0.549c-0.045,0.187-0.369,0.459-0.544,0.439
			C1016.058,250.29,1015.049,250.099,1014.011,249.93z"/>
		<path fill-rule="evenodd" clip-rule="evenodd" fill="#FFFFFF" d="M1022.03,233.356c0.166-0.188,0.37-0.416,0.606-0.68
			c0.938,0.952,1.746,1.773,2.553,2.588c-0.47,0.841-0.588,0.862-1.234,0.216c-0.615-0.617-1.222-1.239-1.83-1.861
			C1022.092,233.585,1022.09,233.525,1022.03,233.356z"/>
		<path fill-rule="evenodd" clip-rule="evenodd" fill="#FFFFFF" d="M1017.226,240.181c0.913,0.463,1.845,0.901,2.737,1.399
			c0.697,0.387,0.116,0.712-0.113,1.134c-0.969-0.501-1.924-0.95-2.815-1.496c-0.171-0.104-0.1-0.597-0.14-0.91
			C1017.005,240.266,1017.115,240.223,1017.226,240.181z"/>
		<path fill-rule="evenodd" clip-rule="evenodd" fill="#FFFFFF" d="M1015.501,254.564c-0.446,0-0.899,0.05-1.335-0.022
			c-0.207-0.034-0.374-0.303-0.559-0.466c0.19-0.184,0.367-0.515,0.567-0.529c0.864-0.06,1.735-0.054,2.599-0.003
			c0.188,0.011,0.361,0.304,0.543,0.466c-0.186,0.185-0.348,0.484-0.56,0.529C1016.355,254.625,1015.92,254.564,1015.501,254.564z"
			/>
		<path fill-rule="evenodd" clip-rule="evenodd" fill="#FFFFFF" d="M1071.178,254.562c-0.449,0.002-0.906,0.053-1.342-0.021
			c-0.2-0.035-0.355-0.321-0.531-0.494c0.175-0.175,0.342-0.489,0.524-0.499c0.896-0.054,1.797-0.054,2.691,0.001
			c0.167,0.009,0.411,0.332,0.44,0.538c0.022,0.133-0.264,0.426-0.439,0.454C1072.083,254.606,1071.627,254.562,1071.178,254.562z"
			/>
	</g>
	<g>
		<path fill-rule="evenodd" clip-rule="evenodd" fill="#FFFFFF" d="M1098.512,252.78c-7.244-0.005-14.489-0.004-21.731-0.022
			c-0.611-0.001-0.779,0.21-0.847,0.819c-0.259,2.356-0.566,4.709-0.928,7.054c-0.093,0.599,0.006,0.84,0.587,1.022
			c6.052,1.893,12.1,3.8,18.139,5.733c0.654,0.209,0.826-0.1,1.031-0.587c1.708-4.034,2.888-8.219,3.604-12.538
			c0.031-0.18,0.094-0.354,0.145-0.531C1098.512,253.414,1098.512,253.097,1098.512,252.78z"/>
		<path fill-rule="evenodd" clip-rule="evenodd" fill="#FFFFFF" d="M1053.443,297.055c0.835-0.104,1.669-0.202,2.503-0.315
			c0.326-0.046,0.653-0.122,1.058-0.199c-0.203-0.637-0.37-1.188-0.553-1.733c-1.112-3.333-2.241-6.66-3.328-10
			c-0.196-0.606-0.431-0.722-1.066-0.606c-2.333,0.426-4.677,0.786-7.026,1.105c-0.593,0.081-0.828,0.241-0.822,0.858
			c0.034,3.224,0.041,6.448,0.036,9.67c-0.002,0.598,0.23,0.856,0.822,0.906c0.891,0.075,1.774,0.208,2.663,0.314
			C1049.634,297.055,1051.538,297.055,1053.443,297.055z"/>
		<path fill-rule="evenodd" clip-rule="evenodd" fill="#FFFFFF" d="M1010.276,262.46c0.089,0.243,0.179,0.485,0.294,0.807
			c0.501-0.165,0.989-0.279,1.432-0.489c0.162-0.078,0.352-0.418,0.306-0.575c-0.787-2.718-1.229-5.487-1.462-8.335
			c-0.188,1.224-0.379,2.449-0.569,3.673C1010.276,259.18,1010.276,260.82,1010.276,262.46z"/>
		<path fill-rule="evenodd" clip-rule="evenodd" fill="#FFFFFF" d="M1067.242,275.043c-1.266-1.343-2.457-2.605-3.646-3.871
			c-3.237-3.447-6.478-6.894-9.714-10.343c-1.554-1.659-3.097-3.33-4.666-4.974c-0.38-0.4-0.501-0.755-0.36-1.329
			c0.761-3.152-1.084-6.116-4.243-6.898c-2.98-0.739-6.026,1.134-6.816,4.192c-1.042,4.035,2.737,7.892,6.785,6.875
			c0.716-0.179,1.165-0.036,1.68,0.442c4.016,3.75,8.056,7.476,12.093,11.204c2.018,1.866,4.042,3.722,6.066,5.58
			c0.292,0.267,0.592,0.521,0.982,0.862c-0.515,0.466-0.906,0.89-1.365,1.219c-0.508,0.366-0.509,0.667-0.144,1.155
			c2.472,3.302,4.919,6.622,7.371,9.937c0.423,0.574,0.813,1.178,1.285,1.709c0.147,0.168,0.595,0.282,0.77,0.184
			c3.774-2.128,7.232-4.677,10.269-7.781c0.034-0.033,0.038-0.096,0.088-0.247c-1.101-0.796-2.219-1.622-3.353-2.425
			c-3.383-2.405-6.771-4.8-10.157-7.199c-0.898-0.637-0.895-0.629-1.61,0.227C1068.153,274.042,1067.726,274.5,1067.242,275.043z"/>
		<path fill-rule="evenodd" clip-rule="evenodd" fill="#FFFFFF" d="M1093.217,269.905c-1.987-0.636-3.892-1.251-5.803-1.856
			c-4.053-1.283-8.106-2.558-12.16-3.839c-1.142-0.36-1.096-0.345-1.623,0.736c-0.878,1.799-1.795,3.582-2.746,5.343
			c-0.249,0.465-0.256,0.713,0.193,1.031c3.818,2.696,7.625,5.413,11.435,8.125c0.777,0.55,1.559,1.093,2.317,1.664
			c0.336,0.252,0.577,0.271,0.875-0.062c2.908-3.244,5.359-6.804,7.366-10.669C1093.129,270.263,1093.149,270.129,1093.217,269.905z
			"/>
		<path fill-rule="evenodd" clip-rule="evenodd" fill="#FFFFFF" d="M1054.429,283.577c0.366,1.148,0.71,2.278,1.088,3.398
			c0.942,2.83,1.919,5.65,2.84,8.486c0.217,0.663,0.508,0.864,1.206,0.712c3.784-0.824,7.436-2.025,10.919-3.724
			c0.183-0.091,0.353-0.211,0.593-0.354c-0.143-0.232-0.248-0.437-0.383-0.619c-2.714-3.675-5.444-7.337-8.134-11.03
			c-0.463-0.636-0.784-0.642-1.463-0.267c-2.009,1.106-4.082,2.092-6.127,3.123C1054.806,283.384,1054.645,283.466,1054.429,283.577
			z"/>
		<path fill-rule="evenodd" clip-rule="evenodd" fill="#FFFFFF" d="M1042.823,295.174c0-2.961-0.02-5.923,0.013-8.883
			c0.008-0.714-0.228-0.904-0.937-0.995c-2.351-0.302-4.698-0.674-7.027-1.117c-0.706-0.133-0.986-0.023-1.192,0.661
			c-0.703,2.328-1.445,4.644-2.204,6.955c-0.183,0.553-0.102,0.841,0.462,1.107c3.149,1.485,6.42,2.591,9.828,3.29
			C1042.921,296.428,1042.963,296.382,1042.823,295.174z"/>
		<path fill-rule="evenodd" clip-rule="evenodd" fill="#FFFFFF" d="M1024.691,279.528c-1.219,1.706-2.425,3.375-3.596,5.068
			c-0.104,0.15-0.076,0.553,0.05,0.678c2.644,2.655,5.62,4.864,8.977,6.673c0.122-0.258,0.229-0.433,0.289-0.624
			c0.748-2.342,1.482-4.688,2.237-7.027c0.148-0.452,0.119-0.735-0.386-0.917c-2.577-0.924-4.972-2.213-7.245-3.729
			C1024.955,279.607,1024.873,279.594,1024.691,279.528z"/>
		<path fill-rule="evenodd" clip-rule="evenodd" fill="#FFFFFF" d="M1020.117,284.228c1.264-1.764,2.453-3.408,3.605-5.078
			c0.078-0.112-0.063-0.507-0.213-0.623c-2.153-1.652-4.024-3.582-5.708-5.699c-0.269-0.338-0.491-0.419-0.851-0.146
			c-0.928,0.701-1.883,1.367-2.796,2.086c-0.145,0.113-0.243,0.491-0.168,0.648C1015.557,278.61,1017.567,281.504,1020.117,284.228z
			"/>
		<path fill-rule="evenodd" clip-rule="evenodd" fill="#FFFFFF" d="M1016.869,271.705c-0.76-1.302-1.518-2.479-2.149-3.72
			c-0.657-1.291-1.215-2.637-1.768-3.978c-0.201-0.489-0.412-0.639-0.945-0.472c-1.506,0.476-1.529,0.456-1.268,2.016
			c0.495,2.956,1.314,5.812,2.698,8.672C1014.604,273.369,1015.712,272.554,1016.869,271.705z"/>
		<path fill-rule="evenodd" clip-rule="evenodd" fill="#FFFFFF" d="M1066.347,259.587c-0.146,0.356-0.339,0.7-0.409,1.067
			c-0.033,0.178,0.118,0.529,0.261,0.58c1.563,0.546,3.14,1.063,4.727,1.537c0.147,0.045,0.515-0.223,0.576-0.411
			c0.101-0.329,0.149-0.985,0.043-1.025C1069.891,260.728,1068.21,260.197,1066.347,259.587z"/>
		<path fill-rule="evenodd" clip-rule="evenodd" fill="#FFFFFF" d="M1020.354,259.587c-1.764,0.566-3.414,1.102-5.067,1.625
			c-0.563,0.178-0.36,0.563-0.234,0.89c0.127,0.328,0.104,0.877,0.731,0.675c1.53-0.493,3.061-0.978,4.576-1.51
			c0.174-0.063,0.354-0.415,0.343-0.622C1020.683,260.322,1020.502,260.007,1020.354,259.587z"/>
		<path fill-rule="evenodd" clip-rule="evenodd" fill="#FFFFFF" d="M1044.109,279.677c0-0.737-0.007-1.474,0.002-2.209
			c0.007-0.388-0.07-0.709-0.543-0.666c-0.413,0.037-1.035-0.141-1.057,0.516c-0.049,1.628-0.036,3.26,0.003,4.889
			c0.017,0.606,0.566,0.406,0.926,0.433c0.363,0.028,0.692-0.016,0.687-0.517c-0.009-0.815-0.002-1.631-0.002-2.446
			C1044.119,279.677,1044.115,279.677,1044.109,279.677z"/>
		<path fill-rule="evenodd" clip-rule="evenodd" fill="#FFFFFF" d="M1028.568,271.859c-1.098,1.513-2.202,3.037-3.341,4.61
			c0.453,0.341,0.821,0.62,1.295,0.978c0.774-1.059,1.511-2.068,2.247-3.079c0.138-0.192,0.264-0.393,0.403-0.585
			C1030.013,272.625,1029.998,272.573,1028.568,271.859z"/>
		<path fill-rule="evenodd" clip-rule="evenodd" fill="#FFFFFF" d="M1056.759,272.811c1.133,1.565,2.214,3.058,3.352,4.633
			c0.443-0.324,0.815-0.595,1.285-0.94c-0.664-0.934-1.297-1.828-1.936-2.721c-0.308-0.429-0.677-0.824-0.924-1.286
			c-0.362-0.67-0.727-0.765-1.239-0.181C1057.16,272.471,1056.993,272.598,1056.759,272.811z"/>
		<path fill-rule="evenodd" clip-rule="evenodd" fill="#FFFFFF" d="M1047.423,282.211c0.351-0.025,0.627-0.045,1.074-0.076
			c-0.192-1.156-0.356-2.254-0.573-3.343c-0.021-0.113-0.395-0.266-0.543-0.215c-0.186,0.063-0.455,0.331-0.438,0.482
			C1047.063,280.092,1047.247,281.12,1047.423,282.211z"/>
		<path fill-rule="evenodd" clip-rule="evenodd" fill="#FFFFFF" d="M1070.125,265.894c-0.169-0.067-0.345-0.123-0.508-0.204
			c-0.821-0.41-1.634-0.846-2.474-1.222c-0.158-0.072-0.59,0.059-0.606,0.143c-0.041,0.258-0.031,0.697,0.122,0.785
			c0.815,0.475,1.667,0.905,2.54,1.254c0.191,0.077,0.537-0.236,0.809-0.371C1070.047,266.151,1070.088,266.022,1070.125,265.894z"
			/>
		<path fill-rule="evenodd" clip-rule="evenodd" fill="#FFFFFF" d="M1050.895,277.89c0.314,0.976,0.612,1.979,0.98,2.959
			c0.053,0.148,0.476,0.285,0.652,0.221c0.163-0.059,0.354-0.429,0.308-0.604c-0.194-0.764-0.466-1.507-0.722-2.255
			C1051.826,277.366,1051.78,277.354,1050.895,277.89z"/>
		<path fill-rule="evenodd" clip-rule="evenodd" fill="#FFFFFF" d="M1039.738,278.871c-0.133-0.085-0.333-0.313-0.534-0.313
			c-0.178,0.002-0.479,0.227-0.516,0.399c-0.19,0.874-0.346,1.76-0.442,2.649c-0.018,0.175,0.252,0.517,0.42,0.542
			c0.189,0.028,0.568-0.19,0.603-0.357C1039.459,280.894,1039.57,279.977,1039.738,278.871z"/>
		<path fill-rule="evenodd" clip-rule="evenodd" fill="#FFFFFF" d="M1022.531,268.689c-0.289-0.86-0.661-0.953-1.254-0.445
			c-0.498,0.429-1.035,0.823-1.596,1.164c-0.655,0.398-0.709,0.773,0.018,1.305C1020.614,270.058,1021.563,269.379,1022.531,268.689
			z"/>
		<path fill-rule="evenodd" clip-rule="evenodd" fill="#FFFFFF" d="M1064.115,268.639c0.947,0.693,1.895,1.386,2.901,2.123
			c0.21-0.282,0.392-0.523,0.626-0.837c-0.913-0.669-1.754-1.339-2.66-1.902c-0.171-0.106-0.607,0.218-0.92,0.342
			C1064.081,268.456,1064.097,268.547,1064.115,268.639z"/>
		<path fill-rule="evenodd" clip-rule="evenodd" fill="#FFFFFF" d="M1054.733,276.401c0.51,1.031,1.021,2.058,1.52,3.065
			c1.026-0.224,1.071-0.309,0.653-1.119c-0.324-0.629-0.673-1.249-0.979-1.886C1055.632,275.854,1055.279,275.863,1054.733,276.401z
			"/>
		<path fill-rule="evenodd" clip-rule="evenodd" fill="#FFFFFF" d="M1031.029,275.87c-0.537,1.056-1.057,2.078-1.574,3.09
			c0.536,0.586,0.901,0.587,1.22-0.104c0.285-0.618,0.592-1.233,0.96-1.805C1032.073,276.375,1031.836,276.062,1031.029,275.87z"/>
		<path fill-rule="evenodd" clip-rule="evenodd" fill="#FFFFFF" d="M1069.377,256.501c-0.105,0.145-0.346,0.33-0.363,0.534
			c-0.016,0.171,0.204,0.49,0.366,0.525c0.895,0.196,1.8,0.349,2.712,0.453c0.166,0.019,0.508-0.241,0.518-0.387
			c0.009-0.203-0.182-0.567-0.347-0.605C1071.371,256.814,1070.462,256.687,1069.377,256.501z"/>
		<path fill-rule="evenodd" clip-rule="evenodd" fill="#FFFFFF" d="M1034.641,281.187c0.336-0.977,0.654-1.924,0.994-2.866
			c0.157-0.438-0.023-0.704-0.427-0.724c-0.189-0.009-0.497,0.213-0.57,0.401c-0.283,0.711-0.445,1.471-0.737,2.178
			C1033.611,280.879,1033.831,281.154,1034.641,281.187z"/>
		<path fill-rule="evenodd" clip-rule="evenodd" fill="#FFFFFF" d="M1014.011,257.054c-0.096,0.827,0.157,1.104,0.885,0.943
			c0.771-0.171,1.565-0.245,2.333-0.429c0.175-0.043,0.423-0.398,0.388-0.549c-0.045-0.188-0.369-0.459-0.544-0.439
			C1016.058,256.694,1015.049,256.884,1014.011,257.054z"/>
		<path fill-rule="evenodd" clip-rule="evenodd" fill="#FFFFFF" d="M1022.03,273.627c0.166,0.188,0.37,0.415,0.606,0.68
			c0.938-0.951,1.746-1.772,2.553-2.588c-0.47-0.842-0.588-0.862-1.234-0.216c-0.615,0.617-1.222,1.239-1.83,1.862
			C1022.092,273.398,1022.09,273.459,1022.03,273.627z"/>
		<path fill-rule="evenodd" clip-rule="evenodd" fill="#FFFFFF" d="M1017.226,266.803c0.913-0.462,1.845-0.9,2.737-1.399
			c0.697-0.388,0.116-0.712-0.113-1.134c-0.969,0.501-1.924,0.951-2.815,1.497c-0.171,0.103-0.1,0.597-0.14,0.91
			C1017.005,266.718,1017.115,266.761,1017.226,266.803z"/>
		<path fill-rule="evenodd" clip-rule="evenodd" fill="#FFFFFF" d="M1015.501,252.419c-0.446,0-0.899-0.05-1.335,0.022
			c-0.207,0.034-0.374,0.303-0.559,0.465c0.19,0.185,0.367,0.516,0.567,0.529c0.864,0.061,1.735,0.055,2.599,0.003
			c0.188-0.01,0.361-0.304,0.543-0.466c-0.186-0.185-0.348-0.484-0.56-0.529C1016.355,252.358,1015.92,252.419,1015.501,252.419z"/>
		<path fill-rule="evenodd" clip-rule="evenodd" fill="#FFFFFF" d="M1071.178,252.421c-0.449-0.001-0.906-0.053-1.342,0.021
			c-0.2,0.036-0.355,0.322-0.531,0.494c0.175,0.175,0.342,0.489,0.524,0.499c0.896,0.054,1.797,0.054,2.691-0.001
			c0.167-0.009,0.411-0.332,0.44-0.538c0.022-0.133-0.264-0.426-0.439-0.454C1072.083,252.377,1071.627,252.421,1071.178,252.421z"
			/>
	</g>
</g>
<g>
	<path fill-rule="evenodd" clip-rule="evenodd" fill="#FFFFFF" d="M74.255,339.906c1.747,0,3.498,0,5.248,0
		c0.252,0.057,0.499,0.131,0.752,0.166c1.874,0.254,3.77,0.395,5.62,0.77c19.22,3.885,33.761,20.186,35.48,39.786
		c1.004,11.451-1.907,21.847-8.833,31.019c-1.903,2.517-4.267,4.684-6.417,7.008c-19.484,0-38.967,0-58.451,0
		c-0.141-0.146-0.275-0.295-0.422-0.433c-13.534-12.842-18.34-28.445-13.059-46.29c5.133-17.345,17.294-27.713,35.078-31.329
		C70.897,340.268,72.585,340.134,74.255,339.906z M76.879,415.403c0-0.005,0-0.005,0-0.006c8.895,0,17.791-0.014,26.686,0.023
		c0.96,0.002,1.632-0.271,2.282-0.958c11.808-12.386,15.495-26.816,10.224-43.115c-6.396-19.785-27.031-31.513-47.452-27.381
		c-18.543,3.751-32.516,20.071-33.174,38.92c-0.434,12.469,3.898,23.104,12.779,31.882c0.475,0.468,0.955,0.647,1.617,0.647
		C58.854,415.394,67.866,415.403,76.879,415.403z"/>
	<path fill-rule="evenodd" clip-rule="evenodd" fill="#FFFFFF" d="M101.963,407.998c5.384-6.372,8.284-13.459,8.783-21.663
		c-1.667,0-3.198,0-4.79,0c0-1.099,0-2.101,0-3.212c1.587,0,3.145,0,4.796,0c-0.391-8.25-3.23-15.399-8.509-21.761
		c-1.071,1.175-2.088,2.285-3.077,3.367c-0.877-0.907-1.598-1.649-2.309-2.388c1.73-1.755,3.566-3.616,5.398-5.475
		c15.083,13.782,16.248,40.12-0.208,55.557c-1.858-1.958-3.717-3.916-5.546-5.84c0.61-0.581,1.358-1.295,2.135-2.037
		C99.62,405.568,100.746,406.734,101.963,407.998z"/>
	<path fill-rule="evenodd" clip-rule="evenodd" fill="#FFFFFF" d="M89.011,356.508c-0.516,2.178-1.027,4.354-1.546,6.531
		c-1.282,5.408-2.579,10.815-3.834,16.231c-0.085,0.366,0.018,0.865,0.214,1.197c1.833,3.113,1.563,6.817-0.737,9.535
		c-2.221,2.625-5.945,3.555-9.133,2.281c-3.284-1.311-5.31-4.509-5.122-8.082c0.192-3.688,2.991-6.774,6.836-7.447
		c0.624-0.108,0.943-0.386,1.249-0.89c3.779-6.225,7.579-12.439,11.372-18.656c0.163-0.267,0.344-0.52,0.519-0.779
		C88.89,356.457,88.95,356.482,89.011,356.508z M81.815,384.689c-0.01-2.662-2.183-4.861-4.815-4.873
		c-2.728-0.013-4.941,2.205-4.938,4.948c0.006,2.692,2.209,4.864,4.921,4.851C79.689,389.602,81.826,387.42,81.815,384.689z"/>
	<path fill-rule="evenodd" clip-rule="evenodd" fill="#FFFFFF" d="M51.538,408.028c1.725-1.731,3.443-3.457,5.172-5.193
		c0.654,0.67,1.36,1.395,2.004,2.05c-1.718,1.697-3.462,3.423-5.228,5.168C52.939,409.484,52.238,408.756,51.538,408.028z"/>
	<path fill-rule="evenodd" clip-rule="evenodd" fill="#FFFFFF" d="M78.461,348.935c0,2.14,0,4.229,0,6.397c-1.027,0-2.025,0-3.091,0
		c0-2.104,0-4.215,0-6.397C76.346,348.935,77.347,348.935,78.461,348.935z"/>
	<path fill-rule="evenodd" clip-rule="evenodd" fill="#FFFFFF" d="M41.479,386.326c0-1.141,0-2.117,0-3.2c1.112,0,2.179,0,3.246,0
		c1.042,0,2.082,0,3.181,0c0,1.078,0,2.078,0,3.121c-0.226,0.027-0.422,0.074-0.615,0.074
		C45.375,386.327,43.461,386.326,41.479,386.326z"/>
	<path fill-rule="evenodd" clip-rule="evenodd" fill="#FFFFFF" d="M54.183,364.553c-1.163-1.146-2.34-2.307-3.501-3.451
		c0.739-0.696,1.491-1.407,2.201-2.077c1.067,1.071,2.254,2.261,3.447,3.456C55.636,363.151,54.907,363.855,54.183,364.553z"/>
</g>
<rect x="209" y="716" fill="#FFFFFF" width="69" height="17"/>
<ellipse fill="#333333" cx="243.125" cy="731.231" rx="35.381" ry="11.451"/>
<rect x="527" y="713" fill="#FFFFFF" width="70" height="18"/>
<ellipse fill="#333333" cx="561.986" cy="728.346" rx="35.381" ry="11.451"/>
<rect x="840" y="716" fill="#FFFFFF" width="70" height="17"/>
<ellipse fill="#333333" cx="875.076" cy="731.231" rx="35.381" ry="11.451"/>
<g>
	<polygon fill="#FFFFFF" points="467.576,54.921 516.69,143.31 464.692,56.586 	"/>
</g>
<g>
	<polygon fill="#FFFFFF" points="664,16.62 575.968,149.818 660.998,14.683 	"/>
</g>
<ellipse fill="#FFFFFF" stroke="#FFFFFF" stroke-width="1.5318" stroke-miterlimit="10" cx="460.47" cy="48.238" rx="14.183" ry="13.238"/>
<ellipse fill="#FFFFFF" stroke="#FFFFFF" stroke-width="1.04" stroke-miterlimit="10" cx="661.911" cy="14.894" rx="11.089" ry="10.106"/>
<path fill-rule="evenodd" clip-rule="evenodd" fill="#FFFFFF" d="M1116.201,408.128c0-72.197-0.016-144.396-0.029-216.594
	c0-19.81-11.768-32.291-30.646-32.304c-33.038-0.015-65.784-0.072-98.809-0.072C916.744,159.202,846.771,159,776.98,159h-3.561
	c-0.252,0-0.514,0.215-0.766,0.215c-9.516-0.014-19.03,0.021-28.546,0.036c-5.885,0-11.768-0.075-17.653-0.06
	c-0.764-0.058-1.556-0.191-2.363-0.191h-18.977c-8.707,0-17.416,0.143-26.122,0.158c-0.962,0-1.907,0.05-2.867,0.064
	c-37.352-25.335-81.977-40.141-129.914-40.141c-47.896,0-92.495,14.919-129.817,39.919h-0.015c-0.442,0-0.884,0.626-1.314,0.991
	c0.127-0.003,0.254-0.024,0.381-0.04c0.662-0.153,1.321-0.332,1.977-0.533c0.26-0.095,0.519-0.19,0.778-0.278
	c0.028,0,0.056,0.035,0.083,0.035c-0.028,0-0.055,0.004-0.083,0.004c-0.259,0.087-0.519,0.159-0.778,0.238
	c-0.656,0.239-1.315,0.453-1.977,0.533c-0.157,0.037-0.313,0.082-0.471,0.115c0.03-0.022,0.06-0.05,0.09-0.076
	c-0.03,0-0.06,0.009-0.09,0.009h-0.015c-0.654,0-1.307,0-1.975,0.029c-2.602,0.115-5.245-0.029-7.958-0.029h-10.906
	c-0.214,0-0.426,0.016-0.638,0.035c-0.019,0.004-0.039,0.007-0.058,0.011c-0.459,0.101-0.905,0.225-1.335,0.326
	c-1.322,0.346-2.588,0.768-3.812,1.273c0.139-0.043,0.264-0.11,0.403-0.152c-0.139,0.042-0.264,0.083-0.403,0.142
	c1.656-0.62,3.391-1.435,5.204-1.6c2.376-0.513,4.901-0.887,7.565-0.902c5.105-0.014,10.211-0.133,15.33-0.133H381v0.359
	c-81,0-161.658,0.015-242.619-0.014c-33.026,0-65.917-0.13-98.941-0.115c-18.878,0.014-30.587,12.495-30.587,32.304
	C8.84,263.732,8.87,335.931,8.87,408.128c-0.014,70.77,0.015,141.54,0.015,212.324c0,22.133-0.013,44.279,0.042,66.411
	c0.042,17.041,10.156,28.799,26.362,30.66c3.186,0.376,6.428,0.376,9.641,0.376c118.519,0.014,237.052,0.014,355.573,0.028
	c-0.417-0.023-0.829-0.06-1.242-0.094c-2.256-0.112-4.467-0.357-6.611-0.916c2.16,0.407,4.367,0.768,6.611,0.952
	c1.184,0.06,2.379,0.13,3.586,0.13c-0.781,0-1.563,0-2.344,0c0.758,0,1.52,0,2.288,0h28.462c4.813,0,9.626-0.072,14.439-0.059
	c47.27,0,94.539-0.049,141.821-0.049c42.348,0,84.663-0.012,126.994-0.042c-5.619-0.014-11.225,0.149-16.845,0.149h27.617
	c0.464-0.017,0.926-0.041,1.387-0.088c0.403-0.043,0.793,0.088,1.196,0.088h-2.583c-0.993,0.036-1.994,0.025-3.01,0.035
	c119.3-0.014,238.587-0.068,357.89-0.082c3.212,0,6.453-0.026,9.639-0.402c16.207-1.861,26.318-13.633,26.362-30.674
	c0.07-22.132,0.026-44.285,0.026-66.418C1116.201,549.675,1116.201,478.897,1116.201,408.128z M77.359,199.109
	c27.804,0.274,50.643,24.47,50.73,54.307c0.087,29.938-22.884,54.236-51.379,54.351c-28.755,0.13-52.273-24.225-52.157-54.192
	C24.669,225.627,45.099,198.777,77.359,199.109z M76.321,332.611c28.856,0.029,51.869,24.211,51.782,54.409
	c-0.101,30.153-23.344,54.422-52.012,54.307c-28.424-0.13-51.639-24.772-51.552-54.755
	C24.611,356.793,47.854,332.582,76.321,332.611z M130.844,634.418c-1.341,1.356-4.025,1.832-6.132,1.861
	c-20.329,0.201-40.657,0.289-60.987,0.289c-12.769,0-25.552-0.245-38.335-0.218c-4.386,0.03-5.179-3.231-4.703-5.988
	c0.303-1.831,3.145-4.528,4.891-4.558c16.636-0.36,33.286-0.217,49.459-0.217c2.222,0.103,3.968,0.246,5.728,0.246
	c15.251-0.016,30.501-0.144,45.751,0.028c1.732,0.015,4.242,1.342,4.95,2.785C132.216,630.191,131.941,633.278,130.844,634.418z
	 M125.102,609.573c-16.145-0.073-32.29-0.029-48.435-0.029c-16.333,0-32.665-0.072-48.984,0.044
	c-4.068,0.014-7.214-1.011-7.112-5.656c0.101-4.415,3.26-5.093,7.041-5.093c32.477,0.086,64.956,0.071,97.433,0.029
	c3.636-0.016,6.911,0.303,7.056,4.992C132.244,608.722,129.128,609.588,125.102,609.573z M125.001,582.637
	c-16.318-0.058-32.622-0.03-48.955-0.03c-16.13,0-32.275-0.044-48.435,0.03c-3.723,0.014-6.911-0.693-7.026-5.152
	c-0.13-4.833,3.203-5.468,7.156-5.468c32.463,0.071,64.912,0.058,97.375,0.014c3.665-0.014,6.882,0.419,6.983,5.094
	C132.229,582.102,128.911,582.65,125.001,582.637z M125.42,555.684c-16.145-0.086-32.305-0.044-48.45-0.044
	c-16.491,0-32.982-0.072-49.488,0.058c-3.824,0.03-6.868-0.705-6.911-5.18c-0.029-4.327,2.784-5.467,6.709-5.452
	c32.65,0.072,65.301,0.058,97.938,0c3.766,0,6.81,0.706,6.882,5.266C132.187,554.918,129.243,555.714,125.42,555.684z
	 M125.015,528.905c-16.145-0.087-32.289-0.043-48.435-0.029c-16.505,0-33.011-0.058-49.517,0.059
	c-3.751,0.014-6.391-1.14-6.478-5.151c-0.101-4.285,2.568-5.568,6.594-5.568c32.651,0.085,65.301,0.071,97.952,0.027
	c3.68,0,6.868,0.492,6.969,5.137C132.216,528.313,128.998,528.935,125.015,528.905z M125.102,502.112
	c-32.477-0.043-64.969-0.059-97.447,0.029c-4.068,0.015-7.199-0.938-7.069-5.642c0.115-4.444,3.246-5.15,7.026-5.137
	c16.16,0.115,32.318,0.044,48.464,0.058c16.333,0,32.665,0.044,48.998-0.043c3.982-0.015,7.156,0.664,7.027,5.599
	C131.97,501.608,128.782,502.112,125.102,502.112z M986,692.41c0,8.058-6.504,14.59-14.528,14.59H155.528
	c-8.024,0-14.528-6.532-14.528-14.59V190.59c0-8.058,6.504-14.59,14.528-14.59h815.943c8.024,0,14.528,6.532,14.528,14.59V692.41z
	 M1051.154,199.109c32.261-0.332,52.69,26.518,52.807,54.466c0.115,29.967-23.402,54.322-52.157,54.192
	c-28.495-0.115-51.48-24.413-51.379-54.351C1000.511,223.579,1023.336,199.383,1051.154,199.109z M1052.179,332.611
	c28.466-0.029,51.71,24.182,51.796,53.961c0.088,29.982-23.128,54.625-51.564,54.755c-28.655,0.115-51.913-24.153-51.999-54.307
	C1000.323,356.822,1023.322,332.641,1052.179,332.611z M1003.44,491.378c16.333,0.087,32.664,0.043,48.983,0.043
	c16.16-0.014,32.319,0.058,48.478-0.058c3.767-0.014,6.911,0.692,7.027,5.137c0.114,4.704-3.001,5.656-7.069,5.642
	c-32.493-0.088-64.97-0.072-97.463-0.029c-3.665,0-6.854-0.504-6.982-5.136C996.284,492.042,999.458,491.363,1003.44,491.378z
	 M1003.382,518.242c32.651,0.044,65.302,0.058,97.954-0.027c4.01,0,6.693,1.283,6.579,5.568c-0.087,4.012-2.727,5.165-6.479,5.151
	c-16.491-0.116-32.997-0.059-49.502-0.059c-16.146-0.014-32.29-0.058-48.449,0.029c-3.969,0.029-7.187-0.592-7.07-5.526
	C996.515,518.734,999.689,518.242,1003.382,518.242z M1003.297,545.065c32.637,0.058,65.287,0.072,97.923,0
	c3.938-0.015,6.752,1.125,6.709,5.452c-0.029,4.475-3.073,5.21-6.897,5.18c-16.506-0.13-32.996-0.058-49.502-0.058
	c-16.146,0-32.29-0.042-48.436,0.044c-3.822,0.03-6.78-0.766-6.694-5.353C996.486,545.771,999.53,545.065,1003.297,545.065z
	 M1003.382,572.03c32.464,0.044,64.927,0.058,97.39-0.014c3.954,0,7.287,0.635,7.157,5.468c-0.116,4.459-3.305,5.166-7.041,5.152
	c-16.145-0.074-32.29-0.03-48.436-0.03c-16.317,0-32.635-0.027-48.954,0.03c-3.91,0.014-7.214-0.535-7.099-5.513
	C996.501,572.449,999.731,572.017,1003.382,572.03z M1103.109,636.351c-12.768-0.027-25.552,0.218-38.319,0.218
	c-20.332,0-40.659-0.088-60.989-0.289c-2.106-0.029-4.791-0.505-6.131-1.861c-1.111-1.14-1.372-4.227-0.621-5.771
	c0.691-1.443,3.217-2.771,4.948-2.785c15.251-0.172,30.501-0.044,45.738-0.028c1.759,0,3.505-0.144,5.741-0.246
	c16.159,0,32.81-0.144,49.446,0.217c1.759,0.029,4.587,2.727,4.89,4.558C1108.289,633.119,1107.495,636.381,1103.109,636.351z
	 M1100.815,609.588c-16.318-0.116-32.637-0.044-48.97-0.044c-16.144,0-32.303-0.044-48.449,0.029
	c-4.01,0.015-7.127-0.852-6.982-5.713c0.145-4.689,3.419-5.008,7.055-4.992c32.479,0.042,64.941,0.057,97.419-0.029
	c3.78,0,6.954,0.678,7.055,5.093C1108.043,608.577,1104.898,609.602,1100.815,609.588z"/>
</svg>
